<svg xmlns="http://www.w3.org/2000/svg" viewBox="0 0 59.45 12.7">
  <path fill="#204499" d="M6.9 9.65H4.72L2.64 5.88l-.72.54v3.23H0V.59h1.92v4.36l.75-1.28L4.75.59h2.13l-2.9 4.08zm2.57-3.48q0 1.04.3 1.57.28.52.94.52.65 0 .94-.53.3-.53.3-1.56t-.3-1.54q-.29-.51-.95-.51-.65 0-.94.51-.29.5-.29 1.54zm4.4 0q0 .87-.22 1.54t-.63 1.13q-.41.46-1 .7-.6.24-1.33.24-.7 0-1.27-.24-.58-.24-1-.7-.41-.46-.65-1.13-.23-.67-.23-1.54 0-.86.21-1.53.23-.67.64-1.12.41-.46 1-.7.59-.23 1.33-.23.7 0 1.27.24.58.23 1 .69.41.45.65 1.12.23.67.23 1.53zm5.25-3.58h.16q.1 0 .17.02.1 0 .16.02.07 0 .11.02v1.77l-.13-.03-.2-.01q-.08-.02-.18-.02h-.15q-.37 0-.68.1-.3.08-.53.3-.21.2-.34.54-.11.34-.11.82v3.53h-1.9V2.72h1.44l.28 1.04h.09q.15-.26.32-.48.18-.22.39-.37.21-.15.48-.23.27-.09.62-.09zm4.72 5.68q.27 0 .52-.06t.51-.16v1.41q-.26.14-.66.22-.39.1-.85.1-.46 0-.85-.1-.39-.11-.67-.37-.29-.27-.46-.71-.16-.45-.16-1.12V4.14h-.9v-.8l1.04-.63.54-1.47h1.21v1.48h1.69v1.42h-1.69v3.34q0 .4.2.6.2.2.52.2zm8.17-5.54v1.03l-1 .32q.12.2.17.44.04.22.04.48 0 .53-.16.97-.17.43-.5.74-.33.31-.82.49-.5.17-1.16.17l-.3-.02-.26-.03q-.12.1-.2.22-.06.11-.06.27 0 .13.08.21.08.08.21.13.13.04.3.06l.36.01h1.08q.5 0 .9.12.4.11.67.35.28.23.43.6.15.36.15.86 0 .59-.24 1.06-.23.48-.7.8-.47.34-1.16.51-.7.18-1.61.18-.7 0-1.23-.13t-.89-.39q-.35-.24-.53-.6-.17-.35-.17-.8 0-.38.13-.66.13-.27.35-.47.21-.2.49-.33.27-.12.57-.19-.13-.05-.26-.15-.13-.1-.23-.23t-.17-.29q-.06-.16-.06-.33 0-.2.05-.36.06-.16.18-.3.1-.14.28-.27l.37-.25q-.54-.24-.86-.76-.32-.52-.32-1.22 0-.56.17-1 .18-.44.51-.75.34-.3.83-.47.5-.16 1.14-.16l.28.02q.16.01.3.04.16.01.3.04l.2.04zm-4.96 7.9q0 .16.06.3.07.15.22.26.15.11.4.17.23.07.59.07.96 0 1.45-.27.5-.27.5-.73 0-.4-.31-.52-.3-.13-.94-.13h-.88q-.16 0-.36.03-.19.05-.35.15-.16.1-.27.26-.1.17-.1.41zm.68-5.64q0 .56.21.87.22.31.64.31.45 0 .65-.3.2-.32.2-.88t-.2-.89q-.2-.33-.65-.33-.85 0-.85 1.22zm8.36-1.05q-.5 0-.84.35-.33.35-.38 1.1h2.41q0-.3-.08-.57-.07-.27-.22-.46-.15-.2-.37-.31-.23-.11-.52-.11zm.24 5.84q-.75 0-1.37-.22-.63-.22-1.08-.65-.45-.44-.7-1.1-.26-.67-.26-1.57 0-.91.23-1.6.23-.68.64-1.13.42-.46 1-.69.58-.23 1.28-.23.7 0 1.24.21.56.2.95.6.39.41.6 1 .2.58.2 1.34v.92h-4.23q.02.4.13.72.12.31.32.54.21.21.5.33.3.12.68.12.31 0 .6-.03.28-.04.55-.1.26-.07.52-.17t.54-.25v1.47q-.25.13-.5.22t-.53.15q-.28.06-.6.09-.33.03-.71.03zm8.03-7.19q.53 0 .97.23.44.23.76.68.32.45.49 1.12.18.67.18 1.55 0 .9-.18 1.57-.17.67-.5 1.13-.32.45-.77.68-.46.23-1 .23-.35 0-.62-.08-.27-.07-.48-.2-.2-.12-.37-.27-.16-.17-.29-.34h-.13l-.31.76h-1.45V0h1.9v2.25l-.02.45-.02.44-.04.48h.07q.13-.22.3-.4.17-.19.39-.33t.5-.22q.28-.08.62-.08zm-.64 1.51q-.32 0-.54.12-.22.11-.35.34-.14.23-.2.59-.06.34-.08.8v.21q0 .5.06.9.06.39.2.65.13.26.36.4.23.14.56.14.57 0 .83-.54t.26-1.56q0-1.02-.26-1.53-.26-.52-.84-.52zm3.67-1.38h2.07l1.12 3.9q.1.32.14.69.05.37.06.66h.04l.03-.32.06-.35.07-.36.08-.32 1.1-3.9h2.08l-2.74 7.82q-.39 1.1-1.05 1.63-.67.53-1.66.53-.33 0-.56-.03-.24-.03-.4-.07v-1.5l.32.05q.2.03.42.03.3 0 .5-.08.22-.08.37-.23.15-.14.26-.35.11-.2.19-.46l.12-.34zm11.45-.13h.17q.09 0 .17.02.09 0 .15.02.08 0 .12.02v1.77l-.14-.03-.19-.01-.18-.02h-.16q-.36 0-.67.1-.3.08-.53.3-.22.2-.34.54-.12.34-.12.82v3.53h-1.9V2.72h1.44l.28 1.04h.1q.14-.26.32-.48.17-.22.38-.37.22-.15.48-.23.28-.09.62-.09z"/>
</svg>
