<svg xmlns="http://www.w3.org/2000/svg" viewBox="0 0 283.5 82.9">
  <title>Nets</title>
	<path fill="#005776" d="M1.3 81.6A1.2 1.2 0 0 1 0 80.3V25a1.7 1.7 0 0 1 1-1.7 59.3 59.3 0 0 1 22.8-4.6c16 0 26.8 7.5 26.8 25.7v35.8c0 .8-.5 1.3-1.4 1.3h-7a1.2 1.2 0 0 1-1.3-1.3V44.7c0-12.4-6.3-17.1-17-17.1a49 49 0 0 0-14 2.1v50.6c0 .8-.5 1.3-1.5 1.3zM114.3 54.1c0 1-.5 1.4-1.3 1.4H74.1v5c0 9 6.7 13.7 15.5 13.7 8.2 0 13.8-3.2 18.2-6.6a1.3 1.3 0 0 1 1.9.3l3.4 4.5a1.2 1.2 0 0 1-.2 2 35.5 35.5 0 0 1-23.6 8.5c-12.8 0-25-7.4-25-22.4v-18c0-16.3 12-23.7 25.1-23.7s24.9 7.4 24.9 23.7zM89.5 27.6c-9 0-15.4 4.6-15.4 14.8v5h30.7v-5c0-10-6.7-14.8-15.3-14.8zM148.8 73.8c1.3 0 3.6 0 5.7-.2 1 0 1.4.5 1.4 1.3v6.3a1.3 1.3 0 0 1-1.1 1.4l-6.5.3c-11.9 0-20.7-6.4-20.7-21V6.3a1.3 1.3 0 0 1 1.5-1.4h6.1c.8 0 1.2.5 1.4 1.3l.8 14.4h15.4a1.2 1.2 0 0 1 1.3 1.3v6c0 1-.4 1.4-1.3 1.4h-15.4v32c0 7.8 4 12.4 11.4 12.4zM186.3 82.9a39.5 39.5 0 0 1-23.6-7.6 1.4 1.4 0 0 1-.3-2l3.2-5.4c.4-.8 1-1 1.9-.4a31.6 31.6 0 0 0 19 6.7c8 0 14-3.3 14-9.5 0-6.7-7.4-8.2-14-9.5-8.6-1.8-23.2-5.1-23.2-19 0-12 11.5-17.4 23.4-17.4a41 41 0 0 1 20.7 5.6 1 1 0 0 1 .5 1.7l-3.2 5.4a1.1 1.1 0 0 1-1.8.5 35.8 35.8 0 0 0-16.7-4.4c-8.3 0-13.3 3.3-13.3 8.7 0 6.5 7 8.3 15.5 10 9.5 1.9 22 4.6 22 18 0 12-10.2 18.6-24.1 18.6z"/>
	<circle fill="#00bef0" class="cls-2" cx="241.9" cy="13.8" r="13.8"/>
	<circle fill="#00bef0" class="cls-2" cx="271.3" cy="13.8" r="8.8"/>
	<circle fill="#00bef0" class="cls-2" cx="271.3" cy="43.1" r="12.2"/>
	<circle fill="#00bef0" class="cls-2" cx="241.9" cy="72.4" r="10.5"/>
</svg>
