<svg xmlns="http://www.w3.org/2000/svg" viewBox="0 0 126.3 15">
  <title>2Checkout</title>
  <path fill="#231F20" d="M118 14.7h4v-11h4.3V.4h-12.6V4h4.3v11zm-12 .3c4 0 6.8-2 6.8-6.7v-8h-4v8c0 2-1 3-2.8 3-1.6 0-2.7-1-2.7-3v-8h-4v8c0 4.6 2.6 6.7 6.7 6.7m-15.7-3.6c-2.2 0-3.7-1.8-3.7-4 0-2 1.5-3.8 3.6-3.8 2.2 0 3.7 1.8 3.7 4 0 2-2 3.8-4 3.8m0 3.6c4 0 7.3-3.4 7.3-7.5C98 3.3 94.3 0 90 0s-7.7 3.4-7.7 7.5c0 4.2 3.3 7.5 7.7 7.5m-20.3-.3h4V11L75 9.4l3.7 5.4h4.8L78 6.6 83.5.4h-4.7l-5 5.8v-6h-4v14.5zM62 15c3.3 0 5-1.4 6.5-3.3l-3-2c-1 1-1.7 1.7-3.3 1.7-2 0-3.4-1.7-3.4-3.8 0-2 1.2-3.8 3.2-3.8 1.4 0 2.3.7 3.2 1.7l3-2.3c-1.3-1.8-3.2-3-6-3-4.5 0-7.7 3.3-7.7 7.5 0 4 3.3 7.3 7.4 7.3m-20-.3h12v-3.4h-8V9h7V6h-7V3.6h8V.3H42v14.4zm-15 0h4V9.2h5v5.5h4V.3h-4v5.4h-5V.3h-4v14.4zm-8 .3c3.2 0 5-1.4 6.4-3.3l-3-2c-1 1-1.8 1.7-3.3 1.7-2 0-3.4-1.7-3.4-3.8 0-2 1.3-3.8 3.3-3.8 1.3 0 2.2.7 3 1.7L26 3c-1.3-1.8-3.2-3-6-3-4.5 0-7.7 3.3-7.7 7.5 0 4.3 3.3 7.5 7.5 7.5M0 14.7h11.4v-3.3h-6L8 9.7c2-1.5 3-2.7 3-5C11.2 2 9.2 0 6 0 3 0 1.5 1 0 3l3 2.4c1-1.3 2-2 3-2S7 4.2 7 5c0 1-.5 1.5-2 2.6l-5.2 4v3z"/>
</svg>
