<svg xmlns="http://www.w3.org/2000/svg" width="90" height="30" viewBox="0 0 90 30">
    <path fill="#0abf53" d="M27.785 18.523h-1.73c-.5 0-.91-.41-.91-.91V6.622H21.71a3.195 3.195 0 0 0-3.186 3.186v9.512a3.195 3.195 0 0 0 3.186 3.186h12.698V0h-6.622v18.523Zm-15.087-11.9H.228v3.959H8.35c.501 0 .91.41.91.91v7.031H7.533c-.5 0-.91-.41-.91-.91v-5.052H3.186A3.195 3.195 0 0 0 0 15.747v3.55a3.195 3.195 0 0 0 3.186 3.186h12.698V9.785c0-1.73-1.434-3.163-3.186-3.163Zm31.904 11.9h1.73v-11.9h6.621v19.319a3.195 3.195 0 0 1-3.186 3.186h-12.47v-4.642h9.034v-1.98h-6.076a3.195 3.195 0 0 1-3.185-3.186V6.622h6.622v10.991c0 .5.41.91.91.91Zm23.689-11.9H55.593V19.32a3.195 3.195 0 0 0 3.186 3.186h12.47v-3.96h-8.124c-.5 0-.91-.41-.91-.91v-7.054h1.73c.5 0 .91.41.91.91v5.052h3.436a3.195 3.195 0 0 0 3.186-3.186v-3.55a3.195 3.195 0 0 0-3.186-3.186Zm5.825 0h12.698A3.176 3.176 0 0 1 90 9.784v12.698h-6.622V11.492c0-.5-.41-.91-.91-.91h-1.73v11.924h-6.622V6.622Z"/>
</svg>
