<svg xmlns="http://www.w3.org/2000/svg" viewBox="0 0 90 30">
  <title>Adyen</title>
  <path fill="#0abf53" d="M27.8 18.5H26a1 1 0 0 1-1-.9v-11h-3.4a3.2 3.2 0 0 0-3.2 3.2v9.5a3.2 3.2 0 0 0 3.2 3.2h12.7V0h-6.6v18.5ZM12.7 6.6H.2v4h8.2c.5 0 .9.4.9.9v7H7.5a1 1 0 0 1-.9-.9v-5H3.2A3.2 3.2 0 0 0 0 15.7v3.6a3.2 3.2 0 0 0 3.2 3.2h12.7V9.8c0-1.7-1.4-3.2-3.2-3.2Zm31.9 12h1.7v-12H53V26a3.2 3.2 0 0 1-3.2 3.2H37.3v-4.6h9v-2h-6a3.2 3.2 0 0 1-3.2-3.2V6.6h6.6v11c0 .5.4 1 .9 1Zm23.7-12H55.6v12.7a3.2 3.2 0 0 0 3.2 3.2h12.4v-4h-8a1 1 0 0 1-1-.9v-7H64c.5 0 1 .4 1 .9v5h3.4a3.2 3.2 0 0 0 3.2-3.1V9.8a3.2 3.2 0 0 0-3.2-3.2Zm5.8 0h12.7A3.2 3.2 0 0 1 90 9.8v12.7h-6.6v-11c0-.5-.4-1-1-1h-1.7v12h-6.6V6.6Z"/>
</svg>
