<svg xmlns="http://www.w3.org/2000/svg" viewBox="0 0 3622.1 668.4">
  <title>DanDomain</title>
  <path fill="#F6891F" d="M229.6 35.7V202c-16.3-25-44.2-37.6-83.6-37.6-63 0-105.5 30-127.6 90C6.2 288.2 0 341.7 0 415c0 77.6 6.5 133.3 19.7 167 22.8 58.5 68.8 87.4 137.7 86.6 48.3-1 81-14.2 98.3-40l13.5 34.2h83.5V0l-123 35.7zm0 491c-15.7 20-32.3 29.7-49.6 29.7-30 0-48.2-17.3-54.4-52-1.5-7.2-2.4-36.4-2.4-86.7 0-51.2.4-79.8 1.2-85.6 6.2-37 24-55 53.3-55 22 0 39.3 9 51.8 25v225zm317-194.4C491 333 452.2 350 430 383c-17.2 25.5-25.8 65.8-25.8 121 0 58.7 9.4 99.7 28.3 123.6 22.2 28 63.3 41.7 123.4 40.8 47-1 78-13.8 93-39l24 33.3h87V339.5c0-60-12-103.7-35-130.7-27-29.8-71-44.4-135-44.4-56 0-98 4.5-126 13.4v114c27-10.3 56-15.5 87-15.5 32 0 53 4.5 66 13.5 14 11.4 20 30.6 18 57.5-19-10.8-49-16-91-15m91 191.5c-2 14.2-7 23.2-15 27-8 3.6-20 5.5-37 5.5-39 0-58-19.6-58-58.7 0-45 18-70.4 53-76.3 20-2.4 39-.7 57 5v97.5zM940 202c23-25 55-37.6 96.6-37.6 55 0 94 14.2 116 43 18.5 24.7 28 63.8 28 117.3v338h-123V346.5c0-26.3-2.7-43.6-7.5-51.7-7-12.4-23-18.5-47-18.5s-39 6-47 18.5c-4 8-7 25-7 50.5v317.4H828v-491h112V202z"/>
  <path fill="#999B9E" d="M1465.6 35.7V202c-16.4-25-44-37.6-83.5-37.6-63 0-105 30-127 90-12 33.8-18 87.3-18 160.7 0 78 7 134 20 167 23 59 69 88 138 87 49-1 81-14 99-40l14 34h84V0l-124 35.7zm0 491c-15.7 20-32.3 29.7-49.6 29.7-30 0-48.2-17.3-54.4-52-1.6-7.2-2.4-36.4-2.4-86.7 0-51.2.4-79.8 1.2-85.6 6.2-37 24-55 53.2-55 22 0 39.3 9 52 25v225zM1671 239c-15.6 31.4-23.4 90-23.4 175.4 0 85.7 7.8 144.6 23.5 176.7 26 52 79 78 158 77 82-1 134-26 157-76 13-27 19-86 19-177s-6-151-19-178c-22-48-75-72-158-71-79 1-131 26-155 76m208 89c1 5 2 35 2 88 0 52 0 80-1 86-6 36-24 53-53 53s-46-18-53-53c-1-7-2-36-2-85 0-51 1-79 1-85 7-37 25-56 55-56s48 18 54 53m292-129c23-25 51-37 85-37 53 0 87 18.6 103 56 23-37.4 55-56 95-56 54 0 92 14.7 115 44.4 19 24 28.6 62.7 28.6 116v338h-124V347c0-47-14-70-42-70s-42 18.3-42 55.2v331h-124V347c0-47-14.2-70.4-43-70.4-28.4 0-42.7 23-42.7 69V663h-122V172h112v30zm618 130c-55 1-94 18-117 51-17 26-25 66-25 121 0 59 9.6 100 28.5 124 22 28 63 41.7 123.4 40.8 48-1 79-14 94-39l24 33.3h87V340c0-60-11-103.7-35-130.7-26-30-71-45-134-45-56 0-98 4-126 13v114c27-11 56-16 88-16s54 4 66 13c14 11 20 30 19 57-19-11-49-16-91-15m91 191c-2 14-7 23-15 27-7.4 3.4-20 5.3-37 5.3-38.5 0-57.5-19.7-57.5-58.8 0-45 18-70.6 54-76.5 20-3 38.3-1 56.3 5v98zm193-186h123v325h-123zm305-136c22.7-25 55-38 96.5-38 55.3 0 94 14 116 43 18.4 24.6 28 63.7 28 117v338h-124V346c0-26.3-2.5-43.6-7.3-51.7-7.2-12.4-23-18.5-47-18.5s-39.4 6-47 18.5c-5 8-7 25-7 50.5v317.4h-122v-491h112V202z"/>
  <path fill="#F6891F" d="M3065.7 224c0-17.8 7-33.3 21.2-46.6 14-13 30-19.7 49-19.7s35 6.7 50 19.7c14 13.3 21 28.8 21 46.7 0 18-7 34-22 47-14 13-31 20-50 20s-36-7-50-20c-15-13-22-28-22-46"/>
</svg>
