<svg xmlns="http://www.w3.org/2000/svg" data-name="Layer 1" viewBox="0 0 487.4 109.7">
  <path d="M303.8 0h-11.4a4.4 4.4 0 0 0-3.8 2.6l-21.8 57.8c-.6 1.4-1.4 1.4-2 0L244.6 2.6a4.3 4.3 0 0 0-3.7-2.7h-12.4c-1.5 0-2.4 1.2-1.8 2.7L257 81.6c.5 1.4.6 3.8 0 5.3l-6.8 20c-.5 1.5.4 2.7 2 2.7h10.3c1.5 0 3.2-1.2 3.7-2.6l6.9-21c.5-1.4 1.3-3.8 2-5.2l30.5-78.2c.5-1.4-.3-2.6-1.8-2.6ZM115 0H80.2a2.8 2.8 0 0 0-2.8 2.8v104c0 1.6 1.3 2.8 2.8 2.8H90c1.5 0 2.8-1.2 2.8-2.8V17c0-1.5 1.3-2.8 2.8-2.8h19.6c9.6 0 16.2 4.6 16.2 16v21.2c0 14.4-7 18.6-19.8 18.6H110.3c-1.3 0-2.8 1.2-3.4 2.7l-3.4 8.8c-.6 1.4.2 2.6 1.8 2.6h6.9c20.2 0 34.6-9.7 34.6-32.7V30.2c0-20-14.4-30.2-31.8-30.2ZM43.6 0h-12C11.2 0 0 10.2 0 29.2v25c0 19.6 14.8 30 34.8 30l24.6-.1c1.6 0 3.3-1.2 3.9-2.7l3.4-8.8c.6-1.5-.2-2.7-1.8-2.6H34.7c-13 0-19.3-5.2-19.3-15.8v-6.6h51.2c1.5 0 2.8-1.3 2.8-2.8v-21C69.4 10.2 58.2 0 43.6 0Zm10.6 33.8H15.4v-4.6c0-11.2 3.8-14.8 16.4-14.8H44c6.4 0 10.2 3.6 10.2 9.4v10ZM193.8 0H172.9a4.5 4.5 0 0 0-3.9 2.6l-3.5 9c-.5 1.4.3 2.6 1.8 2.6H194c12.8 0 16.2 4.4 16.2 12.6v3.8h-26c-16.8 0-29.4 9.4-29.4 23.6v2.6c0 17 15.6 27.4 32.6 27.4l22.8-.1h12.6c1.5 0 2.8-1.3 2.8-2.8V26.8C225.6 10 214 0 193.8 0Zm16.4 69.8-23 .2c-11.6 0-17-5.2-17-13.2v-2.6c0-5.2 3.8-9.4 14.2-9.4h25.8v25ZM325 38.6h-6.4v9h-2.3V24.3h9.4c4.6 0 6.8 2 6.8 6V32c0 4.5-2.8 6.5-7.4 6.5Zm5.2-8.3c0-2.7-1-3.7-4.5-3.7h-7v9.8h6.3c3.6 0 5.2-1 5.2-4.3v-1.8ZM350 47.7l-3-7.9h-9.4l-3 7.9H332l9.2-23.4h2l9.2 23.4H350ZM342.3 28l-3.8 9.6h7.6l-3.8-9.6ZM361.9 37.7v10h-2.3v-10l-8.9-13.4h2.8l7.2 11 7.2-11h2.9l-8.9 13.4ZM393.1 47.7V28.6l-8 13.4H384l-8-13.4v19h-2.3V24.4h2.2l8.7 14.3 8.8-14.3h2.2v23.4H393ZM400.3 47.7V24.3H416v2.3h-13.3v8H414v2.2h-11.4v8.6H416v2.3h-15.6ZM436 47.7l-13.6-19.3v19.3H420V24.3h2l13.7 19.3V24.3h2.3v23.4h-2ZM452.2 26.6v21h-2.3v-21h-8.2v-2.3h18.7v2.3h-8.2ZM323.8 82.9c-4.6 0-7.5-1-7.5-1v-2.2s3.7 1 7.4 1c5 0 6.1-1.1 6.1-4.4 0-2-1-3.2-2.3-3.5l-7.4-1.7c-2.8-.6-4.4-2.6-4.4-5.8s2.1-6.1 8-6.1c3.9 0 6.2.7 6.6.9v2.2s-3.5-.9-6.5-.9c-4.9 0-5.8 1.6-5.8 3.9 0 2.4 1 3.3 2.4 3.6l7.2 1.7c2.6.6 4.5 2.5 4.5 5.7 0 4.7-2.5 6.6-8.3 6.6ZM346.6 82.7h-3.8c-4.7 0-7.4-2.7-7.4-7.2v-9c0-4.5 2.7-7.2 7.4-7.2h3.8c4.7 0 7.4 2.7 7.4 7.2v9c0 4.5-2.7 7.2-7.4 7.2Zm5.1-16.2c0-3.4-1.6-5-5-5h-3.9c-3.5 0-5.1 1.6-5.1 5v9c0 3.4 1.6 5 5 5h3.9c3.5 0 5.1-1.6 5.1-5v-9ZM358.2 82.7V59.3h2.4v21.1H373v2.2h-14.9ZM386.7 82.7h-3.2c-4.7 0-7.4-2.7-7.4-7.2V59.3h2.3v16.2c0 3.4 1.6 5 5 5h3.2c3.6 0 5.2-1.6 5.2-5V59.3h2.3v16.2c0 4.5-2.8 7.2-7.4 7.2ZM407.5 61.6v21h-2.3v-21H397v-2.3h18.7v2.3h-8.2ZM419.3 82.7V59.3h2.3v23.4h-2.3ZM437 82.7h-3.7c-4.7 0-7.5-2.7-7.5-7.2v-9c0-4.5 2.8-7.2 7.4-7.2h3.8c4.7 0 7.5 2.7 7.5 7.2v9c0 4.5-2.8 7.2-7.5 7.2Zm5.2-16.2c0-3.4-1.7-5-5.2-5h-3.7c-3.6 0-5.2 1.6-5.2 5v9c0 3.4 1.6 5 5.1 5h3.8c3.5 0 5.2-1.6 5.2-5v-9ZM464.7 82.7 451 63.4v19.3h-2.3V59.3h2l13.7 19.3V59.3h2.3v23.4h-2ZM479 82.9c-4.5 0-7.4-1-7.4-1v-2.2s3.7 1 7.4 1c5 0 6-1.1 6-4.4 0-2-.8-3.2-2.3-3.5l-7.4-1.7c-2.8-.6-4.4-2.6-4.4-5.8s2.2-6.1 8.1-6.1c3.9 0 6.2.7 6.6.9v2.2s-3.5-.9-6.6-.9c-4.8 0-5.8 1.6-5.8 3.9 0 2.4 1 3.3 2.4 3.6l7.3 1.7c2.6.6 4.5 2.5 4.5 5.7 0 4.7-2.5 6.6-8.4 6.6Z" style="fill:#003f5f;stroke-width:0"/>
</svg>