<svg xmlns="http://www.w3.org/2000/svg" viewBox="0 0 104 23">
  <path fill="#000" d="M4.688 6.476H.173v4.514h4.515V6.476ZM17.329 6.476h-4.514v4.514h4.514V6.476ZM11.007.156H6.493v17.156h4.514V.156ZM24.553.156h11.738v2.73H27.81v4.508h7.579v2.73h-7.58v7.188h-3.255V.156h-.001ZM38.102.156h2.955v17.156h-2.955V.156ZM42.76 13.755c0-2.63 2.104-3.556 4.483-3.732l2.78-.2c.751-.05 1.052-.35 1.052-1.051 0-1.152-.927-1.953-2.454-1.953-1.603 0-2.404.852-2.68 1.853l-2.83-.35c.25-2.078 2.203-3.883 5.509-3.883 3.306 0 5.535 1.703 5.535 4.583v8.29h-3.03v-1.904h-.126c-.326 1.102-1.754 2.254-3.882 2.254-2.48 0-4.358-1.478-4.358-3.907h.001Zm5.185 1.654c1.578 0 3.105-1.128 3.105-3.18v-.601c-.1.05-.301.125-.677.15l-2.404.2c-1.052.075-2.104.526-2.104 1.678 0 1.077.852 1.753 2.078 1.753h.002ZM56.985 13.505V7.194h-2.187V4.789h1.886c.2 0 .276-.125.276-.3V1.51h3.03l.026 3.28h3.81v2.404h-3.81v6.111c0 .876.375 1.504 1.401 1.504h2.413v2.504h-2.864c-2.604 0-3.982-1.402-3.982-3.807l.001-.001ZM78.272 11.075c0 3.857-2.43 6.461-5.685 6.461-2.154 0-3.406-1.051-3.983-2.103h-.125v6.844h-3.03V4.789h3.03v1.854h.125c.577-1.052 1.854-2.104 3.957-2.104 3.256 0 5.711 2.655 5.711 6.537v-.001Zm-6.436 3.957c1.904 0 3.431-1.552 3.431-3.982s-1.527-4.008-3.431-4.008c-1.904 0-3.38 1.527-3.38 3.982 0 2.456 1.452 4.008 3.38 4.008ZM79.073 13.755c0-2.63 2.104-3.556 4.483-3.732l2.78-.2c.751-.05 1.052-.35 1.052-1.051 0-1.152-.926-1.953-2.454-1.953-1.602 0-2.404.852-2.68 1.853l-2.83-.35c.25-2.078 2.203-3.883 5.509-3.883 3.306 0 5.535 1.703 5.535 4.583v8.29h-3.03v-1.904h-.126c-.326 1.102-1.753 2.254-3.882 2.254-2.48 0-4.358-1.478-4.358-3.907h.001Zm5.185 1.654c1.578 0 3.105-1.128 3.105-3.18v-.601c-.1.05-.301.125-.676.15l-2.405.2c-1.052.075-2.104.526-2.104 1.678 0 1.077.853 1.753 2.079 1.753h.001ZM91.363 19.724h2.444c1.276-.075 1.527-.759 1.878-1.685l.225-.552-5.06-12.723h3.232l3.256 9.167h.125l3.13-9.167 3.406.025-5.611 14.276c-.677 1.678-1.979 3.214-4.133 3.214H91.36v-2.555h.003Z"/>
</svg>
