<svg xmlns="http://www.w3.org/2000/svg" viewBox="0 0 98 20">
  <title>Freepay</title>
  <path fill="#09d373" d="M20.55.01a.5.5 0 0 1 .42.54v18.78a.5.5 0 0 1-.42.54h-8.9a.5.5 0 0 1-.41-.54V.55a.5.5 0 0 1 .41-.54z"/>
  <path fill="#09d373" opacity=".25" d="M19.86 19.24a.5.5 0 0 1-.55.41H.54a.5.5 0 0 1-.54-.41v-8.9a.5.5 0 0 1 .54-.42h18.77a.5.5 0 0 1 .55.42z"/>
  <path fill="#09d373" opacity=".5" d="M16.5 19.57.86 13.4a.5.5 0 0 1-.35-.58l3.26-8.28a.5.5 0 0 1 .66-.2l16.04 6.33"/>
  <path fill="#09d373" opacity=".75" d="M12.15 19.2 4 6.2a.5.5 0 0 1 .07-.69L11.62.8a.5.5 0 0 1 .64.24l8.44 13.5"/>
  <path fill="#09d373" d="M39.75 20h-2.86V.01h4.6a4.75 4.75 0 0 1 3.79 1.47c.84.97 1.26 2.45 1.26 4.4A7.45 7.45 0 0 1 46 8.87a4.25 4.25 0 0 1-1.92 2L47.16 20h-3.03l-2.67-8.53h-1.71V20Zm0-17.3v6.24h1.63a2.9 2.9 0 0 0 1.2-.21 1.56 1.56 0 0 0 .7-.6 2.6 2.6 0 0 0 .31-.97 9.36 9.36 0 0 0 .09-1.34 9.35 9.35 0 0 0-.09-1.33 2.41 2.41 0 0 0-.35-.98 1.6 1.6 0 0 0-.74-.6 3.39 3.39 0 0 0-1.26-.2h-1.5zM80.5 20h-2.86L82.1.01h2.39L88.95 20h-2.86l-.85-4.3h-3.9zm2.75-14.24-1.4 7.25h2.86l-1.4-7.24zM94.07 20h-2.86v-8.45L87.28.01h3.03l2.3 7.95h.06L94.97 0H98l-3.93 11.54zm-21.86 0h-2.86V.01h4.3a6.42 6.42 0 0 1 2.07.31 4 4 0 0 1 1.63 1.1 4.3 4.3 0 0 1 1 1.84 11.53 11.53 0 0 1 .29 2.84 14.33 14.33 0 0 1-.15 2.26 4.8 4.8 0 0 1-.66 1.76 4.2 4.2 0 0 1-1.57 1.53 5.32 5.32 0 0 1-2.59.55h-1.46zm0-17.3v6.8h1.38a2.94 2.94 0 0 0 1.35-.25 1.62 1.62 0 0 0 .7-.69 2.7 2.7 0 0 0 .27-1.05 20.65 20.65 0 0 0 0-2.7 3.17 3.17 0 0 0-.26-1.1 1.62 1.62 0 0 0-.66-.73 2.57 2.57 0 0 0-1.29-.27h-1.49zM67.5 20h-8.54V.01h8.54v2.7h-5.67v5.86h4.94v2.7h-4.94v5.87h5.67zm-10.39 0h-8.54V.01h8.54v2.7h-5.67v5.86h4.94v2.7h-4.94v5.87h5.67V20Zm-27.75 0H26.5V.01h8.53v2.7h-5.67v6.06h4.94v2.7h-4.94V20Z"/>
</svg>
