<svg xmlns="http://www.w3.org/2000/svg" viewBox="0 0 80 28">
  <title>Lunar</title>
  <path d="M0 28 2 6.6l4-.4-1.7 17.6 7-.7-.5 4L0 28Zm20.1-1.6c-5.2.5-6-3.5-5.9-5.7l1.5-15.4 4-.4-1.5 15.5c-.2 2 1.5 2.2 2.3 2 .8 0 2.6-.4 2.8-2.5l1.4-15.4 4-.4-1.5 15.5a7.5 7.5 0 0 1-7 6.8Zm20-2-4.3-11.8-1 12.3-4 .3 2-21.4 3.9-.4 4.2 12.2L42 3l4-.4L43.8 24l-3.8.4Zm18.7-1.7-.8-4.8-5.6.5-1.8 5-4 .4 7.7-22 4.8-.4 3.7 21-4 .3ZM56.2 6.8l-2.5 7.7 3.7-.4-1.2-7.3Zm18.9 14.4-3.1-8-1.8.2-.8 8.3-3.9.4 2-21.5 6.8-.6c5.2-.4 5.9 3.6 5.7 5.6l-.1.9a7.5 7.5 0 0 1-3.8 5.8l3.4 8.5-4.4.4ZM76 6c.2-2-1.3-2.2-2.1-2l-2.8.2-.5 5.4 2.8-.3c.9 0 2.3-.5 2.5-2.5L76 6Z"/>
</svg>
