<svg xmlns="http://www.w3.org/2000/svg" viewBox="0 0 81 24">
  <title>Mollie</title>
  <path d="M58.6 2.5A2.5 2.5 0 0 1 61 0a2.5 2.5 0 0 1 2.5 2.5A2.5 2.5 0 0 1 61 5a2.5 2.5 0 0 1-2.5-2.5Zm-36.2 7.6a7.2 7.2 0 0 1 1.8 4.8v8.7h-3.9v-8.8a3.2 3.2 0 0 0-3.5-3.1 3.3 3.3 0 0 0-2.8 3.2v8.7h-4v-8.8c0-1.7-1.4-3.1-3.1-3.1h-.4a3.3 3.3 0 0 0-2.8 3.2v8.7H0v-8.8A7 7 0 0 1 12 10a7 7 0 0 1 5.2-2.2 6.9 6.9 0 0 1 5.2 2.3Zm25.8 13.6h-3.8V.4h3.8Zm7.4 0h-3.8V.4h3.8Zm7.4 0h-4V8.2h4Zm18-6.4H69.3a4.3 4.3 0 0 0 4.2 3.2 4.3 4.3 0 0 0 3.7-2.1l.1-.3 3.2 1.6-.2.3a8.1 8.1 0 0 1-7 4 8 8 0 0 1-5.6-2.4 8 8 0 0 1-2.4-5.8 8 8 0 0 1 2.4-5.6 8 8 0 0 1 5.6-2.4c2.1 0 4 .8 5.5 2.3a7.7 7.7 0 0 1 2.2 5.4Zm-11.7-3.2h7.8a4.1 4.1 0 0 0-3.9-2.8 4.1 4.1 0 0 0-3.9 2.8Zm-27 1.8a8 8 0 0 1-8 8 8 8 0 0 1 0-16 8 8 0 0 1 8 8Zm-3.8 0a4.2 4.2 0 0 0-4.2-4.2 4.2 4.2 0 0 0 0 8.5 4.2 4.2 0 0 0 4.2-4.3Z"/>
</svg>
