<svg xmlns="http://www.w3.org/2000/svg" xml:space="preserve" viewBox="0 0 1076.6 341.4">
  <path fill="none" d="M-70.1 6.4h1228v405.4h-1228z"/>
  <g fill="#FB617F">
    <path d="M0 132.4c0-17.2 3-33.8 9-49.8a125 125 0 0 1 68.4-71.7A137.3 137.3 0 0 1 133.5 0c20.8 0 39.4 3.6 55.8 10.9a123.7 123.7 0 0 1 68.1 71.7 142.9 142.9 0 0 1 0 99.6 124.7 124.7 0 0 1-68.1 71.8c-16.4 7.3-35 11-55.8 11-20.9 0-39.6-3.7-56.1-11A125.1 125.1 0 0 1 9 182.3c-6.1-15.9-9-32.5-9-49.9zm59.7 0c0 10.3 1.7 20.3 5 29.9s8.2 18.1 14.5 25.6a70.5 70.5 0 0 0 54.1 24.5 68.8 68.8 0 0 0 54.2-24.5c6.4-7.4 11.3-16 14.6-25.6a91.5 91.5 0 0 0 0-59.8 78.2 78.2 0 0 0-14.6-25.6 70.2 70.2 0 0 0-54.2-24.4 70 70 0 0 0-68.6 50c-3.3 9.6-5 19.6-5 29.9zM283.4 258.4V84.9h55v25.2a49.9 49.9 0 0 1 22-21.8 74.5 74.5 0 0 1 35.3-7.7 68 68 0 0 1 29.5 5.6c7.7 3.8 14 8.5 18.8 14.2 5.5 6.7 9.1 14.4 10.9 23.2s2.6 19.4 2.6 31.8v103h-55v-88.9c0-12.2-2.2-22.2-6.7-30.1s-12.3-11.9-23.6-11.9c-11.5 0-20 4-25.6 11.9s-8.3 18.5-8.3 31.9v87.2h-54.9v-.1zM484.6 258.4V6.4h105.3c13.9 0 26.5 2.5 37.8 7.4a88.7 88.7 0 0 1 47.5 48.9 95.4 95.4 0 0 1-18.5 98.8 91.4 91.4 0 0 1-66.7 27.3h-47v69.8h-58.4v-.2zM543 141h39.9a38.4 38.4 0 0 0 29.4-13.1c3.5-3.9 6.2-8.5 8.1-13.8a48.6 48.6 0 0 0-8.1-47A38.2 38.2 0 0 0 582.9 54H543v87zM680.2 171.6c0-13 2.1-25.1 6.3-36.2a85.8 85.8 0 0 1 43.7-47.8c10-4.7 20.8-7 32.5-7 13 0 24.2 2.8 33.8 8.3a56.9 56.9 0 0 1 21.5 20.9V85h55v173.5h-55v-24.4a53.3 53.3 0 0 1-20.9 20.4 67 67 0 0 1-34.4 8.4 75.8 75.8 0 0 1-32.4-7 83.4 83.4 0 0 1-43.8-48 102.6 102.6 0 0 1-6.3-36.3zm55 0a46.7 46.7 0 0 0 11.5 31.2c3.6 3.9 7.9 7.1 12.9 9.5s10.6 3.6 16.8 3.6a39 39 0 0 0 29.9-13.1c3.6-3.9 6.4-8.6 8.4-14a49 49 0 0 0 0-34.1c-2-5.3-4.9-10-8.4-14.1a39.9 39.9 0 0 0-12.9-9.7c-5-2.3-10.7-3.5-17-3.5a38.5 38.5 0 0 0-29.7 13.2 45.5 45.5 0 0 0-8.4 14.1 45.3 45.3 0 0 0-3.1 16.9zM899.5 271.8h54a30 30 0 0 0 8.1 20.7c5.1 5.4 13.9 8.2 26.1 8.2 11.5 0 20-3.1 25.6-9.4 5.6-6.2 8.4-16.6 8.4-31.2v-29.4a50.1 50.1 0 0 1-21.9 21.8 74 74 0 0 1-35.1 7.7c-12 0-21.9-1.8-29.6-5.5a51.2 51.2 0 0 1-29.7-37.4c-1.7-8.8-2.6-19.5-2.6-32V84.9h55v88.9c0 12.4 2.2 22.5 6.6 30.3s12.4 11.7 23.9 11.7 19.9-4 25.2-11.9a56 56 0 0 0 8.1-32.1v-87h55v172.4c0 29.5-7 50.9-21 64.2s-36.2 20-66.6 20c-16 0-29.7-1.7-41-5s-20.6-8.1-27.8-14.2-12.5-13.5-15.8-22.1-4.9-18-4.9-28.3z"/>
  </g>
</svg>