<svg xmlns="http://www.w3.org/2000/svg" viewBox="0 0 284 90">
  <title>PayEx</title>
  <path fill="#20AA5E" d="M89.7 48c0 10.7-4.8 17.8-12.5 17.8-4.7 0-7-2.8-7-7 0-9 5.6-13.6 19.5-15.4V48zm18.4 6.3v1c0 8-2 11-4 11s-3-1-3-6.7v-20c0-6 0-10.3-3.4-13.8-3-3-9.4-5-16-5-11.2 0-18.2 6-18.2 12.5 0 3.7 2.8 6.4 6.7 6.4 3.6 0 6.3-2.3 6.3-5 0-3.3-3-4.8-5-5.7l-1-.5c.5-1.5 3.7-4 10-4 7.3 0 10 3 10 11V40c-22 2.6-32 8.5-32 18 0 7.5 5.5 12 15.4 12 8 0 13.5-3.3 16.8-9.7 1 7.8 5.7 9.5 9.5 9.5 9.3 0 11.5-5 11.5-13.7v-1H108z"/>
  <path fill="#20AA5E" d="M138.6 22.8v2.6h.5c6 .3 9 1 9 4.3 0 2-1 4-1.3 6 0 0-8 16-10 20.4L125 32c-1-1.5-1.4-2.2-1.4-3.2 0-2 1.5-2.7 8-2.8h.4v-3h-31v2.5h.6c8 0 9.3 3.5 11.8 9l16 34.3c-2 4.6-3 6.6-5 9.5-3.2 5.2-6.3 8-10.3 8-1 0-1-.3-1-.3 0-.3 1-.7 1-1 1-1 2.8-2.5 2.8-5 0-4-3-6.8-7-6.8-4.7 0-8 3.2-8 7.6 0 5.5 4.6 9.2 11.5 9.2 6 0 11-3.5 15.5-10.5l1.3-2.8 20.4-41c3.3-6.3 7.5-9.5 13.6-10.3h.4v-2.6H139M25.3 10.6c0-6.7-1-7 7.5-7 13.4 0 17.8 6.3 17.8 18 0 11-5 15.4-19 15.4h-6.3V10.6zm8.3 30c19 0 30-7.8 30-19.5 0-9-7-21-31-21H0v3h.5C11.5 3 13 5 13 14v40.6c0 9.2-1.8 11-13 11.2V68h39v-2.5h-.4c-12 0-13.3-1.8-13.3-11v-14h8.3z"/>
  <path fill="#20AA5E" d="M215 25.5V0h-60.5v2.5h.5c10.6 0 11.8 2 11.8 11V54c0 9.2-1.2 11-11.8 11.2h-.5v2.4H216V39.8h-2.6c-1.6 17.6-10 24.2-26.7 24.2-8.2 0-7.5-.7-7.5-9.3V34.4h1.2c10.4 0 14.6 4.2 15.4 15.4h2.3v-33h-2c0 10.6-5 14-16 14V12c0-7.5 0-8.3 6.7-8.3 19 0 24.7 7.4 27 22h2M283 65c-5.2 0-7.7-2-11.7-6L254 41l.3-.2c.4-.6 8.3-8.7 19.6-19.7 2 4 4 8 5 14h2.3V10h-25v2.5c6 1 10.6 3 14 5.8l-19 19.7-.5.2-1-.7-8-8.5h-.3c-1-1-1.7-1.8-1.7-2.6 0-1.3 5-1 7-1h.6V23h-29v2.7h.8c6 0 6.3 1.7 9 4.7l14 14.4 1 1-23 22h5.7l20-19.3L256 59c2 2 3 3.2 3 4.2 0 1.5-2 1.7-7 1.7h-1.4v2h33v-2h-1"/>
</svg>
