<svg xmlns="http://www.w3.org/2000/svg" viewBox="397 150.1 1579 493.9">
  <title>Paylike</title>
  <path fill="#29763A" d="m597 159.8 167 123.7a42.4 42.4 0 0 1 4.8 64l-126 26.5-245.3 14.8 127-214.4c15-25.3 48.7-32 72.4-14.6z"/>
  <path fill="#206131" d="m397.8 389 244.6-15.3 130-30.4a42.5 42.5 0 0 0-8.4-60L629.8 184l-232 205z"/>
  <linearGradient id="a" x1="539.6" x2="756.4" y1="847" y2="537.8" gradientTransform="translate(0 -302.1)" gradientUnits="userSpaceOnUse">
    <stop offset="0" stop-color="#1F8142"/>
    <stop offset="1" stop-color="#309044"/>
  </linearGradient>
  <path fill="url(#a)" d="m883.7 412-232 232L397 389.3l306-226c26-19.4 63-12 79.7 16L890 360.6a42 42 0 0 1-6.3 51.4z"/>
  <path fill="#309044" d="M1145.3 322.6c0 22.6-8 40-23.6 52.2-15.8 12-38 18-67 18h-37v97H1001V255.3h58.6c57 0 85.7 22.5 85.7 67.4zm-127.5 56h33c27 0 46.4-4.2 58.4-13s18-22.8 18-42.4c0-18-5.6-31.5-17-40.2-11.4-8.7-29-13-52.8-13h-39.7v108.7zM1301.6 490l-4-27.7h-1.4a86.7 86.7 0 0 1-27.6 24 76 76 0 0 1-33.6 7c-17.4 0-31-4.5-40.8-13.3s-14.6-21-14.6-36.4c0-17 7.2-30.2 21.7-39.7 14.5-9.6 35.4-14.6 63-15l34-1v-11.6c0-16.6-3.6-29-10.4-37.6-7-8.6-18-12.7-33.5-12.7-16.5 0-33.6 4.7-51.3 13.6l-6-13.8a137 137 0 0 1 58-13.5c19.4 0 34 5 43.8 15 9.8 10 14.6 25.3 14.6 46.4v116h-12zm-65.6-11.4c19 0 34-5.3 45-16s16.5-25.3 16.5-44.3V401l-31 1.4c-25.2 1-43 5-53.7 11.5-10.7 6.3-16 16.4-16 30a32 32 0 0 0 10.2 25.4c7 6 16.6 9 29 9zm105.5-163.2h16.7l37.7 98c11.3 30 18.5 50.2 21.6 60.7h1c4.7-13.6 12-34.2 22.5-61.6l37.8-97h16.6L1415.8 518c-6.5 16.4-12 27.6-16.3 33.4-4.4 5.8-9.4 10-15.4 13-5.6 3-12.7 4.3-21 4.3-6.2 0-13.2-1-21-3.4v-13.8a77.3 77.3 0 0 0 20.7 2.5c5.6 0 10.5-1.3 14.7-3.8s8-6.6 11.6-12 7.4-14 12-25.7l8.7-23-68.2-174zM1541.7 490h-16.3V240h16.3v250zm57.4-221.2c0-9 3.7-13.6 10.5-13.6 3.4 0 6 1.2 8 3.6 2 2.3 2.8 5.7 2.8 10 0 4.2-1 7.6-2.8 10a9.5 9.5 0 0 1-8 3.7c-6.8 0-10.3-4.6-10.3-13.7zm18.8 221h-16.3V315.5h16.3V490zm75.6-76.6 91-98h19.7l-70 74.6 76 100h-19.3l-67.7-88.2-29.3 26V490h-16.3V240h16.3v125.3l-1.2 48h.8zm218.5 80c-26 0-46-8-60.7-23.5-14.5-15.7-21.7-37.6-21.7-65.6 0-27.6 7-50 21-66.7a69.9 69.9 0 0 1 56.5-25.2 62 62 0 0 1 49.8 21.6c12 14.3 18.2 33.8 18.2 58.4V405h-128.5c.3 24 6 42.2 17.2 55 11.2 12.5 27.3 19 48.2 19a133.5 133.5 0 0 0 56-11.3V482a138.3 138.3 0 0 1-56.2 11.1zm-4.8-167c-17 0-31 5.5-41.2 16.5-10.3 11-16.4 27-18.2 48H1958c0-20.3-4.5-36-13.4-47.5-9-11.4-21.5-17-37.3-17z"/>
</svg>
