<svg xmlns="http://www.w3.org/2000/svg" xmlns:xlink="http://www.w3.org/1999/xlink" viewBox="0 0 245.2 59.5">
  <title>PayPal</title>
  <defs>
    <path id="a" d="M0 60h245.2V.5H0V60Z"/>
  </defs>
  <path fill="#2790c3" d="M190.4 26c-.8 4.8-4.4 4.8-8 4.8h-2l1.4-9c0-.6.5-1 1-1h1c2.4 0 4.7 0 6 1.4.6.8.9 2 .6 3.7zm-1.6-12.7h-13.5c-.9 0-1.7.7-1.8 1.6L168 49.5c0 .6.5 1.3 1.2 1.3h6.9c.6 0 1.2-.5 1.3-1.1l1.5-9.8a2 2 0 0 1 1.9-1.6h4.2c9 0 14-4.3 15.4-12.8.6-3.8 0-6.7-1.7-8.7-2-2.3-5.4-3.5-9.9-3.5z"/>
  <path fill="#27346a" d="M94.2 26c-.7 4.8-4.4 4.8-8 4.8h-2l1.4-9c0-.6.5-1 1.1-1h1c2.4 0 4.7 0 5.8 1.4.8.8 1 2 .7 3.7zm-1.6-12.7H79.2c-1 0-1.7.7-1.9 1.6L72 49.5c-.1.6.4 1.3 1 1.3h6.5c1 0 1.7-.7 1.9-1.6l1.4-9.3a2 2 0 0 1 1.9-1.6h4.2c9 0 14-4.3 15.4-12.8.6-3.8 0-6.7-1.7-8.7-2-2.3-5.3-3.5-9.9-3.5zm31.4 25a7.2 7.2 0 0 1-7.3 6.2c-2 0-3.4-.6-4.4-1.7a5.5 5.5 0 0 1-1-4.6 7.2 7.2 0 0 1 7.3-6.2c1.8 0 3.3.6 4.3 1.8 1 1.1 1.3 2.8 1 4.5zm9-12.5h-6.5c-.6 0-1 .4-1.1 1l-.3 1.7-.4-.6c-1.4-2-4.6-2.7-7.7-2.7-7.1 0-13.2 5.4-14.4 13-.6 3.7.3 7.4 2.4 9.9 2 2.3 4.8 3.3 8.1 3.3 5.8 0 9-3.7 9-3.7l-.3 1.8c-.1.6.4 1.3 1.1 1.3h5.8c1 0 1.7-.7 1.9-1.6L134 27c0-.7-.5-1.3-1.1-1.3z"/><path fill="#2790c3" d="M220.1 38.3a7.2 7.2 0 0 1-7.3 6.2c-1.8 0-3.3-.6-4.3-1.7a5.5 5.5 0 0 1-1-4.6 7.2 7.2 0 0 1 7.2-6.2c1.9 0 3.4.6 4.3 1.8 1 1.1 1.4 2.8 1.1 4.5zm9-12.5h-6.4c-.6 0-1 .4-1.1 1l-.3 1.7-.5-.6c-1.4-2-4.5-2.7-7.6-2.7-7.1 0-13.2 5.4-14.4 13a12 12 0 0 0 2.4 9.9c2 2.3 4.8 3.3 8.1 3.3 5.8 0 9-3.7 9-3.7l-.3 1.8c-.1.6.4 1.3 1 1.3h5.9c1 0 1.7-.7 1.9-1.6l3.4-22.1c.2-.7-.4-1.3-1-1.3z"/>
  <g transform="translate(0 -.5)">
    <mask id="b" fill="#fff">
      <use xlink:href="#a" width="100%" height="100%"/>
    </mask>
    <path fill="#27346a" d="M167.4 26.3h-6.5a2 2 0 0 0-1.6.8l-9 13.2-3.7-12.7c-.2-.8-1-1.3-1.8-1.3h-6.4c-.8 0-1.3.7-1 1.5l7.1 21-6.7 9.4c-.5.8 0 1.8.9 1.8h6.5c.6 0 1.2-.3 1.5-.8L168.3 28c.5-.7 0-1.7-1-1.7" mask="url(#b)"/>
    <path fill="#2790c3" d="M236.8 14.8 231.2 50c0 .6.5 1.3 1.2 1.3h5.5c1 0 1.7-.7 1.9-1.6l5.4-34.6c.1-.7-.4-1.3-1-1.3h-6.3c-.6 0-1 .4-1.1 1" mask="url(#b)"/>
    <path fill="#27346a" d="m25.5 57.5 1.9-11.4v-.7a2.4 2.4 0 0 1 2.4-2h1.4c2.4 0 4.7-.2 6.6-.7a14.8 14.8 0 0 0 9.6-7 21.5 21.5 0 0 0 2.8-13.2c-.3-2-1-3.5-2.2-4.8a9.2 9.2 0 0 0-2.6-2c.4-2.4.3-4.4 0-6A9.8 9.8 0 0 0 42.9 5C40.3 2 35.6.5 28.9.5H10.2a2.6 2.6 0 0 0-2.5 2.2L0 51.6a1.5 1.5 0 0 0 1.5 1.8H13l-.8 5a1.3 1.3 0 0 0 1.3 1.6h9.6a2.3 2.3 0 0 0 2.3-2v-.5" mask="url(#b)"/>
    <path fill="#27346a" d="M19 15.7a2.3 2.3 0 0 1 2.2-2h14.5a30.2 30.2 0 0 1 7.7 1l2 1c.8-4.7 0-7.9-2.5-10.7C40.2 1.8 35.2.5 29 .5H10.2C9 .5 8 1.5 7.7 2.7L0 51.6c-.1 1 .6 1.8 1.6 1.8H13l6-37.7" mask="url(#b)"/>
  </g>
  <path fill="#2790c3" d="m45.4 15.1-.2 1.1c-2.4 12.5-10.8 16.9-21.4 16.9h-5.4c-1.4 0-2.4.9-2.7 2.2l-3.5 22.6c-.2.8.5 1.6 1.4 1.6h9.6c1.1 0 2-.8 2.3-2v-.4l1.9-11.5v-.7c.3-1.1 1.2-2 2.4-2h1.4c9.3 0 16.6-3.7 18.8-14.7.9-4.5.4-8.4-2-11a9.2 9.2 0 0 0-2.6-2"/><path fill="#1f264f" d="M42.9 14.1a17.7 17.7 0 0 0-2.4-.5c-1.5-.3-3-.4-4.8-.4H21.2a2.3 2.3 0 0 0-2.3 2l-3 19.5-.2.6a2.6 2.6 0 0 1 2.7-2.2h5.4c10.6 0 19-4.4 21.4-16.9l.2-1A13.1 13.1 0 0 0 43 14"/>
</svg>
