<svg xmlns="http://www.w3.org/2000/svg" viewBox="0 0 707.5 161.9" xml:space="preserve">
	<path fill="#34AAE2" d="M402.9 6.6v17.5c-22-2-35.9 8.7-35.9 30.6V123h-18.6V55.2C348.3 20.5 373 3 402.9 6.6z"/><path fill="#34AAE2" d="M501.7 87.6c-8 24.4-27.5 38.2-53.9 38.2-32.8 0-58.6-26.2-58.6-59.7C389.2 33 414.9 6 446.7 6c29.5 0 57.9 24.4 57.7 65h-96.1c2.4 23.7 20.6 37.7 39.5 37.7 16.2 0 27.7-7.8 33.9-21.1h20zm-18.2-33.5C478.9 35.4 463.4 23 446.7 23c-15.8 0-32.4 11.5-37.3 31.1h74.1z"/><path fill="#34AAE2" d="M590.9 8.8h-23.1l-23 33.3 11.5 16.7 34.6-50zm-39.4 57.1L540 49.2 512.1 8.8H489L528.4 66 489 123.2h23.1L540 82.7l11.5-16.8zm-6.6 23.9 23 33.3H591l-34.5-50-11.6 16.7z"/><path fill="#34AAE2" d="M675.8 8.8h-23.1l-23 33.3 11.5 16.7 34.6-50zm-39.4 57.1-11.5-16.7L597 8.8h-23.1L613.3 66l-39.4 57.2H597l27.9-40.4 11.5-16.9zm-6.6 23.9 23 33.3h23.1l-34.5-50-11.6 16.7zM692.6 3.4a11.6 11.6 0 1 1-.02 23.22 11.6 11.6 0 0 1 .02-23.22zm0 20.6c4.8 0 8.6-4 8.6-9s-3.8-9-8.6-9-8.6 4-8.6 9c0 5.1 3.7 9 8.6 9zm-4.5-15.2h3.9c2.8 0 5.5.7 5.5 3.6 0 2.2-1.4 3.6-2.7 3.7l3.1 4.8h-3.3l-2.8-4.7h-.7V21h-3V8.8zm3 5.1h1.5c.8 0 2 0 2-1.3s-1.2-1.3-2-1.3h-1.5v2.6zM244.6 9.7h21.3l30.8 85.2L330 9.7h20.7L290 159.1h-20.3l15.7-39.7L244.6 9.7zM221 9.7v11.9A55.5 55.5 0 0 0 182.2 6c-32.4 0-57.5 27.1-57.5 60.3 0 32.8 25.1 59.5 57.5 59.5 15.2 0 28.7-5.8 38.8-15.3V123h18.6V9.7H221zm-38.8 98.8c-21.1 0-38.4-18.9-38.4-42.2 0-23.7 17.3-43 38.4-43 21.3 0 38.6 19.3 38.6 43 0 23.4-17.3 42.2-38.6 42.2zM61.6 6c-15.1 0-28.7 6-38.8 15.7v-12H4.2v149.4h18.6v-48.6a55.95 55.95 0 0 0 38.8 15.4c32.6 0 57.5-26.6 57.5-59.5C119.1 33.1 94.2 6 61.6 6zm0 102.5c-21.1 0-38.4-18.9-38.4-42.2 0-23.7 17.3-43 38.4-43 21.3 0 38.6 19.3 38.6 43 0 23.4-17.3 42.2-38.6 42.2z"/>
</svg>
