<svg xmlns="http://www.w3.org/2000/svg" viewBox="0 0 121 27.5">
  <title>Payson</title>
  <path fill="#002c50" d="m38.1 8.2 8 18.9h-4.4L40 22.6h-8.2L30.1 27H26l8-19zm-5 11h5.6l-2.9-7.3Zm14.7-11 4.6 7.2 4.7-7.2h4.6l-7.2 10.5V27h-4v-8.3L43.3 8.2zm22 3.4c-2 0-3 .7-3 2.4 0 1.4.9 2 2.5 2h5.3c4.2 0 6 1.5 6 5.4 0 4-2.1 5.6-6.6 5.6H63.5v-3.3h9.9c2 0 3-.5 3-2.1 0-1.7-.9-2.2-2.8-2.2H69c-4.3 0-6.3-1.7-6.3-5.4 0-4.1 2.1-5.8 6.6-5.8h10.4v3.3h-9.8zm22.4-3.8c6.4 0 9.4 3.2 9.4 9.8 0 6.7-3 9.8-9.4 9.8-6.5 0-9.4-3.1-9.4-10 0-6.4 3-9.6 9.4-9.6zm-5 9.7c0 4.6 1.5 6.7 5 6.7s5.1-2.1 5.1-6.6-1.6-6.5-5-6.5c-3.5 0-5.1 2-5.1 6.4zm22.1-9.3 7.7 13.6-.1-13.6h4V27h-4.6l-8.1-14.3.2 14.3h-4V8Z"/>
  <g fill="#f28c00">
    <path d="M13.7 0A13.8 13.8 0 0 0 9 26.7V8.3h8.6c2.6 0 4.4.2 5.6 1 1.7 1 2.6 2.8 2.6 5.1s-.7 3.9-2.2 5c-1.6 1-3.4 1.1-5.8 1.1H13v7h.7a13.8 13.8 0 1 0 0-27.5z"/>
    <path d="M21.4 14.4c0-2-1.2-2.8-3.8-2.8H13v5.6h4.8c2.4 0 3.6-.9 3.6-2.8z"/>
  </g>
</svg>
