<svg xmlns="http://www.w3.org/2000/svg" viewBox="0 0 1135 111">
  <title>PensoPay</title>
  <path fill="#223A80" d="M.8 110.4V.4h88.6c8.3 0 14.2 1.7 17.8 5 3.6 3.4 5.5 8.8 5.5 16.3v24.5c0 7.4-1.8 12.8-5.5 16.2-3.6 3.4-9.6 5-17.8 5H19.2v43H.8zm81.5-95.7h-63V53h63c4.5 0 7.6-.8 9.3-2.5 1.7-1.7 2.5-4.7 2.5-9v-15c0-4.3-.6-7.3-2.3-9-1.7-1.8-4.8-2.7-9.3-2.7zm78.3 95.7V20h91v13.5h-74v23.2H222V70h-44.4v27h74.7v13.3h-91.7m149-72 1 8v64H295V20h13l66.3 59a74 74 0 0 1 5.6 5.6c1.6 2 3.3 4.3 5 7l-1-8.3c-.2-2.8-.4-5.7-.4-8.6V20.2h15.7v90.3h-11.7L320 50.7a54.4 54.4 0 0 1-10.5-12.5zm222-4.8H468V57h58c8.4 0 14 1.4 17.2 4.3 3 3 4.6 8.6 4.6 17V89c0 8.3-1.5 14-4.5 17-3 2.8-8.8 4.3-17.4 4.3h-54.7c-8.6 0-14.4-1.5-17.5-4.4-3-3-4.6-8.8-4.6-17v-2.6l15.7-3.2v13.4h68V71.3h-58c-8.6 0-14.4-1.5-17.5-4.4-3-3-4.6-8.8-4.6-17v-8.6c0-8.3 1.4-14 4.5-17 3-3 8.8-4.4 17.4-4.4h50c8.3 0 14 1.6 17.3 4.5 3.2 3 4.8 8 4.8 15.4v2l-15.3 3.3v-12zm64.4 8c0-8.3 1.7-14 4.8-17 3-3 9-4.4 17.5-4.4h65.2c8.5 0 14.4 1.7 17.5 4.7 3 3 4.7 8.7 4.7 17V89c0 8.3-1.5 14-4.6 17-3 3-8.7 4.4-17.3 4.4h-65.2c-8.7 0-14.5-1.5-17.6-4.4-3-3-4.7-8.6-4.7-17V41.6zm17 55.3h75.5V33.6H613v63.2zm150.5 13.6V.4H852c8.4 0 14.3 1.7 18 5 3.5 3.4 5.4 8.8 5.4 16.3v24.5c0 7.4-1.8 12.8-5.5 16.2-3.8 3.4-9.8 5-18 5h-70v43h-18.6zM845 14.7h-63V53h63c4.4 0 7.5-.8 9.2-2.5 1.7-1.7 2.5-4.7 2.5-9v-15c0-4.3-.8-7.3-2.5-9-1.6-1.8-4.7-2.7-9.3-2.7zm48 95.7L945.2 20h15.6l53.5 90.4h-18.5l-11.8-21h-62.4l-11.5 21h-17zm35.8-34h48l-24-43-24 43zm142.2 34V71l-47-51h20.7l36 39.2 34.3-39h20L1088 71v39.4"/>
</svg>
