<svg xmlns="http://www.w3.org/2000/svg" viewBox="0 0 121.85 21">
  <path d="M0 21V.3h3.05l.3 1.97C4.41.72 6.05 0 8.2 0c3.83 0 6.61 2.35 6.61 7.61s-2.78 7.64-6.61 7.64c-2.12 0-3.75-.7-4.84-2.23V21zM3.35 9.31c.49 2.27 1.97 3.24 3.9 3.24 2.33 0 4.05-1.46 4.05-4.94 0-3.48-1.72-4.9-4.05-4.9-1.93 0-3.41.97-3.9 3.24zM23.3 0c3.92 0 7.06 2.18 7.21 6.2v2.26H19.27c.22 2.47 1.45 4.17 4.08 4.17 1.54 0 2.84-.57 3.48-2.08h3.44c-.66 3.02-3.14 4.7-6.98 4.7-4.32 0-7.52-2.35-7.52-7.6 0-5.26 3.2-7.65 7.52-7.65zM27 6.17c0-2.24-1.6-3.51-3.77-3.51-2.32 0-3.52 1.4-3.87 3.5zM34.91.3l.25 2.45C36.12 1.06 37.76 0 40.4 0c3.38 0 5.44 1.79 5.41 6.01v8.94h-3.39V6.2c0-2.51-1.48-3.33-3.26-3.33-2.82 0-3.95 2.33-3.95 5.68v6.4h-3.36V.3ZM53.63 0c4.2 0 6.01 1.81 6.23 4.53h-3.3c-.15-1.32-.94-2.05-2.9-2.05-1.9 0-2.87.66-2.87 1.76 0 3.39 9.43 1 9.43 6.65 0 3.2-2.51 4.38-6.53 4.38-4.9 0-6.58-1.84-6.74-4.65h3.4c.12 1.33.97 2.17 3.27 2.17 2.23 0 3.14-.66 3.14-1.8 0-2.97-9.46-.56-9.46-6.63C47.32 1.42 49.95 0 53.63 0zm15.19 0c4.4 0 7.58 2.39 7.58 7.64 0 5.26-3.17 7.62-7.58 7.62s-7.59-2.36-7.59-7.62C61.23 2.4 64.45 0 68.82 0zm0 12.54c2.32 0 4.05-1.4 4.05-4.9 0-3.48-1.73-4.89-4.05-4.89s-4.05 1.41-4.05 4.9c0 3.48 1.72 4.9 4.05 4.9zm35.58-7.49c.28-2.36-.84-3.2-3.47-3.2-2.57 0-3.96.78-4.41 2.72H94.7c.57-2.85 2.77-4.33 6.43-4.33 4.05 0 5.59 1.41 5.05 4.9l-.97 6.1c-.24 1.45 0 1.96.85 1.96h.65l-.27 1.77h-.66c-2.12 0-2.51-1.03-2.45-2.63-1.18 1.69-3.11 2.84-5.95 2.84-2.39 0-4.72-.73-4.2-3.93.94-5.9 10.34-2.73 11.21-6.2Zm-6.31 8.64c3.3 0 5.28-2.15 5.74-4.9l.24-1.5c-2.66 2.02-8.43.3-9 3.92-.27 1.66.84 2.48 3.02 2.48z"/>
  <path d="M106.2 19.18c1.66 0 2.87-.46 3.99-2.36l1.12-1.93L107.7.44h2l2.92 12.27L119.88.44h1.97l-9.86 16.65c-2.15 3.57-3.84 3.8-6.08 3.8zM81.55.45l-.21 2.57C82.7 1.12 84.69.24 87.1.24c3.87 0 6.28 2.24 5.47 7.46-.82 5.23-4 7.47-7.86 7.47-2.38 0-4.05-.85-4.83-2.75l-1.35 8.49h-1.81L79.95.45Zm9.1 7.25c.66-4.22-1.24-5.85-4.17-5.85-2.47 0-4.58 1.17-5.56 4.1l-.55 3.53c.06 2.93 1.76 4.1 4.26 4.1 2.93-.01 5.32-1.67 6.01-5.88z"/>
</svg>
