<svg xmlns="http://www.w3.org/2000/svg" viewBox="0 0 1209 196">
  <title>QuickPay</title>
  <path fill="#0043f5" d="M171 148.7A75 75 0 1 0 82.3 68h81.4a88.8 88.8 0 0 1-33.7 77 74.8 74.8 0 0 0 41 3.7z"/>
  <path fill="#0043f5" d="M116 137.8A75 75 0 1 1 102 5a88.8 88.8 0 0 0-33.7 77h81.4a75 75 0 0 1-33.7 55.8z"/>
  <path fill="#404040" d="M387.6 150a67.5 67.5 0 0 1-51.2-23A78.1 78.1 0 0 1 317 76.6a74 74 0 0 1 42.7-67.3A63.3 63.3 0 0 1 388.2 3c10.5 0 20 2 28.6 6.3a74.8 74.8 0 0 1 36.5 40.8 72.8 72.8 0 0 1 0 53.6 72.5 72.5 0 0 1-13.8 22.9l19.8 22.2h-26.6l-8.5-9.4a69.6 69.6 0 0 1-36.5 10.4zm.2-25a40.4 40.4 0 0 0 19.2-4.8l-22-25h26.5l10 11.3a56.3 56.3 0 0 0 8.6-30 56 56 0 0 0-5.1-23.7 45.2 45.2 0 0 0-14.7-18 37.8 37.8 0 0 0-22.5-6.9c-9 0-16.8 2.4-23 7.2s-11 10.9-14.3 18.3a57 57 0 0 0 0 46.8 45.9 45.9 0 0 0 14.5 18 38 38 0 0 0 22.8 6.9zm202-97.9V0h27.4v27.1h-27.4zm0 121.8V42h27.4v107h-27.4zm101.8 2.1a54.2 54.2 0 0 1-49.6-28.2 57.7 57.7 0 0 1-.2-54.9 52.7 52.7 0 0 1 19.6-20.2 58 58 0 0 1 30-7.5c11.7 0 21.7 2.5 29.8 7.5a48 48 0 0 1 18.6 19.8l-26.7 8.2a23.6 23.6 0 0 0-21.9-12.3A26.9 26.9 0 0 0 667 78.7a36.1 36.1 0 0 0-3.6 16.8c0 6.2 1.2 11.8 3.6 16.7a32 32 0 0 0 10.2 11.4 26.9 26.9 0 0 0 27.6.6c4.2-2.4 7.1-5.5 8.8-9.1l26.7 8.1a46 46 0 0 1-18.4 20 56.7 56.7 0 0 1-30.2 7.8zm131.7-2-31.2-46.2-14.5 14.3v31.8h-27.3V0h27.3v90.2l43-48h29L810 87.5l42.6 61.4h-29.2zm100 2a41.1 41.1 0 0 1-36.7-20.8v62.2h-27.4V42h24v18.4A42.8 42.8 0 0 1 920 40.2a45 45 0 0 1 25.8 7.5 51.7 51.7 0 0 1 17.7 20 64.2 64.2 0 0 1 .4 55.9c-4 8.3-9.4 15-16.5 20-7 5-15 7.4-24 7.4zm-9.2-23.3c5.6 0 10.4-1.5 14.5-4.5a36 36 0 0 0 9.6-44 28.7 28.7 0 0 0-25.7-15.8 28 28 0 0 0-15.5 5.1 25 25 0 0 0-10.4 12.9v25c2.4 6 6.2 11.1 11.2 15.2 5 4 10.5 6.1 16.3 6.1zm199.8 42c5 1.4 9.1 2 12.2 2 3.7 0 6.6-1.5 8.8-4.6 2.3-3 5-9 7.8-18.2L1100.4 42h28.4l28.8 79 25.3-79h26.1l-44.9 128.1a36.7 36.7 0 0 1-13.3 18.2c-6.2 4.9-14 7.3-23.2 7.3-4.5 0-9-.7-13.7-2.2v-23.7zm-88.4-19.6a41 41 0 0 0 37-20.6v18.6h27.4V42.5h-24v18.1a42.6 42.6 0 0 0-37.2-20c-9.7 0-18.3 2.6-25.8 7.5A51.4 51.4 0 0 0 985.1 68a62.6 62.6 0 0 0-.4 55.2 51 51 0 0 0 16.6 19.8c7 4.8 15 7.2 24.2 7.2zm9.2-23a24 24 0 0 1-14.6-4.4 35 35 0 0 1-9.6-43.5c2.6-4.9 6.1-8.6 10.7-11.3a28.2 28.2 0 0 1 30.7.8c5.2 3.4 8.7 7.6 10.5 12.7v24.8A37 37 0 0 1 1051 121c-5 4-10.5 6-16.4 6zM471 42.6h27.2V102c0 8.5 1.5 14.7 4.4 18.6 3 3.9 7.1 5.8 12.4 5.8 3.7 0 7.4-1 11.2-2.8a34.2 34.2 0 0 0 16.4-19.2V42.6h27.2v105.7h-24.6v-19.6a40.9 40.9 0 0 1-17 15.6A53.3 53.3 0 0 1 503 150c-6.6 0-12-1.2-16.2-3.6a24.4 24.4 0 0 1-9.7-9.5 38 38 0 0 1-4.7-13.3c-1-5-1.4-10-1.4-15.1v-66z"/>
</svg>
