<svg xmlns="http://www.w3.org/2000/svg" viewBox="0 0 1209 196">
  <title>QuickPay</title>
  <path d="M171 148.696C205.731 142.138 232 111.637 232 75c0-41.4214-33.579-75-75-75-15.131.0-29.216 4.48102-41 12.1884C97.3649 24.3773 84.4849 44.6352 82.3224 68H163.729C163.908 70.3097 164 72.6442 164 75c0 28.399-13.302 53.692-34.014 69.988C138.367 148.225 147.476 150 157 150 161.785 150 166.464 149.552 171 148.696z" fill="#0043f5"></path><path d="M116 137.812C104.216 145.519 90.1315 150 75 150 33.5786 150 0 116.421.0 75 0 43.4769 19.4479 16.4961 47 5.40126 55.6514 1.91748 65.1018.0 75 0 84.5237.0 93.6327 1.7751 102.014 5.01248 81.3015 21.3081 68 46.6007 68 75 68 77.3558 68.0915 79.6903 68.2712 82H149.678C147.515 105.365 134.635 125.623 116 137.812z" fill="#0043f5"></path><path d="M387.62 149.943c-10.614.0-20.274-2.04000000000002-28.983-6.12C350.065 139.607 342.649 134.03 336.39 127.094 330.267 120.158 325.504 112.338 322.103 103.634 318.701 94.7937 317 85.7495 317 76.5014 317 66.8452 318.769 57.665 322.307 48.9609 325.844 40.1207 330.811 32.3006 337.206 25.5005 343.602 18.5643 351.085 13.1242 359.658 9.18016 368.366 5.10009 377.891 3.06005 388.232 3.06005c10.478.0 20.002 2.10804 28.575 6.32412C425.515 13.6002 432.931 19.2443 439.054 26.3165 445.313 33.3886 450.076 41.3447 453.341 50.1849 456.743 58.8891 458.444 67.7972 458.444 76.9094 458.444 86.1576 456.743 95.1337 453.341 103.838 450.076 112.406 445.449 120.022 439.462 126.686l19.798 22.237H432.727L424.154 139.539C418.984 142.803 413.269 145.387 407.01 147.291 400.887 149.059 394.423 149.943 387.62 149.943zM387.824 125.054C391.498 125.054 394.9 124.646 398.029 123.83 401.295 122.878 404.288 121.654 407.01 120.158L384.967 95.2697H411.5L421.501 106.49C424.222 102.138 426.332 97.3778 427.828 92.2097 429.325 87.0416 430.073 81.8055 430.073 76.5014 430.073 68.0692 428.373 60.1811 424.971 52.837 421.569 45.4928 416.671 39.5087 410.275 34.8846 404.016 30.2605 396.532 27.9485 387.824 27.9485c-9.11700000000002.0-16.805 2.38-23.064 7.1401S353.739 45.9688 350.473 53.449C347.207 60.9291 345.575 68.6132 345.575 76.5014 345.575 84.9335 347.207 92.8217 350.473 100.166 353.875 107.51 358.705 113.494 364.964 118.118 371.36 122.742 378.979 125.054 387.824 125.054z" fill="#404040"></path><path d="M589.808 27.1325V0h27.35V27.1325h-27.35zm0 121.7905V42.0247h27.35V148.923h-27.35z" fill="#404040"></path><path d="M691.632 150.963C680.066 150.963 670.065 148.379 661.628 143.211 653.192 138.043 646.661 131.242 642.034 122.81 637.408 114.378 635.095 105.266 635.095 95.4737 635.095 85.5456 637.34 76.3654 641.83 67.9332 646.457 59.5011 652.988 52.769 661.424 47.7369 669.861 42.7048 679.862 40.1887 691.428 40.1887c11.701.0 21.635 2.5161 29.799 7.5482C729.527 52.769 735.718 59.3651 739.8 67.5252l-26.737 8.1602C708.3 67.5252 701.02 63.4451 691.223 63.4451 685.917 63.4451 681.154 64.8052 676.936 67.5252 672.718 70.1093 669.384 73.8493 666.935 78.7454 664.486 83.5055 663.261 89.0816 663.261 95.4737 663.261 101.73 664.486 107.306 666.935 112.202 669.52 116.962 672.922 120.77 677.14 123.626 681.358 126.346 686.053 127.706 691.223 127.706 696.122 127.706 700.612 126.55 704.694 124.238 708.912 121.79 711.838 118.73 713.471 115.058l26.737 8.16C736.535 131.242 730.411 137.906 721.839 143.211 713.403 148.379 703.334 150.963 691.632 150.963z" fill="#404040"></path><path d="M823.327 148.923l-31.228-46.105L777.608 117.098v31.825H750.258V0H777.608V90.1696L820.673 42.2288H849.656l-39.8 45.2888 42.658 61.4054H823.327z" fill="#404040"></path><path d="M923.315 150.963C914.879 150.963 907.531 149.059 901.272 145.251 895.013 141.443 890.115 136.41 886.577 130.154v62.221h-27.35V42.0247h23.88V60.3851C887.053 54.129 892.156 49.2329 898.415 45.6968 904.81 42.0248 912.022 40.1887 920.05 40.1887 929.711 40.1887 938.283 42.7048 945.767 47.7369 953.251 52.633 959.17 59.2971 963.524 67.7292 967.878 76.0254 970.055 85.2055 970.055 95.2697 970.055 105.742 968.014 115.194 963.932 123.626 959.986 131.922 954.475 138.587 947.4 143.619 940.46 148.515 932.432 150.963 923.315 150.963zM914.131 127.706C919.71 127.706 924.54 126.21 928.622 123.218 932.84 120.09 936.106 116.078 938.419 111.182 940.868 106.15 942.093 100.846 942.093 95.2697 942.093 89.2856 940.8 83.9135 938.215 79.1534 935.63 74.2573 932.092 70.4493 927.602 67.7292 923.247 64.8732 918.213 63.4451 912.498 63.4451 907.327 63.4451 902.157 65.1452 896.986 68.5452 891.815 71.9453 888.346 76.2294 886.577 81.3975V106.49C889.026 112.474 892.768 117.506 897.803 121.586c5.03399999999999 4.08 10.477 6.12 16.328 6.12z" fill="#404040"></path><path d="M1113.89 169.731C1118.92 171.091 1123 171.771 1126.13 171.771 1129.81 171.771 1132.73 170.207 1134.91 167.079 1137.22 164.087 1139.81 158.035 1142.67 148.923L1100.42 42.0249H1128.79l28.78 78.9491 25.3-78.9491H1209L1164.1 170.139C1161.65 177.483 1157.23 183.535 1150.83 188.296 1144.57 193.192 1136.82 195.64 1127.56 195.64 1123.07 195.64 1118.51 194.892 1113.89 193.396V169.731z" fill="#404040"></path><path d="M1025.47 150.12C1033.94 150.12 1041.33 148.239 1047.62 144.476 1053.91 140.714 1058.83 135.742 1062.39 129.562v18.542H1089.87V42.4917h-24V60.6312C1061.91 54.4504 1056.78 49.6131 1050.49 46.1196 1044.06 42.4917 1036.82 40.6777 1028.75 40.6777c-9.71000000000004.0-18.33 2.4858-25.85 7.4574C995.382 52.9723 989.434 59.5563 985.058 67.8871 980.682 76.0834 978.494 85.1532 978.494 95.0964 978.494 105.443 980.545 114.781 984.648 123.112 988.613 131.308 994.151 137.892 1001.26 142.864 1008.24 147.701 1016.3 150.12 1025.47 150.12zM1034.7 127.143C1029.09 127.143 1024.24 125.665 1020.13 122.709 1015.89 119.618 1012.61 115.655 1010.29 110.817 1007.83 105.846 1006.6 100.605 1006.6 95.0964 1006.6 89.1842 1007.89 83.8767 1010.49 79.1739 1013.09 74.3367 1016.65 70.5744 1021.16 67.8871 1025.53 65.0654 1030.59 63.6545 1036.34 63.6545 1041.53 63.6545 1046.73 65.3341 1051.93 68.6933 1057.12 72.0524 1060.61 76.285 1062.39 81.3909V106.182C1059.93 112.094 1056.17 117.065 1051.11 121.096 1046.05 125.127 1040.58 127.143 1034.7 127.143z" fill="#404040"></path><path d="M470.993 42.6147h27.182V101.914c0 8.471 1.488 14.657 4.46299999999997 18.556C505.613 124.37 509.738 126.319 515.012 126.319 518.663 126.319 522.382 125.378 526.169 123.496 529.82 121.613 533.133 118.991 536.108 115.629 539.084 112.402 541.247 108.637 542.6 104.334V42.6148h27.182V148.304H545.237V128.74C541.315 135.328 535.635 140.505 528.197 144.27 520.76 148.17 512.375 150.12 503.044 150.12 496.417 150.12 491.008 148.909 486.816 146.489 482.624 144.203 479.378 141.043 477.079 137.009 474.78 133.11 473.225 128.672 472.413 123.697 471.467 118.722 470.993 113.68 470.993 108.57V42.6147z" fill="#404040"></path>
</svg>
