<svg xmlns="http://www.w3.org/2000/svg" viewBox="0 0 104 23">
  <title>Scanpay</title>
  <path fill="#256299" d="M9.8 15a8 8 0 01-4.7 1.2c-2.1 0-3.7-.2-5.1-.8v-3c1.9 1 3.6 1.4 5.2 1.4 2 0 3-.7 3-2 0-.3 0-.7-.3-1a12.1 12.1 0 00-3.4-1.6C2.7 8.4 1.5 7.7 1 7 .3 6.2 0 5.3 0 4.2c0-1.2.6-2.4 1.6-3C2.6.4 4.2 0 6 0c1.8 0 3.6.4 5.2 1.1L10 3.8c-1.7-.7-3.2-1-4.3-1-1.8 0-2.6.5-2.6 1.5 0 .5.1 1 .6 1.3l3 1.4c1 .4 2 .8 2.9 1.4 1 .8 1.7 2 1.8 3.4 0 1.3-.5 2.5-1.7 3.3zm10.3 1.2c-2.4 0-4.3-.6-5.5-2-1.2-1.4-1.7-3.4-1.7-6s.6-4.6 1.9-6C16 .6 17.9 0 20.5 0c1.7 0 3.2.3 4.5 1l-1 2.6a11 11 0 00-3.5-.9c-2.7 0-4 2-4 5.5 0 1.7.3 3 1 4 .7.8 1.7 1.2 3 1.2 1.5 0 2.9-.4 4.3-1v2.8c-.7.4-1.3.6-2 .8l-2.7.2zm16.4-.2l-.7-2.1h-.1c-.6.8-1.4 1.4-2.3 2-.9.3-1.7.4-3 .4-1.5 0-2.7-.4-3.6-1.2-.8-.9-1.2-2.1-1.2-3.6 0-1.7.6-2.9 1.7-3.6 1.3-.9 3.1-1.3 5.6-1.4h2.7v-1c0-1-.2-1.6-.7-2.2-.4-.5-1.2-.7-2.1-.7-.8 0-1.5 0-2.3.3l-2.1.9-1-2.4c.8-.5 1.6-.9 2.7-1C31 0 32 0 33 0c2 0 3.5.4 4.6 1.3 1 .8 1.5 2.2 1.5 4V16h-2.4zm-5-2.2c1.2 0 2.1-.5 3-1a4 4 0 001-3V8.6h-2a7 7 0 00-3.5.9c-.8.4-1.1 1.2-1.1 2.1 0 .7.1 1.2.6 1.7.4.3 1 .6 1.8.6zM55.8 16h-3.4V6.3c0-1.2-.1-2.1-.7-2.7-.5-.6-1.2-.9-2.3-.9-1.4 0-2.4.4-3.1 1.2-.6.8-.9 2.3-.9 4.2V16H42V.3h2.6l.5 2.1h.2c.5-.9 1-1.4 2-1.7.9-.4 1.8-.7 2.8-.7 3.8 0 5.7 2 5.7 5.7V16zm11.1.2c-2 0-3.5-.6-4.7-2H62l.2 2.4V23h-3.4V.3h2.7l.4 2.1h.2C63 .8 64.8-.1 66.7 0c2 0 3.5.8 4.5 2.1a9.6 9.6 0 011.7 6c0 2.6-.6 4.6-1.7 6a5.5 5.5 0 01-4.6 2.1zm-.8-13.5c-1.3 0-2.3.4-3 1.2-.5.8-.8 2-.8 3.7v.5c0 2 .3 3.3.9 4.1.6.9 1.5 1.3 2.9 1.3a3 3 0 002.6-1.4c.7-1.2 1-2.6 1-4a7 7 0 00-1-3.9A3.2 3.2 0 0066 2.8zM85.4 16l-.7-2.2c-.7.8-1.5 1.5-2.4 2-.8.3-1.8.4-3 .4-1.5 0-2.7-.4-3.6-1.1-.9-.9-1.3-2.1-1.3-3.6s.6-2.9 1.8-3.7a11 11 0 015.4-1.3h2.7v-.9c0-1-.3-1.7-.7-2.3-.5-.5-1.2-.7-2.2-.7-1.6 0-3.1.4-4.5 1.2l-1-2.4c.8-.5 1.7-.8 2.7-1 1-.2 2-.4 3-.4 2 0 3.4.4 4.5 1.4 1 .8 1.5 2.2 1.5 4V16h-2.4zm-5-2.3c1.1 0 2.1-.4 3-1 .7-.7 1-1.7 1-2.9V8.6h-2a6 6 0 00-3.4.9c-.7.4-1 1.1-1 2.1 0 .7.1 1.2.6 1.7.4.3 1 .5 1.8.5zM88.6.3h3.6l3.2 8.9a25 25 0 011 3.5l.4-1.8L100.4.3h3.6L97.3 18C96 21.4 94 23 91 23c-.8 0-1.4 0-2.1-.3v-2.6l1.7.2c1.5 0 2.7-1 3.4-2.9l.5-1.4L88.3.3z"/>
</svg>
