<svg xmlns="http://www.w3.org/2000/svg" viewBox="0 0 121 30">
  <title>ScanNet</title>
  <path fill="#30302E" d="M21 9.8h-6.6l.8-2c.4-1 .5-1.5.4-1.8s-.3-.4-.7-.4-1 .2-1.3.5l-1 1.6c-.2 1-.4 1.6-.3 2s.5 1 1.3 1.6c2.4 2 3.7 3.4 4 4.6.4 1.2 0 3-1 5.7-.6 2-1.4 3.3-2.2 4.2s-2 1.7-3.5 2.3c-1.5.7-3 1-4.8 1-2 0-3.3-.4-4.4-1C.8 27 .2 26.2.3 25c0-1 .4-2.6 1.2-4.7l.7-1.8h6.5L7.4 22c-.4 1-.6 1.7-.5 2 0 .2.2.3.7.3s1-.2 1.2-.5l1-1.6c.5-1.6.7-2.6.5-3s-1-1.4-2.3-2.5-2-2-2.5-2.5-.5-1.2-.5-2.2c0-1 .3-2 .8-3.5.8-2 1.6-3.6 2.5-4.5s2-1.7 3.4-2.2 2.8-.8 4.4-.8c1.8 0 3.2.3 4.3 1 1 .5 1.6 1.2 1.7 2s-.3 2.5-1 4.6l-.5 1.2zM36.3 14.7H30l1-2.5.5-1.8s-.2-.5-.6-.5-.8 0-1 .3l-1 2-4 10.3-.3 1.8c0 .4.3.6.7.6.5 0 .8-.2 1.2-.6.3-.4.7-1.2 1-2.3l1-2.5h6l-1.7 4c-.6.8-1.3 1.7-2.3 2.6s-2 1.7-3.3 2.2-2.5.7-4 .7c-2 0-3.3-.4-4-1-1-.7-1.4-1.7-1.4-2.8 0-1.2.4-2.8 1.2-5l2.4-6.2c.7-2 1.5-3.3 2.2-4.2s2-1.8 3.4-2.5c1.5-1 3.2-1.3 5-1.3s3 .4 4 1c1 .8 1.3 1.8 1.3 3 0 1-.4 2.7-1.2 4.7zM43.3 22.5l-1 2s-.5.5-1 .5-.6-.2-.6-.5l.6-2.2 1-2.3c.5-.5 1.3-1.2 2.7-2l-1.7 4.5zm1.8-10l1.2-2.2c.2-.3.6-.4 1-.4s.6 0 .6.4-.2 1-.6 2.2c-.4 1-.7 1.5-1 1.8-.2.3-1.6 1-4 1.7-2.4 1-4 1.6-4.7 2.2s-1.4 1.7-2 3.4l-.8 1.8c-1 2.2-1 3.7-.2 4.3.7.7 1.7 1 2.8 1 1 0 1.7-.2 2.5-.6s1.5-1 2.3-1.7l-.7 2h6.5l4.3-11c1.5-3.6 2.3-6 2.6-7.2.2-1 0-2-1-2.8-1-.7-2.4-1.2-4.7-1.2-2 0-3.7.4-5 1-1.6.8-2.7 1.6-3.4 2.5s-1.4 2.2-2 4l-.7 1.4H44l1-2.4zM65.4 6.5l-1 2c1-.8 1.7-1.4 2.6-1.8.8-.4 1.7-.7 2.6-.7 1 0 2 .3 2.5.8s.8 1.2.7 2-.5 2.2-1.3 4l-6 15.5h-6.7l6-15.2c.5-1.4.8-2.3.8-2.7 0-.3-.2-.5-.6-.5-.6 0-1 .2-1.2.6l-1.4 3-5.8 15H50l8.6-22h6.8zM94 1.6L83.5 28.4h-6l1-12.2-4.7 12.2H68L78.4 1.6h5.8l-.8 12 4.7-12h6zM98.2 14.3l.6-1.6 1-2.3c.3-.3.7-.4 1-.4s.6.2.6.5-.2 1-.7 2.2l-.6 1.6h-1.8zm8.4.6c.8-2.2 1.2-4 1.2-5s-.5-2.2-1.5-3c-1-.6-2.4-1-4.2-1-1.4 0-3 .3-4.3 1S95 8.2 94.2 9.4c-1 1-1.8 2.6-2.5 4.5l-2.5 6.4c-.6 1.6-1 3-1 3.7-.2 1 0 1.7.2 2.5.3.7 1 1.3 2 1.7.8.4 2 .6 3.4.6 1.5 0 2.7-.2 4-.6 1-.4 2-1 3-2 1-.7 1.7-1.5 2-2.2.6-.7 1-1.8 1.6-3l.6-1.7h-6.4l-1 3-1.2 2s-.7.7-1.2.7c-.4 0-.6 0-.7-.4 0-.3 0-1 .5-2l2-4.7h8.6l1-3zM120.2 3.5L118.8 7h1.8l-1.4 3.5h-1.8l-4.6 11.7c-.6 1.4-.8 2.2-.7 2.4s.8.2 2 .2l-1.5 3.5h-2.7c-1.5 0-2.6 0-3.2-.2s-1-.3-1.4-.8-.4-1-.3-1.6l1.3-4.2 4.3-11H109l1.5-3.6h1.5l1.4-3.5h6.8z"/>
</svg>
