<svg xmlns="http://www.w3.org/2000/svg" viewBox="0 0 112 24">
  <title>Shipmondo</title>
  <path fill="#1e1e4c" d="M5.4 6a7 7 0 0 1 4.4 1.5L8.6 9.2a5.8 5.8 0 0 0-3.1-1c-.6 0-1 .2-1.4.4a1 1 0 0 0-.5.9c0 .3 0 .5.2.7.2.2.4.4.8.5l1.6.6a6 6 0 0 1 3 1.4c.7.6 1 1.5 1 2.5a3.4 3.4 0 0 1-1.5 3c-1 .7-2.2 1-3.7 1a8 8 0 0 1-2.8-.5A6.8 6.8 0 0 1 0 17.4l1.5-1.7A5.5 5.5 0 0 0 4.9 17c.7 0 1.2-.2 1.6-.5.4-.2.6-.6.6-1s0-.7-.2-1L6 14l-1.8-.6A6 6 0 0 1 1.5 12c-.6-.7-1-1.4-1-2.4 0-.7.3-1.3.7-1.8.4-.6 1-1 1.7-1.3A6.4 6.4 0 0 1 5.4 6zm13 0c1 0 2 .3 2.6 1a4 4 0 0 1 .9 2.8v9h-3v-8.5c0-.8-.1-1.3-.4-1.6-.3-.3-.6-.4-1.1-.4-.5 0-1 .1-1.4.5a4 4 0 0 0-1.3 1.3V19h-3V1.4l3-.4v6.8A4.5 4.5 0 0 1 18.4 6zm9 .3v12.5h-3V6.3ZM26 0c.5 0 1 .2 1.3.5.4.4.6.8.6 1.3s-.2 1-.6 1.3c-.3.4-.8.6-1.4.6-.5 0-1-.2-1.3-.6a1.8 1.8 0 0 1-.5-1.3c0-.5.1-1 .5-1.3.3-.3.8-.5 1.3-.5zm10.6 6c1.6 0 2.8.6 3.5 1.7a8.8 8.8 0 0 1 1.2 4.9 9 9 0 0 1-.6 3.4 5 5 0 0 1-1.7 2.4 4.2 4.2 0 0 1-2.7.8 3.9 3.9 0 0 1-3.1-1.4v5.9l-3 .3V6.3h2.6L33 8a4.9 4.9 0 0 1 1.6-1.4 4.4 4.4 0 0 1 2-.5zm-1.1 10.9c1.7 0 2.6-1.4 2.6-4.3a7 7 0 0 0-.6-3.3 2 2 0 0 0-1.8-1c-.5 0-1 .1-1.4.4a4 4 0 0 0-1.1 1.3v5.6c.6.9 1.3 1.3 2.3 1.3zm21-11A3 3 0 0 1 58.9 7c.6.7.9 1.6.9 2.8v9h-3v-8.5c0-1.4-.5-2-1.4-2a2 2 0 0 0-1.3.4c-.3.3-.7.8-1 1.4v8.7h-3v-8.5c0-1.4-.5-2-1.4-2a2 2 0 0 0-1.3.4 6 6 0 0 0-1.1 1.4v8.7h-3V6.3h2.6L46 8a4.3 4.3 0 0 1 3.6-2 3.1 3.1 0 0 1 3 2.1 5.9 5.9 0 0 1 1.7-1.6 4 4 0 0 1 2-.5zm11 0c1.8 0 3.2.7 4.2 1.9a7 7 0 0 1 1.6 4.8c0 1.3-.3 2.5-.7 3.5a5.4 5.4 0 0 1-5.2 3.1 5.5 5.5 0 0 1-4.3-1.7 7.1 7.1 0 0 1-1.6-5c0-1.2.3-2.4.7-3.4A5.4 5.4 0 0 1 67.4 6zm0 2.4c-1.9 0-2.8 1.4-2.8 4.3 0 1.5.2 2.6.7 3.3.4.7 1.1 1 2 1 1 0 1.6-.3 2-1a6 6 0 0 0 .7-3.3 6 6 0 0 0-.7-3.3 2.2 2.2 0 0 0-2-1zM81.7 6c1.1 0 2 .3 2.6 1a4 4 0 0 1 1 2.8v9h-3v-8.5c0-.8-.2-1.3-.5-1.6-.2-.3-.6-.4-1.1-.4-.5 0-1 .1-1.4.5-.4.3-.8.7-1.2 1.4v8.7h-3V6.3h2.6L78 8a4.6 4.6 0 0 1 3.8-2zm16.6-4.7V19h-2.7l-.2-1.6a5 5 0 0 1-1.5 1.4 4 4 0 0 1-2 .5 4 4 0 0 1-3.5-1.8 8.4 8.4 0 0 1-1.3-4.8 9 9 0 0 1 .6-3.4c.4-1 1-1.8 1.8-2.4a4.4 4.4 0 0 1 2.6-.8c1.2 0 2.3.4 3.2 1.3V1zM92.8 17c.5 0 1-.1 1.4-.4.4-.2.8-.6 1.2-1.2V9.6a4.2 4.2 0 0 0-1.1-1 2.4 2.4 0 0 0-1.3-.3c-.8 0-1.4.3-2 1a6 6 0 0 0-.6 3.3 7 7 0 0 0 .6 3.3c.4.7 1 1 1.8 1zm13.4-11c1.8 0 3.2.7 4.2 1.9a7 7 0 0 1 1.6 4.8c0 1.3-.2 2.5-.7 3.5a5.4 5.4 0 0 1-5.2 3.1 5.5 5.5 0 0 1-4.3-1.7 7.1 7.1 0 0 1-1.5-5 8 8 0 0 1 .7-3.4 5.4 5.4 0 0 1 5.2-3.1zm0 2.4c-1.8 0-2.8 1.4-2.8 4.3 0 1.5.3 2.6.7 3.3.5.7 1.1 1 2 1 1 0 1.6-.3 2-1a6 6 0 0 0 .7-3.3 6 6 0 0 0-.7-3.3 2.2 2.2 0 0 0-2-1z"/>
</svg>
