<svg xmlns="http://www.w3.org/2000/svg" viewBox="0 0 95 27">
  <title>Shopify</title>
  <path fill="#95bf47" d="m20.6 5.1-.3-.2h-2l-1.7-1.7c-.1-.2-.5-.1-.6-.1l-.8.2-.4-.9c-.5-1-1.3-1.6-2.3-1.6h-.3V.7a2 2 0 0 0-1.7-.7C9.2 0 7.9 1 6.9 2.6a12 12 0 0 0-1.5 3.8L3 7.2c-.8.2-.8.2-.9 1L0 23.6l16.4 2.9 7-1.8L20.6 5zm-6.2-1.5-1.3.4a7 7 0 0 0-.4-2.4c1 .2 1.5 1.3 1.7 2zm-2.1.7L9.5 5c.3-1 .8-2 1.4-2.7l1-.7c.3.8.4 1.8.4 2.6zM10.5.9c.3 0 .6 0 .8.2l-1 .7c-.8 1-1.4 2.3-1.7 3.6L6.4 6C6.8 4 8.5.9 10.5.9Z"/>
  <path fill="#5e8e3e" d="M20.3 4.9h-2l-1.7-1.7-.2-.1v23.5l7-1.8-2.8-19.7-.3-.2z"/>
  <path fill="#fff" d="m12.5 8.5-.9 3.1s-.9-.4-2-.3c-1.6 0-1.6 1-1.6 1.3.1 1.4 3.7 1.7 4 5 .1 2.5-1.4 4.2-3.6 4.3-2.6.2-4-1.3-4-1.3l.5-2.4s1.5 1.1 2.6 1c.8 0 1-.6 1-1 0-1.9-3-1.7-3.2-4.7-.2-2.5 1.4-5 5-5.2 1.4-.1 2.2.2 2.2.2z"/>
  <path d="M32.8 15c-.8-.5-1.2-.8-1.2-1.3 0-.7.6-1.1 1.5-1.1 1 0 2 .4 2 .4l.8-2.2s-.7-.6-2.8-.6c-2.8 0-4.7 1.6-4.7 3.9 0 1.3.9 2.2 2.1 3 1 .5 1.3.9 1.3 1.5s-.4 1-1.4 1c-1.3 0-2.6-.6-2.6-.6l-.8 2.2s1.2.8 3.2.8c2.9 0 5-1.4 5-4 0-1.3-1-2.3-2.4-3zm11.6-4.8c-1.5 0-2.6.7-3.4 1.7l1.2-6.5h-3.3l-3 16.4H39l1.1-5.6c.4-2.1 1.5-3.4 2.5-3.4.8 0 1 .5 1 1.2v1.4l-1.3 6.4h3.2l1.3-6.6.2-2.1c0-1.8-1-3-2.6-3zm9.9 0c-3.9 0-6.5 3.5-6.5 7.4 0 2.5 1.6 4.5 4.5 4.5 3.8 0 6.3-3.4 6.3-7.4 0-2.3-1.3-4.5-4.3-4.5zm-1.6 9.4c-1.1 0-1.6-1-1.6-2.1 0-1.8 1-4.8 2.7-4.8 1.2 0 1.6 1 1.6 1.9 0 2-1 5-2.7 5zm14.2-9.4c-2.2 0-3.4 1.9-3.4 1.9l.1-1.7h-2.8l-.7 4.2L58 26.4h3l.9-4.8s.7.5 2 .5c3.7 0 6.2-3.9 6.2-7.8 0-2.2-1-4.1-3.3-4.1zm-3 9.4a2 2 0 0 1-1.4-.4l.5-3c.4-2 1.4-3.4 2.6-3.4 1 0 1.2 1 1.2 1.8 0 2-1.2 5-3 5zm10.9-14c-1 0-1.8.8-1.8 1.8s.6 1.7 1.5 1.7c1 0 1.9-.7 2-2 0-.8-.7-1.5-1.7-1.5zm-4.5 16.2h3.2l2.2-11.4h-3.2zm13.6-11.4h-2.2V10c.3-1.1 1-2 2-2h1l.6-2.4s-.5-.3-1.7-.3-2.3.3-3.2 1a6 6 0 0 0-1.8 3.7l-.1.5H77l-.5 2.4H78l-1.7 9h3.2l1.7-9h2.3zm7.7 0s-2 5.1-2.9 7.9c0-1-.8-7.9-.8-7.9h-3.4l2 10.5-.1.5a5 5 0 0 1-1.8 2 7 7 0 0 1-1.8.9l.9 2.7c.6-.1 2-.7 3.1-1.7 1.5-1.4 2.9-3.5 4.3-6.4l3.9-8.5h-3.4z"/>
</svg>
