<svg xmlns="http://www.w3.org/2000/svg" viewBox="0 0 90 26">
  <title>Swiipe</title>
  <style>.st1{fill:#113251}.st2{fill:#f26422}</style>
  <path d="m34.5 15.3 2-7.8-3.7.3zm25.5.2c0 .5.4.8 1 .8h6c1.8 0 2.6-.9 2.6-2.5V10c-3-.5-6.3-1-9.5-1.3zm-36.4-.2 1.6-6.7-3 .4zM67 3.5h-4c-1.9 0-2.8.9-2.8 2.6 3.1.4 6.2 1 9.5 1.7V6c0-1.6-.9-2.4-2.7-2.4zm21 2.1c0-1.4-.8-2.2-2.6-2.2h-3.6c-2 0-3 .8-3 2.5v3.9l9.4-4zm-59.2.3.4-.1-.2-1z" style="fill:none"/><path d="M11.2 13.5c0 1-.1 1.7-.4 2-.3.5-.9.7-1.8.7H0v3.4h10c.8 0 1.4 0 1.9-.2s1-.5 1.5-1.1a5 5 0 0 0 1.3-3.2v-2.5c0-.7-.1-1.2-.3-1.7l-3.8 1c.5.3.7.9.7 1.7zm-.9-5.3H6c-1.8 0-2.6-.7-2.6-2v-.9c0-.6.3-1 .8-1.4.4-.3 1-.4 1.8-.4h8.7V.3H5.1C3.7.3 2.5.5 2 1A4 4 0 0 0 .2 4.6v2.6a4 4 0 0 0 1.5 3.2c1 .8 2.1 1.1 3.4 1.1h2.4l6-2a4 4 0 0 0-3-1.3zm13.3 7.1L22 9.1l-3.1.5 1.8 7.6c.4 1.8 1.3 2.6 2.7 2.6 1.5 0 2.4-.9 2.8-2.6l2-9-3 .4zm10.9 0-1.9-7.5-3 .2 2.3 9.3c.4 1.7 1.3 2.6 2.6 2.6 1.4 0 2.3-1 2.7-2.6l2.3-9.6h-3.2zM19.8.3h-3.3l1.9 7.5 3-.7zM29 5.9h.1l3-.4-.7-2.9C31 1 30.2.2 29.1.2c-1.2 0-2 .8-2.4 2.4l-.9 3.8 3-.4zM41.4.3H38L37 5l3.3-.2z" class="st1"/><path d="M46.4 4.8V.1h-3.2v4.6h3.2z" class="st2"/><path d="M43.2 19.5h3.2v-12l-3.2-.1zm7.4 0h3.2V7.8l-3.2-.2z" class="st1"/><path d="M53.8.3h-3.2V5l3.2.2z" class="st2"/><path d="M62.8 3.5h4c1.9 0 2.8.8 2.8 2.4v1.8l3.2.7V5.3c0-3.4-1.7-5.1-5.2-5.1h-6c-3.2 0-4.9 1.7-4.9 5.2v.3L60 6c0-1.7.9-2.6 2.7-2.6zm6.8 10.3c0 1.7-.9 2.5-2.5 2.5H61c-.6 0-1-.3-1-.9V8.6l-3.2-.4v18.2h3.3v-6.9h8c1.4 0 2.5-.4 3.4-1.3s1.5-2 1.5-3.5v-4.3l-3.3-.6zm21.8-6V5.3c0-3.5-1.7-5.2-5-5.2h-5.8c-3.5 0-5.3 1.7-5.3 5v4.3c2.3.6 4.8 1.2 7.1 2zM78.7 6c0-1.7 1-2.5 3-2.5h3.6c1.7 0 2.6.7 2.6 2.2V6l-9.4 4zm.9 9.7c-.6-.4-.9-1.1-.9-2.2V13l1.6-.6-5-1v3c0 1.7.6 3.2 1.6 4 .9.8 2.2 1.1 4 1.1h10.4v-3.3h-9.8c-1 0-1.7-.2-2.1-.5z" class="st1"/>
</svg>
