<svg xmlns="http://www.w3.org/2000/svg" viewBox="0 0 120 23">
  <title>Verifone</title>
  <path d="M49.13 4.63h4.85l.82-3.9h-4.9zm-.51 2.5h4.85l-3.1 15.45c-.24.1-.92.37-1.89.37-1.28 0-2.47-.5-2.47-2.28 0-.31.05-.72.14-1.13l2.47-12.4m48.39-.33a5.27 5.27 0 0 0-5.13 3.05h-.04l.18-2.68h-4.8c-.05.59-.23 2.45-.55 4.04 0 0-1.1 5.6-1.33 6.68-.14.82-.46 2.05-.46 2.73 0 1.5.78 2.36 2.47 2.36.96 0 1.65-.27 1.92-.36l1.6-8.05c.46-2.22 2.07-3.68 3.99-3.68 1.56 0 2.29 1.14 2.29 2.05 0 .82-.18 1.68-.37 2.45l-.68 3.46c-.1.4-.28 1.22-.28 1.81 0 1.55.87 2.28 2.52 2.28.91 0 1.46-.23 1.88-.37l1.46-7.22c.32-1.64.41-2.5.41-3.55 0-2.95-1.74-5-5.08-5m-21.24 0c-5.81 0-9.57 3.68-9.57 9.1 0 3.95 2.52 7.04 7.74 7.04 5.54 0 9.57-3.41 9.57-9.27 0-3.87-2.7-6.87-7.74-6.87M74.2 19.22c-2.15 0-3.11-1.4-3.11-3.45 0-2.46 1.51-5.23 4.21-5.23 2.34 0 3.2 1.54 3.2 3.14.05 3.5-1.87 5.54-4.3 5.54m-18.53 0c-.09.55-.18.95-.18 1.4 0 1.78 1.19 2.33 2.47 2.33 1 0 1.65-.28 1.88-.37l2.33-11.72h3.8l.74-3.73h-3.8l.18-.9c.36-1.74 1.14-2.5 2.56-2.5.96 0 1.7.17 1.97.22L68.35.4c-.32-.09-1.7-.4-3.75-.4-3.3 0-5.45 2-6.09 5.18l-.41 1.95h-2.47l-.74 3.77h2.48s-1.01 4.82-1.7 8.32M44.46 6.81a4.54 4.54 0 0 0-4.3 3.05h-.05l.18-2.68h-4.85c-.05.9-.23 2.5-.74 4.95-.5 2.5-.96 5-1.46 7.4-.1.42-.14.83-.14 1.19 0 1.27.64 2.27 2.52 2.27a4.7 4.7 0 0 0 1.88-.36l1.42-7.18c.5-2.73 1.46-4.55 4.16-4.55 1.24 0 2.43.28 2.66.32l.82-4.13a6.94 6.94 0 0 0-2.1-.28M120 13.54c0-4.68-3.12-6.73-7.29-6.73-6.27 0-8.83 5.23-8.83 9.1s2.52 7.04 7.64 7.04c3.71 0 5.82-1.64 5.82-3.82v-.41c-.32.14-2.25.77-3.99.77-3.84 0-4.8-1.95-4.76-3.09h11.04c.09-.45.36-1.72.36-2.86m-4.85-.14h-6.18c.46-1.32 1.46-2.86 3.75-2.86 1.88 0 2.7 1.45 2.43 2.86m-83.18.14c0-4.68-3.12-6.73-7.28-6.73-6.32 0-8.88 5.23-8.88 9.1s2.52 7.04 7.64 7.04c3.71 0 5.82-1.64 5.82-3.82v-.41c-.32.14-2.25.77-3.99.77-3.84 0-4.8-1.95-4.76-3.09h11.04c.13-.45.4-1.72.4-2.86m-4.84-.14h-6.23c.46-1.32 1.46-2.86 3.75-2.86 1.88 0 2.7 1.45 2.48 2.86M0 1.9h4.9v15.37c0 2.31 1.15 3.5 3.02 3.5.19 0 .32-.05.32-.05-.82 1.23-1.87 2.23-4.3 2.23-2.56 0-3.94-1.78-3.94-4.41V1.9Z"/>
  <path fill="#00adef" d="M6.23 15.68v1.59c0 1.54.87 2.13 1.79 2.13.96 0 1.46-.63 1.92-1.36L20.24 1.9h-5.08Z"/>
</svg>
