<svg xmlns="http://www.w3.org/2000/svg" viewBox="0 0 120 23">
  <title>Verifone</title>
  <path d="M49.1 4.6H54l.8-3.9h-4.9zm-.5 2.5h4.9l-3.1 15.5c-.3 0-1 .3-2 .3-1.2 0-2.4-.4-2.4-2.2 0-.3 0-.8.2-1.2l2.4-12.4M97 6.8a5.3 5.3 0 0 0-5.1 3l.1-2.6h-4.8l-.5 4-1.4 6.7c-.1.8-.4 2-.4 2.7 0 1.5.8 2.4 2.5 2.4 1 0 1.6-.3 1.9-.4l1.6-8c.4-2.2 2-3.7 4-3.7 1.5 0 2.3 1.1 2.3 2 0 .9-.2 1.7-.4 2.5l-.7 3.5-.3 1.8c0 1.5.9 2.2 2.5 2.2 1 0 1.5-.2 2-.3l1.4-7.2c.3-1.7.4-2.5.4-3.6 0-3-1.8-5-5-5m-21.3 0c-5.8 0-9.6 3.7-9.6 9.1 0 4 2.5 7 7.7 7 5.6 0 9.6-3.4 9.6-9.2 0-3.9-2.7-6.9-7.7-6.9m-1.6 12.4c-2.1 0-3.1-1.4-3.1-3.4 0-2.5 1.5-5.3 4.2-5.3 2.3 0 3.2 1.6 3.2 3.2 0 3.5-1.9 5.5-4.3 5.5m-18.5 0-.2 1.4c0 1.8 1.2 2.3 2.5 2.3 1 0 1.6-.2 1.8-.3l2.4-11.7H66l.7-3.8H63l.2-.9c.3-1.7 1.1-2.5 2.5-2.5l2 .2.8-3.5c-.4 0-1.8-.4-3.8-.4-3.3 0-5.5 2-6 5.2l-.5 2h-2.5l-.7 3.7h2.5l-1.7 8.3M44.5 6.8a4.5 4.5 0 0 0-4.3 3V7.3h-4.8c0 .9-.2 2.5-.7 5l-1.5 7.3-.1 1.2c0 1.3.6 2.3 2.5 2.3a4.7 4.7 0 0 0 1.9-.4l1.4-7.1c.5-2.8 1.5-4.6 4.2-4.6 1.2 0 2.4.3 2.6.3l.9-4.1a7 7 0 0 0-2.1-.3m75.5 6.7c0-4.6-3.1-6.7-7.3-6.7-6.3 0-8.8 5.2-8.8 9.1s2.5 7 7.6 7c3.7 0 5.8-1.6 5.8-3.8v-.4c-.3.2-2.2.8-4 .8-3.8 0-4.7-2-4.7-3.1h11c.1-.5.4-1.7.4-2.9m-4.9-.1H109c.4-1.3 1.4-2.9 3.7-2.9 1.9 0 2.7 1.5 2.4 2.9m-83.1.1c0-4.6-3.2-6.7-7.3-6.7-6.3 0-8.9 5.2-8.9 9.1s2.5 7 7.6 7c3.8 0 5.9-1.6 5.9-3.8v-.4c-.4.2-2.3.8-4 .8-3.9 0-4.8-2-4.8-3.1h11a9 9 0 0 0 .5-2.9m-4.9-.1H21c.4-1.3 1.4-2.9 3.7-2.9 2 0 2.7 1.5 2.5 2.9M0 1.9h4.9v15.4c0 2.3 1.1 3.5 3 3.5h.3c-.8 1.1-1.8 2.1-4.3 2.1S0 21.3 0 18.5V2Z"/>
  <path fill="#00adef" d="M6.2 15.7v1.6c0 1.5.9 2.1 1.8 2.1 1 0 1.5-.6 2-1.4L20.1 2h-5Z"/>
</svg>
