<svg xmlns="http://www.w3.org/2000/svg" xmlns:xlink="http://www.w3.org/1999/xlink" viewBox="0 0 180 28">
  <defs>
    <path id="a" d="M0 .1h37.4v27H0z"/>
    <path id="c" d="M0 27.4h180V.4H0z"/>
  </defs>
  <g fill="none" fill-rule="evenodd">
    <g transform="translate(0 .3)">
      <mask id="b" fill="#fff">
        <use xlink:href="#a"/>
      </mask>
      <path fill="#1F263A" d="M11.3 22c.6 1.2 1.5 2 2.5 2s1.8-.7 2.4-2l.8-1.6L9.4 4.2 4.1 6.7 11.3 22zm10 0c.5 1.3 1.4 2 2.4 2s1.9-.7 2.5-2l7-15.3L28 4.2l-7.6 16.2.8 1.7zm2.4 5c-2 0-3.8-1-5-3-1.1 2-3 3-5 3-2.1 0-4-1.3-5.2-3.6L0 5.2l10.9-5 7.8 16.6L26.5 0l10.9 5.1L29 23.4c-1.2 2.3-3.1 3.6-5.3 3.6z" mask="url(#b)"/>
    </g>
    <path fill="#1F263A" d="M50.5 24c1.6 0 2.4-1.4 2.8-2.3l4-10.1-3.1-1.2-3.7 10.2L47 10.4l-3.2 1.2 4 10.1c.4 1 1.2 2.3 2.8 2.3m22.1 0c1.6 0 2.4-1.4 2.9-2.3l4-10.1-3.2-1.2-3.7 10.2L69 10.4l-3.2 1.2 4 10.1c.4 1 1.2 2.3 2.8 2.3m11-7c0 2.1 1.4 3.8 3.6 3.8 2.1 0 3.6-1.6 3.6-3.8 0-2.2-1.5-3.9-3.6-3.9-2.2 0-3.6 1.7-3.6 3.9zM94 23.6h-3.3v-1.5a5 5 0 0 1-4 1.9c-3.7 0-6.4-3-6.4-7s2.7-7 6.4-7a5 5 0 0 1 4 1.8v-1.5H94v13.3zm62.8-7.8h6.4c-.2-1.7-1.5-3-3.1-3a3.2 3.2 0 0 0-3.3 3m9.8 1.2-.1 1.2h-9.6c.4 1.9 1.9 2.8 3.6 2.8a5 5 0 0 0 3.4-1.2l2 2.1a8 8 0 0 1-5.6 2c-4 0-7-2.7-7-6.9s2.8-7 6.8-7c3.8 0 6.4 2.8 6.5 7m12.4-3.5h-5.1v4.9c0 1.6.6 2.4 2.2 2.4.9 0 1.9-.5 2.6-1l1.3 2.8a7.4 7.4 0 0 1-4.4 1.4c-3.3 0-5-1.9-5-5.3v-5.2H168v-3h2.6V6.3h3.3v4h5v3.1zm-60-3-3.6 10-3.3-9c-.3-.9-1-1.5-2-1.5s-1.7.6-2 1.5l-3.3 9-3.6-10-3.2 1 4 10.2c.4 1 1.2 2.3 2.9 2.3 1.6 0 2.4-1.4 2.8-2.3l2.4-6.1 2.4 6.1c.4 1 1.2 2.3 2.9 2.3 1.6 0 2.4-1.4 2.8-2.3l4-10.1-3.2-1.2zm7.2 6.5c0 2.1 1.4 3.8 3.6 3.8s3.6-1.6 3.6-3.8c0-2.2-1.4-3.9-3.6-3.9s-3.6 1.7-3.6 3.9zm10.4 6.6h-3.3v-1.5a4.7 4.7 0 0 1-4 1.9c-3.6 0-6.4-3-6.4-7s2.8-7 6.5-7a5 5 0 0 1 4 1.8v-1.5h3.2v13.3z"/>
    <mask id="d" fill="#fff">
      <use xlink:href="#c"/>
    </mask>
    <path fill="#1F263A" d="M140.1 23.6h3.3V4H140zm7 0h3.3V4h-3.2zm-87.2 0h3.3V10.4h-3.3zM63.6 6c0 1.1-1 2-2 2a2 2 0 0 1-2.1-2 2 2 0 0 1 2-2.1 2 2 0 0 1 2.1 2" mask="url(#d)"/>
  </g>
</svg>
