<svg xmlns="http://www.w3.org/2000/svg" viewBox="0 0 513.1 69">
  <title>Worldline</title>
  <path fill="#46beaa" d="M247.5 2h-14.6v65.2h40.2V54.3h-25.6zm106.7 0h-5.3v65.2h35v-4.7h-29.7zM390 2h5.3v65.3H390Zm91 60.5V36.1h28.9v-4.6H481V6.7h31V2h-36.3v65.2h37.4v-4.7zm-23 0h-1.1L419.1 2h-9.5v65.2h5.3V6.7h1.3L454 67.2h9.3V2H458ZM66.2 54.3h-1.1L54.4 3.8H39.1l-9.6 50.5h-1.4L15 2H0l16.1 65.2h22.5l8-39.7 8.8 39.7h22.9L92.6 2H77.5ZM330 11.1c-7-6.8-16.1-9.7-26.6-9.7h-24.2v66.2h24.2a39 39 0 0 0 15.5-2.8 30.9 30.9 0 0 0 17.7-17.7 35.5 35.5 0 0 0 2.2-13.7 31.3 31.3 0 0 0-8.8-22.3m-7.8 32.2A17.2 17.2 0 0 1 312 53.4a23.7 23.7 0 0 1-8.3 1.3h-9.9V14.3h9.9a26.4 26.4 0 0 1 8.3 1.2 16.5 16.5 0 0 1 10.2 9.8 30.7 30.7 0 0 1 0 18M142.8 3a40.4 40.4 0 0 0-30.2 0 32.1 32.1 0 0 0-17.5 18.5 33.7 33.7 0 0 0-2.2 14A34.4 34.4 0 0 0 112.3 66a40.1 40.1 0 0 0 30.8 0 34.3 34.3 0 0 0 19.5-30.5 34.6 34.6 0 0 0-8.9-24.8A31.1 31.1 0 0 0 142.8 3m-15 52.8c-12.5 0-19.6-9.8-19.6-21.2 0-11.4 6.7-21 19.6-21 10.9 0 19.5 7.4 19.5 21 0 11.4-7.3 21.2-19.5 21.2m91.2-19a22 22 0 0 0 3.3-13.5 22 22 0 0 0-3.2-12c-5.1-7.6-13.9-9.8-23.4-9.9h-25.6v65.8h14.6V47h11.1l13.9 20.2h17L210 44a19.5 19.5 0 0 0 9-7m-13.3-7a10 10 0 0 1-9.2 5h-11.8V14.2h11.8c2.1 0 4 0 5.5.8a9.4 9.4 0 0 1 3.7 3.7 12.2 12.2 0 0 1 0 11"/>
</svg>
