<svg xmlns="http://www.w3.org/2000/svg" viewBox="0 0 513.1 69">
  <title>Worldline</title>
  <path fill="#46beaa" d="M247.5 2.02h-14.6v65.2h40.2v-12.9h-25.6zm106.7 0h-5.3v65.2h35v-4.7h-29.7zm35.8 0h5.3v65.25H390Zm91 60.5v-26.4h28.9v-4.6H481V6.72h31v-4.7h-36.3v65.2h37.4v-4.7zm-23 0h-1.1l-37.8-60.5h-9.5v65.2h5.3V6.72h1.3l37.8 60.5h9.3V2.02H458Zm-391.8-8.2h-1.1L54.4 3.83H39.1l-9.6 50.5h-1.4L15 2.03H0l16.1 65.2h22.5l8-39.7 8.8 39.7h22.9l14.3-65.2H77.5ZM330 11.13c-7-6.8-16.1-9.7-26.6-9.7h-24.2v66.2h24.2a39 39 0 0 0 15.5-2.8 30.9 30.9 0 0 0 17.7-17.7 35.5 35.5 0 0 0 2.2-13.7 31.3 31.3 0 0 0-8.8-22.3m-7.8 32.2a17.2 17.2 0 0 1-10.2 10.1 23.7 23.7 0 0 1-8.3 1.3h-9.9v-40.4h9.9a26.4 26.4 0 0 1 8.3 1.2 16.5 16.5 0 0 1 10.2 9.8 30.7 30.7 0 0 1 0 18M142.8 2.93c-8.3-3.9-21.9-3.9-30.2 0a32.1 32.1 0 0 0-17.5 18.5 33.7 33.7 0 0 0-2.2 14c.1 12.5 7.6 25.1 19.4 30.5 8.4 4.1 22.5 4.1 30.8 0 11.9-5.4 19.4-18 19.5-30.5a34.6 34.6 0 0 0-8.9-24.8 31.1 31.1 0 0 0-10.9-7.7m-15 52.8c-12.5 0-19.6-9.8-19.6-21.2 0-11.4 6.7-21.1 19.6-21.1 10.9 0 19.5 7.5 19.5 21.1 0 11.4-7.3 21.2-19.5 21.2m91.2-18.9c2.5-3.4 3.5-8.5 3.3-13.5a22 22 0 0 0-3.2-12.1c-5.1-7.5-13.9-9.7-23.4-9.8h-25.6v65.8h14.6v-20.2h11.1l13.9 20.2h17L210 43.92a19.5 19.5 0 0 0 9-7.1m-13.3-7c-1.9 3.4-5.2 5-9.2 5h-11.8v-20.5h11.8c2.1 0 4 0 5.5.8a9.4 9.4 0 0 1 3.7 3.7 12.2 12.2 0 0 1 0 11"/>
</svg>
