<svg id="Layer_1" xmlns="http://www.w3.org/2000/svg" viewBox="-88 337.5 411.7 103"><style>.st0{fill:#1395CB;}</style><path class="st0" d="M-34.9 352.3H-88v71.8h52.8c24.8 0 29.5-12.6 29.5-35.9 0-27.5-6.8-35.9-29.2-35.9zm15.8 39.5c0 18.3-5.9 19.7-14.9 19.7h-40.5V365h41.9c8.2 0 13.5 1.4 13.5 20.1v6.7c-.1 0 0 0 0 0zm27.9-39.5h13.5v71.8H8.8v-71.8zm97.4 33.3c3-2.3 4.6-5.8 4.6-10.2v-5.7c0-6.5-2.5-17.4-19.1-17.4H37.9v71.8h54.7c12.6 0 20.7-6.6 20.7-16.8v-7.9c0-6.8-2.4-11.4-7.1-13.8zm-55.9-20.7h41.1c1.5 0 6.4.3 6.4 4.3v6.1c0 2.7-.8 5.5-6.8 5.5H50.3v-15.9zm50 40.3c0 3.3-.6 6.3-8.2 6.3H50.3v-17.9h40.4c7.8 0 9.5 1.3 9.5 6.9.1-.1.1 4.7.1 4.7zm76.1-23.9h-25.1c-13.1 0-13.1-2.5-13.1-7.9 0-8 2.6-9.2 19.7-9.2h9c17 0 20.1.8 20.8 5.8h13.1c-.7-13.2-8.9-18.5-28.7-18.5h-18.2c-10.2 0-16.4 1.2-20.8 4-5.1 3.3-7.6 8.9-7.6 17.2 0 21 12.6 22 36.8 22h16.1c10.3 0 11.2 1.9 11.2 7.8 0 7-1.2 9.6-13.4 9.6h-26.3c-9.7 0-11.1-2.6-11.3-6.1h-13c.5 18.7 18.1 18.7 25.7 18.7h23.5c9.7 0 27.7 0 27.7-20.2v-4.3c-.1-16.9-14.9-18.9-26.1-18.9zm111.7 41.9v-16h-9.8v16c0 4-3.1 7.2-7 7.2h-28.6c-3.8 0-7-3.2-7-7.2v-29.6c0-4 3.1-7.2 7-7.2h43.7c-2.7-6-8.5-10.2-15.3-10.2h-28.5c-9.3 0-16.8 7.8-16.8 17.4v29.6c0 9.6 7.5 17.4 16.8 17.4h28.5c9.5 0 17-7.8 17-17.4z"/><path class="st0" d="M323.7 384.5v-29.6c0-9.6-7.5-17.4-16.8-17.4h-28.5c-9.3 0-16.8 7.8-16.8 17.4v16h9.8v-16c0-4 3.1-7.2 7-7.2H307c3.8 0 7 3.3 7 7.2v29.6c0 4-3.1 7.2-7 7.2h-43.8c2.7 6 8.5 10.2 15.2 10.2h28.5c9.3 0 16.8-7.8 16.8-17.4z"/></svg>