<svg xmlns="http://www.w3.org/2000/svg" viewBox="0 0 487.4 109.65"><path fill="#003F5F" d="M303.76 0h-11.33c-1.56 0-3.29 1.19-3.84 2.65l-21.8 57.7c-.55 1.46-1.43 1.45-1.94-.02L244.53 2.67C244.02 1.2 242.32 0 240.76 0h-12.33c-1.56 0-2.38 1.19-1.82 2.65l30.36 78.91c.56 1.46.61 3.85.11 5.33l-6.83 20.08c-.5 1.48.36 2.68 1.92 2.68h10.33c1.56 0 3.23-1.21 3.72-2.69l6.88-20.87c.49-1.48 1.35-3.88 1.92-5.33l30.54-78.12c.57-1.45-.24-2.64-1.8-2.64zM115 0H80.23c-1.56 0-2.83 1.28-2.83 2.83v103.98c0 1.56 1.28 2.83 2.83 2.83h9.73c1.56 0 2.83-1.28 2.83-2.83V17.02c0-1.56 1.28-2.83 2.83-2.83 0 0 11.16.01 19.56.01 9.6 0 16.2 4.6 16.2 16v21.2c0 14.4-6.98 18.62-19.78 18.62-1.25 0 .56-.01-.63-.01l-.01.01h-.62c-1.31-.01-2.84 1.17-3.41 2.63l-3.45 8.83c-.57 1.45.24 2.65 1.8 2.65l6.89.03c20.2 0 34.6-9.75 34.6-32.75V30.2C146.8 10.2 132.4 0 115 0zM43.6 0h-12C11.2 0 0 10.2 0 29.2v25c0 19.6 14.8 30 34.8 30 10.5 0 24.59-.11 24.59-.11 1.56-.01 3.3-1.21 3.87-2.66l3.46-8.85c.57-1.45-.24-2.64-1.8-2.63h-.17v-.01c-11.18.01-19.86.06-30.15.06-13 0-19.2-5.2-19.2-15.8v-6.6h.04-.04 51.17c1.56 0 2.83-1.28 2.83-2.83V23.8C69.4 10.2 58.2 0 43.6 0zm10.6 33.8H15.4v-4.6c0-11.2 3.8-14.8 16.4-14.8H44c6.4 0 10.2 3.6 10.2 9.4v10zM193.8.04h-4.23c-5.23-.01-7.7-.03-13.54-.03l-.01.01c-1.94 0-3.16-.01-3.16-.01-1.56 0-3.3 1.18-3.87 2.63l-3.48 8.9c-.57 1.45.24 2.64 1.8 2.63 0 0 1.21 0 3.17-.01v.01c10.29 0 13.66-.04 23.51-.04 12.8 0 16.2 4.5 16.2 12.69v3.76h-26c-16.8 0-29.4 9.4-29.4 23.6v2.6c0 17 15.6 27.4 32.6 27.4 7.6 0 22.8-.13 22.8-.13l12.56.03c1.56 0 2.83-1.27 2.83-2.83V26.84C225.59 10.04 214 .04 193.8.04zm16.4 69.82c-8.76 0-15.4.14-23 .14-11.6 0-17-5.2-17-13.2v-2.6c0-5.2 3.8-9.4 14.2-9.4h25.8v25.06zM325.07 38.62h-6.43v9.03h-2.31V24.34h9.33c4.66 0 6.85 2.02 6.85 5.92v1.81c-.01 4.58-2.82 6.55-7.44 6.55zm5.12-8.36c0-2.69-.97-3.7-4.5-3.7h-7.06v9.83h6.38c3.61 0 5.17-1.05 5.17-4.33v-1.8zm19.83 17.4l-3.07-7.86h-9.33l-3.07 7.86h-2.48l9.2-23.31h2.02l9.2 23.31h-2.47zM342.29 28l-3.78 9.62h7.56L342.29 28zm19.61 9.66v10h-2.31v-10l-8.86-13.32h2.81l7.18 10.92 7.23-10.92h2.81l-8.86 13.32zm31.25 10V28.58l-7.98 13.4h-1.22l-8.02-13.4v19.07h-2.31V24.34h2.18l8.74 14.24 8.74-14.24h2.18v23.31h-2.31zm7.18 0V24.34h15.54v2.23h-13.23v8.02h11.34v2.23h-11.34v8.61h13.23v2.23h-15.54zm35.74 0l-13.69-19.24v19.24h-2.31V24.34h2.06l13.69 19.28V24.34h2.31v23.31h-2.06zm16.13-21.09v21.09h-2.31V26.57h-8.19v-2.23h18.69v2.23h-8.19zm-128.44 56.3c-4.54 0-7.48-.88-7.48-.88v-2.27s3.74.92 7.44.92c4.91 0 6.09-1.09 6.09-4.33 0-2.02-.92-3.19-2.35-3.49l-7.39-1.68c-2.81-.67-4.41-2.65-4.41-5.88 0-3.32 2.18-6.09 8.07-6.09 3.86 0 6.17.76 6.55.88v2.27s-3.44-.92-6.51-.92c-4.83 0-5.8 1.64-5.8 3.87 0 2.39 1.01 3.32 2.39 3.65l7.27 1.68c2.6.63 4.5 2.48 4.5 5.71-.01 4.67-2.53 6.56-8.37 6.56zm22.85-.22h-3.78c-4.7 0-7.48-2.65-7.48-7.14v-9.03c0-4.5 2.77-7.14 7.43-7.14h3.78c4.71 0 7.48 2.65 7.48 7.14v9.03c.01 4.5-2.76 7.14-7.43 7.14zm5.13-16.17c0-3.36-1.64-4.92-5.12-4.92h-3.78c-3.53 0-5.17 1.55-5.17 4.92v9.03c0 3.36 1.64 4.91 5.12 4.91h3.78c3.53 0 5.17-1.55 5.17-4.91v-9.03zm6.5 16.17V59.3h2.31v21.13h12.6v2.23h-14.91zm28.44 0h-3.15c-4.7 0-7.48-2.65-7.48-7.14V59.34h2.31v16.17c0 3.36 1.64 4.91 5.12 4.91h3.15c3.53 0 5.17-1.55 5.17-4.91V59.34h2.31v16.17c0 4.5-2.77 7.14-7.43 7.14zm20.83-21.08v21.09h-2.31V61.57h-8.19v-2.23h18.69v2.23h-8.19zm11.76 21.08V59.34h2.31v23.31h-2.31zm17.77 0h-3.78c-4.7 0-7.48-2.65-7.48-7.14v-9.03c0-4.5 2.77-7.14 7.43-7.14H437c4.71 0 7.48 2.65 7.48 7.14v9.03c-.01 4.5-2.78 7.14-7.44 7.14zm5.12-16.17c0-3.36-1.64-4.92-5.12-4.92h-3.78c-3.53 0-5.17 1.55-5.17 4.92v9.03c0 3.36 1.64 4.91 5.12 4.91H437c3.53 0 5.17-1.55 5.17-4.91v-9.03zm22.51 16.17l-13.69-19.24v19.24h-2.31V59.34h2.06l13.69 19.28V59.34h2.31v23.31h-2.06zm14.37.22c-4.54 0-7.48-.88-7.48-.88v-2.27s3.74.92 7.44.92c4.91 0 6.09-1.09 6.09-4.33 0-2.02-.92-3.19-2.35-3.49l-7.39-1.68c-2.81-.67-4.41-2.65-4.41-5.88 0-3.32 2.18-6.09 8.07-6.09 3.86 0 6.17.76 6.55.88v2.27s-3.44-.92-6.51-.92c-4.83 0-5.8 1.64-5.8 3.87 0 2.39 1.01 3.32 2.39 3.65l7.27 1.68c2.6.63 4.5 2.48 4.5 5.71-.01 4.67-2.53 6.56-8.37 6.56z"/></svg>