<svg xmlns="http://www.w3.org/2000/svg" viewBox="0 0 317.4 64.77"><g fill="#8DBE3F"><path d="M267.03 56.93V44.48l-25.89-.03v-6.03l22.86.01V26.91l-22.86-.02v-6.03l25.89.02V8.3h-40.82v48.63M190.27 56.93h14.92V38.99L222.57 8.3h-16.34l-8.42 17.94-8.05-17.94h-16.47l16.98 30.68M286.64 56.93v-16.9h7.94c5.9.01 6.3 4.82 6.7 9.44.19 2.5.47 5.01 1.22 7.46h14.9c-1.35-2.24-1.41-8-1.61-10.38-.54-6.03-3.03-10.51-7.1-12.07 4.95-1.82 7.1-7.1 7.1-12.12.01-9.15-7.14-14.05-15.62-14.06h-28.46v48.63h14.93zm7.02-36.91c5.69.01 7.39 1.78 7.38 4.83-.01 4.34-3.81 4.81-6.58 4.8l-7.79-.01v-9.62h6.99zM150.95 49.85l15.39.02 2.03 7.07h15.46L166.25 8.31h-14.57L133.8 56.94h14.98l2.17-7.09zm8.08-25.28l4.33 14.91h-9.15l4.68-14.91h.14zM111.13 56.93l.02-14.85 8.81.01c11.11.01 18.98-5.47 19-17.2 0-6.92-4.6-16.58-17.75-16.59H96.22v48.63h14.91zm6.68-36.2c3.65.01 7.04.29 7.04 4.69 0 4.88-4.08 5.15-7.93 5.14h-5.77v-9.82l6.66-.01z"/></g><radialGradient id="a" cx="13.546" cy="17.242" r="37.525" gradientTransform="matrix(1 0 0 -1 0 68)" gradientUnits="userSpaceOnUse"><stop offset="0" stop-color="#B12D91"/><stop offset="1" stop-color="#BC4F9D"/></radialGradient><path fill="url(#a)" d="M26.16 11.9C17.15 9.03 8.65 10.06 3.8 15.49c-7.85 8.8-3.15 25.81 10.5 38s29.51 14.45 38.94 6.13c9.43-8.31 4.64-18.52-2.64-29.11-2.5 1.55-27.64-6.49-24.44-18.61z"/><radialGradient id="b" cx="52.658" cy="66.918" r="28.803" gradientTransform="matrix(1 0 0 -1 0 68)" gradientUnits="userSpaceOnUse"><stop offset="0" stop-color="#DFA3CA"/><stop offset="1" stop-color="#BC4F9D"/></radialGradient><path fill="url(#b)" d="M41.98 32.95c3.16 0 6.11-.89 8.62-2.44 4.71-2.9 7.85-8.1 7.85-14.04C58.45 7.37 51.08 0 41.98 0c-7.51 0-13.85 5.03-15.83 11.9-.42 1.45-.64 2.99-.64 4.57 0 9.1 7.37 16.48 16.47 16.48z"/><radialGradient id="c" cx="75.33" cy="4.114" r="68.548" gradientTransform="matrix(1 0 0 -1 0 68)" gradientUnits="userSpaceOnUse"><stop offset="0" stop-color="#C8DA35"/><stop offset="1" stop-color="#8DBE3F"/></radialGradient><path fill="url(#c)" d="M76.5 15.49c-4.43-4.96-11.91-6.25-20.04-4.25-2.58.64-5.23 1.61-7.86 2.9-3.78 1.85-7.53 4.36-11.04 7.48-2.37 2.12-4.47 4.38-6.28 6.72-3.23-2.67-5.38-6.59-5.72-11.02-6.83 4.69-11.31 12.55-11.31 21.45 0 13.11 9.7 23.95 22.32 25.74 1.13.18 2.31.26 3.53.26h.16c2.3 0 4.53-.3 6.65-.86 6.34-1.52 13.08-5.06 19.1-10.43C79.65 41.31 84.35 24.29 76.5 15.49z"/></svg>