<svg id="Layer_1" xmlns="http://www.w3.org/2000/svg" viewBox="-249 376.8 112 39.1" enable-background="new -249 376.8 112 39.1"><style>.st0{filter:url(#Adobe_OpacityMaskFilter);} .st1{fill:#FFFFFF;} .st2{mask:url(#mask-2);fill:#862165;}</style><title>skrill-logo</title><g id="Page-1"><g id="skrill-logo" transform="translate(0 1)"><defs><filter id="Adobe_OpacityMaskFilter" filterUnits="userSpaceOnUse" x="-249" y="375.8" width="111.9" height="39.4"><feColorMatrix values="1 0 0 0 0 0 1 0 0 0 0 0 1 0 0 0 0 0 1 0"/></filter></defs><mask maskUnits="userSpaceOnUse" x="-249" y="375.8" width="111.9" height="39.4" id="mask-2"><g class="st0"><path id="path-1" class="st1" d="M-249 375.8h111.9v39.4H-249v-39.4z"/></g></mask><path id="Fill-1" class="st2" d="M-168.6 385.2c2.5 0 4.6-2.1 4.6-4.7s-2.1-4.7-4.6-4.7c-2.5 0-4.6 2.1-4.6 4.7s2 4.7 4.6 4.7zm-35.2 2.6c-.2.5-1.7 4.9-5.3 9.4v-19.3l-9.6 2v34.9h9.6V404c2.8 4.3 4.2 10.8 4.2 10.8h11.5c-1.1-4.9-6.1-13.9-6.1-13.9 4.5-5.9 6.4-12.1 6.7-13.1h-11zm25.3-.4c-8.6.3-13 4.3-13 12.2v15.2h9.4v-12.4c0-4.7.6-6.8 6.1-7v-7.9c-1-.1-2.5-.1-2.5-.1zm-56.3 4.3c-1.2-.1-3.9-.3-3.9-2.8 0-3.1 3.9-3.1 5.4-3.1 2.6 0 5.9.8 8.3 1.5 0 0 1.3.5 2.5 1h.1V380h-.1c-2.8-1-6.1-2-12.2-2-10.5 0-14.2 6.3-14.2 11.7 0 3.1 1.3 10.5 13.3 11.3 1 .1 3.7.2 3.7 2.8 0 2.2-2.2 3.4-5.9 3.4-4.1 0-8-1.1-10.4-2.1v8.6c3.6 1 7.7 1.5 12.4 1.5 10.3 0 14.9-6 14.9-11.9-.2-6.7-5.3-11.1-13.9-11.6zm61.5 23.1h9.3v-27h-9.3v27zm26.9-35.2v35.2h9.3v-36.9l-9.3 1.7zm-13.6 0l9.3-1.7v36.9h-9.3v-35.2z"/></g></g></svg>