<svg id="Layer_1" xmlns="http://www.w3.org/2000/svg" viewBox="473 617.3 1558.7 209.7"><style>.st0{fill:#474D99;}</style><path class="st0" d="M688 617.3L663.9 827h-67.8c-6.2-32.2-11.7-68.9-16.4-110-2.2 17.6-7.2 54.3-15.1 110h-67.4l-24.3-209.7h52.7l5.7 73.2 5.5 70.8c2-36.6 7-84.6 15-143.9h56.4c.8 6.1 2.7 29.2 5.9 69.2l6 79.8c3.1-50.8 8.1-100.4 15.1-149H688zm143.4 0l31 209.7H807l-2.9-37.7h-19.4l-3.3 37.7h-56.1L753 617.3h78.4zm-28.7 134.8c-2.8-23.8-5.5-53.1-8.3-88.1-5.5 40.2-9 69.5-10.4 88.1h18.7zm231.6-134.8V827h-47.6l-28.2-95.3V827h-45.4V617.3h45.4l30.4 94.4v-94.4h45.4zm184.5 0V827h-47.6l-28.2-95.3V827h-45.4V617.3h45.4l30.4 94.4v-94.4h45.4zm157 0l31 209.7h-55.5l-2.9-37.7H1329l-3.3 37.7h-56.1l27.7-209.7h78.5zm-28.7 134.8c-2.8-23.8-5.5-53.1-8.3-88.1-5.5 40.2-9 69.5-10.4 88.1h18.7zm110.4-101s2.2-33.9 36.7-33.9h55.3v42h-37.7V699h33.5v39.9h-33.5V827h-54.3V651.1zm200.8-33.8V827H1604V617.3h54.3zm184.4 0V827h-47.6l-28.2-95.3V827h-45.4V617.3h45.4l30.4 94.4v-94.4h45.4zm63.3 0h40.6c26.2 0 43.9 1.2 53.2 3.6 9.2 2.4 16.3 6.4 21.1 11.9 4.8 5.5 7.8 11.7 9 18.5 1.2 6.8 1.8 20.1 1.8 40v73.5c0 18.8-.9 31.4-2.6 37.8-1.8 6.3-4.8 11.3-9.2 14.9-4.4 3.6-9.8 6.1-16.2 7.5-6.4 1.4-16.2 2.1-29.1 2.1H1906V617.3zm54.3 35.9v138c7.8 0 12.6-1.6 14.4-4.7 1.8-3.2 2.7-11.7 2.7-25.7v-81.5c0-9.5-.3-15.6-.9-18.3s-2-4.6-4.1-5.9c-2.2-1.3-6.2-1.9-12.1-1.9z"/></svg>