<svg xmlns="http://www.w3.org/2000/svg" viewBox="0 0 126.3 15"><style>.st0{fill:#231F20;}</style><path class="st0" d="M118 14.7h4V3.8h4.3V.3h-12.6v3.5h4.3v10.9zm-12 .3c4.1 0 6.8-2 6.8-6.7v-8h-4.1v8.1c0 2-1 3-2.7 3-1.6 0-2.7-1-2.7-3.1v-8h-4.1v8.1c.1 4.5 2.7 6.6 6.8 6.6m-15.7-3.6c-2.2 0-3.7-1.8-3.7-3.9 0-2.1 1.5-3.9 3.6-3.9 2.2 0 3.7 1.8 3.7 3.9 0 2.1-1.4 3.9-3.6 3.9m-.1 3.6c4.4 0 7.8-3.4 7.8-7.5C98 3.3 94.7 0 90.3 0s-7.8 3.4-7.8 7.5c0 4.2 3.3 7.5 7.7 7.5m-20.5-.3h4V11l1.5-1.6 3.6 5.4h4.8L78 6.6 83.5.4h-4.7l-5 5.8V.3h-4v14.4zm-7.5.3c3.2 0 5-1.4 6.4-3.3l-3-2.1c-.9 1-1.7 1.8-3.3 1.8-2 0-3.4-1.7-3.4-3.8 0-2.1 1.4-3.8 3.4-3.8 1.4 0 2.3.7 3.2 1.7l3-2.3c-1.3-1.8-3.2-3-6.1-3-4.4 0-7.6 3.3-7.6 7.5 0 4.1 3.3 7.3 7.4 7.3m-19.9-.3H54v-3.4h-7.7V9h6.9V5.9h-6.9V3.7h7.6V.3H42.3v14.4zm-15.1 0h4V9.2h5.1v5.5h4V.3h-4v5.4h-5.1V.3h-4v14.4zm-7.4.3c3.2 0 5-1.4 6.4-3.3l-3-2.1c-.9 1-1.8 1.8-3.3 1.8-2 0-3.4-1.7-3.4-3.8 0-2.1 1.4-3.8 3.4-3.8 1.4 0 2.3.7 3.1 1.7L26 3c-1.3-1.8-3.2-3-6.1-3-4.4 0-7.6 3.3-7.6 7.5 0 4.3 3.3 7.5 7.5 7.5M0 14.7h11.4v-3.3h-6l2.5-1.7c2.1-1.5 3.3-2.7 3.3-5C11.3 1.9 9.1 0 5.9 0 3.1 0 1.6 1.1.1 3.1l2.7 2.2C3.9 4 4.7 3.4 5.7 3.4s1.5.7 1.5 1.6c0 .9-.5 1.5-1.9 2.6L0 11.7v3z"/></svg>