<svg viewBox="0 0 131 24" xmlns="http://www.w3.org/2000/svg"><path d="M17.94 14.74c0 4.85-3.68 8.5-8.07 8.5-1.77 0-3.24-.47-4.45-1.24 0 0-2.7.84-5.42.84v-22C2.72.84 5.42 0 5.42 0v7.54C6.62 6.77 8.1 6.3 9.87 6.3c4.4 0 8.07 3.62 8.07 8.44zm-5.32 0c0-2.2-1.6-4.02-3.82-4.02-1.2 0-2.37.37-3.38 1.54v5.02c1 1.17 2.18 1.5 3.38 1.5 2.2 0 3.82-1.77 3.82-4.04zm70.65 0c0 4.85-3.7 8.5-8.07 8.5-1.77 0-3.25-.47-4.45-1.24 0 0-2.7.84-5.42.84v-22c2.72 0 5.42-.84 5.42-.84v7.54c1.2-.77 2.68-1.24 4.45-1.24 4.38 0 8.07 3.62 8.07 8.44zm-5.33 0c0-2.2-1.6-4.02-3.8-4.02-1.22 0-2.4.37-3.4 1.54v5.02c1 1.17 2.17 1.5 3.38 1.5 2.2 0 3.8-1.77 3.8-4.04h.02zm23.37-.04c0 4.96-3.6 8.64-8.8 8.64-5.1 0-8.8-3.68-8.8-8.63 0-4.8 3.7-8.4 8.8-8.4 5.2 0 8.8 3.6 8.8 8.5zm-5.1.04c0-2.1-1.4-3.82-3.6-3.82s-3.7 1.7-3.7 3.82c0 2.17 1.5 3.9 3.7 3.9s3.68-1.73 3.68-3.9zm11.2-8.13v1.8c1.5-1.2 3.2-2 5.6-2v5.2c-2.6.1-4.3.8-5.6 2.07v9.27H102V7.44c2.72 0 5.4-.84 5.4-.84zm-64.5 1c-2.7 0-5.4-.8-5.4-.8v16.1h5.4V12.5c.8-1.04 1.6-1.44 2.47-1.44 1.78 0 2.9 1.1 2.9 3.4v8.4h5.44V13.6c0-.4-.03-.8-.06-1.2.8-.98 1.66-1.35 2.5-1.35 1.8 0 2.9 1.1 2.9 3.4v8.4h5.46V13.6c0-4.63-2.88-7.48-6.76-7.48-2.4 0-4.04.68-5.75 2.18-1.2-1.4-2.98-2.18-5-2.18-1.8 0-2.97.5-4.07 1.44v.02zm-6.5 15.3c-2.7 0-5.4-.9-5.4-.9-1.2.8-2.67 1.27-4.44 1.27-4.4 0-8.06-3.65-8.06-8.47 0-4.85 3.66-8.46 8.04-8.46 1.78 0 3.25.48 4.46 1.24 2.7 0 5.43-.86 5.43-.86v16.2zm-5.44-5.7v-5c-1-1.13-2.16-1.5-3.37-1.5-2.2 0-3.8 1.8-3.8 4.04 0 2.26 1.6 4.03 3.8 4.03 1.2 0 2.37-.33 3.37-1.5zm99.9 5.68c-2.72 0-5.42-.9-5.42-.9-1.2.76-2.68 1.23-4.45 1.23-4.4 0-8.08-3.66-8.08-8.5s3.7-8.43 8.08-8.43c1.78 0 3.25.47 4.45 1.23 2.7 0 5.43-.9 5.43-.9v16.26zm-5.42-5.63v-5c-1-1.12-2.18-1.5-3.38-1.5-2.27 0-3.88 1.8-3.88 4.05s1.6 4.02 3.82 4.02c1.2 0 2.35-.3 3.36-1.5z" fill="#6C4797" fill-rule="evenodd"/></svg>