<svg xmlns="http://www.w3.org/2000/svg" width="116" height="16" viewBox="0 0 115.41 15.32">
  <path fill="#39343C" d="M3.8 13h2.7c2 0 3-.7 3-2s-1-2-3.2-2H3.8v4zm0-9.6V7H6c2 0 3-.5 3-1.7S8 3.5 6.3 3.5H4zM0 15v-2h1.6V3.4H0v-2h6.3c3 0 4.7 1.4 4.7 3.7 0 2-1 3-2 3 1.6 1 2.8 2 2.8 3 0 3-2 4-5 4H0zm23.3-7c-.2-1-.8-1.3-1.6-1.3-1.8 0-3.5 1.3-3.5 3.7V13h3.5v2h-8v-2H16V7h-1.6V5H18v1.7c.8-1.2 2-2 3.8-2 2 0 3.2 1 3.5 2.7l-2 .5zM34 11c-.7-.3-1.7-.4-2.6-.4-1.3 0-2.6.4-2.6 1.6 0 1 .8 1.3 2 1.3 1.5 0 3.2-.8 3.2-2.2V11zm0-1.8v-.6c0-1.4-1-2-2.4-2-1 0-2 .5-3 1.2l-1.3-1.4c1-1 2.3-1.7 4.3-1.7 2.6 0 4.5 1.3 4.5 4V13h2v2h-4v-1c-.2.8-2 1.3-3.2 1.3-2 0-4-1-4-3 0-2.6 2.6-3.5 4.8-3.5 1 0 2 .2 2.7.4zM44 0h2.4v3H44V0zm6.3 13v2H40v-2h4.3V7H41V5h5.4v8h4zm2.5 0h1.5V7H53V5h3.4v1.3c.6-1 2-1.6 3.4-1.6 2.3 0 4 1.4 4 3.7V13H65v2h-5v-2h1.6V9c0-1.8-1-2.3-2-2.3-1.6 0-3.2 1.2-3.2 3V13H58v2h-5.2v-2zM68 7h-2.5V5H68V1.4h2.2V5h5v2h-5v4.2c0 1.6 1 2.2 2.3 2.2 1.2 0 2.2-.7 3-1.4l1.4 1.4c-1 1-3 2-5 2-2.6 0-4.5-1.4-4.5-4V7zm20.2 1c-.2-1-.8-1.3-1.6-1.3-1.8 0-3.5 1.3-3.5 3.7V13h4v2h-8v-2h2V7h-1.5V5H83v1.7c.7-1.2 2-2 3.7-2 2 0 3.2 1 3.5 2.7l-2 .5zm5.6 1h6.3c0-1.4-1-2.4-3-2.4-1 0-2.2 1-3 2.4zm8.5 4.5c-1 1-3 1.8-5 1.8-3.4 0-5.8-2.2-5.8-5.3 0-3 2.3-5.3 5.5-5.3s5.4 2.4 5.4 5.7v.3h-8.7c.4 1.7 1.8 2.7 3.6 2.7 1.5 0 2.8-.6 3.5-1.4l1.4 1.5zm4.5-4.5h6.2c-.3-1.4-1.6-2.4-3-2.4-1.6 0-2.8 1-3.2 2.4zm8.4 4.5c-1 1-3 1.8-5 1.8-3.3 0-5.7-2.2-5.7-5.3 0-3 2.3-5.3 5.5-5.3s5.4 2.4 5.4 5.7v.3h-8.7c.4 1.7 1.8 2.7 3.6 2.7 1.5 0 2.8-.6 3.5-1.4l1.4 1.5z"/>
</svg>
