<svg xmlns="http://www.w3.org/2000/svg" width="145" height="15" viewBox="0 0 4007.35 441.77">
  <path fill="#002D73" d="M298.5 221l149.3 220.8H149L0 220.8h298.5z"/>
  <path fill="#0071CE" d="M149.3 0h298.4L149.4 441.8 0 220.8 149.3 0zm2750.3 383.7c16 0 32.2-2.5 48.4-7.4l3.6-1v54.4l-1.7.7c-8 3.3-18 6-30 8-12 2.2-25 3.3-37 3.3-33 0-57-8.2-74-25.2s-25-42-25-75v-162h-43v-12l78-111h38v68h91l-38 54.8h-53v161.2c0 15.2 4 26 11 32.7l-2 2 2-2c7 7 17 10.5 30 10.5zm-218.3 52.5H2649v-26.7c-9 8-20.3 14-32.3 19.8-17.7 8.3-38 12.4-60.4 12.4-38.7 0-68.2-9.3-87.8-28.5-19.6-19-29.2-48-29.2-85.8V124.6h73.5v186c0 23 5 40 14.2 51 9.3 11 23.8 16.6 44.5 16.6 27.7 0 47.4-8 60-23.4 12.7-15.5 19.4-42.3 19.3-80.4V124.6h73.2v311.6h-42.7zm-423 5.5c-30 0-56.8-6.5-80-19.7-23.2-13.2-41-32.2-53.4-56.8-13-24.6-19-53-19-85.4 0-50 13-89.6 40-118 27-28.6 65-42.8 113-42.7 46 0 83 15 110 44s41 69 41 117c0 51-14 91-41 119-27 29-65 43-113 43zm58.7-239c-13-16.7-32-25-58.2-25-14 0-25.6 2.2-35.4 6.5-9.8 4.3-17.6 10.7-23.7 19.4-12.3 17.4-18.6 42.8-18.6 76.2 0 35 7 61 20 78 13 16.8 32 25.3 59 25.3 26 0 45-8 58-25s20-43 20-78c0-34-6-60-19-77zm-207.8 223.5l9.8 10h-89.5L1944 315l-42 59.7v61h-43.3v.2H1829V0h73v264.2l98.6-139.6h79.4l-93 131.7 122.2 170zm-336.4-236.4c-22-7.4-40.7-11-55.7-11-26 0-46 8.4-59 25.3-13 17-20 43-20 78 0 34 7 59 20 76s32 25 58 25c20 0 39-3 58-9l2-1 20 29 14 21-6 2c-12 7-25 12-39 15s-30 4.8-50 4.8c-48 0-86-13.6-111-41.3s-38-67.3-38-118.3c0-51.7 13-92 40-120.4 27-28 65.6-42.4 115-42 33 0 63 6 90 17.3l3 1.6-36 52-2-.6zm-418.8 172c15 15.2 36 23 64 23 18.6 0 35.8-1.7 51.7-5 7.5-1.6 15.2-3.7 23.2-6.3l2-.7 30 44v3.2l-2 .7c-17 7.7-34 13-51 16.3-17 3.2-37 4.7-58 4.7-50 0-90-14-118-42.5-29-28.3-43-67.4-43-116.6 0-50.4 13-90.5 39-119.7 26-30 62-44 108-44 42 0 76 12 101 37s37 59 37 103v38h-210c1 28 9 49 24 64zm115-116.5c-.8-23.5-7-41-18-53-11.8-12.3-27.6-18.5-48.4-18.5-20.8 0-37 6.3-49.4 18.8-11.8 12-19.2 29.5-22 52.7H1469zM1159.4 256c0-23-5-40-14-51-9.3-10.8-24-16.4-44.8-16.4-27.7 0-47.4 8-60 23.4-12.6 15.5-19.3 42.3-19.3 80.4v143.8H947V.2h1.4V0h73v112c0 10.5-.6 21.4-1.4 32.6v17.6c9.2-13 21.3-23.2 36.3-30.7 16.7-8.3 36.2-12.5 58.4-12.5 38.7 0 68.4 9.5 88.2 29 19 19.2 29 48 29 86v202h-73V256zM887.7 101.6c-10.6-4.3-21.6-8.3-33-12-15.4-4.7-31.7-7-48.8-7-39 0-69 13-91 39.3-22 26-33 62-33 110 0 49 11 86 32 110 21 25 51 37 91 37 17 0 34-2 51-5l20-5 2-1 33 48v4l-2 1c-34 12-71 18-113 18-62 0-110-18-143-54.8-34-36.6-50-88.7-50-156 0-42.3 8-79.5 24-111.5s40-56 71-73 67-25 108-25c42 0 82 8.3 118 25.4l3 1-38 55.3-2-1z"/>
  <path fill="#B0B7C0" d="M3962.3 428V234.4c0-23.7-5-41.5-15.2-53.4-10-12-25-18-47-18-28 0-49 8.2-62 24.3-13 16-20 41-20 74.5V428h-45V234.4c0-23.7-5-41.5-15-53.4-10-12-26-18-47-18-28 0-49 8.6-62 25.5-13 17-19 44.7-19 83.3V428h-45V130.3h37l7 40.8h2c9-14 21-25 36-34 16-8 33-12 52-12 47 0 77 17 91 51h2c9-15 22-28 39-37s36-13 58-13c34 0 59 9 76 26 16.6 18 25 45 25 83v194h-45zm-540.4 5.6c-27 0-51-6.3-71-18.8-21-12.5-37-30.4-48-53.8s-17-50.7-17-82c0-48.7 12-86.5 36-113.6 24-27 58-40.6 101-40.6 41 0 74 14 99 41.6s37 65.2 37 112.6c0 48-12 86-37 113-25 27.3-58 41-102 41zm68-241c-16-19.7-38-29.5-68-29.5s-52 10-67 30-23 48-23 87c0 38 7 67 23 87 15 20 37 30 67 30s52-10 67-30c15-19 23-49 23-87s-8-66-23-86zm-294 241c-43 0-77-13.3-100-40-24-26.4-36-64-36-112.5 0-49 12-88 36-115s58-41 102-41c14 0 28 2 43 5 10 3 19 5 26 8l-24 36-15-4c-12-2-23-4-32-4-61 0-91 39-91 116 0 37 7 65 22 84 15 20 36.2 30 65.2 30 18.5 0 37-3 56-9l20 29h.3v3c-20 11-45 16-75.4 16zm-177-2.6c-19 0-34-14.8-34-33s15-32.6 33-32.6 34 14.6 34 32.6-15 33-34 33z"/>
</svg>
