<svg xmlns="http://www.w3.org/2000/svg" viewBox="0 0 1203 204">
  <path fill="#1F2A44" d="M5 157c9.7 31 33 46 65.2 46 29.2 0 51.7-14.3 63-39.5.6-1.4.3-3-1.2-3.7l-17.3-8.5c-1.7-1-3.4 0-4 1.4C103 168 90.7 179 70.3 179 49 179 36 168.4 29.6 150c-2.6-8-3.7-17.6-3.7-48.5 0-31 1-40.5 3-48.5 7-19 20-29 41-29s33 11 41 26.2c0 1.5 2 2.3 4 1.5l17-8.3c1-1 2-2.3 1-3.8C122 14.6 99 0 70 0 38 0 14.8 15.3 5 46.3c-3.8 11.2-5 22.5-5 55.2 0 32.6 1.4 44 5.2 55.2l-.3.2zm204 44.4c1.6 0 2.7-1.2 2.7-3V182c0-1.8-1-3-3-3h-5.4c-9.5 0-13.8-3.7-13.8-15.3V6.3c0-1.8-1.2-3-3-3H168c-1.6 0-3 1.2-3 3V165c0 25 9.8 36.4 34 36.4h9.8zm85 1.7c24 0 43-9 54-23 1-1 1-3-.5-4l-11.8-11c-1.5-1-3-1-4.4 1-7.5 9-19 16-35.5 16-17 0-29.4-8-35-24-1.4-4-2.2-9-2.2-17 0-1 .6-2 1.7-2h87.5c2 0 3.2-1 3.2-3 0-21-1.6-30-4.5-39-7.8-23.2-27.7-37-54.2-37-26.3 0-46.5 13-54.3 37-3 8.7-4.4 19-4.4 35s1.8 26 4.7 35c7.5 24 27.4 37.8 55.4 37.8h.2zm-34-84c-1 0-1.6 0-1.6-1 0-6 .6-11 2-15 4.6-14 16.2-22 31.8-22 15.6 0 27 8 31.7 22 1 5 2 9 2 16 0 1.7-1 2-2 2h-64zm227 81c1.8 0 3-1 3-3v-91c0-34-15-47-54.3-47-20.5 0-36.7 6-47 14-1.3 1-1.6 2-.7 4l7.7 13c1 2 2.6 2 4 1 8-5.2 18-10 33.5-10 25.7 0 33.3 8 33.3 27v10c0 2-.6 2-1.8 2h-31.5c-33.7 0-54 14-54 43 0 28 20.3 42 46.5 42 21 0 34.7-8 41-18h.3v12c0 1.7 1.2 3 3 3h17zm-55.4-17c-18.5 0-29-7-29-21 0-16 10.4-23 34.4-23h28c1.2 0 1.8 1 1.8 2v15c0 17-13.3 27-35 27v1zm122.2 17c1.8 0 3-1 3-2v-76c0-24 8.6-40 29.7-40 8 0 15 3 21.3 7 1.5 1 3 1 4-.6l10.8-14c1-1.5.8-2.6-.6-4-7-7-17.4-11-28.4-11-18.6-.4-30.6 8-36.6 20h-1V65c0-2-1-3-3-3h-18c-2 0-3 1-3 3v132c0 1.6 1 3 3 3h19zm201.7 0c1.7 0 2.8-1 2.8-2v-87c0-31-18-52-48-52-18.7 0-32 8-38.6 19h-.3V7c0-1.8-1-3-3-3H650c-1.7 0-3 1.2-3 3v191c0 1.5 1.3 3 3 3h18.5c1.8 0 3-1.5 3-3v-83c0-20.6 13-34 31.7-34 21 0 31 13 31 35.3v81c0 1.7 1 3 3 3h18.4v-.2zm146 0c1.6 0 2.7-1 2.7-2v-92c0-34-15-47-54-47-20.6 0-36.8 6-47.2 14-1.2 1.5-1.4 2.6-.6 4l7.8 13.6c1 1.5 2.6 1.5 4 .3 8-5.5 18-10 33.5-10 25.7 0 33.3 8 33.3 27v10c0 2-.6 2-1.8 2h-31.5c-33.7 0-54 14-54 43 0 28 20.3 41.7 46.5 41.7 21 0 34.7-7.7 41-18h.3v12c0 1.6 1.2 3 3 3h17v-.3zM846 183c-18.6 0-29-7.5-29-21.7 0-15.6 10.4-22.5 34.4-22.5H879c1.3 0 2 .6 2 1.7v15c0 17-13.4 27-35 27zm206 17.5c2 0 3-1 3-3V64c0-1.7-1-3-3-3h-18.3c-1.8 0-3 1.3-3 3v82c0 21-12.3 34.2-31 34.2-20.6 0-30.7-13-30.7-35.6v-80c0-1.8-1.3-3-3-3h-18.5c-1.7 0-3 1.2-3 3V151c0 31.3 17.8 52 48 52 18 0 30.7-7.4 38-19h.2v13c0 1.8 1 3 3 3h18.4zm94.4 3c36 0 55.7-18 55.7-46 0-22.4-13-36.6-41-39l-14-1.5c-20-2-27-7.8-27-18.8 0-11.6 9-19 26-19 15 0 29 5 38 11 2 1 3 1 4-.7l10-12c1-1.4 1-3 0-4-11.3-8.6-28.6-15.3-49-15.3-32.5 0-51.2 16-51.2 42.3 0 22 14 36 41.4 39l14.7 1c21.6 2.2 27 8.3 27 19.3 0 12.3-10 21-30.4 21-16.4 0-32-7-42.4-16-1-1-3-1-4 0l-12 12.8c-1 1-1 3 0 4 11.6 10 30.6 21 57.5 21z"/>
</svg>
