<svg xmlns="http://www.w3.org/2000/svg" viewBox="0 0 140 37.44"><path d="M36.63 0v31.26c0 1.76.24 2.92.71 3.46s1.47.81 2.98.81h.27v1.29H28.72v-1.29h.38c1.48 0 2.44-.27 2.89-.81.46-.54.68-1.69.68-3.46v-22c0-2.01-.14-3.29-.41-3.84-.28-.55-1.05-1.09-2.32-1.64l-1.21-.5v-.33L36.63 0zm19.84 32.67c-1.25 1.59-2.56 2.78-3.95 3.57-1.39.79-2.86 1.19-4.42 1.19-1.55 0-2.85-.52-3.88-1.56-1.03-1.04-1.55-2.35-1.55-3.93 0-1.74.82-3.23 2.46-4.45 1.64-1.22 4.34-2.36 8.1-3.42l2.9-.84v-3.29c0-1.44-.08-2.44-.25-3.01-.17-.57-.53-1.04-1.09-1.44-.86-.63-1.91-.94-3.15-.94-1.29 0-2.26.27-2.9.82-.64.54-.97 1.36-.97 2.47v1.04l-4.58 1.46v-.63c0-1.68.98-3.29 2.94-4.8 1.93-1.47 4.34-2.21 7.22-2.21 2.38 0 4.11.48 5.17 1.45 1.06.98 1.59 2.56 1.59 4.74v9.95c0 2.54.23 4.22.68 5.07s1.34 1.26 2.68 1.26c.42 0 .89-.03 1.4-.1v1.23c-1.38.75-2.76 1.12-4.12 1.12-1.18 0-2.13-.4-2.84-1.19-.75-.78-1.22-1.97-1.44-3.56zm-.34-8.02l-1.2.38c-3.26 1.02-5.41 1.94-6.43 2.75-1.02.82-1.53 1.99-1.53 3.52 0 1 .35 1.88 1.04 2.61.7.74 1.52 1.11 2.46 1.11 1.57 0 3.03-.73 4.37-2.2.86-.96 1.29-2.29 1.29-3.99v-4.18zm19.33 12.79l-9-18.61c-.9-1.78-1.59-2.92-2.05-3.43-.47-.51-1.05-.77-1.76-.77h-.32v-1.29h9.78v1.29h-.38c-1.38 0-2.06.34-2.06 1.03 0 .46.38 1.51 1.15 3.13l6.36 13.29 5.57-13.27c.61-1.4.91-2.36.91-2.88 0-.87-.76-1.3-2.27-1.3h-.36v-1.29h7.88v1.29h-.32c-.66 0-1.24.29-1.75.88-.5.59-1.1 1.69-1.81 3.3l-8.17 18.63h-1.4zm24.22 0c-3.48 0-6.34-1.16-8.58-3.48s-3.37-5.28-3.37-8.89c0-3.59 1.12-6.55 3.37-8.87 2.24-2.32 5.11-3.48 8.58-3.48 3.49 0 6.36 1.16 8.6 3.48 2.24 2.32 3.37 5.28 3.37 8.87 0 3.61-1.12 6.57-3.37 8.89-2.25 2.32-5.11 3.48-8.6 3.48zm0-1.46c2.17 0 3.91-1 5.24-3s1.98-4.64 1.98-7.92c0-3.26-.66-5.89-1.98-7.89-1.32-2-3.07-3-5.24-3-2.15 0-3.89 1-5.22 3s-1.98 4.63-1.98 7.89c0 3.28.66 5.92 1.98 7.92 1.32 2 3.06 3 5.22 3zm20.64-17.14v12.42c0 1.76.23 2.92.71 3.46.47.54 1.46.81 2.98.81h.28v1.29H112.4v-1.29h.38c1.46 0 2.42-.27 2.88-.81.46-.54.69-1.69.69-3.46V21.8c0-1.93-.14-3.17-.42-3.72-.28-.55-1.05-1.08-2.31-1.62l-1.21-.52v-.34l7.9-2.89v4.83c1.69-1.63 3.29-2.85 4.8-3.67 1.51-.81 2.93-1.22 4.25-1.22 1.91 0 3.49.65 4.75 1.96 1.28 1.33 1.92 3.76 1.92 7.28v9.36c0 1.76.23 2.91.7 3.46.47.54 1.45.81 2.96.81h.3v1.29h-11.88v-1.29h.34c1.49 0 2.47-.27 2.93-.82.46-.55.69-1.7.69-3.45V21.8c0-2.07-.34-3.58-1.02-4.5-.68-.92-1.79-1.39-3.34-1.39-1.12 0-2.3.25-3.54.73-1.21.48-2.5 1.21-3.85 2.2zM9.34 5.9v12.94h7c1.87 0 3.12-.28 3.75-.82.84-.72 1.31-2 1.4-3.82h.88v11.21h-.88c-.23-1.58-.45-2.59-.68-3.04-.29-.56-.77-1-1.43-1.32-.66-.32-1.68-.48-3.05-.48h-7V31.4c0 1.45.06 2.33.19 2.65.13.32.35.57.67.75.32.19.93.28 1.83.28h5.53c1.84 0 3.18-.13 4.02-.4.83-.26 1.64-.78 2.4-1.56 1-1.02 2.01-2.56 3.06-4.62h1.07l-2.83 8.31H0v-1.29h1.15c.77 0 1.5-.19 2.19-.56.51-.26.86-.65 1.05-1.17.18-.52.28-1.58.28-3.2V10.35c0-2.12-.21-3.44-.62-3.93-.59-.66-1.55-.99-2.9-.99H0V4.16h25.29l.29 7.14h-1.07c-.33-1.73-.7-2.91-1.11-3.56-.41-.65-1.01-1.14-1.8-1.48-.64-.24-1.76-.36-3.37-.36H9.34z" fill="#231F20"/></svg>