<svg xmlns="http://www.w3.org/2000/svg" width="142.827" height="29.203" viewBox="0 0 142.827 29.203">
  <g id="logo_test" data-name="logo  test" transform="translate(-226.049 -30.398)">
    <g id="Group_138" data-name="Group 138" transform="translate(226.049 30.398)">
      <g id="Group_134" data-name="Group 134" transform="translate(16.412)">
        <path id="Path_693" data-name="Path 693" d="M-3968.283,1772.947a.718.718,0,0,1,.609.791v27.425a.718.718,0,0,1-.61.791h-13a.718.718,0,0,1-.609-.791v-27.425a.718.718,0,0,1,.609-.791Z" transform="translate(3981.897 -1772.946)" fill="#09d373"/>
      </g>
      <g id="Group_135" data-name="Group 135" transform="translate(0 14.471)" opacity="0.25">
        <path id="Path_694" data-name="Path 694" d="M-4198.668,2003.273a.718.718,0,0,1-.792.609h-27.425a.718.718,0,0,1-.791-.609v-13a.719.719,0,0,1,.792-.609h27.425a.719.719,0,0,1,.792.61Z" transform="translate(4227.676 -1989.66)" fill="#09d373"/>
      </g>
      <g id="Group_136" data-name="Group 136" transform="translate(0.71 6.264)" opacity="0.5">
        <path id="Path_695" data-name="Path 695" d="M-4193.649,1889.052l-22.848-9a.719.719,0,0,1-.513-.857l4.766-12.1a.719.719,0,0,1,.96-.277l23.439,9.232" transform="translate(4217.044 -1866.751)" fill="#09d373"/>
      </g>
      <g id="Group_137" data-name="Group 137" transform="translate(5.705 1.068)" opacity="0.75">
        <path id="Path_696" data-name="Path 696" d="M-4130.205,1815.923l-11.889-19.017a.719.719,0,0,1,.1-.994l11.026-6.893a.718.718,0,0,1,.936.348l12.326,19.716" transform="translate(4142.243 -1788.946)" fill="#09d373"/>
        <line id="Line_1" data-name="Line 1" x1="2.451" y2="1.532" transform="translate(21.997 26.047)" fill="#fff" stroke="#09d373" stroke-width="1"/>
      </g>
    </g>
    <g id="Logo" transform="translate(264.417 30.398)">
      <path id="FREEPAY" d="M19.359,29.2H15.175V0H21.9a6.94,6.94,0,0,1,5.537,2.143c1.225,1.422,1.846,3.585,1.846,6.429a10.888,10.888,0,0,1-.8,4.368,6.206,6.206,0,0,1-2.81,2.932L30.186,29.2H25.757l-3.9-12.468h-2.5V29.2Zm0-25.266h0v9.105h2.378a4.235,4.235,0,0,0,1.764-.307,2.286,2.286,0,0,0,1.005-.882,3.788,3.788,0,0,0,.471-1.415A13.681,13.681,0,0,0,25.1,8.49a13.661,13.661,0,0,0-.123-1.948,3.527,3.527,0,0,0-.513-1.435,2.325,2.325,0,0,0-1.087-.882,4.951,4.951,0,0,0-1.846-.288H19.359ZM78.891,29.2H74.708L81.23,0h3.486l6.521,29.2H87.053l-1.231-6.275h-5.7L78.891,29.2Zm4.02-20.8L80.86,18.989h4.184L82.993,8.408ZM98.717,29.2H94.534V16.856L88.792,0h4.43l3.363,11.607h.082L100.03,0h4.429L98.717,16.856V29.2Zm-31.931,0H62.6V0h6.275a9.381,9.381,0,0,1,3.035.451,5.85,5.85,0,0,1,2.379,1.6,6.286,6.286,0,0,1,1.476,2.686,16.845,16.845,0,0,1,.41,4.163,20.931,20.931,0,0,1-.225,3.3,7,7,0,0,1-.964,2.563A6.142,6.142,0,0,1,72.692,17a7.768,7.768,0,0,1-3.774.8H66.786V29.2Zm0-25.265h0v9.925H68.8a4.292,4.292,0,0,0,1.968-.369,2.36,2.36,0,0,0,1.026-1,3.95,3.95,0,0,0,.389-1.538c.041-.608.062-1.284.062-2.01,0-.671-.021-1.326-.062-1.948a4.628,4.628,0,0,0-.369-1.6,2.362,2.362,0,0,0-.964-1.066,3.749,3.749,0,0,0-1.886-.39H66.786ZM59.9,29.2H47.428V0H59.9V3.937H51.611v8.572h7.218v3.938H51.611v8.571H59.9V29.2Zm-15.175,0H32.252V0H44.721V3.937H36.436v8.572h7.219v3.938H36.436v8.571h8.285V29.2Zm-40.538,0H0V0H12.468V3.937H4.183V12.8H11.4v3.938H4.183V29.2Z" transform="translate(0 0)" fill="#09d373"/>
    </g>
  </g>
</svg>
