<svg xmlns="http://www.w3.org/2000/svg" viewBox="0 0 700 70"><path d="M14.7 37.8v30.8H0V0h14.7v26h27.4V0h14.7v68.6H42.1V37.8H14.7zm96.8 20.9c0 6 1.4 7.3 3 7.9v2H99.8c-.8-2.3-1-3.1-1.3-6-3.1 3.1-7.6 7.4-16.9 7.4-7.8 0-15.9-4.3-15.9-14.8 0-9.9 6.5-15 15.2-16.3L93.3 37c2.2-.3 4.8-1.2 4.8-4 0-5.7-5.5-5.9-9-5.9-6.9 0-8 4.1-8.4 7.1H67.4C69 18.6 80 16.5 90.7 16.5c7.3 0 20.8 2.1 20.8 14.7v27.5zM98.1 43.9c-1.4 1.1-3.6 1.9-9.3 2.7-5.1.9-9.3 2.1-9.3 7.6 0 4.7 3.7 6.1 6.4 6.1 6 0 12.2-3.8 12.2-10v-6.4zM170 68.6h-13.7V37.7c0-3.7-.2-10-8.9-10-6.1 0-10.8 4-10.8 11.7v29.2h-13.7V17.7H136v7.4h.2c1.9-3 5.8-8.8 15.7-8.8 10.2 0 18.1 5.8 18.1 17v35.3zm59.5 0H216v-6.4h-.2c-3.3 5.8-9.4 7.7-15.1 7.7-15.5 0-21.9-13.4-21.9-27.3 0-17.5 10.2-26.2 21.7-26.2 8.8 0 12.9 4.7 15.1 7.9h.2V0h13.7v68.6zM204.1 59c8.7 0 12.1-7 12.1-14.6 0-8.1-2.4-16.4-11.8-16.4-8.7 0-11.7 7.5-11.7 15.6.2 6 2.6 15.4 11.4 15.4zm81.5-5.3C282 65.9 271.6 70 262.7 70c-14.7 0-26-6.9-26-27.8 0-6.1 2.2-25.7 25-25.7 10.3 0 24.5 4.8 24.5 28v2.3h-35.8c.4 3.8 1.2 12.4 12.3 12.4 3.8 0 7.7-1.9 8.8-5.6l14.1.1zm-13.5-15.6c-.8-8.2-6.2-10.7-10.6-10.7-6.5 0-9.9 4-10.7 10.7h21.3zm36.4 30.5h-13.7V0h13.7v68.6zm41.7-35.4c-.6-3.2-1.8-6.7-9.2-6.7-7.5 0-8.4 2.7-8.4 5 0 8 32.6 2.1 32.6 21 0 14.8-14.7 17.5-22.8 17.5-11.9 0-24.7-4-25.1-17.5h14.1c0 4.3 2.7 7.4 11.4 7.4 7.1 0 8.7-3.3 8.7-5.3 0-8.5-32.3-2.1-32.3-21.2 0-7.4 4.8-17 21.1-17 10.2 0 22.3 2.4 23.4 16.9 0-.1-13.5-.1-13.5-.1zm37.3-8.8h.2c2.2-3.2 6.3-7.9 15.1-7.9 11.5 0 21.7 8.6 21.7 26.1 0 13.9-6.5 27.3-22 27.3-5.7 0-11.8-2-15.1-7.7h-.2v6.4h-13.4V0h13.7v24.4zm11.3 3.6c-9.4 0-11.8 8.2-11.8 16.4 0 7.5 3.4 14.6 12.1 14.6 8.8 0 11.3-9.4 11.3-15.4 0-8-2.9-15.6-11.6-15.6zm76.6 30.7c0 6 1.4 7.4 3 7.9v2h-14.8c-.8-2.3-1-3.1-1.3-6-3.1 3.1-7.5 7.4-16.9 7.4-7.8 0-15.9-4.3-15.9-14.8 0-9.9 6.5-15 15.2-16.3l12.4-1.9c2.2-.3 4.8-1.2 4.8-4 0-5.7-5.5-5.9-9-5.9-6.9 0-8 4.1-8.4 7.1h-13.2c1.6-15.6 12.6-17.7 23.3-17.7 7.4 0 20.8 2.1 20.8 14.7v27.5zM462 43.9c-1.4 1.1-3.6 1.9-9.3 2.7-5.1.9-9.3 2.1-9.3 7.6 0 4.7 3.7 6.1 6.4 6.1 6.1 0 12.2-3.8 12.2-10v-6.4zm71.9 24.7h-13.7V37.7c0-3.7-.2-10-8.9-10-6.1 0-10.8 4-10.8 11.7v29.2h-13.7V17.7h13.1v7.4h.2c1.9-3 5.8-8.8 15.7-8.8 10.2 0 18.1 5.8 18.1 17v35.3zm25.9 0h-13.7V0h13.7v37L577 17.7h17l-18.4 19.7 18.9 31.1H578l-12.4-21.7-5.7 5.8v16zm84.3-14.9c-3.6 12.2-14 16.3-22.9 16.3-14.7 0-26-6.9-26-27.8 0-6.1 2.2-25.7 25-25.7 10.3 0 24.5 4.8 24.5 28v2.3h-35.8c.4 3.8 1.2 12.4 12.2 12.4 3.8 0 7.7-1.9 8.8-5.6l14.2.1zm-13.6-15.6c-.8-8.2-6.2-10.7-10.6-10.7-6.5 0-9.9 4-10.7 10.7h21.3zM700 68.6h-13.7V37.7c0-3.7-.2-10-8.9-10-6.1 0-10.8 4-10.8 11.7v29.2h-13.7V17.7H666v7.4h.2c1.9-3 5.8-8.8 15.7-8.8 10.2 0 18.1 5.8 18.1 17v35.3z" fill="#0F59A5"/></svg>