<svg xmlns="http://www.w3.org/2000/svg" viewBox="0 0 88.06 24.21">
  <path fill="#4859A7" d="M24.6 0h-4c-.2 0-.4.2-.4.5v23c0 .2.3.4.5.4h4c.2 0 .4-.5.4-.7V.3s0-.3-.3-.3zM66 6c-2 0-3.4.3-5 1.5h-.3v-1c0-.2-.2-.4-.5-.4h-3.6c-.3 0-.5.4-.5.7v16.8c0 .3.5.5.8.5h3.8c.3 0 .5-.3.5-.6V10.7c1.3-.6 2.3-1 3-1 2.4 0 2.7 1 2.7 3v10.6c0 .3.2.5.5.5h4c.2 0 .5-.3.5-.6V13c0-5-1.7-7-5.5-7zm20 1.3c-1-1-3-1.3-5-1.3s-4.2.2-5.5.5c-.3 0-.5.3-.5.6v2.7c0 .3.2.5.5.5H81c1.4 0 2.4.2 2.4 2.2v1.3h-1.8c-2.8 0-4.7.4-6 1.2-1 .7-1.7 2-1.7 4 0 4.6 3.2 5.3 5.2 5.3 1.7 0 3-.4 4.3-1.4h.2v.6c0 .2.3.4.5.4h3.6c.3 0 .5-.3.5-.5V12.2c0-2.2-.6-3.8-2-5zM83.4 20c-1 .4-2 .6-2.7.6-1.4 0-2.2-.2-2.2-1.7v-.5c0-1.7.8-2.4 3-2.4h2v4zM53.8 6c-1.5 0-3 .4-4.2 1.4h-.3v-.8c0-.3-.2-.5-.4-.5h-4c-.3 0-.5.4-.5.7v16.8c0 .3.2.5.5.5h4c.2 0 .5-.3.5-.6V11c1.4-.8 2.8-1.2 4.2-1.2h.3s.3-.2.3-.4v-3c0-.3-.2-.5-.5-.5zm-14 1.3c-1.2-1-3-1.4-5.4-1.4-2 0-4.2 0-5.4.4-.4 0-.5.3-.5.6v2.7c0 .2 0 .4.4.4H34c1.5 0 2.6.4 2.6 2.3v1.3h-2c-2.7 0-4.6.4-6 1.2-1 1-1.7 2-1.7 4v.2c0 4.5 3.4 5.2 5.4 5.2 1.7 0 3-.4 4.3-1.4h.2v.7c0 .2 0 .5.4.5H41c.2 0 .4-.3.4-.5V12.2c0-2.2-.6-3.8-2-5zM37 20c-1 .4-2 .6-2.8.6-1.4 0-2-.2-2-1.7v-.5c0-1.7.7-2.4 2.8-2.4h2v4zM6.6 11.2c4 0 7.7-2.3 9.8-5.7C17.4 4 18 2 18 0c-2 0-4 .5-5.7 1.5-3.5 2-5.7 5.8-5.7 9.8M4.6 0H1.4C.6 0 0 .6 0 1.4v22c0 .2.2.5.6.5h3.2c.8 0 1.4-1 1.4-1.6V.4C5.2.3 5 0 4.6 0m2 12.7c0 4 2.2 7.7 5.7 9.7C14 23.4 16 24 18 24c0-2-.7-4-1.6-5.6-2-3.5-5.8-5.7-9.8-5.7"/>
</svg>
