<svg xmlns="http://www.w3.org/2000/svg" width="99" height="27" viewBox="8 303.1 628.1 177">
  <path fill="#349445" d="M24.2 391.4c6.3-5 15-8.7 28-9.5 8-1 16.4 2 24 6 4.7-2 9.4-5 13.6-7l-1.4-2c-11.4-14-22-25-42.4-28-15.2-3-29.2 2-38 12-2 7 3.7 20 16.2 27zm136.6 2.3c-6.3 5-15 8.7-28 9.5-8.2.5-16.5-2.2-24-6.4-4.8 2-9.5 4.3-13.7 6.6l2 1.6c12 13.8 22 25.4 43 28.4 16 2.3 30-2.4 38-12.6 2-7-3-19.7-16-27z"/>
  <path fill="#26547D" d="M177 367.6c-.6 2-1.8 4.8-3 8-4.6 10.8-14 26-41.3 27.7-17 1-35-12-44.2-23-11.5-14-22-25.5-42.5-28.6-15.2-2.3-29.2 2.4-38 12.6 10.3-34 43.8-59 83.7-59.2 41.3 0 76.3 27 85.3 63"/>
  <path fill="#26547D" d="M8 417.5c.8-2.6 2.3-6.4 4.3-10.7 5-10.5 14.8-23.4 40-25 17-1 34.8 12 44 23.2 11.6 13.8 22.2 25.4 42.6 28.4 15 2.3 29-2.4 38-12.6-11 34-44 59-84 59.2-42 .2-76-26.5-85-62.5m295-83h-73V458h27V357h33c7 0 11 3.4 11 11v90h28v-88.6c0-23.4-9-34.8-26-34.8zm96 0c-33 0-49 15.5-49 46v32c0 31.5 15 45.5 50 45.5h44v-22.3h-46c-13 0-20-7.5-20-21.6v-36c0-13 7-21 21-21 18 0 20 11 20 21v8h-27v21h53v-24c0-33-14-47-46-47zm201 50.3c-17-4.4-19-5.6-19-16 0-6.7 2-11.7 10-11.7h38v-22h-31c-37 0-44 13-44 34 0 23 4 30 32 37 19 5 22.2 9 22.2 18 0 8-1 14-10 14h-45v22h45c31.8-1 38-14 38-36.2 0-23.6-2.6-28-36.2-37zm-106 38.8V357h41v-20.8h-41v-33l-27 3.8v121c0 18 10 30 25.2 30h44v-23h-30c-8.6 0-12.8-5-12.8-13z"/>
</svg>
