<svg xmlns="http://www.w3.org/2000/svg" width="152" height="16" viewBox="0 0 189 20"><g fill="currentColor"><path d="M85.1 11.5a4.1 4.1 0 01-4.7 3.9 4.1 4.1 0 01-3.6-3.7 4.1 4.1 0 014.1-4.6c2.2 0 4.1 1.7 4.1 3.9zm-4.8-7.4a7.2 7.2 0 00-6.6 6.7c-.3 4.2 3 7.7 7.2 7.7 1.5 0 3.5-.8 4.5-2.3v2.1h2.8v-6.9a7.2 7.2 0 00-7.9-7.3zM61 11c0-1.5.9-3.2 2.8-4a4 4 0 015 1.8zm4.1-7a7 7 0 00-7 7.3A7.2 7.2 0 0072 14l-2.8-.8a4.3 4.3 0 01-3.1 2.4c-1.9.4-3.7-.8-4.5-2.2l10.8-3A7.2 7.2 0 0065.1 4z"/><path fill-rule="evenodd" d="M41.3 7V4c-2.7 0-3.7 1.4-4.1 2.1V4.5h-3.1v13.8h3.2v-6.8c0-3.2 1.8-4.4 4-4.5m-28.5 5.7L3.3 1.6H.1v16.6h3.4V7.1L13 18.3h3V1.6h-3.2z" clip-rule="evenodd"/><path d="M53 11.5a4.1 4.1 0 01-4.7 3.9 4.1 4.1 0 01-3.6-3.7 4.1 4.1 0 014.1-4.6c2.2 0 4.1 1.7 4.1 3.9zM56.1.1h-3v5.4c-.7-.9-2.9-1.7-4.8-1.5a7.3 7.3 0 00-6.6 6.7c-.3 4.2 3 7.7 7.2 7.7 1.5 0 3.7-.7 4.5-2.1v1.9h2.8V.1zM25 15.4a4.1 4.1 0 01-4.1-4.1c0-2.3 1.9-4.1 4.1-4.1 2.3 0 4.1 1.9 4.1 4.1s-1.8 4.1-4.1 4.1M25 4c-4 0-7.2 3.2-7.2 7.2s3.2 7.2 7.2 7.2 7.2-3.2 7.2-7.2S29 4 25 4"/><path fill-rule="evenodd" d="M105.7 19.4c-5 0-8.3-3.2-8.3-9.5s3.4-9.5 8.3-9.5c2.3 0 4.3.6 5.5 2L110 4.1a5.8 5.8 0 00-4.2-1.6c-4.4 0-6 3.6-6 7.4s1.6 7.4 5.9 7.4c2 0 3.4-.8 4.4-2l1.4 1.4c-1.2 1.9-3.3 2.7-5.8 2.7" clip-rule="evenodd"/><path d="M123 12.3c0-3.5-1.5-5.2-3.9-5.2s-3.9 1.7-3.9 5.2 1.5 5.2 3.9 5.2 3.9-1.6 3.9-5.2m-10 0c0-4.9 2.7-7.1 6.2-7.1s6.2 2.2 6.2 7.1-2.7 7.1-6.2 7.1-6.2-2.2-6.2-7.1"/><path fill-rule="evenodd" d="M140 17.5v1.6l-1 .1c-1.7 0-2.5-1-2.5-3v-5.7c0-1.8-.8-3.4-2.9-3.4-2.2 0-3.4 1.5-3.4 3.4v8.6h-2.3V5.6h2.1v2c.5-1 1.7-2.3 4-2.3 2.9 0 4.7 1.9 4.7 4.9v5.9c.1 1.1.4 1.4 1.3 1.4m14.3 0v1.6l-1 .1c-1.7 0-2.5-1-2.5-3v-5.7c0-1.8-.8-3.4-2.9-3.4-2.2 0-3.4 1.5-3.4 3.4v8.6h-2.3V5.6h2.1v2c.5-1 1.7-2.3 4-2.3 2.9 0 4.7 1.9 4.7 4.9v5.9c.1 1.1.4 1.4 1.3 1.4" clip-rule="evenodd"/><path d="M158 11.5c.8.1 1.7.3 2.6.3 3.1 0 4.1-1 4.1-2.5 0-1.4-1-2.3-2.7-2.3-2.1.1-3.8 1.5-4 4.5zm9.2 5.9c-1.2 1.4-3 2-4.9 2-3.7 0-6.5-2.2-6.5-7 0-5 3-7.2 6.3-7.2 2.9 0 4.8 1.7 4.8 4.1 0 2.6-2 4.1-6 4.1-.9 0-2-.1-2.9-.3.3 3 2 4.3 4.4 4.3a5 5 0 003.6-1.5z"/><path fill-rule="evenodd" d="M175.1 19.4c-3.5 0-6.3-2.2-6.3-7.1s2.9-7.1 6.4-7.1c1.9 0 3.4.6 4.3 1.6l-1.2 1.5a4 4 0 00-3-1.2c-2.5 0-4.2 1.7-4.2 5.2s1.7 5.2 4.1 5.2c1.4 0 2.3-.5 3.2-1.4l1.3 1.3c-.8 1-2.2 2-4.6 2m7.7-3.9V7.3h-2.3V5.5h2.3V1.9h2.3v3.6h3.2v1.7h-3.2V15c0 1.6.5 2.4 2.2 2.4l1-.1V19c-.4.1-1 .3-1.6.3-2.8 0-3.9-1.4-3.9-3.8" clip-rule="evenodd"/></g></svg>
