<svg xmlns="http://www.w3.org/2000/svg" width="117" height="24" viewBox="0 0 317.4 64.77">
  <path fill="#8DBE3F" d="M267 57V44.4h-26v-6h23V26.8h-23v-6h26V8.2h-40.8V57m-36 0h15V39l17.4-30.7h-16.4l-8.4 18-8-18h-16.5l17 30.7m96.3 18V40h8c6 0 6.3 5 6.7 9.5.2 2.5.4 5 1.2 7.4h15c-1.5-2.4-1.5-8-1.7-10.5-.6-6-3-10.6-7-12 4.8-2 7-7.2 7-12.2 0-9.2-7.2-14-15.6-14h-28.5v48.5h15zm7-37c5.7 0 7.4 1.8 7.4 5 0 4.2-3.8 4.7-6.5 4.7h-7.8V20h7zM151 50h15.3l2 7H184L166.2 8.2h-14.5l-18 48.6h15l2.3-7.2zm8-25.4l4.4 15h-9.2l4.7-15zM111 57V42h9c11 0 19-5.4 19-17 0-7-4.6-16.7-17.8-16.7h-25V57h15zm6.8-36.3c3.7 0 7 .3 7 4.7 0 5-4 5.2-8 5.2h-5.6v-10h6.6z"/>
  <radialGradient id="a" cx="13.5" cy="17.2" r="37.5" gradientTransform="matrix(1 0 0 -1 0 68)" gradientUnits="userSpaceOnUse">
    <stop offset="0" stop-color="#B12D91"/>
    <stop offset="1" stop-color="#BC4F9D"/>
  </radialGradient>
  <path fill="url(#a)" d="M26.2 12c-9-3-17.5-2-22.4 3.5-7.8 8.8-3 25.8 10.5 38s29.5 14.4 39 6c9.4-8.2 4.6-18.4-2.7-29C48 32 23 24 26.2 12z"/>
  <radialGradient id="b" cx="52.7" cy="66.9" r="28.8" gradientTransform="matrix(1 0 0 -1 0 68)" gradientUnits="userSpaceOnUse">
    <stop offset="0" stop-color="#DFA3CA"/>
    <stop offset="1" stop-color="#BC4F9D"/>
  </radialGradient>
  <path fill="url(#b)" d="M42 33c3 0 6-1 8.6-2.5 4.7-3 7.8-8 7.8-14C58.4 7.5 51 0 42 0c-7.5 0-14 5-16 12-.3 1.4-.5 3-.5 4.5C25.5 25.5 33 33 42 33z"/>
  <radialGradient id="c" cx="75.3" cy="4.1" r="68.5" gradientTransform="matrix(1 0 0 -1 0 68)" gradientUnits="userSpaceOnUse">
    <stop offset="0" stop-color="#C8DA35"/>
    <stop offset="1" stop-color="#8DBE3F"/>
  </radialGradient>
  <path fill="url(#c)" d="M76.5 15.5c-4.4-5-12-6.3-20-4.3-2.6.7-5.3 1.7-8 3-3.7 1.8-7.4 4.3-11 7.4-2.3 2-4.4 4.4-6.2 6.7-3.2-2.6-5.4-6.6-5.7-11-7 4.7-11.3 12.6-11.3 21.5 0 13 9.7 24 22.3 25.7 1 .2 2.3.3 3.5.3h.4c2.3 0 4.5-.3 6.6-1 6.2-1.4 13-5 19-10.3 13.7-12.2 18.3-29.2 10.5-38z"/>
</svg>
