<svg xmlns="http://www.w3.org/2000/svg" width="127" height="31" viewBox="-243 380 123.6 30.2">
  <path fill="#253B80" d="M-196.8 386.7h-6.8c-.5 0-1 .3-1 .8l-2.7 17.5c0 .3.2.7.6.7h3.3c.5 0 1-.3 1-.8l.6-5c0-.4.5-.7 1-.7h2c4.6 0 7.2-2.2 8-6.5.2-2 0-3.5-1-4.5s-2.7-1.8-5-1.8zm.8 6.5c-.4 2.5-2.2 2.5-4 2.5h-1l.6-4.6s.3-.3.6-.3h.5c1.2 0 2.4 0 3 .7.3.4.4 1 .3 2zm19.7 0h-3.3c-.3 0-.5 0-.6.4v1l-.3-.4c-.7-1-2.3-1.4-4-1.4-3.5 0-6.6 2.7-7.2 6.6-.3 2 0 3.8 1.2 5 1 1.2 2.4 1.7 4 1.7 3 0 4.6-1.7 4.6-1.7v1c0 .2.3.6.7.6h3c.4 0 .8-.4.8-1l1.8-11c0-.5-.2-.8-.5-.8zm-4.6 6.2c0 2-1.6 3-3.5 3-1 0-1.7-.2-2.2-.8-.5-.6-.7-1.4-.5-2.3.3-2 1.8-3.2 3.7-3.2 1 0 1.7.5 2.2 1 .4.8.6 1.6.5 2.5zm22-6.3h-3c-.4 0-.7.4-1 .6l-4.4 6.7-2-6.4c0-.5-.4-.8-.8-.8h-3.2c-.4 0-.7.5-.5 1l3.7 10.5-3.4 4.8c-.3.4 0 1 .5 1h3.3c.4 0 .7-.3 1-.5l11-15.8c0-.4-.3-1-.8-1z"/>
  <path fill="#179BD7" d="M-148 386.7h-6.8c-.5 0-1 .3-1 .8l-2.7 17.5c0 .3.2.7.6.7h3.7c.3 0 .6-.2.7-.6l.8-5c.2-.3.6-.6 1-.6h2.2c4.5 0 7-2.2 7.8-6.5.3-2 0-3.5-1-4.5s-2.7-1.7-5-1.7zm.8 6.5c-.4 2.5-2.2 2.5-4 2.5h-1l.6-4.6s.3-.3.6-.3h.5c1.2 0 2.4 0 3 .7.3.4.4 1 .3 2zm19.6 0h-3.3s-.3 0-.4.4v1l-.3-.4c-.7-1-2.3-1.4-4-1.4-3.5 0-6.6 2.7-7.2 6.6-.2 2 0 3.8 1.3 5 1 1.2 2.4 1.7 4 1.7 3 0 4.6-1.7 4.6-1.7v1c-.3.2 0 .6.4.6h3c.4 0 .8-.4.8-1l2-11c0-.5-.2-.8-.6-.8zm-4.5 6.2c-.5 2-2 3-4 3-1 0-1.6-.2-2-.8-.6-.6-.8-1.4-.6-2.3.3-2 1.8-3.2 3.7-3.2 1 0 1.8.5 2.3 1 .4.8.6 1.6.5 2.5zm8.2-12.2l-2.8 18c0 .2.2.6.6.6h3c.4 0 .8-.3.8-.8l2.8-17.5c0-.3-.2-.7-.6-.7h-3.2c-.2 0-.5.2-.5.4z"/>
  <path fill="#253B80" d="M-235.7 409.2l.5-3.3h-6.8l4-24.7v-.2h9.6c3 0 5.3.6 6.4 2 .5.5 1 1 1 2 .2.5.2 1.4 0 2.4v.8l.5.3c.4.2.8.5 1 .8.5.5.8 1.2 1 2v2.7c-.3 1.3-.7 2.4-1.3 3.3-.5.8-1 1.5-1.8 2s-1.5 1-2.5 1c-1 .3-2 .5-3.3.5h-.7c-.4 0-1 .2-1.3.5-.4.3-.7.8-.7 1.3v.3l-1 5.7v.2h-.2-4.5z"/>
  <path fill="#179BD7" d="M-220 387.7v.6c-1.3 6.4-5.6 8.5-11 8.5h-2.8c-.7 0-1.2.5-1.3 1l-1.6 9-.4 2.5c0 .4.4.8.8.8h5c.5 0 1-.2 1-1l1-6c.2-.7.7-1 1.3-1h1c4.6 0 8.3-2 9.4-7.6.5-2.3.2-4.3-1-5.6-.3-.4-.7-.8-1.3-1z"/>
  <path fill="#222D65" d="M-221.2 387.2h-.6l-.6-.2-2.4-.2h-8c-.2.3-.5.6-.6 1l-1.6 10v.2c0-.7.7-1 1.3-1h2.8c5.6 0 9.8-2.3 11-8.6v-.6c0-.2-.5-.3-1-.4v-.2z"/>
  <path fill="#253B80" d="M-233.4 387.7c0-.4.3-.7.7-1h8c1 0 1.6 0 2.3.2h1.5c.6 0 1 .4 1 .5.6-2.3 0-4-1-5.4-1.5-1.5-4-2.2-7.3-2.2h-9.4c-.7 0-1.2.4-1.3 1l-4 24.8c0 .5.3 1 .8 1h5.8l1.5-9.3 1.7-9.8z"/>
</svg>
