<svg xmlns="http://www.w3.org/2000/svg" width="107" height="31" viewBox="0 0 741.3 213.6">
  <path fill="#30302F" d="M560.4 172.2l31.2-80.5h-28V68.2H637l-30.3 80.4H637v23.6zM287 58.6c-2.4 0-5 .4-6.8 1v43.6c4.2.4 4.8.4 6.2.4 13.7 0 19-8.7 19-22.8-.2-14-5-22.2-18.3-22.2m0 66.4h-6v47.7h-37v-127c12-5 27-8 44-8 40 0 55 20 55 43.8 0 25-17 44-55 44m121-4.2c-17 1.8-24 7.4-24 18.6 0 10 6 15 16 15 3 0 6-1 8-2v-32zm-9 54c-32 0-48-11.3-48-34 0-26 27-33.7 58-36.5V101c0-8-5-11.5-15-11.5s-21.4 3-29 6.6l-8-21c11.6-5 27.6-8 42-8 27 0 44.4 11 44.4 40v60c-9.7 5-25 8-44 8m108 39h-39l17.3-41-35-104h39l11 56c1 7 1.6 11 2.2 18h1c1-6.4 2-11 3-17.3l12-56h36l-48 145zm200-93c-17 2-24 8-24 19 0 10 6 15 16 15 3.4 0 6 0 8-1v-32zm-9.5 54c-32 0-48.5-11-48.5-34 0-26 27-33 58-36v-4c0-8-5-11-15.4-11-9.6 0-21 3-28.5 6.7L656 75c11-5 27-8.7 42-8.7 26.7 0 44 10.4 44 40v60.3c-9.4 4.6-24.6 8-44 8"/>
  <path fill="#05A44C" d="M114.2 97c-8.7 3.7-19.2 5.8-30.4 5.8-4.7 0-9-.4-12.5-1-19.7-4-24-17.3-24-33.3 0-16.3 10-31.5 36-32.6 34-2 55.7 13 55.7 32 0 12-10 22-24.5 28M161 26C144 10.3 118 0 89 0 47.2 0 13 18.3 2.5 51.8c-1.3 6-2 12.4-2.4 18.8V75c0 53.3 39 98 87 98 1 0 4 0 4-1.2 0-1-4-2-4-2-14-4-25-14-28-28l-1-5v-.5c0-5 0-5.3 6-4l3 .8c8 2 16 3 24 3 17 0 33-3 46-9 15-6 27-16 35-28 6-9 9-19 9-29 .8-15-6-30-17.2-41"/>
</svg>
