<svg xmlns="http://www.w3.org/2000/svg" viewBox="0 0 618.2 149.5"><style>.st0{fill:url(#SVGID_1_);} .st1{fill:url(#SVGID_2_);} .st2{fill:url(#SVGID_3_);} .st3{fill:url(#SVGID_4_);} .st4{fill:url(#SVGID_5_);} .st5{fill:url(#SVGID_6_);} .st6{fill:url(#SVGID_7_);} .st7{fill:url(#SVGID_8_);} .st8{fill:url(#SVGID_9_);} .st9{fill:url(#SVGID_10_);} .st10{fill:none;} .st11{fill:#223A80;} .st12{font-family:&apos;BankGothicBT-Light&apos;;} .st13{font-size:74px;} .st14{letter-spacing:3;} .st15{font-family:&apos;GillSansMT-Italic&apos;;} .st16{font-size:38px;} .st17{letter-spacing:6;}</style><linearGradient id="SVGID_1_" gradientUnits="userSpaceOnUse" x1="43.252" y1="-10.703" x2="111.974" y2="107.108"><stop offset="0" stop-color="#00A8CF"/><stop offset="1" stop-color="#223A80"/></linearGradient><path class="st0" d="M11.1 70c.1-.1 0 1.8 2.1 3.7 2 2 5.8 3.7 10.5 5.2 9.4 3 22.8 5 36.9 5.9 28.3 2.1 59.5-.7 70.7-2.5 11.1-1.7 25.2-3.7 33.3-9.3 4.5-2.9.7-6.8-2-8.4-2.7-1.8-4.5-2.7-4.3-3 .1-.2 2.1.1 5.2 1.5 1.5.7 3.4 1.8 5 3.9 1.9 2.4.5 6.5-1.8 8.3-9.4 7.4-23.3 9.4-34.8 11.3-11.6 1.9-43.1 3.6-71.5.4-14.2-1.5-27.5-4-36.9-7.4C18.7 77.9 15 76 13 73.9c-2.1-2.1-1.8-4-1.9-3.9z"/><linearGradient id="SVGID_2_" gradientUnits="userSpaceOnUse" x1="58.236" y1="-19.443" x2="126.957" y2="98.365"><stop offset="0" stop-color="#00A8CF"/><stop offset="1" stop-color="#223A80"/></linearGradient><path class="st1" d="M20.9 35.8c-.8.3 2.4 5.9 11.6 8 8.6 2.6 20.8 4.3 33.7 5 25.8 1.7 54.1-1.2 64.3-3.2 5.1-.9 10.7-1.9 15.9-3.5 4.8-1.4 11.1-4.3 10.3-7.1-4.9-6.3-13.8-7.7-13-8.5.1-.3 1.9-.1 4.8.7 2.8 1.1 7.5 1.4 11 6.7 1.4 3.7-1.7 6.9-3.9 8.3-2.5 1.7-5.2 2.7-7.9 3.8-5.5 1.9-11.2 3.1-16.5 4-10.5 2-39.3 3.8-65.2 1-12.9-1.3-25.1-3.6-33.7-6.6-4.3-1.5-7.7-3.3-9.5-5.1-2.1-1.9-1.8-3.6-1.9-3.5z"/><linearGradient id="SVGID_3_" gradientUnits="userSpaceOnUse" x1="71.694" y1="-26.052" x2="140.413" y2="91.752" gradientTransform="rotate(-2.563 98.457 9.13)"><stop offset="0" stop-color="#00A8CF"/><stop offset="1" stop-color="#223A80"/></linearGradient><path class="st2" d="M54.5 9.5c-1.8 2 10.6 5.9 24.1 5.2 13.5 0 28.2-2.4 33.5-3.7 2.6-.6 5.5-1.2 8.1-2.1 2.6-.7 5.2-2.6 4.6-2.8-2.2-2.7-7.1-3.8-6.6-4.4.1-.1 4-1.6 9.2 2.9 1.6 2.1-.4 4.9-1.6 5.6-1.3 1.1-2.8 1.8-4.2 2.4-2.9 1.3-5.9 2.1-8.7 2.7-5.6 1.3-20.8 2.7-34.5 1.6-13.5-.4-25.8-5.5-23.9-7.4z"/><linearGradient id="SVGID_4_" gradientUnits="userSpaceOnUse" x1="27.256" y1="-1.374" x2="95.978" y2="116.435"><stop offset="0" stop-color="#00A8CF"/><stop offset="1" stop-color="#223A80"/></linearGradient><path class="st3" d="M153.4 99.5c-.1.1 1.3.5 3.1 2.1 2.5 1.2 2.7 6.4-1.6 8.5-7.3 4.7-18.8 7.2-30.8 9.1-24.1 3.7-51.1 3-61 2-9.9-.9-21.6-2.8-30.4-6-4.4-1.6-8.1-3.5-10.3-5.7-2.3-2.2-1.9-4.5-1.7-4.4-.3.5 3.6 5.2 12.9 7.1 8.7 2.3 20.1 3.7 29.9 4.6 9.7 1 36.3 2.8 60.3.2 11.9-1.3 23.4-3.3 30.7-7.5 4.2-1.9 4.1-6.4 1.8-7.8-1.6-1.6-3-2.1-2.9-2.2z"/><linearGradient id="SVGID_5_" gradientUnits="userSpaceOnUse" x1="50.124" y1="138.004" x2="121.093" y2="138.004"><stop offset="0" stop-color="#00A8CF"/><stop offset="1" stop-color="#223A80"/></linearGradient><path class="st4" d="M116.9 130.8s.7.3 1.8.9c.8.5 3.4 2.2 1.9 4.7-3.1 3.8-9.5 5.2-15.7 6.6-12.7 2.6-27.1 2.4-32.4 1.8-5.3-.5-11.5-1.7-16.2-3.8-5-1.6-7.1-6.3-5.8-6.3-1 1.6 11.9 5.3 22.4 5.8 5.1.6 19 1.8 31.7.3 6.1-.8 12.5-1.8 15.5-4.9 1.5-1.8-.6-3.5-1.4-4.1-1.1-.6-1.8-1-1.8-1z"/><linearGradient id="SVGID_6_" gradientUnits="userSpaceOnUse" x1="71.739" y1="-2.87" x2="124.739" y2="114.128"><stop offset="0" stop-color="#00A8CF"/><stop offset="1" stop-color="#223A80"/></linearGradient><path class="st5" d="M44.8 15.1c3.1 2.1 12.6 4.7 23 4.6 13.5.6 28.3-1.2 33.6-2.2 2.7-.4 5.6-1 8.2-1.8 2.6-.6 5.3-2.4 4.7-2.6-.1-.1-.2-.3-.4-.4-10.2-5.4-21.7-8.4-34-8.4-13.1 0-25.4 3.5-36 9.5.2.5.5.9.9 1.3z"/><linearGradient id="SVGID_7_" gradientUnits="userSpaceOnUse" x1="60.043" y1="2.431" x2="113.041" y2="119.428"><stop offset="0" stop-color="#00A8CF"/><stop offset="1" stop-color="#223A80"/></linearGradient><path class="st6" d="M56.5 55.4c25.8 1.7 54.1-1.2 64.3-3.2 5.1-.9 10.7-1.9 15.9-3.5 2.9-.9 6.4-2.3 8.5-3.9-1.5-3-3.2-5.9-5.1-8.7-3.6-1.8-6.6-2.6-6.1-3.1.1-.2 1.7-.1 4.3.5-5.7-7.6-12.8-14-20.9-18.9-.4 1.2-1.4 2.3-2.1 2.7-1.4 1-2.9 1.7-4.3 2.2-3 1.1-6 1.8-8.8 2.3-5.6 1.1-20.9 1.8-34.5.1-12.5-.9-23.6-5.7-24-7.9C30.8 21.4 20.4 32.7 14 46.3c1.9 1.5 4.8 3.1 8.8 4 8.6 2.6 20.8 4.4 33.7 5.1z"/><linearGradient id="SVGID_8_" gradientUnits="userSpaceOnUse" x1="50.454" y1="6.773" x2="103.454" y2="123.774"><stop offset="0" stop-color="#00A8CF"/><stop offset="1" stop-color="#223A80"/></linearGradient><path class="st7" d="M50.9 91.4c28.3 2.1 59.5-.7 70.7-2.5 10.1-1.5 22.6-3.3 30.9-7.8.1-1.3.1-2.7.1-4.1 0-2.1-.1-4.1-.3-6.2-2.3-1.5-3.8-2.3-3.7-2.6.1-.2 1.4 0 3.6.8-.8-7.4-2.7-14.4-5.5-20.9-.3.2-.6.4-.8.6-2.5 1.7-5.2 2.7-7.9 3.8-5.5 1.9-11.2 3.1-16.5 4-10.5 2-39.3 3.8-65.2 1C43.4 56.3 31.2 54 22.6 51c-3.7-1.3-6.7-2.8-8.7-4.4C9.6 55.9 7.2 66.2 7.2 77c0 2 .1 4 .3 5.9 1.8.9 4 1.8 6.5 2.5 9.4 3.1 22.8 5.1 36.9 6z"/><linearGradient id="SVGID_9_" gradientUnits="userSpaceOnUse" x1="43.86" y1="9.762" x2="96.859" y2="126.76"><stop offset="0" stop-color="#00A8CF"/><stop offset="1" stop-color="#223A80"/></linearGradient><path class="st8" d="M50.7 93.6c-14.2-1.5-27.5-4-36.9-7.4-2.4-.8-4.5-1.8-6.2-2.7 1.1 12.5 5.4 24.2 12 34.1 1.3.5 2.8.9 4.5 1.3 8.7 2.3 20.1 3.7 29.9 4.6 9.7 1 36.3 2.8 60.3.2 9.3-1 18.4-2.5 25.4-5 2.4-3.4 4.5-7.1 6.3-11-1.3-1.1-2.2-1.4-2.2-1.5.2.1.4.2.5.3.4.2 1 .5 1.7 1.1 3.2-7 5.4-14.5 6.2-22.4-9 4.9-20.3 6.6-30 8.2-11.5 1.7-43.1 3.4-71.5.2z"/><linearGradient id="SVGID_10_" gradientUnits="userSpaceOnUse" x1="32.529" y1="14.891" x2="85.53" y2="131.893"><stop offset="0" stop-color="#00A8CF"/><stop offset="1" stop-color="#223A80"/></linearGradient><path class="st9" d="M117.9 139.1c8.1-4.9 15.1-11.4 20.7-19-6.8 2.7-15.3 4.4-24.1 5.7-24.1 3.7-51.1 3-61 2-9.9-.9-21.6-2.8-30.4-6-.3-.1-.5-.2-.7-.3 9 11.6 21.3 20.4 35.6 24.9 2.7.8 5.3 1.2 7.8 1.3 5.8.5 18.2.9 31 0 7.4-1.8 14.4-4.7 20.8-8.5"/><path class="st10" d="M180 70.3h418.5v65H180z"/><text transform="translate(180 101.652)" class="st11 st12 st13 st14">PensoPay</text><path class="st10" d="M189 113h396v101.5H189z"/><text transform="translate(189.112 138.948)" class="st15 st16 st17">simplified payments</text></svg>