<svg xmlns="http://www.w3.org/2000/svg" viewBox="0 0 138 47" width="111" height="38">
  <path fill="#256299" d="M14 32.8c0 1.8-.5 3-1.8 4S9 38.4 6.6 38.4c-2.4 0-4.5-.3-6-1V34c2.2 1 4.2 1.4 6 1.4 2.5 0 3.7-.8 3.7-2.2 0-.5-.2-1-.4-1.2l-1.5-1L6 30c-2.2-.8-3.7-1.6-4.4-2.4-.7-1-1-2-1-3.3 0-1.5.6-2.8 2-3.6 1-.8 3-1.3 5-1.3s4.2.5 6 1.3l-1.2 3c-2-.8-3.7-1.2-5-1.2-2 0-3 .6-3 1.8 0 .6 0 1 .7 1.5.6.4 1.8 1 3.6 1.7 1.5.6 2.6 1 3.3 1.6.6.6 1 1.2 1.4 1.8.3.6.5 1.4.5 2.3l.1-.4zm10 5.5c-2.7 0-5-.8-6.3-2.4-1.4-1.7-2-4-2-7 0-3.2.7-5.5 2.2-7.2 1.4-1.7 3.6-2.5 6.5-2.5 2 0 3.7.4 5.3 1l-1.2 3.2c-1.6-.6-3-1-4-1-3.2 0-4.7 2.2-4.7 6.4 0 2 .3 3.5 1 4.5 1 1 2 1.5 3.6 1.5 1.7 0 3.4-.5 5-1.3V37c-.8.5-1.5.8-2.3 1l-3 .2-.1.1zm19.2-.3l-.7-2.6h-.2c-1 1.2-1.7 2-2.6 2.3-1 .4-2 .6-3.5.6-1.8 0-3.2-.5-4.2-1.4-1-1-1.5-2.5-1.5-4.3 0-2 .7-3.3 2-4.3 1.5-1 3.6-1.4 6.5-1.5l3.2-.2v-1c0-1.2-.2-2-.8-2.6-.5-.6-1.4-1-2.5-1-1 0-2 .2-2.8.5l-2.5 1-1.2-2.8c1-.7 2-1 3.3-1.3 1.2-.3 2.3-.4 3.4-.4 2.4 0 4 .5 5.3 1.5 1.2 1 1.8 2.6 1.8 4.8V38h-3zm-5.8-2.7c1.5 0 2.6-.4 3.5-1 .7-1 1.2-2 1.2-3.5v-1.6h-2.4c-2 .2-3.2.5-4 1-1 .6-1.4 1.4-1.4 2.6 0 .8.2 1.4.7 2 .6.3 1.3.5 2.3.5h.1zM66 38h-4V26.7c0-1.4-.2-2.5-.8-3.2-.6-.7-1.5-1-2.7-1-1.7 0-3 .4-3.7 1.4-.7.8-1 2.5-1 4.8V38h-4V19.6h3l.6 2.4h.2c.6-.8 1.3-1.5 2.4-2 1-.5 2-.7 3.3-.7 4.4 0 6.6 2.2 6.6 6.7v12h.1zm13 .3c-2.4 0-4.2-.8-5.5-2.5h-.3c0 1.6.2 2.5.2 3V46h-4V19.6h3.2L73 22h.3c1.2-1.8 3-2.7 5.4-2.7 2.3 0 4 .8 5.3 2.5 1.3 1.7 2 4 2 7s-.7 5.3-2 7c-1.3 1.7-3 2.5-5.4 2.5h.4zm-1-15.8c-1.6 0-2.7.4-3.4 1.3-.7 1-1 2.4-1 4.4v.6c0 2.2.3 3.8 1 4.8S76.4 35 78 35c1.3 0 2.4-.4 3-1.5.8-1 1.2-2.7 1.2-4.7s-.4-3.6-1-4.6c-.8-1-2-1.6-3.3-1.6l.1-.1zM100.6 38l-.8-2.6c-1 1-2 2-2.8 2.3-1 .4-2 .6-3.5.6-1.8 0-3.2-.5-4.2-1.5s-1.6-2.3-1.6-4c0-2 .7-3.4 2-4.4 1.5-1 3.6-1.4 6.5-1.5l3-.2v-1c0-1.2-.2-2-.7-2.6-.6-.6-1.4-1-2.6-1-1 0-2 .3-2.8.5l-2.5 1-1.3-2.8c1-.6 2-1 3.2-1.3 1.2-.2 2.4-.4 3.4-.4 2.4 0 4 .5 5.3 1.6 1.2 1 1.8 2.5 1.8 4.7V38h-2.7.3zm-5.8-2.7c1.4 0 2.5-.4 3.4-1.2 1-.7 1.3-1.8 1.3-3.2v-1.6H97c-1.7.2-3 .5-4 1-.7.6-1 1.4-1 2.5 0 1 0 1.5.6 2 .5.4 1.2.6 2.2.6v-.1zm9.6-15.7h4.2l3.7 10.4c.5 1.5 1 3 1 4.2h.2c0-.6.3-1.4.5-2.2.2-1 1.6-5 4.2-12.4h4.2l-8 20.8c-1.3 3.8-3.7 5.8-7 5.8-1 0-1.8 0-2.6-.3v-3.2l2 .2c1.8 0 3.2-1 4-3.3l.5-1.7-7.4-18.4.5.1z"/>
</svg>
