<svg xmlns="http://www.w3.org/2000/svg" viewBox="-249 376.8 112 39.1">
  <path fill="#862165" d="M-168.6 385.2c2.5 0 4.6-2 4.6-4.7s-2-4.7-4.6-4.7c-2.5 0-4.6 2-4.6 4.7s2 4.7 4.6 4.7zm-35.2 2.6c-.2.5-1.7 5-5.3 9.4V378l-9.8 2v34.8h9.6V404c2.7 4.3 4 10.8 4 10.8h11.6c-1-5-6-14-6-14 4.4-5.8 6.3-12 6.6-13h-11zm25.3-.4c-8.6.3-13 4.3-13 12.2v15.2h9.4v-12.4c0-4.7.4-6.8 6-7v-8h-2.6zm-56.3 4.3c-1.2 0-4-.3-4-2.8 0-3.3 4-3.3 5.5-3.3 2.6 0 6 .8 8.3 1.5l2.5 1V380c-2.8-1-6-2-12.2-2-10.5 0-14.2 6.3-14.2 11.7 0 3 1.5 10.5 13.5 11.3 1 0 3.7.2 3.7 2.8 0 2.2-2 3.4-5.8 3.4-4 0-8-1-10.4-2v8.5c3.6 1 7.7 1.5 12.4 1.5 10.3 0 15-6 15-12-.3-6.6-5.4-11-14-11.5zm61.5 23h9.3v-27h-9.3v27zm27-35v35h9.2V378l-9.5 1.6zm-13.7 0l9.3-1.8v36.7h-9.3v-35.2z"/>
</svg>
