<svg xmlns="http://www.w3.org/2000/svg" viewBox="0 0 292.64 56.38">
  <path fill="#010101" d="M0 4.6h12v37.8c0 5.6 2.8 8.5 7.3 8.5h.8C18.4 54 15.8 56 10 56 3.4 56.2 0 52 0 45.5v-41zM71.4 47c0 5.3-5 9.4-14.2 9.4-12.5 0-18.6-7.8-18.6-17.3C38.6 29.8 45 17 60.2 17c10.2 0 17.7 5 17.7 16.5 0 3-.8 6-1 7.2H50C50 43 52.5 48 61.8 48c4.2 0 9-1.6 9.7-2v1zM66 33c.7-3.5-1.3-7-6-7-5.5 0-8 3.7-9 7h15zm220 14c0 5.3-5 9.4-14 9.4-12.6 0-18.7-7.8-18.7-17.3 0-9.3 6.3-22.2 21.6-22.2 10 0 17.5 5 17.5 16.5 0 3-.6 6-1 7.2H265c0 2.7 2.3 7.5 11.7 7.5 4 0 8.8-1.6 9.6-2v1zm-5-14c.6-3.5-1.4-7-6-7-5.6 0-8 3.7-9 7h15zM108.4 16.6c-6 0-9.2 4-10.5 7.4h-.3l.4-6.4H86.6c0 2.2-.6 6-1.8 12L81 48l-.2 2.8c0 3 1.6 5.6 6 5.6 2.4 0 4-.6 4.7-1L95 38c1.2-6.8 3.5-11.3 10.2-11.3 3 0 5.8.7 6.4.8l2-10c-.4-.2-2-.8-5-.8zM135.8 47c-.3 1.5-.4 2.5-.4 3.6 0 4.4 3 5.7 6 5.7 2.4 0 4-.7 4.5-1l5.5-28.7h9.3l1.7-9h-9.2l.4-2.4c.7-4.2 2.7-6 6.2-6 2.2 0 4 .3 4.7.5l1.8-8.8c-.8-.3-4.2-1-9.3-1-8 0-13.3 5-14.8 12.7l-1 4.7h-6l-1.8 9.2h6L135.4 47zm44.5 9.3c-12.7 0-18.8-7.6-18.8-17.4 0-13.4 9.2-22.4 23.3-22.4 12.3 0 18.8 7.4 18.8 17 0 14.2-9.8 22.7-23.3 22.7zm3.5-30.5c-6.6 0-10.3 6.6-10.3 12.7 0 5 2.3 8.5 7.5 8.5 6 0 10.6-5 10.6-13.6 0-4-2-7.7-7.8-7.7zm52.8-9.3c-8 0-11 4.6-12.5 7.4l.5-6.5h-11.8c0 1.4-.5 6-1.3 10L208 43.8c-.3 2-1 5-1 6.6 0 3.7 1.8 5.8 6 5.8 2.3 0 4-.7 4.6-1l4-19.7c1-5.4 5-9 9.7-9 3.8 0 5.6 2.8 5.6 5 0 2-.7 4.2-1 6l-1.7 8.6c-.2 1-.7 3-.7 4.6 0 3.7 2 5.6 6.2 5.6 2 0 3.4-.6 4.4-1L248 38c.7-4 1-6 1-8.7 0-7.2-4.3-12.3-12.4-12.3zm-118 .8h12l-7.7 38c-.7.2-2.4 1-4.8 1-3 0-6-1.4-6-5.7 0-1 0-1.8.3-3l6-30.3zm1.2-6h12l1.8-9.7h-12l-1.8 9.6z"/>
  <path fill="#2BACE2" d="M15.3 38.5v4c0 3.8 2 5 4.3 5s3.5-1.4 4.7-3.2l25-39.7H37l-21.7 34z"/>
</svg>
