<svg xmlns="http://www.w3.org/2000/svg" viewBox="0 0 292.64 56.38"><path fill="#010101" d="M0 4.63h11.95v37.74c0 5.67 2.83 8.57 7.37 8.57.46 0 .74-.06.83-.08-1.99 3.01-4.57 5.48-10.49 5.48C3.39 56.33 0 51.99 0 45.47V4.63zm71.4 42.42c0 5.28-5.12 9.33-14.18 9.33-12.53 0-18.65-7.79-18.65-17.33 0-9.47 6.29-22.36 21.66-22.36 10.13 0 17.7 5.03 17.7 16.53 0 2.83-.63 5.91-.9 7.14H50.1c-.04 2.76 2.28 7.55 11.64 7.55 4.17 0 8.89-1.47 9.66-1.85v.99zm-5.3-14.12c.64-3.48-1.39-7.07-5.97-7.07-5.59 0-8.05 3.82-9.15 7.07H66.1zm220.01 14.12c0 5.28-5.12 9.33-14.18 9.33-12.53 0-18.65-7.79-18.65-17.33 0-9.47 6.29-22.36 21.66-22.36 10.13 0 17.7 5.03 17.7 16.53 0 2.83-.63 5.91-.9 7.14h-26.92c-.04 2.76 2.29 7.55 11.64 7.55 4.17 0 8.89-1.47 9.66-1.85-.01.28-.01.8-.01.99zm-5.31-14.12c.64-3.48-1.39-7.07-5.97-7.07-5.59 0-8.05 3.82-9.15 7.07h15.12zM108.45 16.68c-5.96 0-9.24 4.14-10.53 7.44h-.14l.46-6.57H86.5c-.1 2.28-.58 6.13-1.78 12.18-1.21 6.13-2.39 12.25-3.61 18.21-.21 1.02-.3 2.01-.3 2.86 0 3.12 1.54 5.58 6.1 5.58 2.26 0 3.83-.59 4.58-.87l3.49-17.6c1.26-6.73 3.55-11.18 10.18-11.18 3.02 0 5.89.64 6.49.82l2.01-10.12c-.43-.16-2.18-.75-5.21-.75zm27.36 30.55c-.27 1.37-.44 2.32-.44 3.5 0 4.35 2.91 5.64 6 5.64 2.47 0 4-.67 4.55-.87l5.71-28.77h9.24l1.82-9.18h-9.24l.45-2.26c.84-4.24 2.83-6.11 6.29-6.11 2.31 0 4.18.41 4.83.58l1.74-8.73C166.02.83 162.6 0 157.55 0c-8.05 0-13.33 4.88-14.89 12.75l-.95 4.79h-6.02l-1.82 9.18h6.02c0 .01-2.37 11.9-4.08 20.51zm44.49 9.14c-12.72 0-18.81-7.62-18.81-17.33 0-13.33 9.16-22.36 23.32-22.36 12.29 0 18.81 7.43 18.81 16.97 0 14.29-9.78 22.72-23.32 22.72zm3.51-30.52c-6.64 0-10.32 6.78-10.32 12.83 0 5.1 2.31 8.51 7.55 8.51 5.92 0 10.56-5.03 10.56-13.63-.01-3.93-2.1-7.71-7.79-7.71zm52.78-9.17c-7.91 0-11.05 4.63-12.53 7.44h-.14l.46-6.57h-11.74c-.08 1.44-.58 6-1.34 9.92l-3.23 16.42c-.39 2.01-1.11 4.99-1.11 6.72 0 3.68 1.87 5.76 6.04 5.76 2.34 0 4.03-.64 4.64-.87l3.93-19.77c1.09-5.46 5.04-9.03 9.74-9.03 3.79 0 5.61 2.76 5.61 5.02 0 1.97-.49 4.14-.88 6.07l-1.69 8.46c-.2 1.02-.63 2.97-.63 4.5 0 3.74 2.11 5.61 6.13 5.61 2.19 0 3.58-.55 4.56-.87l3.52-17.72c.76-4 1.05-6.11 1.05-8.66 0-7.33-4.29-12.43-12.39-12.43zm-117.99.86h11.88l-7.55 37.96c-.55.19-2.25.87-4.6.87-3.17 0-6.08-1.23-6.08-5.61 0-.82.1-1.76.31-2.82 2.36-11.85 6.04-30.4 6.04-30.4zm1.23-6.18h11.88l1.91-9.61h-11.88l-1.91 9.61z"/><path fill="#2BACE2" d="M15.28 38.47v3.96c0 3.83 2.07 5.2 4.33 5.2 2.31 0 3.54-1.56 4.68-3.34 1.9-2.98 25.12-39.66 25.12-39.66H36.98l-21.7 33.84z"/></svg>