<svg data-name="Layer 1" xmlns="http://www.w3.org/2000/svg" viewBox="0 0 676.8 69"><defs><clipPath id="a" transform="translate(-37.1 -51)"><path fill="none" d="M37.1 51h676.8v69H37.1z"/></clipPath><clipPath id="b" transform="translate(-37.1 -51)"><path fill="none" d="M37.1 51h676.8v69H37.1z"/></clipPath></defs><g clip-path="url(#a)"><g clip-path="url(#b)" fill="#46beaa" data-name="Artwork 6"><path d="M564.2 16.2a56.2 56.2 0 00-6.9 6.9c10.3 10.3 17.6 25.9 20.1 44.1h9.9c-2-16-7.5-30.8-16-42.6a65.5 65.5 0 00-7.1-8.4m-12 13.7a73.3 73.3 0 00-5.1 9.1c5.9 7.3 10.2 17.1 12.2 28.2h9.9c-1.9-11.9-6.2-23-12.6-31.9-1.4-1.9-2.9-3.7-4.4-5.4M541 67.2h9.9a56 56 0 00-7.3-18.5 66.7 66.7 0 00-2.6 18.5m107.6-55.1c-1.3-.9-2.6-1.8-4-2.6l-1.8 1.9a96.6 96.6 0 00-21.6 41.1 132 132 0 00-6-22 100.9 100.9 0 0117.4-26.9 40.1 40.1 0 00-4.9-1.6 107.9 107.9 0 00-14.9 22.6 111.3 111.3 0 00-12-21.4L598.5.1A73 73 0 00588 2.6a103.6 103.6 0 0119.3 35 129 129 0 00-4.3 15.5 106.6 106.6 0 00-16.9-39.2c-2.1-2.8-4.3-5.5-6.5-7.9a74.5 74.5 0 00-8.7 4.9c12.9 13.1 22 33.2 24.6 56.3h10.2a115.2 115.2 0 014-21.6 135.2 135.2 0 013.8 21.6h9.8c2.9-25.3 13.7-42.3 23-52.6l2.3-2.5m12.8 12c-1-1.2-2.1-2.4-3.2-3.5-10.4 10.7-19.2 26.2-21.9 46.6h4.7c2.8-19.8 11.4-33.2 18.8-41.4l1.6-1.7m-7.3 43.1h4.7A62.4 62.4 0 01671 39.8c-.7-1.6-1.4-3.1-2.2-4.7a65.6 65.6 0 00-14.7 32.1m21.8-11a56.9 56.9 0 00-3.9 11h4.8a67.1 67.1 0 00-.9-11M247.5 2h-14.6v65.2h40.2V54.3h-25.6V2zm106.7 0h-5.3v65.2h35v-4.7h-29.7V2zM390 2h5.3v65.25H390zm91 60.5V36.1h28.9v-4.6H481V6.7h31V2h-36.3v65.2h37.4v-4.7H481zm-23 0h-1.1L419.1 2h-9.5v65.2h5.3V6.7h1.3L454 67.2h9.3V2H458v60.5zM66.2 54.3h-1.1L54.4 3.8H39.1l-9.6 50.5h-1.4L15 2H0l16.1 65.2h22.5l8-39.7 8.8 39.7h22.9L92.6 2H77.5L66.2 54.3zM330 11.1c-7-6.8-16.1-9.7-26.6-9.7h-24.2v66.2h24.2a39 39 0 0015.5-2.8 30.9 30.9 0 0017.7-17.7 35.5 35.5 0 002.2-13.7 31.3 31.3 0 00-8.8-22.3m-7.8 32.2A17.2 17.2 0 01312 53.4a23.7 23.7 0 01-8.3 1.3h-9.9V14.3h9.9a26.4 26.4 0 018.3 1.2 16.5 16.5 0 0110.2 9.8 30.7 30.7 0 010 18M142.8 2.9c-8.3-3.9-21.9-3.9-30.2 0a32.1 32.1 0 00-17.5 18.5 33.7 33.7 0 00-2.2 14c.1 12.5 7.6 25.1 19.4 30.5 8.4 4.1 22.5 4.1 30.8 0 11.9-5.4 19.4-18 19.5-30.5a34.6 34.6 0 00-8.9-24.8 31.1 31.1 0 00-10.9-7.7m-15 52.8c-12.5 0-19.6-9.8-19.6-21.2s6.7-21.1 19.6-21.1c10.9 0 19.5 7.5 19.5 21.1 0 11.4-7.3 21.2-19.5 21.2M219 36.8c2.5-3.4 3.5-8.5 3.3-13.5a22 22 0 00-3.2-12.1c-5.1-7.5-13.9-9.7-23.4-9.8h-25.6v65.8h14.6V47h11.1l13.9 20.2h17L210 43.9a19.5 19.5 0 009-7.1m-13.3-7c-1.9 3.4-5.2 5-9.2 5h-11.8V14.3h11.8c2.1 0 4 0 5.5.8a9.4 9.4 0 013.7 3.7 12.2 12.2 0 010 11"/></g></g></svg>