<?xml version="1.0" encoding="utf-8"?>
<!-- Generator: Adobe Illustrator 19.1.0, SVG Export Plug-In . SVG Version: 6.00 Build 0)  -->
<svg version="1.1" id="Layer_1" xmlns="http://www.w3.org/2000/svg" xmlns:xlink="http://www.w3.org/1999/xlink" x="0px" y="0px"
	 viewBox="-270 373 70 48" style="enable-background:new -270 373 70 48;" xml:space="preserve">
<style type="text/css">
	.st0{fill:#2DABE2;}
	.st1{fill:#FFFFFF;}
</style>
<path class="st0" d="M-204,421h-62c-2.2,0-4-1.8-4-4v-40c0-2.2,1.8-4,4-4h62c2.2,0,4,1.8,4,4v40C-200,419.2-201.8,421-204,421z"/>
<g>
	<path class="st1" d="M-240.2,399.2l-4-10.7h-5.1v15.4l-5.7-15.4h-4.3l-5.7,16h3.4l1.2-3.6h6.5l1.2,3.6h6.6v-11.9l4.3,11.9h3
		l4.4-11.7v11.7h3.2v-16h-5.2C-236.3,388.5-240.2,399.2-240.2,399.2z M-257.1,397.4h-2l2-5.6v0.2l2,5.4H-257.1z"/>
	<path class="st1" d="M-210.7,396.2l2.4-3l3.4-4.7h-4.1l-3.7,4.9l-3.7-4.9h-12.9v15.8h12.5l3.9-5.2l3.8,5.3h4.1l-3.4-4.9
		C-208.3,399.6-210.7,396.2-210.7,396.2z M-218.5,401.1h-7.4v-3.2h7.2v-3h-7.2V392h7.4l3.7,4.2
		C-214.8,396.2-218.5,401.1-218.5,401.1z"/>
</g>
</svg>
