<svg xmlns="http://www.w3.org/2000/svg" viewBox="0 0 70 48"><path fill="#2DABE2" d="M66 48H4c-2.21 0-4-1.79-4-4V4c0-2.21 1.79-4 4-4h62c2.21 0 4 1.79 4 4v40c0 2.21-1.79 4-4 4z"/><g fill="#FFF"><path fill-rule="evenodd" clip-rule="evenodd" d="M30.12 26.09l-3.69-8.28h-4.72v11.9l-5.34-11.9H12.34L7 30.19h3.21l1.09-2.8h6.09l1.16 2.8h6.16v-9.23l4.04 9.23h2.8l4.1-9.03v9.03h3.01V17.81H33.8l-3.68 8.28zm-15.73-1.37h-1.85l1.85-4.31v.14l1.85 4.17h-1.85z"/><path d="M57.62 23.79l2.19-2.33L63 17.84h-3.81l-3.42 3.76-3.42-3.76H40.38v12.24h11.63l3.63-4.04 3.56 4.1H63l-3.19-3.76-2.19-2.59zm-7.25 3.77h-6.91V25.1h6.7v-2.33h-6.7v-2.26h6.91l3.42 3.28-3.42 3.77z"/></g></svg>