<svg xmlns="http://www.w3.org/2000/svg" viewBox="0 0 70 48"><path d="M66 48H4c-2.2 0-4-1.8-4-4V4c0-2.2 1.8-4 4-4h62c2.2 0 4 1.8 4 4v40c0 2.2-1.8 4-4 4z" fill="#DEE0E1"/><path d="M39.7 43.5h-9.4C19.6 43.5 11 34.9 11 24.2v-.4c0-10.7 8.6-19.3 19.3-19.3h9.4C50.4 4.5 59 13.1 59 23.8v.4c0 10.7-8.6 19.3-19.3 19.3z" fill="#0A5495"/><path d="M31.6 8.2c-8.7 0-15.8 7.1-15.8 15.8s7.1 15.8 15.8 15.8 15.8-7 15.8-15.8c0-8.7-7.1-15.8-15.8-15.8zM20.3 24.1c0-5.1 3.2-9.4 8.2-10.6v21.3c-4.9-1.3-8.2-5.6-8.2-10.7zm13.3 10.6V13.4c5 1.2 8.2 5.5 8.2 10.6s-3.2 9.5-8.2 10.7z" fill="#FFF"/></svg>