<svg xmlns="http://www.w3.org/2000/svg" viewBox="-270 373 70 48"><path fill="#DEE0E1" d="M-204 421h-62c-2.21 0-4-1.79-4-4v-40c0-2.21 1.79-4 4-4h62c2.21 0 4 1.79 4 4v40c0 2.21-1.79 4-4 4z"/><path fill="#0A5395" d="M-230.31 416.5h-9.39c-10.66 0-19.3-8.64-19.3-19.31v-.39c0-10.66 8.64-19.3 19.31-19.3h9.39c10.66 0 19.3 8.64 19.3 19.31v.39c0 10.66-8.64 19.3-19.31 19.3z"/><path fill="#FFF" d="M-238.44 381.24c-8.73 0-15.81 7.08-15.81 15.81s7.08 15.81 15.81 15.81 15.81-7.08 15.81-15.81c.01-8.73-7.07-15.81-15.81-15.81zm-11.22 15.82c0-5.12 3.25-9.42 8.25-10.64v21.28c-5-1.23-8.25-5.52-8.25-10.64zm13.25 10.64v-21.28c5 1.22 8.25 5.52 8.25 10.64s-3.25 9.41-8.25 10.64z"/></svg>