<svg xmlns="http://www.w3.org/2000/svg" viewBox="0 0 70 48"><path d="M26.7 48h.2-.2z" fill="#6E9ED4"/><path d="M35.6 47.5c14.6-.2 20.2-4.4 21.3-18.4.2-3.2.2-5.3.2-5.3s0-2.1-.2-5.3C55.8 4.5 50.2.2 35.6 0h-1.7C19.2.2 13.6 4.5 12.5 18.5c-.2 3.2-.2 5.3-.2 5.3s0 2.1.2 5.3c1.1 14 6.7 18.2 21.3 18.4h1.8" fill="#FFF"/><path d="M21.7 37.2s2.4.2 4.1-1.9c1.3-1.6 1.4-3.1 1.4-3.5 0-.1 0-5.3.1-5.5H12.4c0 .8.1 1.8.2 2.9.7 9.2 3.3 14.2 9.2 16.5-.1-.1-.1-8.5-.1-8.5zm-8.9-18.9h14.4s.2-9.9 2.6-12.7C34.2.2 39 .5 40.3.3h.4C39.1.1 37.4 0 35.5 0h-1.7C19.2.2 13.6 4.4 12.5 18.3h.3zM26.7 47h.2-.2zm30.1-28.5C56 8.2 52.8 3.1 45.4 1.2v10.4h-.2c-.9 0-5.6-.2-7.2 2.4-.6 1-.9 1.8-1.1 2.5v1.8h8.4v7.9H37v8s-.3 3.7-1.2 5.8c-2.2 4.8-5.9 6.8-8.5 7H27c2 .3 4.3.5 6.8.5h1.7c14.6-.2 20.2-4.4 21.3-18.4.2-3.2.2-5.3.2-5.3s.1-2.2-.2-5.3z" fill="#6E9ED4"/></svg>