<svg xmlns="http://www.w3.org/2000/svg" viewBox="0 0 113.26 119.3"><path fill="#6E9ED4" d="M36.26 120.61c.19 0 .38-.01.57 0-.19-.01-.38-.01-.57 0z" opacity=".78"/><path fill="#FFF" d="M58.76 119.31c37.11-.43 51.3-11.06 53.96-46.27.61-8.03.54-13.38.54-13.38s.07-5.35-.54-13.39C110.06 11.07 95.87.43 58.76.01h-4.38C17.27.44 3.08 11.07.41 46.27-.2 54.3-.13 59.66-.13 59.66s-.07 5.35.54 13.38c2.67 35.21 16.85 45.84 53.97 46.27h4.38"/><g fill="#6E9ED4"><path d="M23.74 93.42s6.07.39 10.27-4.87c3.23-4.04 3.51-7.8 3.48-8.9-.01-.33.14-13.42.15-13.89L0 65.77c.08 2.02.21 4.47.42 7.25 1.75 23.09 8.45 35.61 23.33 41.61V93.42h-.01zM1.03 45.99h36.61s.59-24.83 6.56-32.05C55.32.5 67.58 1.06 70.84.74c.32-.04.61-.04.9-.06C67.76.27 63.44.06 58.75 0h-4.38C17.36.43 3.15 11.01.43 45.99h.6zM36.26 117.96c.19 0 .38.01.57 0h-.57zM112.72 46.27c-1.96-25.86-10.15-38.45-29.06-43.49V29s-.14-.01-.38-.02c-2.27-.12-14.08-.42-18.23 6.05-1.55 2.41-2.32 4.54-2.68 6.27v.02c-.05.25-.09.49-.12.72 0 .04-.02.08-.02.12-.03.21-.05.4-.07.59 0 .06-.01.12-.02.17l-.03.49c0 .06-.01.13-.01.2-.01.15 0 .28 0 .42v.19c0 .13.01.24.02.35.01.05.01.12.01.17.01.11.02.2.03.29 0 .05.01.1.01.15.01.09.03.16.04.24.01.04.01.08.02.11.01.08.02.13.04.19 0 .02.01.05.01.06.02.06.03.1.04.13 0 .01 0 .02.01.03.01.04.01.06.01.06H83.66v19.78H62.34v20s-.65 9.41-3.08 14.67c-5.56 12.05-14.91 17.23-21.62 17.61-.18.01-.36.01-.54.01 5.12.76 10.84 1.15 17.28 1.23h4.38c37.11-.43 51.3-11.06 53.96-46.27.61-8.03.54-13.38.54-13.38s.07-5.35-.54-13.38z"/></g><linearGradient id="a" gradientUnits="userSpaceOnUse" x1="36.257" y1="5.398" x2="36.828" y2="5.398" gradientTransform="matrix(1 0 0 -1 0 123.36)"><stop offset=".141" stop-color="#FFF" stop-opacity="0"/><stop offset=".221" stop-color="#F2F2F2" stop-opacity=".056"/><stop offset=".372" stop-color="#CBCBCB" stop-opacity=".161"/><stop offset=".578" stop-color="#8F8F8E" stop-opacity=".305"/><stop offset=".83" stop-color="#3D3D3D" stop-opacity=".481"/><stop offset="1" stop-color="#010101" stop-opacity=".6"/></linearGradient><path fill="url(#a)" d="M36.26 117.96c.19 0 .38.01.57 0h-.57z"/></svg>