<svg xmlns="http://www.w3.org/2000/svg" viewBox="0 0 70 48"><path d="M66 48H4c-2.2 0-4-1.8-4-4V4c0-2.2 1.8-4 4-4h62c2.2 0 4 1.8 4 4v40c0 2.2-1.8 4-4 4z" fill="#E5E5E5"/><path d="M55.2 44.5H5.9v-29c0-6.7 4.8-12.1 10.6-12.1h47.1v31.4c.1 5.4-3.7 9.7-8.4 9.7z" fill="#FFF"/><path d="M19.7 40.9H9.6V14.3c0-4 4.1-7.2 7.6-7.2h7.6v26.6c0 4-1.6 7.2-5.1 7.2z" fill="#136EB1"/><path d="M37.6 40.9H27.4V14.3c0-4 4.1-7.2 7.6-7.2h7.6v26.6c0 4-1.5 7.2-5 7.2z" fill="#DD2229"/><path d="M55.4 40.9H45.2V14.3c0-4 4.1-7.2 7.6-7.2h7.6v26.6c.1 4-1.5 7.2-5 7.2z" fill="#1B9045"/></svg>