<svg xmlns="http://www.w3.org/2000/svg" viewBox="0 0 70 48"><path fill="#E5E5E5" d="M66 48H4c-2.21 0-4-1.79-4-4V4c0-2.21 1.79-4 4-4h62c2.21 0 4 1.79 4 4v40c0 2.21-1.79 4-4 4z"/><path fill="#FFF" d="M54 41H7.6V17c0-5.52 4.48-10 10-10H62v26c0 4.42-3.58 8-8 8z"/><path fill="#136DB0" d="M20.6 38H11V16c0-3.31 3.89-6 7.2-6h7.2v22c0 3.31-1.49 6-4.8 6z"/><path fill="#DD1F28" d="M37.4 38h-9.6V16c0-3.31 3.89-6 7.2-6h7.2v22c0 3.31-1.49 6-4.8 6z"/><path fill="#188F45" d="M54.2 38h-9.6V16c0-3.31 3.89-6 7.2-6H59v22c0 3.31-1.49 6-4.8 6z"/></svg>