<svg xmlns="http://www.w3.org/2000/svg" viewBox="0 0 70 48"><path d="M70 0v39c0 5-4 9-9.1 9H50V31.5h10.4c.3 0 1.6-.1 2.7-1.2.2-.2 1.1-1.2 1.1-2.7 0-.7-.2-1.3-.4-1.8-.4-.7-.9-1.1-1.2-1.3-.8-.6-1.4-.7-2.1-.7 1.9 0 3.8-1.8 3.8-3.6-.1-2-1.7-4-4.3-4.1H50V9c0-5 4-9 9.1-9H70zM57.7 23h-5.2v-4h5.2c1 0 1.8.9 1.8 2s-.9 2-1.8 2z" fill="#2D9446"/><path d="M0 31c4.4 1.7 14.8 1.2 16.6-1.3 1.2-1.2 1.6-3.1 1.6-4.7v-8.8h-6.8V25c0 1.9-.2 2.8-1.3 3.6C6.8 30 0 27.5 0 27.5V9c0-5 3.9-9 9-9h11v39c0 5-3.9 9-9 9H0" fill="#1B5899"/><path d="M25 18.3V9c0-5 4-9 9.1-9H45v39c0 5-4 9-9.1 9H25V29.5c2.5 2.2 11.6 4.2 17.5 1.6v-3.4s-6.2 2.9-9.9 1.3c-1.8-.7-2.9-2.4-3.1-4.3-.2-2 .4-4.1 2.2-5.2 1.7-1.1 6.9-1.6 10.8.8V17c0-.1-11.3-3.8-17.5 1.3z" fill="#BF2A3F"/><path d="M57.7 29h-5.2v-4h5.2c1 0 1.8.9 1.8 2s-.9 2-1.8 2z" fill="#2D9446"/></svg>