<svg xmlns="http://www.w3.org/2000/svg" viewBox="-270 373 70 48"><path fill="#0F2F59" d="M-204 421h-62c-2.21 0-4-1.79-4-4v-40c0-2.21 1.79-4 4-4h62c2.21 0 4 1.79 4 4v40c0 2.21-1.79 4-4 4z"/><g fill="#0094C3"><path d="M-235 387.1c-2.75-3.12-6.76-5.1-11.25-5.1-8.28 0-15 6.72-15 15s6.72 15 15 15c4.49 0 8.5-1.98 11.25-5.1-2.33-2.64-3.75-6.1-3.75-9.9s1.42-7.26 3.75-9.9z"/><path d="M-235 387.1c-2.33 2.64-3.75 6.1-3.75 9.9s1.42 7.26 3.75 9.9c2.33-2.64 3.75-6.1 3.75-9.9s-1.42-7.26-3.75-9.9z"/></g><path fill="#D22538" d="M-223.75 382c-4.49 0-8.5 1.98-11.25 5.1-.65.74-1.22 1.54-1.72 2.4h3.43c.55.94.97 1.95 1.31 3h-6.07c-.3.96-.53 1.96-.63 3h7.32c.05.49.1.99.1 1.5s-.03 1.01-.08 1.5h-7.34c.1 1.04.32 2.04.63 3h6.08c-.33 1.06-.78 2.06-1.33 3h-3.43c.5.85 1.07 1.66 1.72 2.4 2.75 3.12 6.76 5.1 11.25 5.1 8.28 0 15-6.72 15-15 .01-8.28-6.71-15-14.99-15z"/></svg>