<svg xmlns="http://www.w3.org/2000/svg"  width="220" height="150" viewBox="0 0 113 124">
  <rect width="70" height="48" fill="#D6E2E8" rx="5"/>
  <g transform="rotate(-21)" fill="#D6E2E8">
    <rect width="59" height="114" x="-5" y="19" fill="#03233f" rx="8"/>
    <path d="M3 32h43v83H3z"/>
    <rect width="20" height="3.5" x="15.5" y="122.5" rx="2"/>
  </g>
  <path fill="#03233f" d="M40.4 53c-.5-1-.2-2.5.7-3 0 0 12-9.3 25.7-16 13.6-7 26.6-10.3 26.6-10.3 1-.3 2.3.2 2.7 1.2l12.7 26.5c.5 1 0 2-1 2.4 0 0-11.2 3-25.6 10.7C68 72.3 56 81 56 81c-.8.7-2 .4-2.4-.6L40.4 53z"/>
  <circle cx="74.5" cy="49.5" r="9.5" fill="#03233f" stroke="#D6E2E8" stroke-width="3"/>
  <path fill="#D6E2E8" d="M49 56.8c0-2.2 1.5-4.5 3.7-5.2 0 0 13-4.7 28.5-5.4 15.5-.6 31.8.4 31.8.4l-.4 33.3-63 .5-.6-23.7z"/>
  <path fill="#03233f" d="M85 50c12.5 0 27.7 2 27.7 2 1 0 2 1 2 2.2l.6 30.3c0 1-1 2-2 1.8 0 0-11-1.4-28.6-1.4s-30.3 3-30.3 3c-1 .2-2-.5-2-1.6V54.8S72.4 50 85 50z"/>
  <circle cx="83.5" cy="67.5" r="9.5" fill="#03233f" stroke="#D6E2E8" stroke-width="3"/>
</svg>
