<svg xmlns="http://www.w3.org/2000/svg" width="220" height="150" viewBox="0 0 70 48">
  <rect width="70" height="48" fill="#D6E2E8" rx="5"/>
  <path fill="#003F62" d="M37.6 17.7c.7 0 1.4-.3 2.2-.4l3.8-.4v-1c-.6-1-1.6-2-2.8-2h-1.6c-1 0-1.4 1-1.6 2z"/>
  <path fill="#003F62" d="M57.3 19.4c0-.3-.3-.7-.6-.8h-11c-1.8 0-3.5.3-5 .5l-6.2 2c-.3 0-.6 1-.6 1v12c-34-34 5-2 11-2l2 5-7 3-8 3-6-15-5-15 15-5 2 6c-5.5 3-9 6.8-9 6.8v1l5 7.5-1-7.3c0-1 .6-2 1.5-2l2.6-.8c0-.7 0-1 .5-1 .5-1 1-2 2-3l2-.4c2 0 3 1 4 2.3v.7h9l-6-8c0-.5-.3-.7-1-.6 0 0-2 .6-7 3l-3-9c-.7-1.4-2.4-2.2-4-2L18 6.8c-1.6.6-2.4 2.3-1.8 4l13.6 35c.6 1.5 2.4 2.3 4 1.7l15.2-6c1.6-.5 2.4-2.2 1.8-4L48.4 31H55c.2 0 .3 0 .5.2h.7s.2 0 .3.2H58V31l-.7-11.6zm-13 21.4l-6 2.2c-.3 0-.7 0-.8-.4 0-.3 0-.7.3-.8l6-2.2c.2 0 .6 0 .7.4 0 .4 0 .7-.3.8zm1.5-12c-.6 0-1 0-1.6-.3-1.6-.6-2.7-2.2-2.7-4 0-.7.2-1.3.4-2 0-1.3 2-2.3 3-2.3 2 0 4 2 4 4.3 0 2.4-2 4.3-5 4.3z"/>
  <path fill="#003F62" d="M45.8 27.7c1.8 0 3.2-1.4 3.2-3 0-1.8-1.4-3.2-3.2-3.2-1.8 0-3.2 1.4-3.2 3 0 1 .3 1.6.8 2 .6.8 1.4 1.2 2.4 1.2z"/>
</svg>
