<svg xmlns="http://www.w3.org/2000/svg" viewBox="0 0 228.38 142.84"><path fill="#ED1C24" d="M44.72 0h57c7.96 0 12.91 6.48 11.05 14.46L86.23 128.39c-1.87 7.98-9.83 14.45-17.79 14.45h-57c-7.97 0-12.91-6.47-11.04-14.45L26.94 14.46C28.8 6.48 36.75 0 44.72 0z"/><path fill="#00569E" d="M96.99 0h57c7.96 0 12.91 6.48 11.04 14.46l-26.54 113.93c-1.87 7.98-9.83 14.45-17.8 14.45H63.7c-7.97 0-12.91-6.47-11.04-14.45L79.19 14.46C81.06 6.48 89.03 0 96.99 0z"/><path fill="#00898E" d="M159.95 0h56.99c7.97 0 12.91 6.48 11.04 14.46l-26.53 113.93c-1.87 7.98-9.83 14.45-17.8 14.45h-57c-7.97 0-12.91-6.47-11.04-14.45l26.53-113.93C144.01 6.48 151.97 0 159.95 0z"/><path fill-rule="evenodd" clip-rule="evenodd" fill="#FFF" d="M151.15 107.17h5.37l1.21-5.18h-5.37l-1.21 5.18zm3.33-14.25l-1.43 6.09s1.97-1.05 3.05-1.34c1.08-.29 2.73-.47 2.73-.47l1.02-4.28h-5.37zm2.07-8.81L155.17 90s1.94-.91 3.01-1.2c1.08-.29 2.74-.4 2.74-.4l.99-4.28h-5.36zm11.89 0l-5.38 22.98h1.86l-1.12 4.77h-1.86l-.34 1.46h-6.61l.34-1.46H141.9l1.05-4.4 1.37-.02 5.46-23.33 1.09-4.72h6.75l-.53 2.39s1.7-1.31 3.37-1.74c1.68-.44 11.44-.61 11.44-.61l-1.13 4.68h-2.33zM172.26 79.44h7.19l.08 2.68c-.04.43.34.65 1.18.67h1.21l-1.08 4.43h-3.89c-3.37.24-4.65-1.21-4.56-2.83l-.13-4.95z"/><path fill-rule="evenodd" clip-rule="evenodd" fill="#FFF" d="M173.47 100.45h-6.87l.92-3.95h7.83l.88-3.61h-7.74l1.04-4.43h21.54l-1.05 4.43h-7.23l-.88 3.61h7.24l-.93 3.95h-7.82l-1.29 1.66h3.18l1.13 4.97c.09.49.14.81.31 1.01.17.18 1.13.26 1.68.26h.96l-1.13 4.85h-2.45c-.38 0-.94-.02-1.71-.08-.74-.06-1.3-.48-1.81-.72-.47-.22-1.18-.77-1.4-1.69l-1.09-4.95-3.22 4.9c-1.04 1.52-2.49 2.7-5.07 2.7h-5l1.01-4.3h1.92c.55 0 1.03-.22 1.38-.4.35-.16.66-.35 1-.87l4.67-7.34zM97.63 89.65h18.15l-1.04 4.34h-7.29l-.89 3.69h7.41l-1.08 4.49h-7.41l-1.44 5.98c-.17.67 1.81.76 2.53.76l3.68-.49-1.18 4.93h-8.38c-.67 0-1.18-.08-1.92-.26-.72-.17-1.05-.49-1.39-.98-.33-.47-.82-.88-.57-1.92l1.91-7.96H94.6l1.1-4.56h4.14l.88-3.69H96.6l1.03-4.33zM109.38 81.87h7.46l-1.09 4.52h-10.18l-1.05.97c-.43.45-.62.26-1.21.58-.57.3-1.74.87-3.31.87h-3.26l1.05-4.35h.98c.83 0 1.4-.07 1.68-.26.3-.19.64-.66 1-1.41l1.66-3.4h7.42l-1.15 2.48zM124.14 89.32s1.91-1.86 5.36-2.47c.78-.14 5.75-.1 5.75-.1l.59-2.49h-10.49l-1.21 5.06zm9.95 1.89h-10.4l-.51 2.09h9.01c1.06-.11 1.28.02 1.37-.01l.53-2.08zm-14.21-11.79h6.36l-.73 3.2s1.91-1.61 3.29-2.14c1.37-.54 4.5-1 4.5-1l10.26-.07-2.77 11.66c-.47 1.99-1.08 3.29-1.46 3.88-.37.58-.78 1.11-1.64 1.6-.85.45-1.62.71-2.33.78-.69.06-1.73.08-3.16.1h-9.89l-2.21 9.23c-.22.91-.32 1.34-.13 1.58.17.22.52.48.98.48l4.33-.42-1.18 5.06h-4.9c-1.54 0-2.69-.02-3.47-.1-.76-.06-1.54 0-2.08-.42-.49-.39-1.21-.91-1.23-1.45.02-.5.17-1.33.42-2.47l7.04-29.5z"/><path fill-rule="evenodd" clip-rule="evenodd" fill="#FFF" d="M139.55 98.25l-.4 2.81c-.22.86-.38 1.53-1 2.1-.66.59-1.44 1.2-3.34 1.2l-3.5.14.15 3.16c.03.92.25.82.4.97.17.15.32.22.48.26l1.12-.04 3.34-.2-1.09 4.64h-3.85c-2.72 0-4.72-.08-5.41-.58-.68-.45-.8-.96-.83-1.82l-.52-12.36h6.16l.07 2.53h1.48c.52 0 .85-.05 1.06-.18.17-.13.29-.34.38-.66l.47-1.96h4.83z"/><path fill="#FFF" d="M51.47 36.38c-.22 1.02-4.18 19.26-4.19 19.27-.85 3.68-1.47 6.33-3.56 8.03-1.22.98-2.59 1.46-4.21 1.46-2.59 0-4.11-1.3-4.38-3.75l-.05-.83s.79-4.95.8-4.97c0 0 4.16-16.63 4.9-18.84.02-.12.04-.18.07-.26-8.08.1-9.53.02-9.63-.12-.04.18-.26 1.21-.26 1.21l-4.24 18.75-.37 1.59-.69 5.19c0 1.55.3 2.81.91 3.86 1.93 3.39 7.44 3.9 10.55 3.9 4.01 0 7.77-.88 10.33-2.41 4.4-2.62 5.57-6.72 6.61-10.33l.48-1.86s4.28-17.28 5.01-19.53c.02-.12.04-.18.06-.25-5.86.09-7.59.01-8.14-.11zM75.12 70.68c-2.88-.03-3.87-.03-7.22.12l-.13-.22c.29-1.29.62-2.54.91-3.84l.4-1.73c.63-2.73 1.23-5.86 1.3-6.83.07-.58.25-2.03-1.39-2.03-.7 0-1.44.33-2.17.67-.4 1.44-1.22 5.5-1.6 7.34-.83 3.91-.88 4.35-1.25 6.26l-.24.26c-2.95-.03-3.98-.03-7.37.12l-.16-.26c.57-2.33 1.14-4.65 1.67-6.97 1.43-6.27 1.77-8.67 2.16-11.84l.27-.22c3.32-.44 4.11-.55 7.71-1.29l.29.33-.54 2.03c.6-.37 1.19-.73 1.82-1.07 1.68-.81 3.57-1.07 4.6-1.07 1.57 0 3.29.44 4.01 2.25.69 1.62.23 3.61-.67 7.56l-.46 1.99c-.93 4.39-1.08 5.2-1.58 8.18l-.36.26zM86.77 70.68c-1.73-.02-2.84-.03-3.93-.01-1.08.01-2.13.05-3.74.13l-.09-.13-.1-.12c.43-1.67.67-2.25.89-2.84.22-.59.42-1.18.81-2.86.5-2.18.81-3.73 1.03-5.06.23-1.32.37-2.42.53-3.69l.13-.11.14-.12c1.72-.24 2.81-.4 3.92-.58 1.12-.18 2.25-.38 4.05-.72l.06.15.06.15c-.33 1.36-.67 2.74-.99 4.1-.33 1.36-.64 2.74-.96 4.1-.65 2.89-.9 3.98-1.05 4.72-.15.74-.19 1.14-.44 2.64l-.16.13-.16.12zM105.03 60.48c-.17.74-.81 3.53-1.7 4.71-.59.85-1.33 1.37-2.14 1.37-.23 0-1.64 0-1.68-2.1-.02-1.03.19-2.1.46-3.27.76-3.31 1.65-6.11 3.92-6.11 1.8-.01 1.91 2.05 1.14 5.4zm7.49.33c1.01-4.42.24-6.48-.75-7.73-1.5-1.91-4.12-2.54-6.87-2.54-1.64 0-5.55.18-8.62 3.02-2.19 2.02-3.22 4.78-3.83 7.43-.62 2.69-1.33 7.59 3.12 9.35 1.4.59 3.37.78 4.65.78 3.29 0 6.64-.92 9.15-3.61 1.96-2.13 2.84-5.37 3.15-6.7zM187.06 50.77c-3.59.65-4.53.8-7.97 1.28l-.27.22c-.04.29-.08.56-.12.84-.53-.88-1.29-1.64-2.49-2.11-1.54-.59-5.14.18-8.2 2.99-2.19 2.01-3.22 4.75-3.83 7.38-.62 2.67-1.33 7.53 3.12 9.28 1.4.58 2.69.76 3.97.69 1.37-.07 2.62-.79 3.8-1.77-.11.42-.21.84-.32 1.25l.2.26c3.21-.15 4.2-.15 7.66-.11l.32-.26c.5-2.96.98-5.85 2.3-11.55.62-2.71 1.28-5.41 1.94-8.11l-.11-.28zm-11.34 14.77c-.59.84-1.99 1.35-2.79 1.35-.22 0-1.64 0-1.68-2.08-.02-1.03.19-2.09.46-3.25.76-3.29 1.65-6.06 3.92-6.06 1.48 0 2.19 1.45 1.99 3.8-.12.53-.22 1.01-.36 1.63-.24 1.03-.53 2.04-.78 3.06-.22.59-.47 1.16-.76 1.55zM132.1 70.68c-2.88-.03-3.86-.03-7.22.12l-.13-.22c.3-1.29.62-2.54.92-3.84l.39-1.73c.62-2.73 1.23-5.86 1.31-6.83.06-.58.24-2.03-1.4-2.03-.69 0-1.43.33-2.16.67-.4 1.44-1.22 5.5-1.61 7.34-.82 3.91-.88 4.35-1.25 6.26l-.24.26c-2.95-.03-3.97-.03-7.37.12l-.16-.26c.57-2.33 1.13-4.65 1.67-6.97 1.43-6.27 1.76-8.67 2.16-11.84l.27-.22c3.31-.44 4.11-.55 7.71-1.29l.29.33-.53 2.03c.59-.37 1.19-.73 1.81-1.07 1.68-.81 3.57-1.07 4.6-1.07 1.57 0 3.3.44 4.02 2.25.68 1.62.22 3.61-.68 7.56l-.45 1.99c-.93 4.39-1.08 5.2-1.59 8.18l-.36.26zM156.95 36.34l-2.39.05c-6.2.06-8.68.05-9.71-.08l-.26 1.26s-2.21 10.29-2.21 10.3c0 0-5.31 21.89-5.56 22.91 5.4-.08 7.63-.08 8.56.02.22-1.03 1.48-7.13 1.48-7.14 0 0 1.08-4.49 1.14-4.63 0 0 .33-.48.68-.66h.48c4.66 0 9.94 0 14.07-3.04 2.8-2.07 4.73-5.14 5.59-8.88.22-.93.38-2.02.38-3.12 0-1.41-.28-2.84-1.12-3.97-2.1-2.93-6.27-2.97-11.13-3.02zm3.1 10.72c-.52 2.28-1.98 4.2-3.89 5.14-1.58.79-3.5.85-5.48.85h-1.29l.12-.52 2.34-10.23.07-.52.05-.41.93.09s4.86.43 4.99.46c1.92.73 2.73 2.65 2.16 5.14zM89.92 53.09c1.89-1.31 2.14-3.14.53-4.09-1.61-.94-4.45-.65-6.35.66-1.91 1.32-2.14 3.15-.53 4.1 1.6.94 4.45.64 6.35-.67z"/><path fill-rule="evenodd" clip-rule="evenodd" fill="#FFF" d="M210.94 50.73l-.28-.33c-3.53.73-4.17.84-7.42 1.28l-.26.22c-.01.05-.02.11-.02.16l-.02-.04c-2.44 5.6-2.35 4.39-4.32 8.77-.01-.2-.02-.35-.03-.54l-.49-9.53-.3-.33c-3.71.73-3.8.84-7.22 1.28l-.28.22c-.02.13-.03.25-.05.39l.03.03c.42 2.2.33 1.72.75 5.16.19 1.69.46 3.4.65 5.08.35 2.78.53 4.19.94 8.42-2.31 3.84-2.86 5.28-5.06 8.64v.01l-1.58 2.49c-.17.27-.34.43-.56.52-.25.11-.59.15-1.04.15h-1.2l-1 4.49 4.47-.07c2.59-.02 4.24-1.3 5.13-2.92l2.74-4.77 16.42-28.78z"/></svg>