<svg xmlns="http://www.w3.org/2000/svg" viewBox="0 0 70 48"><path d="M2.8 0C1.3 0 0 1.8 0 4v40c0 2.2 1.3 4 2.8 4H24V0H2.8z" fill="#E9272B"/><path d="M66.5 0H46v48h20.9c1.7 0 3.1-1.8 3.1-4V4c0-2.2-1.8-4-3.5-4z" fill="#0E8A8F"/><path fill="#00589F" d="M23.5 0h23v48h-23z"/><path d="M38.6 31.2H42l1-3.5h-3.4l-1 3.5zm2.7-9.6l-1.2 4.1 3.8-1.2.8-2.9h-3.4m1.7-5.9l-1.1 3.9 3.7-1.1.8-2.9H43m7.6.1l-4.4 15.4h1.2l-.9 3.2h-1.2l-.3 1h-4.2l.3-1h-8.5l.8-2.9h.9l5.3-18.8h4.3l-.4 1.6 2.2-1.2 7.3-.4-1 3.1h-1.4" fill="#FFF"/><path fill="#FFF" d="M52.4 12.6H57v1.8l.8.4h.9l-.8 3h-2.5l-2.9-1.9-.1-3.3m.6 14.1h-4.3l.7-2.7h5l.7-2.4h-4.9l.8-3h13.7l-.9 3h-4.5l-.8 2.4h4.6l-.7 2.7h-5l-.9 1.1h2l.7 4 1.7.2-1 3.2h-2.6l-1.1-.5-.8-1.1-.5-3.3-2.3 3.2-3.3 1.9h-3.1l.8-2.9 2.1-.3 3.9-5.5M5.5 19.4H17l-.9 3h-4.6l-.7 2.4h4.7l-.8 3H10l-1.2 4.1 1.6.5 2.3-.4-.9 3.4-6.5-.2-.8-.7-.3-1.3 1.5-5.3H3.1l.8-3.1h2.7l.7-2.4H4.6l.9-3m7.7-5.2h4.7l-.8 3.1h-6.5l-1.5 1-4.1.6.8-2.9 1.7-.2 1.9-3.2H14l-.8 1.6m9.1 5l3.5-1.7 3.6-.1.5-1.7h-6.6l-1 3.5zm6.2 1.3h-6.6l-.4 1.4h6.6l.4-1.4M20 12.6h4l-.6 2.1 2.2-1.5 9.4-.7L31.6 23l-1.1 1.1-1.5.5-8.3.1-1.9 7.3.6.3 2.8-.3-.9 3.4-6.6-.4-.7-1 6-21.4"/><path fill="#FFF" d="M31.7 25.2l-1.1 3.3-2.2.8-2.2.1v2.1l.2.7.3.2 2.8-.2-.9 3.1-5.8-.4-.5-1.2.2-8.3h3.9v1.7L28 27l.6-1.8h3.1m34.9-12.5l-1.8 3.2-3.2 1.9-2.8-.1.8-2.8 1.2-.1 1.4-2.1h4.4"/></svg>