<svg xmlns="http://www.w3.org/2000/svg" viewBox="0 0 70 48"><path fill="#FDFEFF" d="M66 48H4c-2.21 0-4-1.79-4-4V4c0-2.21 1.79-4 4-4h62c2.21 0 4 1.79 4 4v40c0 2.21-1.79 4-4 4z"/><path fill="#005197" d="M25.73 32.34l2.83-16.64h4.54l-2.84 16.64M46.7 16.11c-.9-.34-2.31-.7-4.06-.7-4.48 0-7.64 2.26-7.66 5.49-.03 2.39 2.25 3.72 3.97 4.52 1.76.82 2.36 1.34 2.35 2.06-.01 1.11-1.41 1.62-2.71 1.62-1.81 0-2.78-.25-4.27-.87l-.58-.26-.64 3.73c1.06.46 3.02.87 5.05.89 4.77 0 7.86-2.23 7.9-5.68.02-1.89-1.19-3.33-3.81-4.52-1.58-.77-2.56-1.28-2.55-2.06 0-.69.82-1.43 2.6-1.43 1.48-.02 2.56.3 3.39.64l.41.19.61-3.62M58.33 15.72h-3.5c-1.09 0-1.9.3-2.37 1.38l-6.73 15.24h4.76l.95-2.5c.52 0 5.15.01 5.81.01.14.58.55 2.49.55 2.49H62l-3.67-16.62m-5.59 10.72c.37-.96 1.81-4.65 1.81-4.65-.03.04.37-.96.6-1.59l.31 1.43s.87 3.97 1.05 4.8h-3.77zM21.93 15.72l-4.44 11.34-.47-2.31c-.83-2.66-3.4-5.54-6.28-6.98l4.06 14.55 4.8-.01 7.14-16.6h-4.81"/><path fill="#F4A51D" d="M13.37 15.71H6.06l-.06.34c5.69 1.38 9.45 4.7 11.01 8.7l-1.59-7.64c-.27-1.05-1.07-1.37-2.05-1.4"/><path fill="#0A5395" d="M70 10H0V4c0-2.21 1.79-4 4-4h62c2.21 0 4 1.79 4 4v6z"/><path fill="#F3A527" d="M0 38h70v6c0 2.21-1.79 4-4 4H4c-2.21 0-4-1.79-4-4v-6z"/></svg>