<svg xmlns="http://www.w3.org/2000/svg" width="22" height="15" viewBox="0 0 70 48">
  <rect width="70" height="48" fill="#DEE0E1" rx="5"/>
  <path fill="#0A5495" d="M39.7 43.5h-9.4C19.6 43.5 11 35 11 24.2v-.4C11 13 19.6 4.5 30.3 4.5h9.4C50.4 4.5 59 13 59 23.8v.4c0 10.7-8.6 19.3-19.3 19.3z"/>
  <path fill="#FFF" d="M31.6 8.2c-8.7 0-15.8 7-15.8 15.8s7 15.8 15.8 15.8 15.8-7 15.8-15.8c0-8.7-7-15.8-15.8-15.8zm-11.3 16c0-5.2 3.2-9.5 8.2-10.7v21.3c-5-1.3-8.2-5.6-8.2-10.7zm13.3 10.5V13.4c5 1.2 8.2 5.5 8.2 10.6s-3.2 9.5-8.2 10.7z"/>
</svg>
