<svg xmlns="http://www.w3.org/2000/svg" width="22" height="15" viewBox="0 0 69 48">
  <path fill="#2D9446" d="M69 0v39c0 5-5 9-10 9H48V34h13s5 0 5-5-5-5-5-5 4 0 4-5-5-5-5-5H48V9c0-5 4-9 9-9h12zM52 31v-5h6s3 0 3 2.5-3 2.5-3 2.5h-6zm0-9v-5h5s3 0 3 2.5-3 2.5-3 2.5h-5z"/>
  <path fill="#BF2A3F" d="M24 9c0-5 4-9 9-9h12v39c0 5-5 9-10 9H24V30s5 5 18 2v-4s-14 5-14-4c0-8 10-6.4 14-4v-4s-12-4-18 3V9z"/>
  <path fill="#1B5899" d="M0 32s18 5 18-7V15h-6v10c0 7-12 2-12 2V9c0-5 4-9 9-9h12v39c0 5-5 9-10 9H0V32z"/>
</svg>
