<svg xmlns="http://www.w3.org/2000/svg" width="71" height="13" viewBox="0 0 131 24">
  <path fill="#6C4797" d="M18 14.7c0 5-3.7 8.5-8 8.5-2 0-3.4-.4-4.6-1.2 0 0-2.7.8-5.4.8V.8C2.7.8 5.4 0 5.4 0v7.5C6.6 6.8 8 6.3 10 6.3c4.3 0 8 3.6 8 8.4zm-5.4 0c0-2.2-1.6-4-3.8-4-1.2 0-2.4.4-3.4 1.6v5c1 1.2 2.2 1.5 3.4 1.5 2.2 0 3.8-1.8 3.8-4zm70.7 0c0 5-3.7 8.5-8 8.5-2 0-3.3-.4-4.5-1.2 0 0-2.7.8-5.5.8V.8c2.8 0 5.5-.8 5.5-.8v7.5c1.2-.7 2.6-1.2 4.4-1.2 4.4 0 8 3.6 8 8.4zm-5.4 0c0-2.2-1.7-4-4-4-1 0-2.3.4-3.3 1.6v5c1 1.2 2.2 1.5 3.4 1.5 2.3 0 4-1.8 4-4zm23.3 0c0 5-3.6 8.6-8.8 8.6-5 0-8.8-3.6-8.8-8.6 0-4.8 3.7-8.4 8.8-8.4 5.2 0 8.8 3.6 8.8 8.5zm-5 0c0-2-1.5-3.8-3.7-3.8S89 12.5 89 14.6c0 2.2 1.4 4 3.6 4s3.7-1.8 3.7-4zm11-8v1.7c1.6-1.2 3.3-2 5.7-2v5.2c-2.6 0-4.3.8-5.6 2V23H102V7.3c2.7 0 5.4-.8 5.4-.8zM43 7.6c-2.8 0-5.5-1-5.5-1V23H43V12.4c.7-1 1.5-1.4 2.4-1.4 1.8 0 3 1.2 3 3.5V23h5.3V12.4c.8-1 1.6-1.4 2.5-1.4 1.8 0 3 1.2 3 3.5V23h5.3v-9.4c0-4.6-3-7.5-6.7-7.5-2.4 0-4 .8-5.8 2.3C50.8 7 49 6 47 6c-1.8 0-3 .6-4 1.6zm-6.6 15.2c-2.7 0-5.4-1-5.4-1-1.2.8-2.7 1.3-4.4 1.3-4.4 0-8-3.7-8-8.5s3.6-8.5 8-8.5c1.7 0 3.2.5 4.4 1.3 2.7 0 5.4-1 5.4-1V23zM31 17v-5c-1-1-2.2-1.5-3.4-1.5-2.2 0-3.8 1.8-3.8 4 0 2.3 1.6 4 3.8 4 1.2 0 2.4-.2 3.4-1.4zm100 6c-2.8 0-5.5-1-5.5-1-1.2.8-2.7 1.2-4.5 1.2-4.4 0-8-3.6-8-8.5s3.6-8.4 8-8.4c1.8 0 3.3.5 4.5 1.2 2.7 0 5.4-1 5.4-1V23zm-5.5-5.7v-5c-1-1.2-2.2-1.5-3.4-1.5-2.2 0-3.8 1.8-3.8 4s1.6 4 3.8 4c1.2 0 2.4-.3 3.4-1.5z"/>
</svg>
