<svg width="116" height="16" xmlns="http://www.w3.org/2000/svg" viewBox="0 0 115.41 15.32">
    <path fill="#39343C" d="M3.77 13h2.7c2.09 0 3.13-.68 3.13-1.99 0-1.29-1.11-1.99-3.29-1.99H3.77V13zm0-9.59V7.1h2.37c1.78 0 2.7-.66 2.7-1.85 0-1.22-.95-1.85-2.73-1.85l-2.34.01zM0 14.99V13h1.59V3.41H0V1.43h6.35c2.92 0 4.69 1.33 4.69 3.65 0 1.52-.9 2.46-2.04 2.9 1.64.44 2.8 1.59 2.8 3.16 0 2.48-1.94 3.86-5.12 3.86L0 14.99zm23.32-7.06c-.24-.8-.83-1.26-1.61-1.26-1.83 0-3.56 1.33-3.56 3.76V13h3.51v1.99h-7.82V13h2.23V7.02h-1.75V5.03h3.82v1.68c.64-1.17 1.94-2.01 3.67-2.01 1.94 0 3.15 1.1 3.51 2.67l-2 .56zm10.67 3.04c-.66-.23-1.66-.42-2.58-.42-1.33 0-2.61.42-2.61 1.61 0 .89.81 1.31 1.92 1.31 1.54 0 3.27-.82 3.27-2.22v-.28zm0-1.78v-.56c0-1.4-1.14-1.99-2.37-1.99-1.16 0-2.16.47-2.96 1.19l-1.37-1.47c.95-.87 2.3-1.66 4.34-1.66 2.54 0 4.5 1.33 4.5 3.86V13h1.47v1.99H34v-1.05c-.54.87-2.01 1.38-3.46 1.38-2.09 0-3.89-1.05-3.89-3.13 0-2.46 2.44-3.39 4.67-3.39 1.08-.01 1.98.2 2.67.39zM44.02 0h2.35v3.04h-2.35V0zm6.23 13v1.99H40.06V13h4.22V7.02h-3.22V5.03h5.31V13h3.88zm2.51 0h1.54V7.02h-1.45V5.03h3.51v1.29c.62-.98 1.9-1.61 3.46-1.61 2.25 0 3.86 1.4 3.86 3.67V13h1.54v1.99h-5.24V13h1.61V8.93c0-1.73-1.07-2.22-2.04-2.22-1.59 0-3.18 1.17-3.18 2.97V13H58v1.99h-5.24V13zM68.1 7.02h-2.63V5.03h2.63v-3.6h2.09v3.6h4.91v1.99h-4.91v4.19c0 1.54 1.09 2.18 2.35 2.18 1.19 0 2.18-.66 2.92-1.38l1.4 1.43c-.92.98-2.35 1.89-4.31 1.89-2.54 0-4.43-1.38-4.43-4.05l-.02-4.26zm20.12.91c-.24-.8-.83-1.26-1.61-1.26-1.83 0-3.56 1.33-3.56 3.76V13h3.51v1.99h-7.82V13h2.23V7.02h-1.75V5.03h3.82v1.68c.64-1.17 1.94-2.01 3.67-2.01 1.94 0 3.15 1.1 3.51 2.67l-2 .56zm5.62 1.05h6.21c-.31-1.43-1.59-2.39-3.01-2.39-1.61 0-2.85.99-3.2 2.39zm8.41 4.49c-1.04 1.08-2.89 1.85-4.95 1.85-3.39 0-5.76-2.25-5.76-5.31 0-3.06 2.3-5.31 5.5-5.31 3.18 0 5.4 2.41 5.4 5.68v.35h-8.7c.36 1.66 1.75 2.67 3.58 2.67 1.52 0 2.82-.61 3.53-1.38l1.4 1.45zm4.55-4.49h6.21c-.31-1.43-1.59-2.39-3.01-2.39-1.61 0-2.84.99-3.2 2.39zm8.42 4.49c-1.04 1.08-2.89 1.85-4.95 1.85-3.39 0-5.76-2.25-5.76-5.31 0-3.06 2.3-5.31 5.5-5.31 3.18 0 5.4 2.41 5.4 5.68v.35h-8.7c.36 1.66 1.75 2.67 3.58 2.67 1.52 0 2.82-.61 3.53-1.38l1.4 1.45z"/>
</svg>