<svg width="125" height="25" xmlns="http://www.w3.org/2000/svg" viewBox="0 0 261 54.5">
    <path fill="#0CB5EA" d="M241 54.5H107l20-45h134l-20 45z"/>
    <path fill="#FFF" d="M126.7 25.4h-8l3-6.4h20l-2.7 6.4h-5v20h-7.3v-20zm16.5-6.4h12.4c4 0 6.8 1 8.5 2.8 1.6 1.5 2.4 3.5 2.4 6v.2c0 4-2 6.7-5.4 8l6.3 9.2H159l-5.4-8h-3.2v8H143V19h.2zm12 12.6c2.5 0 4-1.2 4-3v-.2c0-2-1.6-3-4-3h-4.8v6.2h4.8zm23.6-12.8h7L197 45.2h-7.8l-2-4.7h-10l-2 4.7h-7.5l11-26.4zm6.4 16l-3-7.4-3 7.5h6zM197.6 19h10c9.5 0 15 5.4 15 13 0 7.7-5.6 13.3-15 13.3h-10V19zM208 38.8c4.2 0 7-2.4 7-6.6 0-4.3-2.8-6.7-7-6.7h-3v13.3h3zM223.6 19h21l-2.7 6.2h-11v4h12.5V35H231v4h14l-2.8 6.3h-18.4V19z"/>
    <path fill="#818285" d="M109 45H0L20 0h109l-20 45z"/>
    <path fill="#FFF" d="M9.4 22.6C9.4 15 15.4 9 23.2 9c5.4 0 8.8 2 11 5.4L29 18.6c-1.6-2-3.3-3-5.8-3-3.7 0-6.3 3-6.3 6.8 0 4 2.5 7 6.2 7 2.7 0 4.3-1.2 6-3l5.4 3.8c-2.5 3.4-5.8 6-11.6 6-7.5 0-13.6-5.8-13.6-13.6zM35.8 9.4h21L54 15.6H43v4h12.6v5.7H43v4.2h14l-2.8 6H35.8v-26zm23 0h12.5c4 0 6.8 1 8.5 2.8 1.5 1.5 2.3 3.5 2.3 6v.2c0 4-2 6.7-5.3 8l6.3 9.2h-8.4l-5.3-8H66v8H59V9.4zM71 22c2.5 0 4-1.2 4-3v-.2c0-2-1.6-3-4-3h-4.8V22H71zm19.4-6.2h-8l3-6.4h20l-2.7 6.4h-5v19.8h-7.3V15.8zM107 9.4h7.3v26.2H107V9.4z"/>
</svg>
