<svg xmlns="http://www.w3.org/2000/svg" viewBox="0 0 261 54.5"><path fill="#0CB5EA" d="M241 54.5H107l20-45h134l-20 45z"/><path fill="#FFF" d="M126.7 25.4h-7.9l2.8-6.4h20.2l-2.8 6.4h-5v19.9h-7.3V25.4zm16.5-6.4h12.4c4 0 6.8 1 8.5 2.8 1.5 1.5 2.3 3.5 2.3 6.1v.1c0 4-2.1 6.7-5.4 8.1l6.3 9.1h-8.4l-5.3-7.9h-3.2v7.9h-7.3V19h.1zm12 12.6c2.5 0 3.9-1.2 3.9-3.1v-.1c0-2.1-1.5-3.1-3.9-3.1h-4.8v6.3h4.8zm23.6-12.8h7L197 45.2h-7.8l-1.9-4.7h-10.1l-1.9 4.7h-7.6l11.1-26.4zm6.4 16.1l-2.9-7.5-3 7.5h5.9zM197.6 19h10.1c9.4 0 14.8 5.4 14.8 13v.1c0 7.6-5.5 13.2-14.9 13.2h-10V19zm10.3 19.8c4.3 0 7.2-2.4 7.2-6.6v-.1c0-4.2-2.9-6.6-7.2-6.6h-3v13.3h3zM223.7 19h21.1l-2.8 6.2h-11.1v4h12.6v5.7h-12.6v4.2H245l-2.8 6.2h-18.4V19h-.1z"/><path fill="#818285" d="M108.9 45H0L20 0h108.9l-20 45z"/><path fill="#FFF" d="M9.4 22.6c0-7.7 5.9-13.7 13.8-13.7 5.4 0 8.8 2.2 11.1 5.5l-5.4 4.2c-1.5-1.9-3.2-3.1-5.7-3.1-3.7 0-6.3 3.1-6.3 6.9v.1c0 3.9 2.6 7 6.3 7 2.7 0 4.3-1.3 5.9-3.2l5.5 3.9c-2.5 3.4-5.8 5.9-11.6 5.9-7.5 0-13.6-5.7-13.6-13.5zM35.8 9.4h21.1L54 15.6H43v4h12.6v5.7H43v4.2h14.1l-2.9 6.1H35.8V9.4zm23.1 0h12.4c4 0 6.8 1 8.5 2.8 1.5 1.5 2.3 3.5 2.3 6.1v.1c0 4-2.1 6.7-5.4 8.1l6.3 9.1h-8.4l-5.3-7.9h-3.2v7.9h-7.3V9.4h.1zM71 22c2.5 0 3.9-1.2 3.9-3.1v-.1c0-2.1-1.5-3.1-3.9-3.1h-4.8V22H71zm19.4-6.2h-7.9l2.8-6.4h20.2l-2.8 6.4h-5v19.8h-7.3V15.8zM107 9.4h7.3v26.2H107V9.4z"/></svg>