<svg xmlns="http://www.w3.org/2000/svg" viewBox="0 0 4007.35 441.77"><path fill-rule="evenodd" clip-rule="evenodd" fill="#002D73" d="M298.5 220.89l149.25 220.88h-298.5L0 220.89h298.5z"/><path fill-rule="evenodd" clip-rule="evenodd" fill="#0071CE" d="M149.25 0h298.5l-298.5 441.75L0 220.88 149.25 0zM2899.59 383.69c16.12 0 32.23-2.45 48.39-7.35l3.65-1.11v54.49l-1.69.71c-7.72 3.26-17.5 5.92-29.37 8.07-11.91 2.15-24.25 3.23-37.01 3.23-32.32.02-57.13-8.27-73.74-25.21-16.6-16.93-24.68-42.08-24.67-74.96V179.3h-43.22v-12l78.28-110.83h38.11v68.1h90.89l-37.29 54.72h-53.61v161.16c.01 15.27 3.93 25.99 11.29 32.76l-1.93 1.98 1.93-1.98c7.57 6.96 17.36 10.46 29.99 10.48zm-218.33 52.46h-32.21v-26.68c-9.11 8.11-20.36 14.15-32.39 19.81-17.7 8.32-37.85 12.46-60.33 12.45-38.78.01-68.26-9.34-87.86-28.48-19.59-19.15-29.16-47.93-29.15-85.8V124.59h73.45v186.07c0 23.09 4.91 40.01 14.25 51.01 9.27 10.93 23.79 16.55 44.48 16.58 27.73-.03 47.41-7.93 60.05-23.46 12.62-15.47 19.32-42.29 19.29-80.39V124.59h73.17V436.2h-42.71l-.04-.05zm-423.08 5.59c-30 0-56.68-6.56-79.85-19.75-23.19-13.18-41.07-32.18-53.48-56.79-12.43-24.61-18.61-53.09-18.61-85.35-.01-50.08 13.32-89.62 40.24-118.11 26.92-28.51 64.98-42.71 113.41-42.68 46.38-.03 83.59 14.53 110.84 43.66 27.27 29.1 40.82 68.32 40.8 117.13.01 50.46-13.41 90.27-40.52 118.94-27.08 28.68-64.96 42.98-112.83 42.95zm58.86-238.96c-12.92-16.73-31.97-25.09-58.29-25.14-13.82 0-25.58 2.22-35.37 6.54-9.79 4.33-17.63 10.75-23.71 19.4-12.24 17.41-18.56 42.8-18.55 76.25-.01 35.02 6.73 60.96 19.7 77.89 12.97 16.91 32.09 25.35 58.5 25.4 26.11-.05 45-8.48 57.84-25.39 12.83-16.94 19.5-42.88 19.49-77.91.02-34.63-6.69-60.28-19.61-77.04zm-207.88 223.46l9.84 9.96h-87l-.04-.05h-2.49l-85.39-120.89-42.13 59.65v61.24h-43.22l-.01.02-21.36-.02h-8.43V.16h8.42l64.62-.15V264.2l98.61-139.61h79.41l-93.03 131.71 122.2 169.94zM1772.82 189.8c-22.1-7.36-40.75-11.05-55.69-11.04-26.8.05-46.22 8.47-59.37 25.29-13.15 16.85-19.98 42.63-19.97 77.46-.01 34 6.79 59.19 19.89 75.71 13.12 16.53 32.01 24.77 57.74 24.82 19.9 0 39.03-3.3 57.48-9.76l2.07-.73 19.59 28.61 13.74 20.6-6.46 1.51c-12.27 6.97-25.39 11.97-39.31 14.98-13.92 3.01-30.66 4.5-50.27 4.5-48.41.03-85.77-13.73-111.29-41.46-25.5-27.69-38.07-67.24-38.07-118.22-.01-51.91 13.15-92.26 39.8-120.59 26.66-28.36 65.25-42.44 114.99-42.41 33.15 0 63.15 5.89 89.91 17.65l3 1.32-35.75 52.46-2.03-.7zm-418.85 171.9c15.04 15.33 36.16 23.07 64.08 23.1 18.52 0 35.73-1.69 51.64-5.06 7.47-1.58 15.23-3.68 23.26-6.26l2.03-.66 30.07 43.9v3.25l-1.6.74c-16.61 7.66-33.44 13.09-50.48 16.27-17.01 3.17-36.36 4.75-58.06 4.75-49.75.03-89.16-14.1-117.51-42.49-28.37-28.36-42.45-67.44-42.44-116.64-.01-50.44 13.02-90.5 39.34-119.72 26.29-29.24 62.67-43.88 108.3-43.84 42.33-.03 76.26 12.51 101.06 37.66 24.83 25.13 37.15 59.73 37.13 103.2v37.88h-210.81c1.37 27.9 9.44 49.07 23.99 63.92zm115-116.42c-.79-23.49-6.92-41.01-18.07-52.88-11.66-12.38-27.5-18.59-48.3-18.63-20.8.03-37 6.29-49.35 18.81-11.8 12.01-19.2 29.49-21.94 52.7h137.66zm-309.61 10.86c.01-23.28-4.88-40.26-14.1-51.15-9.16-10.82-23.73-16.42-44.63-16.44-27.73.03-47.41 7.93-60.05 23.46-12.62 15.47-19.32 42.29-19.29 80.39v143.8h-72.88v-.05h-1.39V.16h1.39V.02h72.88v112.07c0 10.41-.45 21.28-1.25 32.5v17.65c9.13-12.97 21.24-23.25 36.23-30.71 16.77-8.35 36.27-12.48 58.39-12.48 38.79-.01 68.41 9.47 88.29 28.83 19.87 19.36 29.59 48.22 29.58 86.01V436.2h-73.17V256.14zM887.67 101.53c-10.55-4.37-21.53-8.35-32.95-11.9-15.45-4.8-31.71-7.21-48.8-7.21-38.66.05-68.53 13.11-90.56 39.41-21.99 26.32-33.14 62.81-33.15 109.84 0 49.29 10.77 86.17 31.85 110.93 21.1 24.77 51.4 37.17 91.86 37.21 17.56 0 34.54-1.69 50.94-5.06 6.53-1.34 13.2-2.88 19.96-4.53l1.92-.47 33.31 48.63v4.53l-1.82.66c-33.19 12.13-70.75 18.17-112.62 18.17-61.79.03-109.81-18.19-143.21-54.76-33.42-36.55-49.95-88.65-49.94-155.86 0-42.41 8.03-79.66 24.19-111.65 16.14-32 39.62-56.64 70.25-73.69 30.63-17.06 66.55-25.55 107.59-25.55 42.55 0 82.01 8.55 118.26 25.62l2.89 1.36-37.82 55.21-2.15-.89z"/><path fill-rule="evenodd" clip-rule="evenodd" fill="#B0B7C0" d="M3962.29 428.11V234.32c0-23.73-5.07-41.54-15.2-53.41-10.14-11.87-25.88-17.8-47.23-17.8-28.05 0-48.77 8.07-62.16 24.19-13.39 16.13-20.09 40.95-20.09 74.47v166.34h-45.06V234.32c0-23.73-5.07-41.54-15.2-53.41-10.14-11.87-25.97-17.8-47.51-17.8-28.23 0-48.91 8.47-62.03 25.41-13.12 16.94-19.68 44.71-19.68 83.31v156.28h-45.06V130.22h36.65l7.33 40.77h2.17c8.5-14.49 20.49-25.82 35.97-33.97 15.48-8.16 32.8-12.23 51.98-12.23 46.51 0 76.91 16.85 91.21 50.56h2.17c8.86-15.58 21.72-27.9 38.55-36.96 16.83-9.06 36.01-13.59 57.55-13.59 33.66 0 58.86 8.66 75.6 25.96 16.74 17.3 25.11 44.98 25.11 83.03v194.34h-45.07zm-540.36 5.44c-26.6 0-50.22-6.25-70.85-18.75-20.63-12.5-36.56-30.44-47.78-53.82-11.22-23.37-16.83-50.73-16.83-82.08 0-48.56 12.12-86.39 36.38-113.48 24.25-27.09 57.91-40.63 100.98-40.63 41.62 0 74.69 13.86 99.22 41.58 24.52 27.72 36.78 65.23 36.78 112.53 0 48.56-12.21 86.48-36.65 113.75-24.43 27.26-58.18 40.9-101.25 40.9zm68.27-240.95c-15.3-19.66-37.87-29.49-67.73-29.49-29.5 0-51.76 9.7-66.78 29.08-15.02 19.39-22.53 48.29-22.53 86.7 0 38.05 7.6 67.04 22.8 86.97 15.2 19.93 37.55 29.9 67.05 29.9 29.49 0 51.89-9.92 67.19-29.76 15.29-19.84 22.94-48.88 22.94-87.11 0-37.86-7.65-66.63-22.94-86.29zm-294.03 240.95c-43.07 0-76.42-13.27-100.03-39.82-23.62-26.54-35.43-64.1-35.43-112.66 0-49.83 11.99-88.33 35.97-115.51 23.98-27.18 58.13-40.77 102.48-40.77 14.29 0 28.59 1.54 42.89 4.62 10.55 2.28 19.41 4.85 26.61 7.72l-24.27 35.48c-4.86-1.43-9.87-2.76-15.1-3.92-11.76-2.62-22.17-3.94-31.22-3.94-60.45 0-90.67 38.59-90.67 115.79 0 36.6 7.37 64.69 22.12 84.26 14.75 19.57 36.6 29.35 65.56 29.35 18.27 0 36.89-2.93 55.84-8.73l20.24 29.58h.19v3.06c-19.89 10.32-44.96 15.49-75.18 15.49zm-177.15-2.69c-18.61 0-33.69-14.65-33.69-32.72s15.08-32.72 33.69-32.72 33.69 14.65 33.69 32.72-15.08 32.72-33.69 32.72z"/></svg>