<svg width="145" height="15" xmlns="http://www.w3.org/2000/svg" viewBox="0 0 4007.35 441.77">
    <path fill="#002D73" d="M298.5 221l149.3 220.8H149L0 220.8h298.5z"/>
    <path fill="#0071CE" d="M149.3 0h298.4L149.4 441.8 0 220.8 149.3 0zm2750.3 383.7c16 0 32.2-2.5 48.4-7.4l3.6-1v54.4l-1.7.7c-7.8 3.3-17.6 6-29.4 8-12 2.2-24.3 3.3-37 3.3-32.4 0-57.2-8.2-73.8-25.2-16.6-17-24.7-42-24.7-75V179.4h-43v-12L2820 56.5h38v68h91l-37.3 54.8h-53.7v161.2c0 15.2 4 26 11.3 32.7l-2 2 2-2c7.6 7 17.4 10.5 30 10.5zm-218.3 52.5H2649v-26.7c-9 8-20.3 14-32.3 19.8-17.7 8.3-38 12.4-60.4 12.4-38.7 0-68.2-9.3-87.8-28.5-19.6-19-29.2-48-29.2-85.8V124.6h73.5v186c0 23 5 40 14.2 51 9.3 11 23.8 16.6 44.5 16.6 27.7 0 47.4-8 60-23.4 12.7-15.5 19.4-42.3 19.3-80.4V124.6h73.2v311.6h-42.7zm-423 5.5c-30 0-56.8-6.5-80-19.7-23.2-13.2-41-32.2-53.4-56.8-12.6-24.6-18.8-53-18.8-85.4 0-50 13.4-89.6 40.3-118 27-28.6 65-42.8 113.4-42.7 46.3 0 83.5 14.6 110.7 43.7 27.3 29 41 68.3 40.8 117 0 50.6-13.4 90.4-40.5 119-27 28.8-65 43-112.8 43zm58.7-239c-13-16.7-32-25-58.2-25-14 0-25.6 2.2-35.4 6.5-9.8 4.3-17.6 10.7-23.7 19.4-12.3 17.4-18.6 42.8-18.6 76.2 0 35 7 61 19.8 78 13 16.8 32 25.3 58.5 25.3 26 0 45-8.4 58-25.3 12.7-17 19.4-43 19.4-78 0-34.5-6.7-60.2-19.7-77zm-207.8 223.5l9.8 10h-89.5L1944 315l-42 59.7v61h-43.3v.2H1829V0h8.4L1902 0v264.2l98.6-139.6h79.4l-93 131.7 122.2 170zm-336.4-236.4c-22-7.4-40.7-11-55.7-11-26.7 0-46 8.4-59.2 25.3-13.2 17-20 42.7-20 77.5 0 34 6.8 59.2 20 75.7 13 16.5 32 24.8 57.6 24.8 20 0 39-3.3 57.5-9.7l2-.8 19.6 28.7 13.7 20.6-6.5 1.5c-12.2 7-25.4 12-39.3 15-14 3-30.6 4.4-50.2 4.4-48.4 0-85.8-13.7-111.3-41.4s-38-67.2-38-118.2c0-51.8 13-92.2 39.7-120.5 26.7-28.4 65.3-42.5 115-42.4 33 0 63 6 90 17.7l3 1.3-35.8 52.5-2.2-.7zm-418.8 172c15 15.2 36 23 64 23 18.6 0 35.8-1.7 51.7-5 7.5-1.6 15.2-3.7 23.2-6.3l2-.7 30 44v3.2l-1.6.7c-16.6 7.7-33.4 13-50.4 16.3-17 3.2-36.4 4.7-58 4.7-49.8 0-89.3-14-117.6-42.5-28.4-28.3-42.5-67.4-42.4-116.6 0-50.4 13-90.5 39.3-119.7 26.3-29.4 62.7-44 108.3-44 42.3 0 76.3 12.6 101 37.7 25 25 37.2 59.7 37.2 103.2v37.8H1330c1.3 28 9.4 49 24 64zm115-116.5c-.8-23.5-7-41-18-53-11.8-12.3-27.6-18.5-48.4-18.5-20.8 0-37 6.3-49.4 18.8-11.8 12-19.2 29.5-22 52.7H1469zM1159.4 256c0-23-5-40-14-51-9.3-10.8-24-16.4-44.8-16.4-27.7 0-47.4 8-60 23.4-12.6 15.5-19.3 42.3-19.3 80.4v143.8H947V.2h1.4V0h73v112c0 10.5-.6 21.4-1.4 32.6v17.6c9.2-13 21.3-23.2 36.3-30.7 16.7-8.3 36.2-12.5 58.4-12.5 38.7 0 68.4 9.5 88.2 29 19.8 19.2 29.5 48 29.5 86V436h-73v-180zM887.7 101.6c-10.6-4.3-21.6-8.3-33-12-15.4-4.7-31.7-7-48.8-7-38.7 0-68.6 13-90.6 39.3-22 26.4-33.2 62.8-33.2 110 0 49.2 10.8 86 32 110.8 21 24.8 51.3 37.2 91.7 37.2 17.5 0 34.5-1.7 51-5l19.8-4.6 2-.4 33.2 48.6v4.5l-1.8.6c-33.2 12-70.7 18-112.6 18-61.8.2-109.8-18-143.2-54.6-33.4-36.6-50-88.7-50-156 0-42.3 8-79.5 24.2-111.5s39.7-56.7 70.3-73.7c30.5-17 66.4-25.6 107.5-25.6 42.5 0 82 8.6 118.2 25.7l3 1.2-38 55.2-2-1z"/>
    <path fill="#B0B7C0" d="M3962.3 428V234.4c0-23.7-5-41.5-15.2-53.4-10-12-25.8-18-47-18-28.2 0-49 8.2-62.3 24.3-13.4 16-20 41-20 74.5V428h-45V234.4c0-23.7-5.2-41.5-15.3-53.4-10.2-12-26-18-47.6-18-28.2 0-49 8.6-62 25.5-13 17-19.7 44.7-19.7 83.3V428h-45V130.3h36.7l7.4 40.8h2.2c8.5-14.5 20.5-25.8 36-34 15.5-8 32.8-12.2 52-12.2 46.5 0 77 16.8 91.2 50.6h2.2c8.8-15.6 21.7-28 38.5-37 17-9 36-13.6 57.7-13.6 33.6 0 58.8 8.7 75.6 26 16.7 17.3 25 45 25 83V428h-45zm-540.4 5.6c-26.7 0-50.3-6.3-71-18.8-20.6-12.5-36.5-30.4-47.7-53.8-11.2-23.4-16.8-50.7-16.8-82 0-48.7 12-86.5 36.3-113.6 24.3-27 58-40.6 101-40.6 41.6 0 74.7 14 99.2 41.6 24.6 27.7 36.8 65.2 36.8 112.5 0 48.5-12.2 86.4-36.6 113.6-24.4 27.3-58.2 41-101.3 41zm68.2-241c-15.3-19.7-38-29.5-67.7-29.5-29.5 0-51.8 9.8-66.8 29.2s-22.5 48.3-22.5 86.7c0 38 7.6 67 22.8 87 15.2 19.8 37.5 29.8 67 29.8s52-10 67.2-29.8c15.3-19.8 23-49 23-87s-7.7-66.7-23-86.4zm-294 241c-43 0-76.4-13.3-100-40-23.7-26.4-35.5-64-35.5-112.5 0-49.8 12-88.3 36-115.4 24-27.2 58-40.8 102.5-40.8 14.3 0 28.6 1.5 43 4.6 10.4 2.3 19.3 5 26.5 7.7l-24.3 35.6-15-4c-12-2.5-22.3-3.8-31.3-3.8-60.4 0-90.6 38.5-90.6 115.7 0 36.6 7.4 64.7 22 84.3 15 19.6 36.7 29.4 65.7 29.4 18.3 0 37-3 56-8.8L3271 415h.2v3c-20 10.4-45 15.6-75.2 15.6zM3019 431c-18.6 0-33.7-14.8-33.7-33s15-32.6 33.7-32.6 33.7 14.7 33.7 32.7-15 33-33.7 33z"/>
</svg>
