<svg width="72" height="14" xmlns="http://www.w3.org/2000/svg" viewBox="0 0 426.3 82.7">
    <path d="M45.7 81.6c-2.8.3-9 1-19 1C13.2 82.7 0 75 0 48.7V34C0 8 13 0 26.8 0c10 0 16 .8 19 1 1 .2 2 1 2 2v1.3c0 1-.5 1.3-1.4 1.3h-.7c-4-.4-12.2-1-19-1-12.2 0-22 8-22 29.5v14.6c0 21.6 9.8 29.5 22 29.5 7 0 15-.4 19-1h.7c1 0 1.4.3 1.4 1.4v1.3c0 1-1 1.8-2 2zM64 82h-1.2c-1 0-2-1-2-2V2.6c0-1 1-2 2-2h1c1.2 0 2 1 2 2V80c0 1-.8 2-2 2zm58.4-28.2h-37V56c0 18.5 9 22.4 19.8 22.4 4.8 0 10.8-.8 16.2-2h.7c1 0 1.7.4 1.7 1.5v.7c0 1.2-.4 1.8-2 2-5.4 1.2-11.6 2-16.5 2-13.6 0-24.6-6-24.6-26.6v-7c0-15.2 7.7-26.3 22-26.3 15.2 0 22 10.5 22 26v3c0 1.2-1 2-2.2 2zm-2.8-5c0-14-4.6-22-17-22-12.2 0-17.3 9-17.3 22v.5h34.3v-.6zM174 82h-.4c-1.2 0-2.2-1-2.2-2.2V77c-5.4 3-11.8 5.7-18.6 5.7-8.2 0-16.8-4-16.8-17.6v-1.3c0-11.3 7-17 27-17h8.4V43c0-11.5-3.2-16-13.8-16-7.2 0-10.4.4-15.6 1h-.4c-1 0-2-.4-2-1.6v-.7c0-1.2.8-1.8 2.4-2 4.6-.5 8.3-1 15.6-1 14.8 0 18.6 8.3 18.6 20v37c0 1.3-1 2.3-2 2.3zm-2.6-31H163c-16.5 0-22.2 3.3-22.2 12.6V65c0 10.2 5.4 13.4 12 13.4 6 0 11.3-1.6 18.6-5.6V51zm40.2-24c-4.2 0-8.8 1-15.2 5v48c0 1-1 2-2 2h-.8c-1 0-2-1-2-2V25.3c0-1.2.7-2.2 2-2.2h.8c1.2 0 2 1 2 2.2v2.3c5.6-3.6 10-5 15.2-5 1.8 0 3 .3 3 1.6v1c0 1.3-1.2 1.6-3 1.6zM264 82h-1c-1 0-1.8-1-1.8-2V43.6C261.2 33 256.7 27 245 27c-4.7 0-10.6.7-14.8 2v51c0 1-.8 2-2 2h-1c-1 0-2-1-2-2V2.6c0-1 1-2 2-2h1c1.2 0 2 1 2 2v22c4.3-1.2 10-2 14.8-2 15.2 0 21 8.7 21 21v36c0 1.3-.7 2.3-2 2.3zm52.6 0h-.5c-1 0-2-1-2-2.2V77c-5.5 3-12 5.7-18.7 5.7-8.2 0-16.8-4-16.8-17.6v-1.3c0-11.3 7-17 27-17h8.4V43c0-11.5-3.3-16-14-16-7 0-10.3.4-15.5 1h-.4c-1 0-2-.4-2-1.6v-.7c0-1.2 1-1.8 2.5-2 4.6-.5 8.3-1 15.6-1 15 0 18.7 8.3 18.7 20v37c0 1.3-1 2.3-2 2.3zM314 51h-8.4c-16.5 0-22.2 3.3-22.2 12.6V65c0 10.2 5.4 13.4 12 13.4 6 0 11.3-1.6 18.6-5.6V51zm60 31h-1c-1.2 0-2-1-2-2.2V78c-5.7 2.7-12 4.5-17.6 4.5-10.5 0-19.3-5.8-19.3-21V25.4c0-1 1-2 2.2-2h.8c1 0 2 1 2 2v36.4c0 12.4 6.5 16.6 14.6 16.6h.2c5.6 0 11.8-2 17.3-4.5V25.3c0-1 1-2 2.2-2h.7c1 0 2 1 2 2v54.5c0 1.2-1 2.2-2 2.2zm33.3.7c-5 0-12-.8-16-1.5-1.4-.3-2.3-.8-2.3-1.8v-1.2c0-1 .8-1.5 1.8-1.5h.7c5.3 1 11.6 1.8 16 1.8 8 0 14-2 14-11 0-4.4-2.4-6.8-11.6-11.8l-7-3.8c-8.3-4.6-13.4-8.2-13.4-15.6 0-10.2 8-13.5 16.8-13.5 8 0 12 .4 15.7 1 1.6 0 2.4.8 2.4 1.8v1c0 1.2-1 1.7-2 1.7h-.3c-2.7-.3-9-1.2-15-1.2-7 0-12.5 1.4-12.5 9.2 0 4.8 4 7.7 10.6 11.4l7.4 4c9 5 14 8.7 14 16-.2 11.2-9 14.7-19 14.7z" fill="#002D44"/>
</svg>
