<svg width="135" height="25" xmlns="http://www.w3.org/2000/svg" viewBox="0 0 3622.1 668.4">
    <path fill="#F6891F" d="M229.6 35.7V202c-16.3-25-44.2-37.6-83.6-37.6-63 0-105.5 30-127.6 90C6.2 288.2 0 341.7 0 415 0 492.6 6.5 548.3 19.7 582c22.8 58.5 68.8 87.4 137.7 86.6 48.3-1 81-14.2 98.3-40l13.5 34.2h83.5V0l-123 35.7zm0 491c-15.7 20-32.3 29.7-49.6 29.7-30 0-48.2-17.3-54.4-52-1.5-7.2-2.4-36.4-2.4-86.7 0-51.2.4-79.8 1.2-85.6 6.2-37 24-55.7 53.3-55.7 22 0 39.3 8.3 51.8 24.8v225.7zm317-194.4C491 333 452.2 350 430 383c-17.2 25.5-25.8 65.8-25.8 121 0 58.7 9.4 99.7 28.3 123.6 22.2 28 63.3 41.7 123.4 40.8 47.7-1 78.8-13.8 93.7-39l24.6 33.3h86.5V339.5c0-60-11.5-103.7-34.6-130.7-26.4-29.8-71-44.4-134.5-44.4-56 0-98 4.5-126 13.4v114c27-10.3 56-15.5 87.3-15.5 32 0 53.8 4.5 66 13.5 14 11.4 20.2 30.6 18.5 57.5-19-10.8-49-16-90.8-15m90.8 191.5C635 538 630 547 622 550.8c-7.7 3.6-20 5.5-37.2 5.5-38.3 0-57.4-19.6-57.4-58.7 0-45 18-70.4 53.7-76.3 19.8-2.4 38.4-.7 56.5 5v97.5zM940.2 202c23-25 55-37.6 96.7-37.6 55.3 0 94 14.2 116 43 18.7 24.7 28 63.8 28 117.3v338h-123V346.5c0-26.3-2.5-43.6-7.3-51.7-7.3-12.4-23-18.5-47-18.5s-39.7 6-47 18.5c-4.7 8-7 25-7 50.5v317.4H828.2v-491h112V202z"/>
    <path fill="#999B9E" d="M1465.6 35.7V202c-16.4-25-44-37.6-83.5-37.6-63 0-105.4 30-127.5 90-12.2 33.8-18.4 87.3-18.4 160.7 0 77.5 6.6 133.2 19.7 166.8 23 58.5 69 87.4 137.8 86.6 48.3-1 81-14.2 98.2-40l13.5 34.2h83.7V0l-123.4 35.7zm0 491c-15.7 20-32.3 29.7-49.6 29.7-30 0-48.2-17.3-54.4-52-1.6-7.2-2.4-36.4-2.4-86.7 0-51.2.4-79.8 1.2-85.6 6.2-37 24-55.7 53.2-55.7 22 0 39.3 8.3 52 24.8v225.7zM1671 239c-15.6 31.4-23.4 90-23.4 175.4 0 85.7 7.8 144.6 23.5 176.7 25.6 52 78.2 77.6 158 76.7 81.4-.8 133.7-26.3 156.7-76.6 12.3-27 18.5-86.4 18.5-177.7 0-91.5-6.6-151-19.7-178-22.2-48.5-75-72.5-158-71.6-79 .7-130.8 26-155.4 75.4M1880 329c.8 5 1.3 34.4 1.3 88 0 51.2-.4 79.7-1.2 85.5-6.4 35.5-24.2 53.3-53.3 53.3-29 0-46.7-18-53.3-53.3-1.7-7.4-2.5-36-2.5-85.5 0-51.2.5-79.7 1.2-85.4 6.5-37.2 24.6-55.8 54.5-55.8 29.7 0 47.6 18 53.3 53.2m294-126.8c23-25 51.2-37.6 85-37.6 52.4 0 86.7 18.6 103.2 56 23-37.4 54.7-56 94.8-56 54 0 92.2 14.7 114.3 44.4 19 24 28.5 62.4 28.5 116v338h-123.3V346.4c0-47-14-70.2-42-70.2s-42 18.5-42 55.4v331H2269V346.5c0-47-14.3-70.2-43-70.2-28.5 0-42.8 23-42.8 69v317.4h-121.5v-491h112V202zm618 130.3c-55.7 1-94.6 17.7-116.8 50.7-17 25.5-25.7 65.8-25.7 121 0 58.7 9.4 99.7 28.3 123.6 22.3 28 63.3 41.7 123.5 40.8 47.8-1 79-13.8 93.8-39l24.7 33.3h86.4V339.5c0-60-11.6-103.7-34.7-130.7-26.4-29.8-71.3-44.4-134.5-44.4-56 0-98 4.5-126 13.4v114c27-10.3 56-15.5 87.3-15.5 31.8 0 54 4.5 66.2 13.5 14 11.4 20 30.6 18.4 57.5-18.8-10.8-49-16-90.8-15m91 191.5c-2.6 14.2-7.7 23.2-15.5 27-7.7 3.6-20 5.5-37.4 5.5-38.4 0-57.4-19.6-57.4-58.7 0-45 17.8-70.4 53.7-76.3 19.7-2.4 38.4-.7 56.4 5v97.5zm192.6-186h123v325h-123zm306-135.8c22.8-25 55-37.6 96.6-37.6 55.4 0 94 14.2 116.2 43 18.6 24.7 28 63.8 28 117.3v338H3499V346.5c0-26.3-2.4-43.6-7.2-51.7-7.3-12.4-23-18.5-47-18.5s-39.5 6-46.8 18.5c-4.8 8-7.3 25-7.3 50.5v317.4h-121.3v-491h112V202z"/>
    <path fill="#F6891F" d="M3065.7 224c0-17.8 7-33.3 21.2-46.6 14-13 30.6-19.7 49.6-19.7s35.7 6.7 49.8 19.7c14.2 13.3 21.3 28.8 21.3 46.7 0 17.8-7.2 33.5-21.3 46.5-14 13.2-30.6 20-49.8 20-19 0-35.7-6.8-49.7-20-14.3-13-21.3-28.6-21.3-46.4"/>
</svg>
