<svg width="115" height="28" xmlns="http://www.w3.org/2000/svg" viewBox="-88 337.5 411.7 103">
    <path fill="#1395CB" d="M-35 352.3h-53V424h52.8c24.8 0 29.5-12.5 29.5-35.8 0-27.5-6.8-36-29.2-36zm16 39.5c0 18.3-6 19.7-15 19.7h-40.5V365h42c8 0 13.4 1.4 13.4 20v6.8c-.2 0 0 0 0 0zm27.8-39.5h13.5V424H8.8v-71.7zm97.4 33.3c3-2.3 4.6-5.8 4.6-10.2v-5.7c0-6.5-2.5-17.4-19-17.4h-54V424h54.8c12.6 0 20.7-6.5 20.7-16.7v-8c0-6.7-2.4-11.3-7-13.7zm-56-20.7h41.2c1.5 0 6.4.2 6.4 4.2v6c0 2.8-.8 5.6-6.8 5.6H50.3v-16zm50 40.2c0 3.3-.5 6.3-8 6.3H50v-18h40.5c7.8 0 9.5 1.4 9.5 7v4.7zm76.2-24h-25c-13.2 0-13.2-2.4-13.2-7.8 0-8 2.6-9.2 19.7-9.2h9c17 0 20 .8 20.7 5.8h13c-.6-13.2-8.8-18.5-28.6-18.5h-18c-10.3 0-16.5 1.2-21 4-5 3.3-7.5 9-7.5 17.2 0 21 12.6 22 36.8 22h16c10.4 0 11.3 2 11.3 7.8 0 7-1.2 9.6-13.4 9.6H150c-9.8 0-11.2-2.5-11.4-6h-13c.5 18.7 18 18.7 25.7 18.7h23.5c9.7 0 27.7 0 27.7-20.2v-4.3c0-17-15-19-26-19zm111.7 42v-16h-9.7v16c0 4-3 7.2-7 7.2h-28.6c-3.8 0-7-3.2-7-7.2v-29.6c0-4 3-7.2 7-7.2h43.7c-2.7-6-8.5-10.2-15.3-10.2h-28.4c-9.3 0-16.8 7.8-16.8 17.4v29.6c0 9.6 7.5 17.4 16.8 17.4H271c9.6 0 17-7.8 17-17.4z"/>
    <path fill="#1395CB" d="M323.7 384.5V355c0-9.7-7.5-17.5-16.8-17.5h-28.6c-9.3 0-16.8 7.8-16.8 17.4v16h9.8v-16c0-4 3-7.3 7-7.3H307c3.8 0 7 3.3 7 7.2v29.5c0 4-3 7.2-7 7.2h-43.8c2.7 6 8.5 10.2 15.2 10.2H307c9.2 0 16.7-8 16.7-17.5z"/>
</svg>
