<svg xmlns="http://www.w3.org/2000/svg" viewBox="0 0 435 119.45"><path fill="#1395CB" d="M53.1.74H0v71.82h52.84c24.79 0 29.49-12.63 29.49-35.91C82.33 9.14 75.5.74 53.1.74zm15.76 39.49c0 18.32-5.9 19.69-14.9 19.69h-40.5V13.38h41.88c8.17 0 13.51 1.41 13.51 20.06v6.79h.01zM96.78.74h13.47v71.82H96.78V.74zm97.45 33.33c2.97-2.3 4.65-5.8 4.65-10.19v-5.7c0-6.51-2.48-17.43-19.1-17.43H125.9v71.82h54.74c12.55 0 20.66-6.59 20.66-16.8v-7.9c.01-6.81-2.4-11.38-7.07-13.8zm-55.9-20.69h41.08c1.5 0 6.41.31 6.41 4.34v6.06c0 2.73-.81 5.54-6.84 5.54h-40.66l.01-15.94zm49.93 40.27c0 3.3-.64 6.27-8.24 6.27h-41.68l-.01-17.94h40.4c7.75 0 9.54 1.29 9.54 6.9l-.01 4.77zm76.18-23.87h-25.09c-13.08 0-13.08-2.49-13.08-7.92 0-8 2.57-9.21 19.66-9.21h8.99c16.96 0 20.09.76 20.75 5.8h13.06C288.07 5.24 279.87 0 260.03 0h-18.25c-10.23 0-16.45 1.19-20.81 3.98-5.15 3.27-7.64 8.9-7.64 17.23 0 20.97 12.63 21.95 36.83 21.95h16.1c10.31 0 11.18 1.9 11.18 7.82 0 7.01-1.16 9.65-13.42 9.65h-26.3c-9.67 0-11.14-2.55-11.32-6.05h-12.96c.47 18.7 18.14 18.71 25.74 18.71h23.53c9.68 0 27.68 0 27.68-20.2v-4.32c-.01-17.02-14.81-18.99-25.95-18.99zM393.86 99.3V80.78h-11.35V99.3c0 4.6-3.62 8.37-8.05 8.36l-33.02.01c-4.42 0-8.05-3.76-8.05-8.37V65.02c0-4.6 3.62-8.36 8.05-8.37h33c.04 0 .08.01.13.01h17.51c-3.07-6.95-9.81-11.83-17.65-11.83h-33c-10.7 0-19.41 9.07-19.41 20.18v34.28c0 11.12 8.7 20.16 19.41 20.16h33c10.72.01 19.43-9.03 19.43-20.15z"/><path fill="#1395CB" d="M435 54.46V20.15C435 9.04 426.3 0 415.61 0H382.6c-10.71 0-19.41 9.04-19.41 20.15V38.7h11.36V20.15c.01-4.59 3.63-8.36 8.05-8.36h33.02c4.42 0 8.05 3.77 8.05 8.36v34.31c0 4.59-3.62 8.36-8.05 8.36h-50.65c3.07 6.94 9.81 11.79 17.63 11.79h33.01c10.69 0 19.39-9.04 19.39-20.15zM6.93 108.58c-.32.01-.87.02-1.66.02-.79 0-1.89-.1-3.28-.31v5.85H.01V96.48c2.25-.21 4.48-.31 6.71-.31 1.87 0 3.18.42 3.93 1.26.63.71.95 1.89.95 3.52v1.37c0 1.26-.14 2.35-.42 3.24-.59 1.87-2.01 2.88-4.25 3.02zM6.8 97.84c-2.12 0-3.72.04-4.82.13v8.69c1.35.18 2.55.27 3.61.27s1.81-.08 2.27-.23c.46-.15.82-.4 1.07-.76.43-.6.65-1.8.65-3.59v-1.44c0-1.1-.22-1.89-.65-2.36-.41-.48-1.12-.71-2.13-.71zm21.03 11.41c0 1.54.07 3.14.22 4.8l-1.71.14-.29-1.61c-.98.79-2.28 1.34-3.89 1.64-.53.1-.99.15-1.4.15s-.77-.02-1.08-.06-.61-.11-.9-.23c-.29-.11-.56-.27-.8-.47-.25-.2-.46-.47-.65-.8-.39-.7-.59-1.55-.59-2.53s.07-1.75.21-2.29.38-1 .71-1.36c.66-.72 1.76-1.08 3.31-1.08s3.21.29 4.97.88v-1.5c0-1.68-.69-2.67-2.07-2.98-.45-.1-.96-.15-1.54-.15-1.32 0-2.69.26-4.11.79l-.43-1.67c.39-.26 1.4-.5 3.01-.71.51-.06 1.12-.09 1.84-.09.71 0 1.42.08 2.1.26.69.17 1.26.45 1.71.83.93.76 1.39 2 1.39 3.72l-.01 4.32zm-1.94-1.37c-1.81-.46-3.48-.68-5.01-.68-.94 0-1.57.27-1.88.81-.21.38-.31.94-.31 1.68s.04 1.28.12 1.61c.08.33.21.61.4.82.36.41.96.62 1.8.62 1.31 0 2.6-.34 3.88-1.01.39-.2.75-.42 1.07-.67-.05-.84-.07-1.9-.07-3.18zm8.5 9.6c.56.2 1.02.3 1.38.3s.59-.01.71-.03c.11-.02.23-.06.34-.12.27-.15.47-.39.6-.72.32-.79.61-1.65.85-2.6l-5.32-13.96h2.14l3.59 10.16.54 1.79.5-1.8 3.17-10.15h2.02l-5.82 17.05c-.42 1.33-1.41 1.99-2.94 1.99-.97 0-1.74-.14-2.29-.42l.53-1.49zm21.8-15.55c-1.26 0-2.63.45-4.12 1.33v10.88h-1.92v-13.79h1.69l.19 1.43c1.35-1.11 2.87-1.66 4.54-1.66.96 0 1.71.14 2.26.41.55.27.95.73 1.2 1.35 1.71-1.17 3.33-1.76 4.87-1.76 1.45 0 2.46.33 3.02 1 .54.64.81 1.78.81 3.42v9.61h-1.95v-9.25c0-1.11-.11-1.83-.32-2.15-.22-.32-.47-.54-.77-.65-.3-.11-.65-.17-1.04-.17-.4 0-.77.04-1.12.11-.35.07-.71.17-1.07.3-.73.25-1.44.58-2.11.97.04.46.06.87.06 1.23v9.61h-1.95v-9.25c0-1.11-.11-1.83-.32-2.15-.22-.32-.47-.54-.77-.65-.32-.12-.7-.17-1.18-.17zm30.05 11.48c-1.6.64-3.36.96-5.29.96-1.12 0-2.07-.12-2.85-.35-1.24-.35-2.07-1.09-2.48-2.2-.38-1.04-.57-2.59-.57-4.63v-.59c0-2.45.51-4.17 1.53-5.16.92-.88 2.45-1.32 4.6-1.32 2.09 0 3.52.52 4.29 1.55.37.5.62 1.11.74 1.82s.18 1.4.18 2.04c0 1.01-.02 1.8-.07 2.35-1.09.05-2.07.07-2.93.07h-1.87c-1.95 0-3.44-.08-4.5-.25 0 1.78.22 3.01.67 3.72.55.86 1.64 1.29 3.28 1.29s3.2-.32 4.7-.96l.57 1.66zm-1.82-7.06v-1.11c0-1.21-.24-2.08-.71-2.59-.53-.58-1.43-.87-2.72-.87-1.54 0-2.6.33-3.16 1.01-.54.64-.81 1.83-.81 3.57h7.4v-.01zm14.96-4.42c-1.51 0-3.04.45-4.6 1.33v10.88h-1.92v-13.79h1.69l.19 1.43c.84-.69 1.89-1.18 3.14-1.47.51-.12 1.11-.19 1.8-.19s1.29.08 1.82.24.94.41 1.25.76c.56.62.85 1.77.85 3.42v9.61h-1.95v-9.25c0-1.11-.11-1.83-.32-2.15-.22-.32-.47-.54-.77-.65-.31-.12-.7-.17-1.18-.17zm17.68 11.55c-1.26.59-2.42.89-3.49.89-1.93 0-3.03-.83-3.29-2.48-.06-.39-.09-.96-.09-1.71v-8.21h-1.67v-1.43l1.67-.19.3-3.15h1.61v3.15h4.02v1.61h-4.02v8.18c0 .95.07 1.56.21 1.82.25.48.76.72 1.53.72s1.62-.24 2.56-.7l.66 1.5zm4.74-2.07c1.59.89 3.19 1.33 4.8 1.33 1.34 0 2.12-.48 2.35-1.42.08-.32.12-.72.12-1.19s-.05-.83-.16-1.09c-.11-.26-.29-.45-.54-.58-.26-.13-.59-.22-1.01-.28s-.96-.15-1.6-.26c-.65-.11-1.24-.24-1.78-.38s-1-.34-1.38-.6c-.8-.56-1.19-1.51-1.16-2.85v-.29c0-1.41.46-2.41 1.39-3 .9-.59 2.37-.79 4.44-.6 1.41.13 2.53.37 3.36.73l-.54 1.75c-.93-.39-2.04-.68-3.34-.86-.4-.05-.78-.08-1.13-.08s-.67.03-.96.08-.53.15-.72.3c-.37.3-.56.86-.58 1.68-.02.96.25 1.58.81 1.84.54.26 1.18.43 1.92.53.74.1 1.35.18 1.82.25s.9.17 1.29.3c.39.12.72.32 1 .59.58.55.86 1.5.85 2.86-.04 2.37-1.03 3.72-2.97 4.05-.59.1-1.17.15-1.76.15s-1.13-.04-1.62-.11c-.49-.07-.96-.18-1.41-.31-.85-.24-1.62-.56-2.31-.95l.82-1.59zm29.03-9.48c-1.26 0-2.63.45-4.12 1.33v10.88h-1.92v-13.79h1.69l.19 1.43c1.35-1.11 2.87-1.66 4.54-1.66.96 0 1.71.14 2.26.41.55.27.95.73 1.2 1.35 1.71-1.17 3.33-1.76 4.87-1.76 1.45 0 2.46.33 3.02 1 .54.64.81 1.78.81 3.42v9.61h-1.95v-9.25c0-1.11-.11-1.83-.32-2.15-.22-.32-.47-.54-.77-.65-.3-.11-.65-.17-1.04-.17-.4 0-.77.04-1.12.11-.35.07-.71.17-1.07.3-.73.25-1.44.58-2.11.97.04.46.06.87.06 1.23v9.61h-1.95v-9.25c0-1.11-.11-1.83-.32-2.15-.22-.32-.47-.54-.77-.65-.31-.12-.7-.17-1.18-.17zm29.81 7.32c0 1.54.07 3.14.22 4.8l-1.71.14-.29-1.61c-.98.79-2.28 1.34-3.89 1.64-.53.1-.99.15-1.4.15s-.77-.02-1.08-.06c-.31-.04-.61-.11-.9-.23-.29-.11-.56-.27-.8-.47-.25-.2-.46-.47-.65-.8-.39-.7-.59-1.55-.59-2.53s.07-1.75.21-2.29.38-1 .71-1.36c.66-.72 1.76-1.08 3.31-1.08s3.21.29 4.97.88v-1.5c0-1.68-.69-2.67-2.07-2.98-.45-.1-.96-.15-1.54-.15-1.32 0-2.69.26-4.11.79l-.43-1.67c.39-.26 1.4-.5 3.01-.71.51-.06 1.12-.09 1.84-.09.71 0 1.41.08 2.1.26.69.17 1.26.45 1.71.83.93.76 1.39 2 1.39 3.72l-.01 4.32zm-1.94-1.37c-1.81-.46-3.48-.68-5-.68-.94 0-1.57.27-1.88.81-.21.38-.31.94-.31 1.68s.04 1.28.12 1.61.21.61.4.82c.36.41.96.62 1.8.62 1.3 0 2.6-.34 3.88-1.01.39-.2.75-.42 1.07-.67-.06-.84-.08-1.9-.08-3.18zm17.76 4.72c-1.63 1.18-3.29 1.77-4.97 1.77-1.86 0-3.1-.68-3.72-2.05-.36-.77-.55-1.59-.6-2.45-.04-.86-.06-1.62-.06-2.27s.01-1.31.02-1.97c.01-.66.06-1.28.14-1.84.09-.56.22-1.07.4-1.52.18-.45.44-.84.78-1.15.7-.66 1.86-.98 3.48-.98 1.62 0 3.08.28 4.39.85v-6.55l1.92-.19v13.57c0 2.66.07 4.74.22 6.24l-1.73.14-.27-1.6zm-.14-10.05c-1.39-.46-2.73-.7-4.03-.7-.94 0-1.56.08-1.87.23-.3.15-.53.35-.69.6s-.29.59-.39 1.02c-.18.81-.27 2.15-.27 4.01v.26c0 1.74.19 2.94.57 3.6.41.7 1.17 1.05 2.28 1.05h.17c1.07 0 2.2-.34 3.41-1.02.33-.19.62-.37.86-.56v-.02c-.04-.72-.06-1.83-.06-3.32l.02-5.15zm19.4 10.86c-1.6.64-3.36.96-5.29.96-1.12 0-2.07-.12-2.85-.35-1.24-.35-2.07-1.09-2.48-2.2-.38-1.04-.57-2.59-.57-4.63v-.59c0-2.45.51-4.17 1.53-5.16.92-.88 2.45-1.32 4.6-1.32 2.09 0 3.52.52 4.29 1.55.37.5.62 1.11.74 1.82s.18 1.4.18 2.04c0 1.01-.02 1.8-.07 2.35-1.09.05-2.07.07-2.93.07H211c-1.95 0-3.44-.08-4.49-.25 0 1.78.22 3.01.67 3.72.55.86 1.64 1.29 3.28 1.29s3.2-.32 4.7-.96l.56 1.66zm-1.82-7.06v-1.11c0-1.21-.24-2.08-.71-2.59-.53-.58-1.43-.87-2.72-.87-1.54 0-2.6.33-3.16 1.01-.54.64-.81 1.83-.81 3.57h7.4v-.01zm26.76 7.06c-1.6.64-3.36.96-5.29.96-1.12 0-2.07-.12-2.85-.35-1.24-.35-2.07-1.09-2.48-2.2-.38-1.04-.57-2.59-.57-4.63v-.59c0-2.45.51-4.17 1.53-5.16.92-.88 2.45-1.32 4.6-1.32 2.09 0 3.52.52 4.29 1.55.37.5.62 1.11.74 1.82s.18 1.4.18 2.04c0 1.01-.02 1.8-.07 2.35-1.09.05-2.07.07-2.93.07h-1.87c-1.95 0-3.44-.08-4.5-.25 0 1.78.22 3.01.67 3.72.55.86 1.64 1.29 3.28 1.29s3.21-.32 4.7-.96l.57 1.66zm-1.81-7.06v-1.11c0-1.21-.24-2.08-.71-2.59-.53-.58-1.43-.87-2.72-.87-1.55 0-2.6.33-3.16 1.01-.54.64-.81 1.83-.81 3.57h7.4v-.01zm18.99 2.9c0 1.54.07 3.14.22 4.8l-1.72.14-.29-1.61c-.98.79-2.28 1.34-3.89 1.64-.53.1-.99.15-1.4.15s-.77-.02-1.08-.06-.61-.11-.9-.23c-.29-.11-.56-.27-.8-.47-.25-.2-.46-.47-.65-.8-.39-.7-.59-1.55-.59-2.53s.07-1.75.21-2.29.38-1 .71-1.36c.66-.72 1.76-1.08 3.31-1.08s3.21.29 4.97.88v-1.5c0-1.68-.69-2.67-2.07-2.98-.45-.1-.96-.15-1.54-.15-1.32 0-2.69.26-4.11.79l-.43-1.67c.39-.26 1.4-.5 3.01-.71.51-.06 1.12-.09 1.84-.09.71 0 1.41.08 2.1.26.69.17 1.26.45 1.71.83.93.76 1.39 2 1.39 3.72v4.32zm-1.95-1.37c-1.81-.46-3.48-.68-5-.68-.94 0-1.57.27-1.88.81-.21.38-.31.94-.31 1.68s.04 1.28.12 1.61.21.61.4.82c.36.41.96.62 1.8.62 1.31 0 2.6-.34 3.88-1.01.39-.2.75-.42 1.07-.67-.06-.84-.08-1.9-.08-3.18zm8.83 3.53c1.59.89 3.19 1.33 4.8 1.33 1.34 0 2.12-.48 2.35-1.42.08-.32.12-.72.12-1.19s-.05-.83-.16-1.09c-.11-.26-.29-.45-.54-.58s-.59-.22-1.01-.28c-.42-.06-.96-.15-1.6-.26-.65-.11-1.24-.24-1.78-.38s-1-.34-1.38-.6c-.8-.56-1.19-1.51-1.16-2.85v-.29c0-1.41.46-2.41 1.39-3 .9-.59 2.37-.79 4.44-.6 1.41.13 2.53.37 3.36.73l-.54 1.75c-.93-.39-2.04-.68-3.34-.86-.4-.05-.78-.08-1.13-.08s-.67.03-.96.08c-.29.05-.53.15-.72.3-.37.3-.56.86-.58 1.68-.02.96.25 1.58.81 1.84.54.26 1.18.43 1.92.53.74.1 1.35.18 1.82.25s.9.17 1.29.3c.39.12.72.32 1 .59.58.55.86 1.5.85 2.86-.04 2.37-1.03 3.72-2.97 4.05-.59.1-1.17.15-1.76.15-.59 0-1.13-.04-1.62-.11s-.96-.18-1.41-.31c-.85-.24-1.62-.56-2.31-.95l.82-1.59zm15.12 6.07c.56.2 1.03.3 1.38.3.36 0 .59-.01.71-.03.11-.02.23-.06.34-.12.27-.15.47-.39.6-.72.32-.79.61-1.65.85-2.6l-5.32-13.96h2.14l3.59 10.16.54 1.79.5-1.8 3.17-10.15h2.02l-5.82 17.05c-.42 1.33-1.41 1.99-2.94 1.99-.97 0-1.74-.14-2.29-.42l.53-1.49z"/></svg>