<svg xmlns="http://www.w3.org/2000/svg" width="115" height="28" viewBox="-88 337.5 411.7 103">
  <path fill="#1395CB" d="M-35 352.3h-53V424h52.8c24.8 0 29.5-12.5 29.5-35.8 0-27.5-6.8-36-29.2-36zm16 39.5c0 18.3-6 19.7-15 19.7h-40.5V365h42c8 0 13.4 1.4 13.4 20v6.8c-1 0 0 0 0 0zm27.8-39.5h13.5V424H8.8v-71.7zm97.4 33.3c3-2.3 4.6-5.8 4.6-10.2v-5.7c0-6.5-2.5-17.4-19-17.4h-54V424h54.8c12.6 0 20.7-6.5 20.7-16.7v-8c0-6.7-2.4-11.3-7-13.7zm-56-20.7h41.2c1.5 0 6.4 0 6.4 4v6c0 3-.8 5-6.8 5H50.3v-16zm50 40c0 3-.5 6-8 6H50v-18h40.5c7.8 0 9.5 1 9.5 7v4zm76.2-24h-25c-13.2 0-13.2-3-13.2-8 0-8 2.6-9 19.7-9h9c17 0 20 1 20 6h13c-1-14-9-19-29-19h-18c-11 0-17 1-21 4-5 3-8 9-8 17 0 21 12.2 22 37 22h16c10 0 11 2 11 8 0 7-1 9-13.7 9h-26c-10 0-11.3-3-11.5-6h-13c.4 18 18 18 25.6 18h24c9.7 0 27.7 0 27.7-20v-4c0-17-15-19-26-19zM288 423v-16h-9.6v16c0 4-3 7.3-7 7.3h-28.6c-3.8 0-7-3.2-7-7.2v-29c0-4 3-7 7-7h43.7c-2.7-6-8.5-10-15.3-10h-28.4c-9.3 0-16.8 8-16.8 18v29c0 10 7.5 18 16.8 18H271c9.6 0 17-8 17-17.3z"/>
  <path fill="#1395CB" d="M323.7 384.5V355c0-9.7-7.5-17.5-16.8-17.5h-29c-10 0-17 7.8-17 17.4v16h10v-16c0-4 3-8 7-8h29c3 0 7 3 7 7v30c0 4-3 7-7 7h-44c2 6 8 10 15 10h29c9 0 16-8 16-18z"/>
</svg>
