<svg width="51" height="14" xmlns="http://www.w3.org/2000/svg" viewBox="0 0 140 37.44">
    <path d="M36.6 0v31.3c0 1.7.3 3 .7 3.4s1.5.8 3 .8h.3v1.3h-12v-1.3h.5c1.6 0 2.5-.2 3-.8.4-.5.7-1.7.7-3.4v-22c0-2-.2-3.3-.4-4-.3-.4-1-1-2.4-1.5l-1.3-.5V3l8-3zm20 32.7c-1.4 1.6-2.7 2.7-4 3.5-1.5.8-3 1.2-4.5 1.2s-2.8-.5-3.8-1.5c-1-1.2-1.5-2.5-1.5-4 0-1.8.8-3.3 2.4-4.5 1.8-1.2 4.5-2.4 8.2-3.4l3-.8V20c0-1.5-.2-2.5-.3-3-.3-.6-.7-1-1.2-1.5-1-.6-2-1-3.2-1-1.3 0-2.2.3-3 1-.5.4-.8 1.2-.8 2.3v1l-4.6 1.5v-.6c0-1.7 1-3.3 3-4.8 2-1.6 4.3-2.3 7-2.3 2.5 0 4.3.5 5.3 1.4 1 1 1.6 2.7 1.6 5v9.8c0 2.6.3 4.3.8 5s1.3 1.4 2.7 1.4H65v1c-1.5.8-3 1.2-4.2 1.2-1.2 0-2.2-.4-3-1.2-.6-.8-1-2-1.3-3.5zm-.5-8l-1 .3c-3.3 1-5.5 2-6.5 2.8-1 .8-1.5 2-1.5 3.5 0 1 .3 2 1 2.6.7.7 1.5 1 2.5 1 1.5 0 3-.7 4.3-2.2 1-1 1.3-2.3 1.3-4v-4.2zm19.5 12.7l-9-18.6c-1-1.8-1.6-3-2-3.4-.6-.5-1-.8-2-.8h-.2v-1.3H72v1.3h-.3c-1.3 0-2 .4-2 1 0 .5.3 1.6 1 3.2L77.3 32 82.8 19c.6-1.4 1-2.4 1-3 0-.7-1-1.2-2.4-1.2H81v-1.3h8v1.3h-.4c-.7 0-1.2.3-1.8 1-.5.5-1 1.6-1.8 3.2l-8 18.6h-1.5zm24.2 0c-3.5 0-6.4-1-8.6-3.4s-3.3-5.3-3.3-9c0-3.5 1-6.5 3.4-8.8 2.3-2.3 5.2-3.5 8.7-3.5 3.5 0 6.3 1.2 8.6 3.5 2.2 2.3 3.3 5.3 3.3 9 0 3.5-1 6.4-3.3 8.8-2.3 2.3-5 3.4-8.6 3.4zm0-1.4c2 0 4-1 5.2-3s2-4.7 2-8c0-3.2-.8-5.8-2-7.8-1.4-2-3.2-3-5.3-3-2.2 0-4 1-5.2 3s-2 4.6-2 8c0 3 .6 5.8 2 7.8 1.3 2 3 3 5.2 3zm20.6-17.2v12.5c0 1.7.2 3 .7 3.4.5.6 1.5.8 3 .8h.3v1.3h-12v-1.3h.5c1.4 0 2.4-.2 3-.8.3-.5.5-1.7.5-3.4v-9.5c0-2 0-3.2-.4-3.7s-1-1-2.4-1.5l-1.2-.6v-.4l8-3v5c1.6-1.7 3.2-3 4.7-3.7 1.6-1 3-1.4 4.4-1.4 2 0 3.5.7 4.7 2 1.4 1.3 2 3.8 2 7.3v9.3c0 1.7.3 3 .7 3.4.5.5 1.5.8 3 .8h.3v1.3h-12v-1.3h.5c1.4 0 2.4-.2 3-.8.3-.6.6-1.7.6-3.5V22c0-2-.3-3.6-1-4.5-.6-1-1.7-1.4-3.3-1.4-1 0-2.3.2-3.5.6-1.2.5-2.5 1.2-4 2.2zm-111-13v13h7c2 0 3.2-.2 3.8-.8 1-.7 1.4-2 1.5-3.8h1v11.2h-1c-.2-1.6-.5-2.6-.7-3-.3-.6-.8-1-1.4-1.3-.7-.3-1.7-.4-3-.4h-7V34l.8.8c.3.2 1 .3 1.8.3h5.6c1.8 0 3 0 4-.3.8-.3 1.6-.8 2.4-1.6 1-1 2-2.4 3-4.5h1l-2.7 8.3H0v-1.3h1c1 0 1.6-.2 2.3-.5.6-.3 1-.7 1-1.2.3-.5.4-1.6.4-3.2V10.3c0-2-.2-3.4-.7-4-.5-.5-1.5-1-3-1H0v-1h25.3l.3 7h-1c-.4-1.7-.8-3-1.2-3.6-.4-.6-1-1-1.8-1.4C21 6 19.8 6 18.2 6h-9z" fill="#231F20"/>
</svg>
