<svg width="130" height="29" xmlns="http://www.w3.org/2000/svg" viewBox="0 0 487.4 109.65">
    <path fill="#003F5F" d="M303.8 0h-11.4c-1.5 0-3.3 1.2-3.8 2.6l-21.8 57.8c-.6 1.4-1.4 1.4-2 0L244.6 2.6c-.5-1.5-2.2-2.7-3.7-2.7h-12.4c-1.5 0-2.4 1.2-1.8 2.6l30.4 79c.5 1.4.6 3.8 0 5.3l-6.8 20c-.5 1.4.4 2.6 2 2.6h10.3c1.6 0 3.2-1.2 3.7-2.6l7-21c.4-1.4 1.2-3.8 1.8-5.2l30.6-78.2c.5-1.4-.3-2.6-1.8-2.6zM115 0H80.2c-1.5 0-2.8 1.3-2.8 2.8v104c0 1.6 1.3 2.8 2.8 2.8H90c1.5 0 2.8-1.2 2.8-2.8V17c0-1.5 1.3-2.8 2.8-2.8h19.6c9.6 0 16.2 4.6 16.2 16v21.2c0 14.4-7 18.6-19.8 18.6H110.3c-1.3 0-2.8 1.2-3.4 2.6l-3.5 9c-.6 1.3.2 2.5 1.8 2.5l7 .2c20 0 34.5-9.8 34.5-32.8V30.2c0-20-14.4-30.2-31.8-30.2zM43.6 0h-12C11.2 0 0 10.2 0 29.2v25c0 19.6 14.8 30 34.8 30h24.6c1.6 0 3.3-1.3 4-2.8l3.3-8.8c.6-1.5-.2-2.7-1.8-2.6H34.5c-13 0-19.2-5.2-19.2-15.8v-6.6h51.2c1.5 0 2.8-1.3 2.8-2.8v-21C69.4 10.2 58.2 0 43.6 0zm10.6 33.8H15.4v-4.6c0-11.2 3.8-14.8 16.4-14.8H44c6.4 0 10.2 3.6 10.2 9.4v10zM193.8 0H173c-1.7 0-3.4 1.2-4 2.6l-3.5 9c-.6 1.4.3 2.6 1.8 2.6H194c12.8 0 16.2 4.4 16.2 12.6v3.8h-26c-16.8 0-29.4 9.4-29.4 23.6v2.6c0 17 15.6 27.4 32.6 27.4h35.4c1.5 0 2.8-1.4 2.8-3V27C225.6 10 214 0 193.8 0zm16.4 70h-23c-11.6 0-17-5.2-17-13.2v-2.6c0-5.2 3.8-9.4 14.2-9.4h25.8v25zm115-31.4h-6.6v9h-2.3V24.3h9.4c4.6 0 6.8 2 6.8 6V32c0 4.7-2.8 6.6-7.4 6.6zm5-8.3c0-2.7-1-3.7-4.5-3.7h-7v9.8h6.3c3.6 0 5.2-1 5.2-4.3v-1.7zM350 47.7l-3-8h-9.4l-3 8H332l9.3-23.4h2l9.2 23.4H350zM342.3 28l-3.8 9.6h7.6l-3.7-9.6zm19.6 9.7v10h-2.4v-10l-9-13.4h3l7 11 7.4-11h2.8l-9 13.4zm31.2 10v-19l-8 13.3H384l-8-13.4v19h-2.4V24.3h2.2l8.7 14.3 8.8-14.3h2.2v23.3h-2.3zm7 0V24.3H416v2.3h-13.4v8H414v2.2h-11.4v8.6H416v2.3h-15.7zm36 0l-13.8-19.3v19.3H420V24.3h2L436 43.6V24.3h2.3v23.3h-2zm16-21v21H450v-21h-8.3v-2.4h18.7v2.3h-8.2zM323.8 82.8c-4.6 0-7.5-1-7.5-1v-2.3s3.7 1 7.4 1c5 0 6-1.2 6-4.4 0-2-.8-3.2-2.2-3.5L320 71c-2.7-.5-4.3-2.5-4.3-5.7 0-3.4 2-6 8-6 4 0 6.2.6 6.6.8v2.3s-3.5-1-6.5-1c-5 0-5.8 1.7-5.8 4 0 2.4 1 3.3 2.4 3.6l7.2 1.6c2.6.6 4.5 2.5 4.5 5.7 0 4.7-2.4 6.6-8.2 6.6zm22.8-.4h-3.8c-4.7 0-7.4-2.6-7.4-7v-9c0-4.6 2.7-7.3 7.4-7.3h3.8c4.7 0 7.4 2.7 7.4 7.2v9c0 4.5-2.7 7-7.4 7zm5-16c0-3.5-1.5-5-5-5h-3.8c-3.5 0-5 1.5-5 5v9c0 3.3 1.5 4.8 5 4.8h3.8c3.5 0 5-1.5 5-5v-9zm6.6 16V59.3h2.4v21h12.6v2.4h-15zm28.5 0h-3.2c-4.7 0-7.4-2.6-7.4-7V59.2h2.4v16.2c0 3.4 1.6 5 5 5h3.2c3.6 0 5.2-1.6 5.2-5V59.3h2.3v16.2c0 4.5-2.7 7.2-7.3 7.2zm20.8-21v21h-2.3v-21H397v-2.3h18.7v2.3h-8.2zm11.8 21V59.3h2.3v23.4h-2.3zm17.7 0h-3.7c-4.7 0-7.5-2.6-7.5-7v-9c0-4.6 2.8-7.3 7.4-7.3h3.8c4.7 0 7.5 2.7 7.5 7.2v9c0 4.5-2.8 7-7.5 7zm5.2-16c0-3.5-1.7-5-5.2-5h-3.7c-3.6 0-5.2 1.5-5.2 5v9c0 3.3 1.7 4.8 5.2 4.8h3.8c3.5 0 5.2-1.5 5.2-5v-9zm22.5 16L451 63.4v19.2h-2.3V59.3h2l13.7 19.3V59.3h2.3v23.4h-2zm14.3.3c-4.5 0-7.4-1-7.4-1v-2.3s3.7 1 7.4 1c5 0 6-1.2 6-4.4 0-2-.8-3.2-2.3-3.5l-7.4-1.7c-2.8-.5-4.4-2.5-4.4-5.7 0-3.4 2-6 8-6 4 0 6.2.6 6.6.8v2.3s-3.5-1-6.6-1c-4.8 0-5.8 1.7-5.8 4 0 2.4 1 3.3 2.4 3.6l7.3 1.6c2.5.6 4.4 2.5 4.4 5.7 0 4.7-2.5 6.6-8.4 6.6z"/>
</svg>
