<svg xmlns="http://www.w3.org/2000/svg" width="90" height="9" viewBox="0 0 700 70">
  <path fill="#0F59A5" d="M14.7 37.8v30.8H0V0h14.7v26H42V0h15v68.6H42V37.8H14.8zm96.8 21c0 6 1.4 7.2 3 7.8v2H99.8c-.8-2.3-1-3-1.3-6-3 3-7.6 7.4-17 7.4-7.7 0-15.8-4.3-15.8-14.8 0-10 6.5-15 15.2-16.3l12-2c2-1 4-2 4-4 0-6-5.7-6-9-6-7 0-8 4-8.6 7H67c2-16 13-18 23.6-18 7.3 0 20.8 2 20.8 14.3V58zM98 43.8c-1.3 1-3.5 2-9.2 2.7-5 1-9.3 2-9.3 7.6 0 5 3.7 6 6.4 6 6 0 12-3 12-10v-6zm72 24.7h-13.7v-31c0-3.6-.2-10-9-10-6 0-10.7 4-10.7 11.8v29.2H123v-51h13V25h.2c2-3 5.8-8.7 15.7-8.7 10 0 18 5.8 18 17v35.3zm59.5 0H216V62h-.2c-3.3 6-9.4 7.8-15 7.8-15.6 0-22-13.5-22-27.4 0-17.5 10.2-26.2 21.7-26.2 8.8 0 13 4.7 15 8h.3V0h13.7v68.6zM204 59c8.8 0 12.2-7 12.2-14.6 0-8-2.4-16.4-11.8-16.4-8.7 0-11.7 7.5-11.7 15.6.2 6 2.6 15.4 11.4 15.4zm81.6-5.3C282 66 271.6 70 262.6 70c-14.6 0-26-7-26-27.8 0-6 2.3-25.7 25-25.7 10.4 0 24.6 4.8 24.6 28v2.3h-35.8c.4 3.8 1.2 12.4 12.3 12.4 3.8 0 7.7-2 8.8-5.6h14zM272 38c-.7-8-6-10.6-10.5-10.6-6.5 0-10 4-10.7 10.7H272zm36.5 30.6h-13.7V0h13.7v68.6zm41.7-35.4c-.6-3.2-1.8-6.7-9.2-6.7-7.5 0-8.4 2.7-8.4 5 0 8 32.6 2 32.6 21 0 14.8-14.7 17.5-22.8 17.5-12 0-24.7-4-25-17.5h14c0 4.3 2.7 7.4 11.4 7.4 7 0 8.7-4 8.7-6 0-9-32.3-2-32.3-21 0-8 4.8-17 21-17 10.3 0 22.4 2 23.5 17h-13.5zm37.3-8.8h.2c2.2-3.2 6.3-8 15-8 11.6 0 21.8 8.7 21.8 26.2 0 14-6.5 27.3-22 27.3-5.7 0-11.8-2-15-8h-.3v6h-13.4V0h13.7v24.4zm11.3 3.6c-9.4 0-11.8 8.2-11.8 16.4 0 7.5 3.4 14.6 12 14.6 9 0 11.4-9.4 11.4-15.4 0-8-3-15.6-11.6-15.6zm76.6 30.7c0 6 1.4 7.4 3 8v2h-14.8c-.8-2.4-1-3.2-1.3-6-3 3-7.5 7.3-17 7.3-7.7 0-15.8-4.3-15.8-14.8 0-10 6.5-15 15.2-16.3l12.4-2c3-1 5-2 5-4 0-6-5-6-9-6-7 0-8 4-8 7h-13c2-16 13-18 24-18 7.4 0 20.8 2 20.8 14v28zM462 44c-1.4 1-3.6 1.8-9.3 2.6-5 1-9.3 2-9.3 7.6 0 4.7 3.7 6 6.4 6 6 0 12.2-3.7 12.2-10V44zm72 24.6h-14v-31c0-3.6-.2-10-9-10-6 0-10.7 4-10.7 11.8v29.2h-13.7v-51h13V25h.3c2-3 6-8.6 15-8.6 10 0 18 5.8 18 17v35.3zm25.8 0H546V0h14v37l17-19.3h17l-18.4 19.7 19 31H578L565.6 47l-5.7 5.8v16zm84.3-15C641 66 630 70 622 70c-14.7 0-26-7-26-27.8 0-6 2.2-25.7 25-25.7 10.3 0 24.5 4.8 24.5 28v2.3h-36c.4 3.8 1 12.4 12 12.4 4 0 8-2 9-5.6h14zM631 38c-.8-8-6.2-10.5-10.6-10.5-6.5 0-10 4-10.7 10.7H631zm69 30.8h-13.7v-31c0-3.6-.2-10-9-10-6 0-10.7 4-10.7 11.8v29.2H653v-51h13v7.5h.2c2-3 5.8-8.7 15.7-8.7 10 0 18 5.8 18 17V69z"/>
</svg>
