<svg xmlns="http://www.w3.org/2000/svg" viewBox="0 0 699.23 71.74"><path fill="#0756A5" d="M14.7 38.81v31.56H0V0h14.7v26.66h27.44V0h14.7v70.36h-14.7V38.81H14.7zm96.72 21.36c0 6.17 1.37 7.55 3.04 8.13v2.06h-14.8c-.78-2.45-.98-3.23-1.27-6.17-3.14 3.23-7.55 7.55-16.86 7.55-7.84 0-15.88-4.41-15.88-15.19 0-10.19 6.47-15.39 15.19-16.66l12.35-1.86c2.16-.29 4.8-1.18 4.8-4.12 0-5.78-5.49-6.08-9.02-6.08-6.86 0-8.04 4.21-8.43 7.25H67.32c1.57-15.97 12.64-18.23 23.32-18.23 7.35 0 20.78 2.25 20.78 15.09v28.23zM98 44.98c-1.37 1.08-3.63 1.96-9.31 2.84-5.1.88-9.31 2.16-9.31 7.84 0 4.8 3.72 6.27 6.37 6.27 6.08 0 12.25-3.92 12.25-10.29v-6.66zm71.83 25.38h-13.72V38.71c0-3.82-.2-10.29-8.92-10.29-6.08 0-10.78 4.12-10.78 12.05v29.89h-13.72V18.23h13.13v7.64h.2c1.86-3.14 5.78-9.02 15.68-9.02 10.19 0 18.13 5.98 18.13 17.44v36.07zm59.39 0h-13.43V63.8h-.2c-3.33 5.88-9.41 7.94-15.09 7.94-15.48 0-21.95-13.72-21.95-28.03 0-18.03 10.19-26.85 21.66-26.85 8.82 0 12.94 4.8 15.09 8.13h.2V0h13.72v70.36zm-25.28-9.89c8.72 0 12.15-7.25 12.15-14.99 0-8.33-2.35-16.76-11.76-16.76-8.72 0-11.66 7.74-11.66 15.97 0 6.17 2.45 15.78 11.27 15.78zm81.33-5.39c-3.63 12.54-14.01 16.66-22.93 16.66-14.7 0-25.97-7.06-25.97-28.52 0-6.27 2.16-26.36 24.99-26.36 10.29 0 24.5 4.9 24.5 28.71v2.45h-35.77c.39 3.92 1.18 12.74 12.25 12.74 3.82 0 7.74-1.96 8.82-5.68h14.11zM271.75 39.1c-.78-8.43-6.17-10.98-10.58-10.98-6.47 0-9.9 4.12-10.68 10.98h21.26zm36.36 31.26h-13.72V0h13.72v70.36zm41.65-36.26c-.59-3.33-1.76-6.86-9.21-6.86-7.45 0-8.43 2.84-8.43 5.1 0 8.23 32.63 2.25 32.63 21.46 0 15.19-14.7 17.93-22.83 17.93-11.86 0-24.7-4.12-25.09-18.03h14.11c0 4.41 2.74 7.64 11.37 7.64 7.06 0 8.72-3.43 8.72-5.39 0-8.72-32.34-2.16-32.34-21.66 0-7.64 4.8-17.44 21.07-17.44 10.19 0 22.34 2.55 23.42 17.25h-13.42zm37.34-9.11h.2c2.16-3.33 6.27-8.13 15.09-8.13 11.47 0 21.66 8.82 21.66 26.85 0 14.31-6.47 28.03-21.95 28.03-5.68 0-11.76-2.06-15.09-7.94h-.2v6.57h-13.43V0h13.72v24.99zm11.17 3.72c-9.41 0-11.76 8.43-11.76 16.76 0 7.74 3.43 14.99 12.15 14.99 8.82 0 11.27-9.6 11.27-15.78 0-8.22-2.94-15.97-11.66-15.97zm76.63 31.46c0 6.17 1.37 7.55 3.04 8.13v2.06h-14.8c-.78-2.45-.98-3.23-1.27-6.17-3.14 3.23-7.55 7.55-16.86 7.55-7.84 0-15.88-4.41-15.88-15.19 0-10.19 6.47-15.39 15.19-16.66l12.35-1.86c2.16-.29 4.8-1.18 4.8-4.12 0-5.78-5.49-6.08-9.02-6.08-6.86 0-8.04 4.21-8.43 7.25H430.8c1.57-15.97 12.64-18.23 23.32-18.23 7.35 0 20.78 2.25 20.78 15.09v28.23zm-13.42-15.19c-1.37 1.08-3.63 1.96-9.31 2.84-5.1.88-9.31 2.16-9.31 7.84 0 4.8 3.72 6.27 6.37 6.27 6.08 0 12.25-3.92 12.25-10.29v-6.66zm71.83 25.38h-13.72V38.71c0-3.82-.2-10.29-8.92-10.29-6.08 0-10.78 4.12-10.78 12.05v29.89h-13.72V18.23h13.13v7.64h.2c1.86-3.14 5.78-9.02 15.68-9.02 10.19 0 18.13 5.98 18.13 17.44v36.07zm25.87 0h-13.72V0h13.72v38.02l17.25-19.8h16.86l-18.42 20.19 18.91 31.95h-16.46l-12.45-22.34-5.68 5.88-.01 16.46zm84.18-15.28c-3.62 12.54-14.01 16.66-22.93 16.66-14.7 0-25.97-7.06-25.97-28.52 0-6.27 2.16-26.36 24.99-26.36 10.29 0 24.5 4.9 24.5 28.71v2.45h-35.77c.39 3.92 1.18 12.74 12.25 12.74 3.82 0 7.74-1.96 8.82-5.68h14.11zM629.84 39.1c-.78-8.43-6.17-10.98-10.58-10.98-6.47 0-9.9 4.12-10.68 10.98h21.26zm69.39 31.26h-13.72V38.71c0-3.82-.2-10.29-8.92-10.29-6.08 0-10.78 4.12-10.78 12.05v29.89h-13.72V18.23h13.13v7.64h.2c1.86-3.14 5.78-9.02 15.68-9.02 10.19 0 18.13 5.98 18.13 17.44v36.07z"/></svg>