<svg xmlns="http://www.w3.org/2000/svg" viewBox="0 0 88.06 24.21"><path fill="#4859A7" d="M24.6 0h-3.88c-.28 0-.52.23-.52.49V23.4c0 .27.25.52.52.52h3.88c.28 0 .46-.27.46-.52V.49c0-.28-.2-.49-.46-.49zM66 5.87c-2.05 0-3.43.43-5.1 1.61l-.22.15V6.61c0-.27-.22-.49-.49-.49h-3.56c-.28 0-.5.22-.5.49V23.4c0 .27.26.52.53.52h3.84c.27 0 .5-.25.5-.52V10.88l.07-.04c1.17-.62 2.14-1.03 3.05-1.03 2.13 0 2.49.95 2.49 3.08V23.4c0 .28.23.52.49.52h3.84c.27 0 .53-.26.53-.52V12.89c.01-4.92-1.63-7.02-5.47-7.02zm20.12 1.46c-1.21-.97-3.01-1.46-5.35-1.46-2.02 0-4.21.35-5.46.66-.32.08-.49.28-.49.56v2.56c0 .29.14.43.43.43h.16c.94-.09 3.22-.22 5.28-.22 1.52 0 2.52.39 2.52 2.32v1.28h-1.86c-2.71 0-4.63.41-5.86 1.26-1.22.83-1.81 2.12-1.81 3.93v.29c0 4.6 3.31 5.29 5.29 5.29 1.69 0 2.94-.41 4.33-1.39l.23-.16v.78c0 .27.22.49.49.49h3.56c.27 0 .49-.22.49-.49v-11.3c-.01-2.17-.66-3.79-1.95-4.83zM83.3 19.89l-.08.04c-.96.48-1.83.71-2.67.71-1.35 0-2.14-.28-2.14-1.72v-.29c0-1.78.79-2.45 2.94-2.45h1.96v3.71h-.01zM53.78 5.87c-1.53 0-3.07.54-4.2 1.48l-.23.19v-.93c0-.27-.23-.49-.49-.49h-3.79c-.27 0-.49.22-.49.49V23.4c0 .27.25.52.52.52h3.85c.26 0 .5-.25.5-.52V10.98l.07-.04c1.41-.76 2.77-1.12 4.17-1.12h.26c.19 0 .34-.24.34-.46v-3c-.01-.27-.23-.49-.51-.49zm-14 1.46c-1.21-.97-3.01-1.46-5.35-1.46-2.02 0-4.2.35-5.46.66-.32.08-.5.28-.5.56v2.56c0 .29.14.43.43.43h.16c.94-.09 3.22-.22 5.28-.22 1.51 0 2.53.39 2.53 2.32v1.28h-1.86c-2.71 0-4.63.41-5.87 1.26-1.21.83-1.81 2.12-1.81 3.93v.29c0 4.6 3.31 5.29 5.29 5.29 1.69 0 2.95-.41 4.33-1.39l.23-.16v.78c0 .27.22.49.49.49h3.56c.27 0 .49-.22.49-.49v-11.3c.01-2.17-.65-3.79-1.94-4.83zm-2.82 12.56l-.08.04c-.96.48-1.84.71-2.67.71-1.36 0-2.14-.28-2.14-1.72v-.29c0-1.78.8-2.45 2.94-2.45h1.95v3.71zM6.57 11.26c4.03-.05 7.77-2.23 9.8-5.7.98-1.68 1.51-3.6 1.53-5.55-1.97.01-3.9.54-5.6 1.51-3.5 2.01-5.69 5.73-5.73 9.74M4.62 0h-3.2C.64 0 0 .63 0 1.41v21.94c0 .25.22.52.57.52h3.2c.78 0 1.42-.63 1.42-1.41V.49c0-.28-.24-.49-.57-.49M6.57 12.67c.05 4 2.24 7.72 5.74 9.73 1.7.97 3.63 1.5 5.59 1.52-.02-1.96-.55-3.88-1.53-5.56-2.03-3.47-5.78-5.64-9.8-5.69"/></svg>