<svg viewBox="0 0 851 200" xmlns="http://www.w3.org/2000/svg"><g fill="#545875"><path d="M252 73.4h15.3V115H294v13.5h-42v-55M315.5 73.4H360v13h-29.4v8.3H357v12h-26.4v8.8h29.7v13h-44.8v-55M385.3 73.4h16l13.3 21.3 13-21.3H444v55h-15.3V97l-14 21.4h-.5l-14-21.4v31.5h-15v-55M511.5 101c0-8-5.7-15-14.2-15-8.3 0-14 6.8-14 14.8v.2c0 8 6 14.8 14.2 14.8 8.4 0 14-6.7 14-14.7zm-43.8 0c0-16 12.8-28.7 29.8-28.7S527 85 527 100.8v.2c0 15.8-12.6 28.6-29.7 28.6-17 0-29.6-12.7-29.6-28.5zM551 73.4h14.3l22.7 29v-29h15v55h-13.3l-23.5-30v30H551v-55M624.5 73.4h16l9.7 32L660.8 73H674l10.6 32 9.6-31.8h16L691.6 129h-13.4l-11-31.8-11 31.7h-13.4l-18.5-55.6M759 106.8L753 91l-6.3 15.8H759zM745.8 73h14.7l23.5 55.5h-16.5l-4-9.8h-21.3l-4 9.8h-16L745.7 73zM813.7 108l-21-34.6H810l11.5 20 11.4-20h17l-21 34.2v21h-15.3v-20.7"/></g><path d="M163.7 102.3l-1 2.5c-1.7 3.4-2.3 7-2.4 10.7v2.2c.5 3 .5 6.7-.2 10 0 .8-.3 1.6-.6 2.4-1.6 6-7.3 10.2-13.3 9.4 11-8.6 8-24.3 8-24.3-.7 14.6-10.2 22.5-13.6 25v-.2c-14.8-38.4-61.7-43.2-61.7-43.2 40.2 14.5 53.4 38.3 57.6 50l-.2.4c-7 8.3-15.3 13.5-26.6 14-8 .3-15.5-.3-22.8-2.5-2-.6-3.8-1.3-5.6-2.2-24-10.8-44.2-41.5-39-107 0 0 3.5 3.8 9 8.7l6.2 5c8 7.7 17.6 12.7 28 16 2 .8 4 1.5 6.2 2 9.3 1.4 19.4 4.4 28.2 9.3 2.2 1.2 4.3 2.5 6.3 4 6.4 4 11.3 9.8 14.3 16.4 4.7-5 12.7-9.3 25.3-12 0 0-1 1.4-2 3.6M99.2 1C44.5 1 0 45.3 0 100s44.4 99 99 99c55 0 99.2-44.3 99.2-99S154 1 99.2 1" fill="#4EEE77"/></svg>