<svg xmlns="http://www.w3.org/2000/svg" viewBox="0 0 851 200">
  <path fill="#545875" d="M252 73.4h15.3V115H294v13.5h-42v-55m63.5 0H360v13h-29.4v8.2H357v12h-26.4v8.8h29.7v13h-44.8v-55m69.8 0h16l13.3 21.2 13-21.3H444v55h-15.3V97l-14 21.4h-.5l-14-21.4v31.5h-15v-55M511.5 101c0-8-5.7-15-14.2-15-8.3 0-14 6.8-14 14.8v.2c0 8 6 14.8 14.2 14.8 8.4 0 14-6.7 14-14.7zm-43.8 0c0-16 12.8-28.7 29.8-28.7S527 85 527 100.8v.2c0 15.8-12.6 28.6-29.7 28.6-17 0-29.6-12.7-29.6-28.5zM551 73.4h14.3l22.7 29v-29h15v55h-13.3l-23.5-30v30H551v-55m73.5 0h16l9.7 32L660.8 73H674l10.6 32 9.6-31.8h16L691.6 129h-13.4l-11-31.8-11 31.7h-13.4l-18.5-56M759 106l-6-15-6.3 15.8H759zm-13.2-33h14.7l23.5 55.5h-16.5l-4-9.8h-21.3l-4 9.8h-16L745.7 73zm68 35l-21-34.6H810l11.5 20 11.4-20h17l-21 34.2v21h-16V108"/>
  <path fill="#4EEE77" d="M163.7 102.3l-1 2.5c-1.7 3.4-2.3 7-2.4 10.7v2.2c.5 3 .5 6.7-.2 10v2.4c-1 6-7 11-13 10 11-8 8-24 8-24 0 15-10 23-13 25-16-39-63-44-63-44 40 14.8 53.6 38.6 57.8 50l-.2.7c-7 8.3-15.3 13.5-26.6 14-8 .3-15.6-.3-23-2.5l-6-3c-24-11-44-42-39-107 0 0 3 4 9 8.6l6 5c8 8 17 13 28 16 2 1 4 1.5 6 2 9 1.3 19 4.3 28 9.3l6 4c6.5 4 11.4 10 14.4 16.4 4.6-5 12.6-9.5 25.2-12 0 0-1 1.2-2 3.4M99 1C44.5 1 0 45.3 0 100s44.4 99 99 99c55 0 99.2-44.3 99.2-99S154 1 99.2 1"/>
</svg>
