<svg id="Layer_1" xmlns="http://www.w3.org/2000/svg" viewBox="8 303.1 628.1 177"><style>.st0{fill:#349445;} .st1{fill:#26547D;}</style><path class="st0" d="M24.2 391.4c6.3-4.9 15.1-8.7 28-9.5 8.1-.5 16.4 2.2 23.9 6.4 4.8-2 9.5-4.3 13.7-6.6-.5-.5-.9-1.1-1.4-1.6-11.4-13.7-22-25.3-42.4-28.4-15.2-2.3-29.2 2.4-38 12.6-2.1 7.2 3.7 19.8 16.2 27.1zm136.6 2.3c-6.3 4.9-15.1 8.7-28.1 9.5-8.1.5-16.4-2.2-23.9-6.4-4.8 2-9.5 4.3-13.7 6.6.5.5.9 1.1 1.4 1.6 11.5 13.8 22.1 25.4 42.5 28.4 15.2 2.3 29.2-2.4 38-12.6 2.1-7.1-3.7-19.7-16.2-27.1z"/><path class="st1" d="M177 367.6c-.6 1.9-1.8 4.8-3.1 8-4.5 10.8-13.8 26-41.2 27.7-17 1-34.9-12-44.2-23.1C77 366.4 66.4 354.8 46 351.7c-15.2-2.3-29.2 2.4-38 12.6 10.3-34 43.8-59.1 83.7-59.2 41.4-.2 76.2 26.6 85.3 62.5"/><path class="st1" d="M8 417.5c.8-2.6 2.3-6.4 4.3-10.7 4.9-10.5 14.8-23.4 39.9-24.9 17-1 34.9 12 44.2 23.1 11.5 13.8 22.1 25.4 42.5 28.4 15.2 2.3 29.2-2.4 38-12.6-10.3 34-43.8 59.1-83.7 59.2-41.3.2-76.1-26.5-85.2-62.5m295.3-82.9H230V458h27.4V356.9h33.1c7.6 0 11.2 3.5 11.2 11.1v90h27.4v-88.6c.1-23.4-8.3-34.8-25.8-34.8zm96.3 0c-32.4 0-48.9 15.4-48.9 45.9v32.1c0 31.4 15.4 45.4 49.9 45.4h44.1v-22.3h-46.9c-13 0-19.6-7.5-19.6-21.6v-36.6c0-13.7 7.5-20.9 21.7-20.9 17.6 0 19.9 10.6 19.9 20.9v7.5h-27v20.8h53V382c-.1-32.8-14.3-47.4-46.2-47.4zM600 384.7c-16.9-4.4-18.3-5.6-18.3-16.1 0-6.6 2-11.6 10.5-11.6h37.7v-22.3h-31.6c-36.7 0-43.5 12.4-43.5 33.7 0 23.1 3.8 29.8 32 36.7 19 4.6 22.3 8.5 22.3 17.4 0 7.9-1.6 13.3-10.1 13.3h-45V458h44.2c31.8-1.1 37.9-14.2 37.9-36.4 0-23.6-2.5-28-36.1-36.9zm-105.2 38.8V357h40.4v-20.8h-40.4v-33.1l-27.4 3.8v121c0 18.5 10.2 30.3 25.5 30.3H537v-22.4h-29.7c-8.3 0-12.5-4.3-12.5-12.3z"/></svg>