<svg xmlns="http://www.w3.org/2000/svg" viewBox="0 0 628.09 187.91"><path fill="#349445" d="M16.23 92.7c6.26-5.28 15.13-9.36 28.05-10.2 8.12-.53 16.45 2.39 23.94 6.87 4.79-2.19 9.52-4.6 13.7-7.05-.48-.58-.95-1.15-1.39-1.72C69 65.79 58.41 53.36 38.01 50.06 22.84 47.61 8.83 52.66 0 63.57c-2.06 7.72 3.71 21.25 16.23 29.13zM152.78 95.2c-6.26 5.28-15.13 9.36-28.05 10.2-8.13.53-16.45-2.39-23.94-6.87-4.79 2.19-9.51 4.6-13.7 7.05.48.58.95 1.15 1.39 1.72 11.53 14.8 22.12 27.24 42.52 30.54 15.17 2.45 29.18-2.6 38.01-13.51 2.06-7.71-3.71-21.24-16.23-29.13z"/><path fill="#26547D" d="M169.01 67.17c-.6 2.02-1.77 5.12-3.1 8.54-4.52 11.6-13.76 27.91-41.18 29.7-17.02 1.11-34.92-12.88-44.2-24.81C69 65.79 58.41 53.36 38.01 50.06 22.84 47.61 8.83 52.66 0 63.57 10.31 27.01 43.85.16 83.72 0c41.39-.15 76.16 28.53 85.29 67.17"/><path fill="#26547D" d="M0 120.74c.8-2.75 2.29-6.88 4.33-11.5C9.27 98 19.13 84.15 44.28 82.5c17.02-1.11 34.92 12.88 44.2 24.81 11.53 14.8 22.12 27.24 42.52 30.54 15.17 2.45 29.18-2.6 38.01-13.51-10.31 36.56-43.85 63.41-83.72 63.57-41.4.15-76.16-28.54-85.29-67.17M295.32 33.08h-73.29v123.4h27.44V55.38h33.14c7.65 0 11.21 3.53 11.21 11.1v89.99h27.44V67.83c-.01-23.39-8.49-34.75-25.94-34.75zM391.61 33.08c-32.43 0-48.87 15.43-48.87 45.87v32.15c0 31.38 15.38 45.37 49.86 45.37h44.07v-22.31l-46.89-.01c-13.01 0-19.6-7.49-19.6-21.55V75.95c0-13.69 7.49-20.93 21.68-20.93 17.56 0 19.93 10.58 19.93 20.93v7.47h-27.01v20.76h52.95V80.44c0-32.75-14.22-47.36-46.12-47.36zM592.05 83.13c-16.93-4.37-18.3-5.57-18.3-16.14 0-6.56 2.05-11.63 10.54-11.63l37.68-.01v-22.3h-31.62c-36.65 0-43.54 12.42-43.54 33.68 0 23.08 3.77 29.81 32.01 36.69 18.95 4.56 22.32 8.52 22.32 17.4 0 7.93-1.58 13.32-10.14 13.32l-44.95.02v22.31l44.16-.02c31.75-1.13 37.87-14.24 37.87-36.38.01-23.61-2.44-28.05-36.03-36.94zM486.83 121.97V55.44h40.38V34.67h-40.38V1.54l-27.44 3.82v120.96c0 18.48 10.2 30.3 25.48 30.3h44.11v-22.37h-29.71c-8.28.01-12.44-4.3-12.44-12.28z"/></svg>