<svg width="99" height="27" xmlns="http://www.w3.org/2000/svg" viewBox="8 303.1 628.1 177">
    <path fill="#349445" d="M24.2 391.4c6.3-5 15-8.7 28-9.5 8-.6 16.4 2 24 6.3 4.7-2 9.4-4.3 13.6-6.6l-1.4-1.6C77 366.5 66.4 355 46 351.8c-15.2-2.3-29.2 2.4-38 12.6-2 7.2 3.7 19.8 16.2 27zm136.6 2.3c-6.3 5-15 8.7-28 9.5-8.2.5-16.5-2.2-24-6.4-4.8 2-9.5 4.3-13.7 6.6l1.5 1.6c11.5 13.8 22 25.4 42.5 28.4 15.2 2.3 29.2-2.4 38-12.6 2-7-3.7-19.7-16.2-27z"/>
    <path fill="#26547D" d="M177 367.6c-.6 2-1.8 4.8-3 8-4.6 10.8-14 26-41.3 27.7-17 1-35-12-44.2-23-11.5-14-22-25.5-42.5-28.6-15.2-2.3-29.2 2.4-38 12.6 10.3-34 43.8-59 83.7-59.2 41.4 0 76.2 26.7 85.3 62.6"/>
    <path fill="#26547D" d="M8 417.5c.8-2.6 2.3-6.4 4.3-10.7 5-10.5 14.8-23.4 40-25 17-1 34.8 12 44 23.2 11.6 13.8 22.2 25.4 42.6 28.4 15 2.3 29-2.4 38-12.6-10.4 34-44 59-83.8 59.2-41.3.2-76-26.5-85.2-62.5m295.3-83H230V458h27.4V357h33c7.7 0 11.3 3.4 11.3 11v90H329v-88.6c.2-23.4-8.2-34.8-25.7-34.8zm96.3 0c-32.4 0-49 15.5-49 46v32c0 31.5 15.5 45.5 50 45.5h44v-22.3H398c-13 0-19.6-7.5-19.6-21.6v-36.5c0-13.7 7.5-21 21.7-21 17.5 0 19.8 10.7 19.8 21v7.5h-27v20.8h53V382c0-32.8-14.3-47.4-46.2-47.4zM600 384.8c-17-4.4-18.3-5.6-18.3-16 0-6.7 2-11.7 10.5-11.7H630v-22.3h-31.7c-36.7 0-43.5 12.4-43.5 33.7 0 23 3.8 29.8 32 36.7 19 4.7 22.3 8.6 22.3 17.5 0 8-1.5 13.3-10 13.3h-45V458h44.2c31.8-1 38-14.2 38-36.4 0-23.6-2.6-28-36.2-37zm-105.2 38.8V357h40.4v-20.8h-40.4v-33l-27.4 3.7v121c0 18.4 10.2 30.2 25.5 30.2h44v-22.4h-29.7c-8.3 0-12.5-4.3-12.5-12.3z"/>
</svg>
