<svg xmlns="http://www.w3.org/2000/svg" viewBox="0 0 406 155"><path d="M73.3 31.5H0v123.3h27.4v-101h33.1c7.6 0 11.2 3.5 11.2 11.1v89.9h27.4V66.3c.1-23.4-8.4-34.8-25.8-34.8zm96.3 0c-32.4 0-48.9 15.4-48.9 45.9v32.1c0 31.4 15.4 45.4 49.9 45.4h44.1v-22.3h-46.9c-13 0-19.6-7.5-19.6-21.5V74.4c0-13.7 7.5-20.9 21.7-20.9 17.6 0 19.9 10.6 19.9 20.9v7.5h-27v20.8h53V78.8c-.2-32.6-14.3-47.3-46.2-47.3zm200.3 50c-16.9-4.4-18.3-5.6-18.3-16.1 0-6.6 2-11.6 10.5-11.6h37.7V31.5h-31.6c-36.7 0-43.5 12.4-43.5 33.7 0 23.1 3.8 29.8 32 36.7 19 4.6 22.3 8.5 22.3 17.4 0 7.9-1.6 13.3-10.1 13.3h-45v22.3h44.2c31.8-1.1 37.9-14.2 37.9-36.4 0-23.7-2.5-28.1-36.1-37zm-105.2 38.8V53.9h40.4V33.1h-40.4V0l-27.4 3.8v120.9c0 18.5 10.2 30.3 25.5 30.3h44.1v-22.4h-29.7c-8.3 0-12.5-4.3-12.5-12.3z" fill="#28567F"/></svg>