<svg xmlns="http://www.w3.org/2000/svg" viewBox="230.03 303.09 406.06 187.91"><path fill="#26547D" d="M303.32 336.17h-73.29v123.4h27.44v-101.1h33.14c7.65 0 11.21 3.53 11.21 11.1v89.99h27.44v-88.64c-.01-23.39-8.49-34.75-25.94-34.75zM399.61 336.17c-32.43 0-48.87 15.43-48.87 45.87v32.15c0 31.38 15.38 45.37 49.86 45.37h44.07v-22.31l-46.89-.01c-13.01 0-19.6-7.49-19.6-21.55v-36.65c0-13.69 7.49-20.93 21.68-20.93 17.56 0 19.93 10.58 19.93 20.93v7.47h-27.01v20.76h52.95v-23.74c0-32.75-14.22-47.36-46.12-47.36zM600.05 386.22c-16.93-4.37-18.3-5.57-18.3-16.14 0-6.56 2.05-11.63 10.54-11.63l37.68-.01v-22.3h-31.62c-36.65 0-43.54 12.42-43.54 33.68 0 23.08 3.77 29.81 32.01 36.69 18.95 4.56 22.32 8.52 22.32 17.4 0 7.93-1.58 13.32-10.14 13.32l-44.95.02v22.31l44.16-.02c31.75-1.13 37.87-14.24 37.87-36.38.01-23.61-2.44-28.05-36.03-36.94zM494.83 425.06v-66.53h40.38v-20.77h-40.38v-33.13l-27.44 3.82v120.96c0 18.48 10.2 30.3 25.48 30.3h44.11v-22.37h-29.71c-8.28.01-12.44-4.3-12.44-12.28z"/></svg>