<svg width="37" height="14" viewBox="0 0 406 153" xmlns="http://www.w3.org/2000/svg">
    <path d="M0 30v123h27V53h33c8 0 12 3 12 11v89h27V65c0-23-9-35-26-35H0zm121 46v32c0 32 15 45 50 45h45v-22h-48c-13 0-20-7-20-21V74c0-14 6-22 22-22 17 0 19.8 9 20 29h-28v21h54V74c0-36-28-44-46-44-28 0-49 16-49 46zm241-23h37V31h-32c-36.4 0-42.2 12.4-42 34-.2 22.6 3.6 29.3 31.8 36.2 19 4.6 22.2 8.8 22.2 16.8s-2 12-10 13h-45v22h44c32-1 38-13 38-36s-2.5-27.3-36-36c-17-4.5-18.3-5.7-19-16 .7-6.8 2.7-11.8 11-12zm-57 0V32h-40V0l-28 4v119c0 20 10 30 26 30h44v-22h-30c-7 0-12-3-12-13V53h40z" fill="#28567F"/>
</svg>
