<svg xmlns="http://www.w3.org/2000/svg" viewBox="0 0 424.45 79.36"><path d="M79.41 49.41c0 17.64 15.13 29.96 36.8 29.96 21.66 0 36.79-12.32 36.79-29.96s-15.13-29.96-36.79-29.96c-21.67 0-36.8 12.32-36.8 29.96zm15.1 0C94.51 39 103.23 32 116.21 32c12.98 0 21.7 7 21.7 17.41s-8.72 17.4-21.7 17.4c-12.98 0-21.7-6.99-21.7-17.4zm79.37-24v-4.48h-14.52v56.92h14.66v-30.3c0-5.18.59-10.46 7.58-13.02 2.32-.85 4.64-1.23 7.53-1.22h2.1V19.44s-9.46 0-17.35 5.97zM250.95 0v25.35c-5.73-3.79-13.72-5.97-22.24-5.97-21.66 0-36.79 12.32-36.79 29.96s15.13 29.95 36.79 29.95c8.5 0 16.12-1.92 22.24-5.46v3.99h14.54V0h-14.54zm-43.94 49.41c0-10.41 8.72-17.41 21.7-17.41 12.98 0 21.7 7 21.7 17.41s-8.72 17.4-21.7 17.4c-12.98 0-21.7-6.99-21.7-17.4zm143.86-.03c0 17.92 14.68 29.96 36.51 29.96 8.87 0 16.95-1.56 22.51-5.43 0 1.53.01 3.97.01 3.97h14.55v-28.2c0-18.1-14.78-30.26-36.79-30.26-21.66 0-36.79 12.32-36.79 29.96zm15.09 0c0-10.41 8.72-17.4 21.7-17.4 12.98 0 21.7 6.99 21.7 17.4 0 10.41-8.72 17.4-21.7 17.4-12.98 0-21.7-6.99-21.7-17.4zm-20.38 5.69c-1.85 9.17-8.06 15.55-15.04 19.37-6.34 3.47-13.28 4.91-21.52 4.9-22.56-.03-36.68-13.72-36.68-29.62 0-17.91 15.54-30.43 36.68-30.29 28.08.19 36.51 17.6 37.13 28.51 0 .02-53.95 11.71-54.73 11.87 3.82 4.46 9.88 6.87 17.6 6.97 9.17.13 15.92-3.49 19.07-7.93l17.49-3.78zm-57.83-7.16c1.82-.39 37.85-8.2 39.81-8.63-3.16-4.16-9.57-7.37-18.55-7.44-12.35.35-20.65 6.89-21.26 16.07zM59.15 77.83l14.09.13V7.79H58.65v47.95L14.44 7.76H0l.02 70.25H14.6l-.01-46.95 44.56 46.77z" fill="#004987"/></svg>