<svg xmlns="http://www.w3.org/2000/svg" viewBox="0 0 424.45 79.36">
  <path fill="#004987" d="M79.4 49.4c0 17.6 15 30 36.8 30 21.7 0 36.8-12.4 36.8-30s-15-30-36.8-30c-21.7 0-36.8 12.4-36.8 30zm15 0c0-10.4 8.8-17.4 21.8-17.4S138 39 138 49.4 129 66.8 116 66.8s-21.7-7-21.7-17.4zm79.5-24V21h-14.6v56.8H174V47.5c0-5 .6-10.4 7.6-13 2.3-.8 4.6-1.2 7.5-1.2h2.2v-14s-9.4 0-17.3 6zM251 0v25.4c-5.8-3.8-13.8-6-22.3-6-21.7 0-36.8 12.3-36.8 30s15 30 36.7 30c8.5 0 16-2 22.2-5.6v4h14.5V0H251zm-44 49.4C207 39 215.7 32 228.7 32s21.7 7 21.7 17.4-8.7 17.4-21.7 17.4-21.7-7-21.7-17.4zm144 0c0 18 14.6 30 36.4 30 9 0 17-1.6 22.5-5.5v4h14.4V49.6c0-18-14.7-30.3-36.7-30.3-21.7 0-36.8 12.3-36.8 30zm15 0C366 39 374.7 32 387.7 32s21.7 7 21.7 17.4c0 10.4-8.8 17.4-21.7 17.4-13 0-21.7-7-21.7-17.4zM345.6 55c-2 9.2-8 15.6-15 19.4-6.4 3.5-13.3 5-21.6 5-22.5 0-36.7-13.8-36.7-29.7 0-18 15.6-30.4 36.7-30.3 28 .2 36.5 17.6 37 28.5l-54.6 11.8c3.8 4.5 10 7 17.6 7 9.2 0 16-3.5 19-8l17.6-3.7zm-58-7l40-8.7C324.4 35 318 32 309 31.8c-12.3.4-20.6 7-21.3 16zM59.3 77.7l14.2.2V7.8H58.6v48l-44.2-48H0V78h14.6V31L59.2 78z"/>
</svg>
