<svg viewBox="0 0 284 90" xmlns="http://www.w3.org/2000/svg" xmlns:xlink="http://www.w3.org/1999/xlink"><defs><path id="a" d="M163.817 89.94H.06V.008h163.757z"/></defs><g><mask id="b" fill="#fff"><use xlink:href="#a"/></mask><path d="M89.693 47.884c0 10.84-4.8 17.947-12.463 17.947-4.685 0-7.025-2.84-7.025-7.166 0-8.81 5.612-13.505 19.488-15.238v4.458zm18.405 6.403v1.094c0 7.864-2.195 10.905-4.832 10.905-1.97 0-2.807-1.128-2.807-6.696V39.594c0-5.847-.27-10.248-3.668-13.764-3.056-3.102-9.382-4.886-15.976-4.903H80.71c-11.15 0-18.143 5.747-18.143 12.372 0 3.742 2.72 6.354 6.62 6.354H69.29c3.513 0 6.252-2.24 6.252-5.09 0-3.16-3.06-4.672-4.883-5.576-.292-.146-.64-.32-.907-.473.58-1.538 3.796-4.112 9.867-4.112 7.514 0 10.073 3.113 10.073 11.115v4.424c-21.49 2.805-31.685 8.686-31.685 18.28 0 7.277 5.62 11.725 15.47 11.725 7.914 0 13.56-3.257 16.872-9.628.82 7.79 5.678 9.525 9.435 9.525 9.526 0 11.737-5.14 11.737-13.727v-1.83h-3.424z" fill="#20AA5E" mask="url(#b)"/><path d="M138.606 22.82V25.4l.54.024c5.824.305 8.33 1.055 8.33 4.26 0 1.9-.763 3.94-1.72 5.89-.003.006-7.824 16.084-9.987 20.562-.93-2.005-11.307-24.504-11.307-24.504-.766-1.713-1.213-2.397-1.213-3.46 0-2.013 1.472-2.633 7.827-2.743l.56-.014V22.82H101.05v2.606l.557.005c7.918.1 9.33 3.483 11.81 8.89l16.08 34.414c-2.12 4.594-3.127 6.528-4.993 9.477-3.26 5.228-6.398 7.894-10.4 7.894-1.076 0-1.42-.178-1.52-.24.134-.195.5-.566.713-.78 1.05-1.036 2.64-2.615 2.64-5.235 0-3.944-2.945-6.685-7.156-6.685-4.568 0-7.878 3.2-7.878 7.624 0 5.51 4.623 9.21 11.505 9.21 6.126 0 11.212-3.457 15.45-10.48.524-.886 1.035-1.832 1.533-2.837l20.33-40.84c3.262-6.41 7.46-9.626 13.598-10.417l.497-.066v-2.54h-25.21M25.31 10.632c0-6.713-.963-7.11 7.49-7.11 13.417 0 17.84 6.402 17.84 18.14C50.64 32.612 45.682 37 31.723 37H25.31V10.632zm8.336 29.888c19.085 0 29.844-7.763 29.844-19.405C63.49 11.8 56.5.008 32.48.008H0V2.47l.518.01c11.125.1 12.414 1.96 12.414 11.08v40.524c0 9.116-1.29 10.976-12.414 11.07L0 65.16v2.473h39.098v-2.478h-.532c-11.956 0-13.257-1.755-13.257-11.07V40.52h8.336z" fill="#20AA5E" mask="url(#b)"/><path d="M215.078 25.497V.007h-60.553V2.45l.506.007c10.594.095 11.768 1.962 11.768 11.085v40.555c0 9.123-1.174 10.992-11.767 11.088l-.505.006v2.443h61.324V39.8h-2.405c-1.692 17.61-10.01 24.154-26.793 24.24-8.16.04-7.48-.772-7.48-9.338V34.41c.293-.015 1.23-.08 1.23-.08 10.35 0 14.59 4.25 15.39 15.486h2.292v-33.11h-2.277c-.63 10.737-5.2 14.237-16.11 14.237h-.525v-19.13c0-7.477-.078-8.312 6.567-8.312 19.01 0 24.698 7.398 27.2 21.997h2.138M282.742 64.948c-5.22 0-7.728-1.875-11.722-6.087-.003-.01-13.35-13.484-17.502-17.744l.342-.337c.554-.538 8.44-8.64 19.69-19.697 2.796 3.342 4.56 7.86 5.625 13.725h2.483V9.915H256.76V12.4c6.028 1.096 10.63 2.92 13.996 5.844-10.77 10.608-19.004 19.062-19.572 19.62l-.353.345-.673-.73c-.784-.792-8.264-8.438-8.264-8.438.002.007-.076-.073-.076-.073-.986-1.03-1.693-1.77-1.693-2.555 0-1.284 4.432-.906 6.13-.906h.614v-2.69h-28.794v2.677l.602.012c5.957.104 6.185 1.674 9.148 4.738.006.01 11.63 11.706 14.235 14.345l.88.874c-4.243 4.077-21.173 20.328-23.088 22.166h5.662c1.773-1.692 16.103-15.356 20.216-19.327 2.68 2.817 10.378 10.697 10.378 10.697C257.942 60.89 259 62.18 259 63.215c0 1.44-2.07 1.733-6.962 1.733h-1.44v2.685h32.866v-2.685h-.722" fill="#20AA5E"/></g></svg>
