<svg id="Layer_1" xmlns="http://www.w3.org/2000/svg" viewBox="0 0 1406.3 493.9"><style>.st0{fill:#29763A;} .st1{fill:#206131;} .st2{fill:url(#SVGID_1_);} .st3{fill:#309044;}</style><path class="st0" d="M199.9 9.7L367 133.4c20.8 15.4 23 45.6 4.8 63.9l-126.1 26.6L.5 238.7 127.6 24.3c15-25.3 48.6-32.1 72.3-14.6z"/><path class="st1" d="M.8 239l244.6-15.4 129.9-30.4c14.3-18.4 11.1-45.6-8.3-59.9L232.8 34 .8 239z"/><linearGradient id="SVGID_1_" gradientUnits="userSpaceOnUse" x1="142.594" y1="95.037" x2="359.434" y2="404.3" gradientTransform="matrix(1 0 0 -1 0 489.884)"><stop offset="0" stop-color="#1F8142"/><stop offset="1" stop-color="#309044"/></linearGradient><path class="st2" d="M486.7 261.9l-232 232L0 239.2 305.9 13.1C332-6.2 369.1 1.3 385.7 29.2l107.4 181.3c9.9 16.6 7.2 37.8-6.4 51.4z"/><path class="st3" d="M764 224.6c0 17.9-6.1 31.7-18.3 41.3s-29.5 14.3-51.8 14.3h-28.7v76.7h-12.9V171.3h45.4c44.2 0 66.3 17.8 66.3 53.3zM665.3 269h25.5c20.9 0 36-3.4 45.3-10.3s14-18.1 14-33.6c0-14.3-4.4-24.9-13.2-31.8-8.8-6.9-22.4-10.3-40.9-10.3h-30.7v86zM885 356.9l-3.2-21.8h-1c-6.9 8.9-14.1 15.2-21.4 18.9-7.3 3.7-16 5.5-26 5.5-13.5 0-24.1-3.5-31.6-10.4s-11.3-16.5-11.3-28.8c0-13.5 5.6-23.9 16.8-31.4 11.2-7.4 27.4-11.4 48.7-11.8l26.3-.8v-9.1c0-13.1-2.7-23-8-29.7s-13.9-10-25.8-10c-12.8 0-26 3.6-39.7 10.7l-4.7-10.9c15.1-7.1 30.1-10.7 44.9-10.7 15.1 0 26.5 3.9 34 11.8s11.2 20.1 11.2 36.8v91.7H885zm-50.8-8.9c14.7 0 26.3-4.2 34.8-12.6s12.8-20.1 12.8-35.1v-13.6l-24.1 1c-19.4.9-33.2 4-41.5 9.1s-12.4 13.1-12.4 23.9c0 8.6 2.6 15.3 7.9 20.1 5.4 4.8 12.9 7.2 22.5 7.2zm81.7-129.1h12.9l29.2 77.4c8.9 23.8 14.5 39.8 16.9 48.1h.8c3.6-10.9 9.4-27.2 17.4-48.9l29.2-76.7h12.9l-61.8 160.3c-5 13-9.2 21.8-12.6 26.4-3.4 4.6-7.3 8-11.9 10.3-4.5 2.3-10 3.4-16.4 3.4-4.8 0-10.2-.9-16.1-2.7v-10.9c4.9 1.4 10.2 2 15.9 2 4.3 0 8.1-1 11.4-3s6.3-5.2 9-9.5 5.8-11 9.3-20.3 5.8-15.3 6.8-18.1l-52.9-137.8zm155 138h-12.6V159.4h12.6v197.5zm44.4-176.3c0-8.1 2.7-12.2 8-12.2 2.6 0 4.7 1.1 6.2 3.2s2.2 5.1 2.2 9c0 3.8-.7 6.8-2.2 9s-3.5 3.3-6.2 3.3c-5.3 0-8-4.1-8-12.3zm14.4 176.3h-12.6v-138h12.6v138zm58.5-60.6l70.5-77.4h15.2l-54.3 58.9 59 79.1h-15.1l-52.4-69.7-22.6 20.6v49.1h-12.6V159.4h12.6v99l-.9 38h.6v-.1zm169.2 63.1c-20.1 0-35.7-6.2-46.9-18.5-11.2-12.4-16.8-29.7-16.8-51.9 0-22 5.4-39.6 16.2-52.9 10.8-13.2 25.4-19.9 43.8-19.9 16.2 0 29.1 5.7 38.5 17s14.1 26.7 14.1 46.2v10.2h-99.4c.2 19 4.6 33.4 13.3 43.4 8.7 10 21.1 15 37.3 15 7.9 0 14.8-.5 20.8-1.7 6-1.1 13.5-3.5 22.7-7.1v11.4c-7.8 3.4-15 5.7-21.6 6.9s-14 1.9-22 1.9zm-3.7-132c-13.3 0-24 4.4-32 13.1-8 8.8-12.7 21.4-14.1 37.9h85.3c0-16-3.5-28.5-10.4-37.5s-16.5-13.5-28.8-13.5z"/></svg>