<svg id="Layer_1" xmlns="http://www.w3.org/2000/svg" viewBox="397 150.1 1579 493.9"><style>.st0{fill:#29763A;} .st1{fill:#206131;} .st2{fill:url(#SVGID_1_);} .st3{fill:#309044;}</style><path class="st0" d="M596.9 159.8L764 283.5c20.8 15.4 23 45.6 4.8 63.9L642.7 374l-245.2 14.8 127.1-214.4c15-25.3 48.6-32.1 72.3-14.6z"/><path class="st1" d="M397.8 389.1l244.6-15.4 129.9-30.4c14.3-18.4 11.1-45.6-8.3-59.9l-134.2-99.3-232 205z"/><linearGradient id="SVGID_1_" gradientUnits="userSpaceOnUse" x1="539.574" y1="847.049" x2="756.414" y2="537.786" gradientTransform="translate(0 -302.116)"><stop offset="0" stop-color="#1F8142"/><stop offset="1" stop-color="#309044"/></linearGradient><path class="st2" d="M883.7 412l-232 232L397 389.3l305.9-226.1c26.1-19.3 63.2-11.8 79.8 16.1l107.4 181.3c9.9 16.6 7.2 37.8-6.4 51.4z"/><path class="st3" d="M1145.3 322.6c0 22.6-7.9 40.1-23.6 52.2-15.8 12.1-38.1 18.1-66.9 18.1h-37.1v97H1001V255.2h58.6c57.1 0 85.7 22.5 85.7 67.4zm-127.5 56.1h32.9c27 0 46.5-4.3 58.5-13s18.1-22.9 18.1-42.5c0-18.1-5.7-31.5-17.1-40.2-11.4-8.7-28.9-13-52.8-13h-39.7l.1 108.7zm283.8 111.2l-4.1-27.6h-1.3c-8.9 11.3-18.2 19.2-27.6 23.9-9.4 4.7-20.7 7-33.6 7-17.4 0-31.1-4.4-40.8-13.2s-14.6-20.9-14.6-36.4c0-17.1 7.2-30.2 21.7-39.7 14.5-9.4 35.4-14.4 62.9-14.9l34-1v-11.5c0-16.6-3.5-29.1-10.3-37.6-6.8-8.5-18-12.6-33.3-12.6-16.5 0-33.6 4.6-51.3 13.5l-6.1-13.8c19.5-9 38.9-13.5 58-13.5 19.5 0 34.2 4.9 43.9 14.9 9.7 10 14.5 25.4 14.5 46.5v116h-12zm-65.6-11.3c19 0 34-5.3 45-15.9s16.5-25.4 16.5-44.4v-17.2l-31.1 1.3c-25.1 1.1-42.9 5.1-53.6 11.5-10.7 6.5-16 16.6-16 30.2 0 10.9 3.4 19.4 10.2 25.4 6.9 6.1 16.6 9.1 29 9.1zm105.5-163.2h16.7l37.7 97.9c11.5 30.1 18.7 50.3 21.8 60.8h1c4.7-13.8 12.1-34.4 22.5-61.8l37.7-97h16.7L1415.8 518c-6.5 16.4-11.9 27.6-16.3 33.4-4.4 5.8-9.4 10.1-15.4 13-5.8 2.9-12.9 4.3-21.2 4.3-6.2 0-13.2-1.1-20.8-3.4v-13.8c6.3 1.8 13.2 2.5 20.5 2.5 5.6 0 10.5-1.3 14.7-3.8s8.1-6.6 11.6-12 7.5-13.9 12-25.7c4.5-11.8 7.5-19.4 8.8-22.9l-68.2-174.2zm200.2 174.5h-16.3V240.1h16.3v249.8zm57.4-221.1c0-9 3.5-13.6 10.3-13.6 3.4 0 6.1 1.2 8 3.6 1.9 2.3 2.8 5.7 2.8 10 0 4.2-.9 7.6-2.8 10-1.9 2.5-4.5 3.7-8 3.7-6.8 0-10.3-4.6-10.3-13.7zm18.6 221.1h-16.3V315.4h16.3v174.5zm75.6-76.7l91.1-97.9h19.6l-70.1 74.5 76.2 100h-19.5l-67.7-88.2-29.2 26.1v62.1h-16.3V240.1h16.3v125.2l-1.2 48.1h.8v-.2zm218.5 79.9c-26 0-46.1-7.8-60.6-23.4-14.5-15.7-21.7-37.6-21.7-65.6 0-27.8 7-50.1 20.9-66.9 14-16.7 32.8-25.2 56.6-25.2 20.9 0 37.6 7.2 49.7 21.5 12.1 14.3 18.2 33.8 18.2 58.4v12.9h-128.4c.3 24 5.9 42.2 17.2 54.9 11.2 12.6 27.3 19 48.2 19 10.2 0 19.1-.6 26.9-2.2 7.8-1.4 17.4-4.4 29.3-9v14.4c-10.1 4.3-19.4 7.2-27.9 8.7-8.5 1.6-18 2.5-28.4 2.5zm-4.7-167c-17.2 0-31 5.6-41.3 16.6-10.3 11.1-16.4 27.1-18.2 47.9h110.2c0-20.2-4.5-36-13.4-47.4-9.1-11.4-21.5-17.1-37.3-17.1z"/></svg>