<svg width="129" height="24" xmlns="http://www.w3.org/2000/svg" viewBox="0 0 761.29 141.73">
    <path fill="#EF5423" d="M208 84.7h-11.6v42.7h-19.2V14.2h33c24 0 42 11.2 42 34.3 0 23.6-16.7 36.2-44 36.2zm.8-55.4h-12.4v40.3h12c17 0 24.3-7 24.3-20.6 0-12.2-6.8-19.7-24-19.7zm57.8 98h-19.2l43.2-113H309l44 113h-20.8l-8.8-24.2h-48l-8.8 24.4zM306 55.2c-3.5-9.4-6.6-19.4-6.6-19.4h-.3s-2.8 10.2-6.4 19.5L281 87.5h36.6L306 55zm83.8 29.5v43h-19.2v-43L333 14.2h21.3L381 66.7h.2L408 14.2h18.6l-36.8 70.3zm93 43l-23-65.5-5.2-16h-.3s-.7 8.8-1.5 16.5l-8 65h-17.5l15.4-113h18.6l25 73c3.4 9 6.4 20 6.4 20h.4s3.3-11 6.5-20l25.5-73h18.5l15.5 113h-19.6L531 62.2c-1-7.7-1.8-16-1.8-16h-.3s-2.5 8.3-5 16l-22.6 65.5h-18.7zm93.7 0v-113h19.2v113h-19.2zm40 0v-113h19v97.4H679v15.6h-62.4zm82.4 0v-113h19v97.4h43.3v15.6H699zM80.5 40c0-2.6-2-4.6-4.4-4.6H53.6c-3.3 0-6.2 1.8-7.7 4.5L.3 135.4c-.3.6-.4 1.2-.4 1.8 0 2.5 2 4.4 4.4 4.4H27c4 0 7-3.3 8.4-6l44.8-94c.3-.6.4-1.2.4-1.8z"/>
    <path fill="#EF5423" d="M134.6 53c0-.5 0-1-.3-1.6L113.3 6c-1.5-3.4-4.5-6-8.4-6H82.2C79.8 0 78 2 78 4.4c0 .7 0 1.3.2 1.8L99.5 51s.5 1.4.5 2.2c0 .7-.2 1.4-.5 2l-21.3 45c-.2.4-.3 1-.3 1.7 0 2.3 1.8 4.3 4.3 4.3H105c3.8 0 6.6-2.6 8.2-6l21-45.4c.3-.6.5-1.2.4-1.8z"/>
</svg>
