<svg xmlns="http://www.w3.org/2000/svg" viewBox="0 0 761.29 141.73"><g fill="#EF5423"><path d="M208.1 84.7h-11.73v42.66h-19.2V14.17h33.14c23.79 0 41.81 11.22 41.81 34.33-.01 23.62-16.66 36.2-44.02 36.2zm.68-55.4h-12.41v40.28h11.9c17.17 0 24.47-6.97 24.47-20.57 0-12.24-6.8-19.71-23.96-19.71zm57.82 98.06h-19.2l43.17-113.19h18.52l44.02 113.19h-20.9l-8.84-24.3h-47.92l-8.85 24.3zm39.25-72.23c-3.4-9.52-6.45-19.54-6.45-19.54h-.34s-2.89 10.2-6.46 19.54c0 0-11.56 32.29-11.73 32.29h36.71l-11.73-32.29zm83.99 29.4v42.83h-19.2V84.53L332.9 14.17h21.41L381 66.69h.17l26.68-52.51h18.7l-36.71 70.35zm92.84 43.03l-22.94-65.6c-2.55-7.64-5.1-15.97-5.1-15.97h-.34s-.68 8.83-1.53 16.48l-7.99 65.09h-17.51l15.47-113.18h18.53l25.15 73.08c3.23 9 6.29 20.05 6.29 20.05h.34s3.23-11.05 6.46-20.05L525 14.37h18.52l15.47 113.18h-19.55l-8.33-65.43c-1.02-7.81-1.87-16.14-1.87-16.14h-.34s-2.38 8.33-4.93 15.97l-22.6 65.6-18.69.01zm93.85 0V14.38h19.2v113.18h-19.2zm39.87 0V14.38h19.2v97.55h43.17v15.63H616.4zm82.52 0V14.38h19.21v97.55h43.16v15.63h-62.37zM80.6 39.86c0-2.45-1.98-4.43-4.43-4.43H53.59c-3.28 0-6.24 1.73-7.67 4.43L.38 135.53c-.24.54-.38 1.14-.38 1.77 0 2.45 1.98 4.43 4.43 4.43H27c3.88 0 7.11-3.31 8.38-5.97l44.85-94.12h-.01c.24-.55.38-1.15.38-1.78z"/><path d="M134.64 53.15c0-.62-.13-1.21-.36-1.75L113.25 5.97l-.01-.01C111.76 2.65 108.75 0 104.87 0H82.29c-2.45 0-4.43 1.98-4.43 4.43 0 .63.14 1.23.38 1.78h-.01l21.23 44.81s.55 1.37.55 2.13c0 .76-.21 1.47-.55 2.09v.04l-21.22 44.81c-.24.55-.38 1.14-.38 1.78 0 2.45 1.98 4.43 4.43 4.43h22.58c3.88 0 6.73-2.65 8.36-5.96l.01-.01 21.04-45.43v-.01c.24-.53.37-1.12.36-1.74z"/></g></svg>