<svg id="Layer_1" xmlns="http://www.w3.org/2000/svg" viewBox="0 0 741.3 213.6"><style>.st0{fill:#30302F;} .st1{fill:#05A44C;}</style><path class="st0" d="M560.4 172.2l31.2-80.5h-27.9V68.2h73.1l-30.3 80.4h30.6v23.6zM287.1 58.6c-2.5 0-5 .4-6.9 1v43.6c4.2.4 4.8.4 6.2.4 13.7 0 18.9-8.7 18.9-22.8-.1-14.1-4.9-22.2-18.2-22.2m-.8 66.5c-1.5 0-2.3 0-6.2-.4v47.5h-37.2V45.1c11.4-4.8 26.4-7.9 43.8-7.9 39.7 0 54.8 20.1 54.8 43.8 0 25-17 44.1-55.2 44.1M407.2 120.7c-16.8 1.7-23.9 7.3-23.9 18.5 0 10.2 5.8 15 16 15 3.3 0 6-.4 7.9-1.4v-32.1zm-9.4 53.8c-32 0-48.6-11.2-48.6-33.8 0-26 26.8-33.8 58.1-36.6v-3.9c0-7.9-5.4-11.4-15.6-11.4-9.8 0-21.2 3.1-28.7 6.6l-7.7-21.2c11.4-4.6 27.4-8.3 42.2-8.3 26.8 0 44.2 10.8 44.2 40.1v60.6c-9.4 4.6-24.6 7.9-43.9 7.9M506.2 213.6H468l17.4-41.5-34.9-104H490l10.8 55.4c1.2 6.4 1.7 10.8 2.3 17.7h.4c.8-6.8 1.3-11.2 2.9-17.7l12.7-55.4h35.5l-48.4 145.5zM707 120.7c-16.8 1.7-23.9 7.3-23.9 18.5 0 10.2 5.8 15 16 15 3.3 0 6-.4 7.9-1.4v-32.1zm-9.5 53.8c-32 0-48.6-11.2-48.6-33.8 0-26 26.8-33.8 58.1-36.6v-3.9c0-7.9-5.4-11.4-15.6-11.4-9.8 0-21.2 3.1-28.7 6.6L655 74.2c11.4-4.6 27.4-8.3 42.2-8.3 26.8 0 44.2 10.8 44.2 40.1v60.6c-9.4 4.6-24.6 7.9-43.9 7.9"/><path class="st1" d="M114.2 97.1c-8.7 3.6-19.2 5.7-30.4 5.7-4.7 0-8.9-.4-12.5-1.1-19.7-3.8-23.9-17.2-23.9-33.2 0-16.3 9.8-31.5 35.8-32.6 34-1.4 55.9 13.7 55.9 32.6-.2 12-10 22.5-24.9 28.6m46.4-70.2C144.3 10.6 118.4 0 89.3 0 47.2 0 13 18.3 2.5 51.8 1.2 57.9.4 64.2.1 70.6 0 72.1 0 73.5 0 74.9c0 53.4 39.1 98 86.5 98.2.5 0 3.5 0 3.5-1.3 0-1-4-2.1-4-2.1-14-4-25-13.8-28.5-27.9-.4-1.6-.7-3.3-.9-5 0-.2 0-.4-.1-.5-.1-5 0-5.3 5.3-4 .1 0 .1 0 .2.1.9.2 1.9.4 2.8.7 7.7 1.6 15.8 2.5 24.2 2.5 16.9 0 32.6-3.5 46.1-9.7 14.7-6.7 26.6-16.6 34.2-28.3 5.8-9 9-19 9-29.7.3-15.5-6.4-29.6-17.7-41"/></svg>