<svg width="107" height="31" xmlns="http://www.w3.org/2000/svg" viewBox="0 0 741.3 213.6">
    <path fill="#30302F" d="M560.4 172.2l31.2-80.5h-28V68.2H637l-30.3 80.4H637v23.6zM287 58.6c-2.4 0-5 .4-6.8 1v43.6c4.2.4 4.8.4 6.2.4 13.7 0 19-8.7 19-22.8-.2-14-5-22.2-18.3-22.2m-.7 66.5c-1.5 0-2.3 0-6.2-.3v47.5h-37v-127c11.3-5 26.3-8 43.7-8 39.7 0 54.8 20 54.8 43.8 0 25-17 44-55.2 44m121-4.3c-17 1.7-24 7.3-24 18.5 0 10.2 5.8 15 16 15 3.3 0 6-.4 8-1.4v-32zm-9.5 53.8c-32 0-48.6-11.2-48.6-33.8 0-26 26.8-33.8 58-36.6v-3.8c0-8-5.3-11.4-15.5-11.4-9.8 0-21.2 3-28.7 6.6l-7.7-21.2c11.4-4.6 27.4-8.3 42.2-8.3 26.8 0 44.2 10.7 44.2 40v60.6c-9.4 4.6-24.6 8-44 8m108.5 39H468l17.4-41.5-35-104H490l10.8 55.5c1.2 6.4 1.7 10.8 2.3 17.7h.5c.8-6.8 1.3-11.2 3-17.7L519 68h35.6l-48.4 145.6zm200.8-93c-16.8 1.8-24 7.4-24 18.6 0 10.2 6 15 16 15 3.4 0 6-.4 8-1.4v-32zm-9.5 54c-32 0-48.6-11.3-48.6-34 0-26 26.7-33.7 58-36.5v-3.8c0-8-5.4-11.4-15.6-11.4-9.8 0-21.2 3-28.7 6.6L655 74.2c11.4-4.6 27.4-8.3 42.2-8.3 26.8 0 44.2 10.7 44.2 40v60.6c-9.4 4.6-24.6 8-44 8"/>
    <path fill="#05A44C" d="M114.2 97c-8.7 3.7-19.2 5.8-30.4 5.8-4.7 0-9-.4-12.5-1-19.7-4-24-17.3-24-33.3 0-16.3 10-31.5 36-32.6 34-1.5 55.8 13.6 55.8 32.5 0 12-10 22.5-24.8 28.6m46.4-70C144.3 10.5 118.4 0 89.3 0 47.3 0 13 18.3 2.5 51.8c-1.3 6-2 12.4-2.4 18.8V75c0 53.3 39 98 86.5 98 .5 0 3.5 0 3.5-1.2 0-1-4-2-4-2-14-4-25-14-28.5-28l-1-5v-.5c0-5 0-5.3 5.3-4h.2l2.8.8c7.7 1.7 15.8 2.6 24.2 2.6 17 0 32.6-3.5 46-9.7 14.8-6.8 26.7-16.7 34.3-28.4 5.8-9 9-19 9-29.7.3-15.6-6.4-29.7-17.7-41"/>
</svg>
