<svg xmlns="http://www.w3.org/2000/svg" viewBox="0 0 1135 111">
  <path fill="#223A80" d="M.8 110.4V.4h88.6c8.3 0 14.2 1.7 17.8 5 3.6 3.4 5.5 8.8 5.5 16.3v24.5c0 7.4-1.8 12.8-5.5 16.2-3.6 3.4-9.6 5-17.8 5H19.2v43H.8zm81.5-95.7h-63V53h63c4.5 0 7.6-.8 9.3-2.5 1.7-1.7 2.5-4.7 2.5-9V26.4c0-4.2-.7-7.2-2.4-9-1.7-1.7-4.8-2.6-9.3-2.6zM160.6 110.4V20h91v13.5h-74v23.2H222V70h-44.4v27h74.7v13.3h-91.7M309.5 38.2l1 8 .2 8v56.2H295V20h13l66.3 59c2 1.8 3.8 3.6 5.6 5.6 1.7 2 3.4 4.3 5.2 7-.5-2.8-.8-5.5-1-8.3-.3-2.8-.5-5.7-.5-8.6V20.2h15.7v90.3h-11.7L320 50.7c-2.3-2.2-4.3-4.3-6-6.3-1.6-2-3.2-4-4.5-6.2zM531.5 33.5h-63.3V57h58c8.4 0 14 1.4 17.2 4.3 3 3 4.6 8.6 4.6 17V89c0 8.3-1.5 14-4.5 17-3 2.8-8.8 4.3-17.4 4.3h-54.8c-8.6 0-14.4-1.5-17.5-4.4-3-3-4.6-8.7-4.6-17v-2.5l15.7-3.2v13.4h68V71.3h-58c-8.5 0-14.3-1.5-17.4-4.4-3-3-4.6-8.7-4.6-17v-8.5c0-8.3 1.5-14 4.6-17 3-3 8.8-4.4 17.4-4.4H525c8.3 0 14 1.6 17.3 4.5 3.2 3 4.8 8 4.8 15.4v2l-15.4 3.4v-12zM596 41.5c0-8.3 1.7-14 4.8-17 3-3 9-4.4 17.5-4.4h65.2c8.5 0 14.4 1.6 17.5 4.6 3 3 4.7 8.7 4.7 17V89c0 8.3-1.5 14-4.6 17-3 3-8.8 4.4-17.4 4.4h-65.2c-8.7 0-14.5-1.5-17.6-4.4-3-3-4.6-8.6-4.6-17V41.6zm17 55.3h75.5V33.6H613v63.2zM763.5 110.4V.4H852c8.4 0 14.3 1.7 18 5 3.5 3.4 5.4 8.8 5.4 16.3v24.5c0 7.4-1.8 12.8-5.5 16.2-3.7 3.4-9.7 5-18 5h-70v43h-18.5zM845 14.7h-63V53h63c4.4 0 7.5-.8 9.2-2.5 1.7-1.7 2.5-4.7 2.5-9V26.4c0-4.2-.8-7.2-2.5-9-1.6-1.7-4.7-2.6-9.3-2.6zM893 110.4L945.2 20h15.6l53.5 90.4h-18.5l-11.8-21h-62.4l-11.5 21h-17zm35.8-34h48l-24-43-24 43zM1071 110.4V71l-47-51h20.7l36 39.2 34.3-39h20L1088 71v39.4"/>
</svg>
