<svg viewBox="0 0 564 148" xmlns="http://www.w3.org/2000/svg"><defs><linearGradient x1="20.31%" y1="-265.18%" x2="63.73%" y2="167.24%" id="a"><stop stop-color="#00A8CF" offset="0%"/><stop stop-color="#223A80" offset="100%"/></linearGradient><linearGradient x1="26.93%" y1="-175.69%" x2="76.35%" y2="276.13%" id="b"><stop stop-color="#00A8CF" offset="0%"/><stop stop-color="#223A80" offset="100%"/></linearGradient><linearGradient x1="21.92%" y1="-192.34%" x2="122.23%" y2="527.77%" id="c"><stop stop-color="#00A8CF" offset="0%"/><stop stop-color="#223A80" offset="100%"/></linearGradient><linearGradient x1="4.88%" y1="-448.37%" x2="54.77%" y2="75.27%" id="d"><stop stop-color="#00A8CF" offset="0%"/><stop stop-color="#223A80" offset="100%"/></linearGradient><linearGradient x1="39.5%" y1="-46.2%" x2="114.69%" y2="707.67%" id="e"><stop stop-color="#00A8CF" offset="0%"/><stop stop-color="#223A80" offset="100%"/></linearGradient><linearGradient x1="35.09%" y1="-27.6%" x2="75.49%" y2="251.54%" id="f"><stop stop-color="#00A8CF" offset="0%"/><stop stop-color="#223A80" offset="100%"/></linearGradient><linearGradient x1="29.75%" y1="-87.44%" x2="66.2%" y2="169.43%" id="g"><stop stop-color="#00A8CF" offset="0%"/><stop stop-color="#223A80" offset="100%"/></linearGradient><linearGradient x1="25.08%" y1="-177.5%" x2="61.73%" y2="104.13%" id="h"><stop stop-color="#00A8CF" offset="0%"/><stop stop-color="#223A80" offset="100%"/></linearGradient><linearGradient x1="8.72%" y1="-373.94%" x2="54.33%" y2="41.92%" id="i"><stop stop-color="#00A8CF" offset="0%"/><stop stop-color="#223A80" offset="100%"/></linearGradient></defs><g fill="none" fill-rule="evenodd"><path d="M4.1 69c.1-.1 0 1.8 2.1 3.7 2 2 5.8 3.7 10.5 5.2 9.4 3 22.8 5 36.9 5.9 28.3 2.1 59.5-.7 70.7-2.5 11.1-1.7 25.2-3.7 33.3-9.3 4.5-2.9.7-6.8-2-8.4-2.7-1.8-4.5-2.7-4.3-3 .1-.2 2.1.1 5.2 1.5 1.5.7 3.4 1.8 5 3.9 1.9 2.4.5 6.5-1.8 8.3-9.4 7.4-23.3 9.4-34.8 11.3-11.6 1.9-43.1 3.6-71.5.4-14.2-1.5-27.5-4-36.9-7.4C11.7 76.9 8 75 6 72.9c-2.1-2.1-1.8-4-1.9-3.9z" fill="url(#a)"/><path d="M13.9 34.8c-.8.3 2.4 5.9 11.6 8 8.6 2.6 20.8 4.3 33.7 5 25.8 1.7 54.1-1.2 64.3-3.2 5.1-.9 10.7-1.9 15.9-3.5 4.8-1.4 11.1-4.3 10.3-7.1-4.9-6.3-13.8-7.7-13-8.5.1-.3 1.9-.1 4.8.7 2.8 1.1 7.5 1.4 11 6.7 1.4 3.7-1.7 6.9-3.9 8.3-2.5 1.7-5.2 2.7-7.9 3.8-5.5 1.9-11.2 3.1-16.5 4-10.5 2-39.3 3.8-65.2 1-12.9-1.3-25.1-3.6-33.7-6.6-4.3-1.5-7.7-3.3-9.5-5.1-2.1-1.9-1.8-3.6-1.9-3.5z" fill="url(#b)"/><path d="M47.5 8.5c-1.8 2 10.6 5.9 24.1 5.2 13.5 0 28.2-2.4 33.5-3.7 2.6-.6 5.5-1.2 8.1-2.1 2.6-.7 5.2-2.6 4.6-2.8-2.2-2.7-7.1-3.8-6.6-4.4.1-.1 4-1.6 9.2 2.9 1.6 2.1-.4 4.9-1.6 5.6-1.3 1.1-2.8 1.8-4.2 2.4-2.9 1.3-5.9 2.1-8.7 2.7-5.6 1.3-20.8 2.7-34.5 1.6-13.5-.4-25.8-5.5-23.9-7.4z" fill="url(#c)"/><path d="M146.4 98.5c-.1.1 1.3.5 3.1 2.1 2.5 1.2 2.7 6.4-1.6 8.5-7.3 4.7-18.8 7.2-30.8 9.1-24.1 3.7-51.1 3-61 2-9.9-.9-21.6-2.8-30.4-6-4.4-1.6-8.1-3.5-10.3-5.7-2.3-2.2-1.9-4.5-1.7-4.4-.3.5 3.6 5.2 12.9 7.1 8.7 2.3 20.1 3.7 29.9 4.6 9.7 1 36.3 2.8 60.3.2 11.9-1.3 23.4-3.3 30.7-7.5 4.2-1.9 4.1-6.4 1.8-7.8-1.6-1.6-3-2.1-2.9-2.2z" fill="url(#d)"/><path d="M37.8 14.1c3.1 2.1 12.6 4.7 23 4.6 13.5.6 28.3-1.2 33.6-2.2 2.7-.4 5.6-1 8.2-1.8 2.6-.6 5.3-2.4 4.7-2.6-.1-.1-.2-.3-.4-.4-10.2-5.4-21.7-8.4-34-8.4-13.1 0-25.4 3.5-36 9.5.2.5.5.9.9 1.3z" fill="url(#e)"/><path d="M49.5 54.4c25.8 1.7 54.1-1.2 64.3-3.2 5.1-.9 10.7-1.9 15.9-3.5 2.9-.9 6.4-2.3 8.5-3.9-1.5-3-3.2-5.9-5.1-8.7-3.6-1.8-6.6-2.6-6.1-3.1.1-.2 1.7-.1 4.3.5-5.7-7.6-12.8-14-20.9-18.9-.4 1.2-1.4 2.3-2.1 2.7-1.4 1-2.9 1.7-4.3 2.2-3 1.1-6 1.8-8.8 2.3-5.6 1.1-20.9 1.8-34.5.1-12.5-.9-23.6-5.7-24-7.9C23.8 20.4 13.4 31.7 7 45.3c1.9 1.5 4.8 3.1 8.8 4 8.6 2.6 20.8 4.4 33.7 5.1z" fill="url(#f)"/><path d="M43.9 90.4c28.3 2.1 59.5-.7 70.7-2.5 10.1-1.5 22.6-3.3 30.9-7.8.1-1.3.1-2.7.1-4.1 0-2.1-.1-4.1-.3-6.2-2.3-1.5-3.8-2.3-3.7-2.6.1-.2 1.4 0 3.6.8-.8-7.4-2.7-14.4-5.5-20.9-.3.2-.6.4-.8.6-2.5 1.7-5.2 2.7-7.9 3.8-5.5 1.9-11.2 3.1-16.5 4-10.5 2-39.3 3.8-65.2 1C36.4 55.3 24.2 53 15.6 50c-3.7-1.3-6.7-2.8-8.7-4.4C2.6 54.9.2 65.2.2 76c0 2 .1 4 .3 5.9 1.8.9 4 1.8 6.5 2.5 9.4 3.1 22.8 5.1 36.9 6z" fill="url(#g)"/><path d="M43.7 92.6c-14.2-1.5-27.5-4-36.9-7.4-2.4-.8-4.5-1.8-6.2-2.7 1.1 12.5 5.4 24.2 12 34.1 1.3.5 2.8.9 4.5 1.3 8.7 2.3 20.1 3.7 29.9 4.6 9.7 1 36.3 2.8 60.3.2 9.3-1 18.4-2.5 25.4-5 2.4-3.4 4.5-7.1 6.3-11-1.3-1.1-2.2-1.4-2.2-1.5.2.1.4.2.5.3.4.2 1 .5 1.7 1.1 3.2-7 5.4-14.5 6.2-22.4-9 4.9-20.3 6.6-30 8.2-11.5 1.7-43.1 3.4-71.5.2z" fill="url(#h)"/><path d="M110.9 138.1c8.1-4.9 15.1-11.4 20.7-19-6.8 2.7-15.3 4.4-24.1 5.7-24.1 3.7-51.1 3-61 2-9.9-.9-21.6-2.8-30.4-6-.3-.1-.5-.2-.7-.3 9 11.6 21.3 20.4 35.6 24.9 2.7.8 5.3 1.2 7.8 1.3 5.8.5 18.2.9 31 0 7.4-1.8 14.4-4.7 20.8-8.5" fill="url(#i)"/><text fill="#223A80" font-family="Helvetica Neue" font-size="74"><tspan x="176" y="75.65">PENSOPAY</tspan></text><text fill="#000" font-family="Helvetica" font-size="40" font-style="italic" font-weight="260"><tspan x="182.11" y="134.95">simplified payments</tspan></text></g></svg>