<svg xmlns="http://www.w3.org/2000/svg" viewBox="0 0 739.62 149.4"><path fill="#76CAF0" d="M133.33 7.76c-12.14 0-23.53 2.37-33.33 6.51-9.81-4.14-21.19-6.51-33.33-6.51C29.85 7.76 0 29.53 0 56.39c0 1.21.06 2.4.18 3.58.02.2.04.4.07.61 2.91 24.9 31.53 44.45 66.42 44.45 8.31 0 16.26-1.11 23.6-3.14 3.38-.93 6.64-2.06 9.73-3.37 18.36-7.75 31.19-21.71 33.09-37.94.02-.2.05-.4.07-.61H67C69.14 44 81.88 30.29 100.01 22.64c3.1-1.3 6.35-2.43 9.73-3.37 7.34-2.03 15.29-3.14 23.6-3.14 34.6 0 63.04 19.23 66.34 43.84.03.2.05.4.07.61.02-.2.05-.4.07-.61.12-1.18.18-2.38.18-3.58-.01-26.85-29.86-48.63-66.67-48.63z"/><path fill="#3B9ACA" d="M199.74 60.58c-.02-.2-.05-.41-.07-.61-3.3-24.61-31.74-43.84-66.34-43.84-8.31 0-16.26 1.11-23.6 3.14-3.38.93-6.64 2.06-9.73 3.37C81.87 30.29 69.13 44 66.99 59.97h66.16c-.02.2-.04.4-.07.61-1.9 16.23-14.72 30.19-33.09 37.94-3.1 1.3-6.35 2.43-9.73 3.37-7.34 2.03-15.29 3.14-23.6 3.14-34.89 0-63.51-19.55-66.42-44.45-.16 1.38-.25 2.78-.25 4.19 0 26.86 29.85 48.63 66.67 48.63 12.14 0 23.53-2.37 33.33-6.51 9.81 4.14 21.19 6.51 33.33 6.51 36.82 0 66.67-21.77 66.67-48.63 0-1.41-.09-2.81-.25-4.19z"/><path fill="#667077" d="M306.58 44.4c0 4.9-.52 10.08-1.57 15.52-1.05 5.45-2.55 10.7-4.5 15.75s-4.35 9.58-7.2 13.58-6.03 7-9.53 9v.45l19.2-.45-2.55 15.15h-41.55c-10.2 0-17.95-3.17-23.25-9.53-5.3-6.35-7.95-15.47-7.95-27.38 0-8.6 1.07-17.17 3.22-25.73 2.15-8.55 5.25-16.25 9.3-23.1s9.02-12.4 14.93-16.65c5.9-4.25 12.55-6.38 19.95-6.38 5.2 0 9.77.98 13.73 2.92 3.95 1.95 7.25 4.68 9.9 8.18s4.62 7.7 5.93 12.6c1.29 4.92 1.94 10.27 1.94 16.07zm-18 2.55c0-3.3-.2-6.52-.6-9.67-.4-3.15-1.12-5.95-2.17-8.4-1.05-2.45-2.53-4.43-4.42-5.93-1.9-1.5-4.35-2.25-7.35-2.25-4.5 0-8.53 1.85-12.08 5.55-3.55 3.7-6.55 8.32-9 13.88-2.45 5.55-4.33 11.55-5.62 18-1.3 6.45-1.95 12.48-1.95 18.08 0 6.7 1.3 11.95 3.9 15.75s6.45 5.7 11.55 5.7c4.3 0 8.18-1.65 11.62-4.95 3.45-3.3 6.38-7.45 8.78-12.45s4.22-10.47 5.47-16.42c1.24-5.96 1.87-11.59 1.87-16.89zm81 47.55c-.2 1-.43 2.38-.68 4.12-.25 1.75-.52 3.57-.82 5.44-.3 1.88-.58 3.68-.83 5.41s-.43 3.04-.52 3.92h-15.45c.2-1.5.42-3.42.67-5.78.25-2.35.57-4.62.98-6.83h-.3c-1.99 4.2-4.72 7.78-8.19 10.73-3.47 2.95-7.59 4.42-12.36 4.42-3.03 0-5.6-.52-7.72-1.56s-3.81-2.42-5.07-4.16-2.2-3.71-2.8-5.94c-.6-2.23-.91-4.49-.91-6.79 0-1.6.1-3.5.3-5.7.2-2.2.5-4.35.91-6.45l8.47-48h16.27l-8.4 47.85c-.5 2.5-.75 4.9-.75 7.2 0 2.6.52 4.8 1.57 6.6s3.01 2.7 5.9 2.7c1.89 0 3.71-.53 5.45-1.58s3.31-2.47 4.7-4.27 2.59-3.92 3.58-6.38c1-2.45 1.74-5.12 2.24-8.03l7.62-44.1h16.34l-10.2 57.18zm33.75 18.9h-16.2l13.35-76.2h16.2l-13.35 76.2zm18.15-99.9c0 3.2-1 5.9-3 8.1s-4.5 3.3-7.5 3.3c-2.8 0-4.95-.87-6.45-2.62s-2.25-3.77-2.25-6.08c0-3 1-5.67 3-8.02 2-2.35 4.55-3.52 7.65-3.52 2.7 0 4.8.83 6.3 2.48s2.25 3.76 2.25 6.36zm46.8 39.45c-.9-1.1-2.03-1.97-3.38-2.62s-3.13-.97-5.32-.97c-2.9 0-5.5 1.18-7.8 3.52-2.3 2.35-4.28 5.33-5.93 8.92-1.65 3.6-2.9 7.53-3.75 11.78s-1.27 8.23-1.27 11.92c0 4.8.8 8.58 2.4 11.33 1.6 2.75 4.5 4.12 8.7 4.12 1.9 0 3.55-.32 4.95-.97s2.9-1.58 4.5-2.78l4.95 12.9c-2.2 1.8-4.8 3.22-7.8 4.27s-6.1 1.58-9.3 1.58c-4.3 0-7.97-.75-11.02-2.25s-5.58-3.55-7.58-6.15-3.47-5.67-4.42-9.23c-.95-3.55-1.43-7.37-1.43-11.47 0-6.2.8-12.42 2.4-18.68 1.6-6.25 3.9-11.85 6.9-16.8s6.7-8.97 11.1-12.08c4.4-3.1 9.4-4.65 15-4.65 4.5 0 8.07.63 10.72 1.88 2.65 1.25 4.67 2.62 6.07 4.12l-8.69 12.31zm44.25 20.25l18.6 40.2h-17.55l-16.05-36.75h-.3l-6.15 36.75h-15.9L494.83 0h15.9l-12.15 69.3h.3l25.5-32.1h18.9l-30.75 36zM614.37 33c0 6-.82 11.3-2.47 15.9-1.65 4.6-3.97 8.48-6.97 11.63s-6.6 5.55-10.8 7.2c-4.2 1.65-8.85 2.47-13.95 2.47h-12.9l-7.65 43.2h-16.8L561.28 7.2h27c3.5 0 6.83.5 9.97 1.5 3.15 1 5.93 2.55 8.33 4.65s4.3 4.78 5.7 8.02c1.4 3.26 2.09 7.13 2.09 11.63zm-16.5 2.4c0-4.2-1.03-7.52-3.07-9.98-2.05-2.45-5.18-3.67-9.38-3.67h-9.9l-5.85 34.5h10.65c5.4 0 9.67-1.85 12.82-5.55 3.16-3.7 4.73-8.8 4.73-15.3zm67.96 20.55c0 1.9-.13 3.8-.38 5.7-.25 1.9-.58 4-.97 6.3l-5.1 30c-.5 2.8-.95 5.73-1.35 8.78-.4 3.05-.6 5.28-.6 6.67h-13.65c0-.6.05-1.4.15-2.4.1-1 .23-2.05.38-3.15s.3-2.17.45-3.23c.15-1.05.32-1.97.53-2.77h-.3c-1.8 4.2-4.25 7.45-7.35 9.75s-7 3.45-11.7 3.45c-2.1 0-4.12-.35-6.07-1.05-1.95-.7-3.68-1.77-5.18-3.22s-2.7-3.3-3.6-5.55-1.35-4.97-1.35-8.18c0-5.9 1.05-10.82 3.15-14.77 2.1-3.95 4.85-7.12 8.25-9.53 3.4-2.4 7.22-4.12 11.47-5.17 4.25-1.05 8.57-1.58 12.97-1.58h4.5c.4-2.2.65-3.83.75-4.88s.15-1.92.15-2.62c0-6.8-3.05-10.2-9.15-10.2-2.8 0-5.5.7-8.1 2.1s-4.9 3.1-6.9 5.1l-6.6-10.2c3.1-3.2 6.85-5.77 11.25-7.73 4.4-1.95 8.7-2.92 12.9-2.92 7.5 0 12.95 1.88 16.35 5.62 3.39 3.75 5.1 8.98 5.1 15.68zm-22.2 21.3c-2.4 0-4.75.3-7.05.9s-4.35 1.55-6.15 2.85c-1.8 1.3-3.25 3.03-4.35 5.17-1.1 2.15-1.65 4.78-1.65 7.88 0 3 .7 5.18 2.1 6.53 1.4 1.35 3.1 2.03 5.1 2.03 2.3 0 4.35-.65 6.15-1.95 1.8-1.3 3.38-2.97 4.72-5.03 1.35-2.05 2.47-4.3 3.38-6.75.9-2.45 1.55-4.88 1.95-7.27l.75-4.35h-4.95v-.01zm57.74 47.1c-1.7 3.8-3.4 7.22-5.1 10.27-1.7 3.05-3.65 5.67-5.85 7.88-2.2 2.2-4.65 3.9-7.35 5.1-2.7 1.2-5.85 1.8-9.45 1.8-1.8 0-3.4-.13-4.8-.38s-2.65-.58-3.75-.97l3-14.4c1 .6 2.65.9 4.95.9 2.8 0 5-.83 6.6-2.48 1.6-1.65 3.05-3.97 4.35-6.97l4.2-9.75-8.7-78.15h16.8l3.6 58.05h.3l22.8-58.05h16.65l-38.25 87.15z"/></svg>