<svg xmlns="http://www.w3.org/2000/svg" width="138" height="27" viewBox="0 0 739.62 149.4">
  <path fill="#76CAF0" d="M133.3 7.8c-12 0-23.5 2.3-33.3 6.5-9.8-4.2-21.2-6.5-33.3-6.5C29.7 7.8 0 29.5 0 56.4c0 1.2 0 2.4.2 3.6v.6c3 25 31.6 44.4 66.5 44.4 8.3 0 16.2-1 23.6-3 3.4-1 6.6-2.2 9.7-3.5 18.4-7.7 31.2-21.7 33-38 0 0 0-.3.2-.5H67c2-16 15-29.7 33-37.4 3-1.3 6.4-2.4 9.7-3.3 7.4-2 15.3-3.2 23.6-3.2 34.6 0 63 19.6 66.4 44l.3-3.4c0-27-30-48.6-66.7-48.6z"/>
  <path fill="#3B9ACA" d="M199.7 60.6V60c-3.3-24.6-31.8-44-66.4-44-8.3 0-16.2 1.2-23.6 3.3-3.3 1-6.6 2-9.7 3.3C82 30.3 69 44 67 60h66v.6c-1.8 16.2-14.6 30.2-33 38-3 1.2-6.4 2.4-9.7 3.3-7.4 2-15.3 3-23.6 3C31.7 105 3 85.3.2 60.4L0 64.8c0 26.8 29.8 48.6 66.7 48.6 12 0 23.5-2.4 33.3-6.5 9.8 4 21.2 6.2 33.3 6.2 36.8 0 66.7-21.8 66.7-48.6 0-1.4 0-2.8-.3-4.2z"/>
  <path fill="#667077" d="M306.6 44.4c0 5-.5 10-1.6 15.5-1 5.2-2.5 10.4-4.5 15.5s-4.3 9.5-7.2 13.5-6 7-9.5 9v.6L303 98l-2.6 15.3H259c-10.3 0-18-3.2-23.4-9.5-5.3-6.5-8-15.6-8-27.5 0-8.6 1.2-17.2 3.3-25.7 2-8.6 5-16.3 9-23s9-12.5 15-16.8c6-4.2 12.5-6.4 20-6.4 5 0 9.7 1 13.6 3 4 2 7.3 4.6 10 8s4.5 7.8 5.8 12.7c1.3 5 2 10.5 2 16zm-18 2.5c0-3.6-.2-6.8-.6-10-.4-3-1-6-2.2-8.3-1-2.6-2.5-4.6-4.4-6-2-1.6-4.4-2.3-7.4-2.3-4.5 0-8.5 1.8-12 5.5-3.6 3.6-6.6 8.3-9 14-2.5 5.4-4.4 11.4-5.7 18-1.3 6.3-2 12.3-2 18 0 6.6 1.4 12 4 15.7s6.4 5.7 11.5 5.7c4.3 0 8.2-1.7 11.7-5 3.4-3.3 6.3-7.4 8.7-12.4s4.3-10.4 5.5-16.4c1.2-6 2-11.6 2-17zm81 47.3l-.7 4-1 5.6-1 5.4-.5 4H351l.8-6c0-2.2.4-4.5 1-6.7h-.5c-2 4.2-4.7 7.8-8.2 10.7-3.3 3-7.4 4.4-12.2 4.4-3 0-5.5-.7-7.6-1.7s-3.8-2.4-5-4-2.3-3.7-3-6c-.5-2-.8-4.4-.8-6.7 0-1.6 0-3.5.3-5.7 0-2.2.3-4.4.7-6.5l8.5-48h16l-8.3 48c-.4 2.5-.6 5-.6 7 0 2.8.6 5 1.7 6.8s3 2.6 6 2.6c1.7 0 3.6-.5 5.3-1.6s3.3-2.4 4.7-4.2 2.6-4 3.6-6.3c1-2.5 1.7-5.2 2.2-8L363 37h16.5l-10.2 57.3zm33.7 19H387L400.6 37h16.2l-13.4 76.2zm18.2-100c0 3.2-1 6-3 8S414 25 411 25c-2.8 0-5-1-6.5-2.7s-2.2-3.8-2.2-6c0-3 1-5.8 3-8 2-2.5 4.5-3.6 7.6-3.6 2.4 0 4.5.8 6 2.4s2.3 4 2.3 6.7zM468.3 53c-1-1-2-2-3.4-2.7s-3.4-1-5.6-1c-3 0-5.5 1.2-7.8 3.6-2.3 2-4.3 5-6 8.6-1.6 3.6-3 7.5-3.7 11.8s-1.3 8.2-1.3 12c0 4.7.8 8.5 2.4 11.2 1.7 2.8 4.6 4.2 8.8 4.2 1.7 0 3.4-.5 5-1s2.7-1.7 4.3-3l5 13c-2.2 1.8-5 3-8 4.3s-6 1.7-9 1.7c-4.3 0-8-1-11-2.4s-5.6-3.5-7.6-6-3.4-5.8-4.4-9.4c-1-3.6-1.3-7.4-1.3-11.5 0-6.3.8-12.6 2.4-18.8 1.8-6.3 4-12 7-16.8s6.8-9 11-12c4.6-3.3 9.6-5 15-5 4.7 0 8 .8 11 2 2.4 1.3 4.5 2.6 6 4l-8.7 13zm44.2 20.2l18.6 40.2H514l-16-36.8h-.4l-6 36.8h-16L494.8 0h16l-12.2 69.3h.3l25.2-32h19l-31 36zm102-40.2c0 6-1 11.3-2.6 16-2 4.5-4 8.4-7 11.5s-7 5.6-11 7.2c-4 1.7-9 2.5-14 2.5h-13l-7.6 43.2h-16.8L561.3 7.2h27c3.5 0 6.8.5 10 1.5 3 1 6 2.6 8.3 4.7s4.3 4.7 5.7 8c1.4 3.2 2 7 2 11.6zM598 35.4c0-4.2-1.3-7.5-3.3-10-2-2.4-5.2-3.7-9.4-3.7h-10l-5.7 34.5h10.6c5.4 0 9.7-1.8 12.8-5.5 3.3-3.7 5-8.8 5-15.3zM665.6 56c0 2 0 3.8-.3 5.7l-1 6.3-5 30c-.6 2.8-1 5.7-1.5 8.7-.5 3-.7 5.3-.7 6.7h-13.5V111l.5-3 .5-3.4c0-1 .3-2 .5-2.8h-.3c-2 4.2-4.4 7.5-7.5 9.8s-7 3.5-11.7 3.5c-2.2 0-4.2 0-6-1-2-.5-3.8-1.6-5.3-3s-2.7-3.3-3.6-5.6-1.4-5-1.4-8c0-6 1-11 3.2-15 2-4 4.7-7 8-9.4 3.5-2.5 7.4-4.3 11.6-5.3 4.3-1 8.6-1.6 13-1.6h4.5c.4-2 .6-3.6.7-5l.2-2.3c0-6.8-3-10.2-9.3-10.2-2.7 0-5.4.7-8 2s-5 3.2-7 5.2l-6-10.3c3-3.2 7-5.8 11.4-7.7 4.4-2 8.7-3 13-3 7.4 0 12.8 2 16.2 5.7 3.4 3.7 5 9 5 15.7zm-22.2 21.3c-2.4 0-4.7.3-7 1s-4.4 1.4-6.2 2.7c-1.8 1.3-3.2 3-4.3 5.2-1 2-1.7 4.7-1.7 7.8 0 3 .7 5.2 2 6.6 1.5 1.3 3.2 2 5.2 2 2.3 0 4.4-.6 6.2-2 1.8-1.2 3.4-3 4.7-5 1.4-2 2.5-4.3 3.4-6.7.7-2.8 1.3-5 1.7-7.6l.8-4.3h-5zm57.8 47c-1.7 3.8-3.4 7.3-5 10.3-1.8 3-3.8 5.7-6 8-2.2 2-4.6 3.8-7.3 5-2.7 1.2-6 1.8-9.5 1.8-1.8 0-3.4 0-4.8-.4l-3.7-1 3-14.3c1 .6 2.8 1 5 1 3 0 5-1 6.7-2.6 1.6-1.4 3-4 4.4-7l4.4-9.4-8.7-78.2h16.8l3.6 58h.3l22.8-58h16.7l-38.2 87.2z"/>
</svg>
