<svg xmlns="http://www.w3.org/2000/svg" width="101" height="27" viewBox="0 0 101 27">
  <path fill="#234D85" d="M42.8 19.2V8.5H45v1.3c1.2-.8 2.4-1.3 3.6-1.5v2.3c-1.2.3-2.2.6-3 1l-.5.2v7.4h-2m14.3-2h.6V19c-1.8 0-3 .3-4.4.3-1.6 0-2.7-.4-3.4-1.3-.7-.8-1-2-1-4 0-3.8 1.5-5.7 4.6-5.7 2.8 0 4.2 1.6 4.2 5v1.5h-6.6c0 1 .2 1.6.6 2 .3.4 1 .6 2 .6h3zM56 13c0-1-.2-1.7-.5-2-.3-.6-1-.8-1.6-.8-1 0-1.6.2-2 .7-.3.2-.5 1-.5 2H56zm11.4 4.3h.6V19c-1.5 0-3 .3-4.2.3-1.5 0-2.6-.4-3.3-1.3-.7-.8-1-2-1-4 0-3.8 1.5-5.7 4.5-5.7s4.4 1.6 4.4 5v1.5h-6.6c0 1 .2 1.6.6 2 .3.4 1 .6 2 .6h3zM66.2 13c0-1-.2-1.7-.5-2-.3-.6-1-.8-1.7-.8-.8 0-1.3.2-1.7.7-.3.2-.5 1-.5 2h4.4zm4 10.7V8.5h2.2v.7c1-.6 2-1 2.7-1 1.6 0 2.6.5 3.3 1.4.6 1 1 2.3 1 4.3s-.4 3.3-1.2 4c-.6 1-2 1.3-3.5 1.3-.5 0-1.2 0-2-.2v4.6h-2.2zm4.5-13.3c-.6 0-1.3 0-2 .4l-.3.2v6.2c.6.2 1.2.2 2 .2s1.5-.3 2-.8c.2-.6.4-1.5.4-2.8 0-2.3-.7-3.4-2-3.4zm14 1.4v5c0 .2 0 .4.2.6l.5.2v1.8c-1.2 0-2.2-.3-2.8-.8-1 .5-2.3.8-3.4.8-2 0-3-1-3-3.4 0-1 .2-1.8.7-2.3.7-.5 1.6-.8 2.7-1h2.7v-1c0-.4 0-.8-.3-1 0-.3-.4-.4-1-.4-1 0-2 0-3.3.2H81V9c1.4-.5 2.8-.7 4-.7 1.4 0 2.3.3 3 1 .4.4.7 1.3.7 2.5zM84 14.5c-1 0-1.4.6-1.4 1.5 0 1 .4 1.5 1.2 1.5.7 0 1.5 0 2.3-.3l.5-.2v-2.8l-2.4.3zm6-6h2.5l2 8 .5.6c0 .3.2.3.3.4h.5l2.5-8.8h2.5l-4 14.4-.7 2h-2.3l1.6-5.5c-1.4 0-2.4-1-3-2.6L90 8.3"/>
  <path fill="#00A171" d="M29 16v6H16l2-2-1-1-3 3-1 1 1 1 3 3 1-1-2-2h14c.5 0 1-.5 1-1v-7h-2"/>
  <path fill="#234D85" d="M30 3H20l1 1-1 1h9v5H0v13c0 .5.5 1 1 1h10l-1-1 1-1H2v-8h29V4c0-.5-.5-1-1-1"/>
  <path fill="#00A171" d="M18 4l-1-1-3-3-1 1 2 2H1c-.5.2-1 .7-1 1v4h2V5h12l-1 2 1 1 3-3 1-1"/>
</svg>
