<svg xmlns="http://www.w3.org/2000/svg" width="75" height="31" viewBox="8.5 304.2 451.7 187.3">
  <path d="M404.7 391.5c1-14.8 5-21.7 12.5-21.7s11.3 7 12 21.7h-24.5zm55.5 8.8c0-16.5-3.6-29.6-10.7-38.8-7.2-9.3-18-14-31.7-14-28 0-45.6 20.7-45.6 54 0 18.7 4.7 32.7 14 41.6 8.2 8 20 12 35.4 12 14 0 27.2-3 35.5-8.6l-3.4-22.7c-8 4.4-17.6 6.8-28.3 6.8-6.4 0-10.8-1.3-14-4-3.5-3-5.5-7.8-6-14.6H460l.2-11.6zM328 422.7c-2.8 5-7 7.7-11.7 7.7-3.3 0-6.3-.7-9-2V379c5.7-5.8 10.8-6.4 12.6-6.4 8.2 0 12.3 9 12.3 26.8 0 10-1.4 18-4.5 23.3zm27.4-64c-6-7.6-14-11.3-24.4-11.3-9.6 0-18 4-26 12.4l-1.6-10.4h-29v142l33-5.4v-33.3c5 1.6 10.3 2.4 15 2.4 8.2 0 20.2-2 29.5-12 8.7-9.8 13.3-25 13.3-44.8 0-17.4-3.4-30.8-10-39.3zM228 349.4h33.3V453H228V349.5zm17-10.4c9.6 0 17.3-7.8 17.3-17.4 0-9.7-7.6-17.5-17.2-17.5s-17.4 8-17.4 17.7c0 9.6 7.7 17.5 17.5 17.5zm-31 9c-9.3 0-16.8 5-19.7 13.7l-2-12.3h-28.8V453h33v-67c4.2-5 10-7 18-7 1.8 0 3.7 0 6 .5V349c-2.4-.6-4.4-.8-6.4-.8zm-63.4 26l4-24.6h-21v-29.8l-28.5 4.7-4 25-10 1.7-3.8 23H101v48c0 12.5 3.2 21.2 9.7 26.5 5.5 4.4 13.3 6.5 24.4 6.5 8.5 0 13.7-1.5 17.3-2.4v-26c-2 .5-6.5 1.5-9.6 1.5-6.5 0-9.3-3-9.3-10.7V374h17zM56 388.5C46 385 41 382 41 377.7c0-3.7 3-6 8.3-6 10 0 20.4 4 27.4 7.4l4-24.5c-5.6-2.7-17-7-33-7-11 0-20.4 2.8-27 8.3-7 5.7-10.6 14-10.6 24 0 18 11 26 29 32.4 11.8 4.2 15.7 7.2 15.7 11.7 0 4.3-3.7 7-10.5 7-8.5 0-22.4-4.3-31.4-9.7l-4 25c7.7 4.4 22 9 37 9 12 0 21.8-3 28.5-8.2 7.6-6 11.4-14.4 11.4-25.6 0-18.3-11.4-26-29.7-32.5z"/>
</svg>
