<svg xmlns="http://www.w3.org/2000/svg" viewBox="0 0 300 55"><path d="M202.1 0v55h38.3V44.2H215V32.9h23.5V22.1H215V10.7h25.3V0M56.5 0v55h38.3V44.2H69.5V32.9H93V22.1H69.5V10.7h25.3V0m26 0h-13v55h37V43.7h-24V0zM0 11.3h16.7V55h13V11.3h16.7V0H0v11.3zM167.7 0h-13v55h37.1V43.7h-24V0h-.1zm121.8 36.7s.7-.2 1.8-.9c4.4-2.6 6.6-6.8 6.9-12.4.1-2.6.1-5.4 0-8-.4-9.7-6-15.4-20.1-15.4h-24.8v55h13V38.8h11.4l8.6 16.2H300l-10.5-18.3zm-4.2-13.9c-.4 3.5-2.2 5.1-5.8 5.3-.5.1-1.1.1-1.8.1h-11.1V10.6h11.1c.6 0 1.2 0 1.8.1 3.6.3 5.5 1.8 5.8 5.3.2 2.3.2 4.6 0 6.8" fill="#E12B27"/></svg>