<svg viewBox="0 0 299 56" xmlns="http://www.w3.org/2000/svg"><path d="M285.3 22.8c-.4 3.5-2.2 5.1-5.8 5.3-.5.1-1.1.1-1.8.1h-11.1V10.6h11.1c.6 0 1.2 0 1.8.1 3.6.3 5.5 1.8 5.8 5.3.2 2.3.2 4.6 0 6.8zm3.4 14.2c4.4-2.6 8.9-8 9.2-13.6.1-2.6.1-5.4 0-8-.4-9.7-6-15.4-20.1-15.4H253v55h13V38.8h11.4L286 55h13.7l-11-18zM202 0v55h38V44h-25V33h23V22l-23 .1V11h25V0h-38zm-47 0v55h37V44h-24l.065-44H155zm-47 0v55h37V44h-24V0h-13zM58 0v55h38V44H71V33h23V22l-23 .1V11h25V0H58zM17 11v44h13V11h16V0H1v11h16z" fill="#E12B27"/></svg>