<svg width="135" height="18" xmlns="http://www.w3.org/2000/svg" viewBox="473 617.3 1558.7 209.7">
  <path fill="#474D99" d="M688 617.3L664 827h-68c-6-32.2-11.6-69-16.3-110-2.2 17.6-7.2 54.3-15 110H497L473 617.3h52.6l5.7 73.2 5.5 70.8c2-36.6 7-84.6 15-144h56.4c.8 6.2 2.7 29.3 6 69.3l6 79.8c3-50.8 8-100.4 15-149H688zm143.4 0l31 209.7H807l-3-37.7h-19.3l-3.3 37.7h-56L753 617.3h78.4zM802.7 752c-2.8-23.7-5.5-53-8.3-88-5.5 40.2-9 69.5-10.4 88h18.7zm231.6-134.7V827h-47.6l-28.2-95.3V827H913V617.3h45.5l30.4 94.4v-94.4h45.3zm184.5 0V827h-47.6l-28.2-95.3V827h-45.4V617.3h45.4l30.4 94.4v-94.4h45.4zm157 0l31 209.7h-55.5l-3-37.7H1329l-3.3 37.7h-56l27.6-209.7h78.5zM1347 752c-2.7-23.7-5.4-53-8.2-88-5.5 40.2-9 69.5-10.4 88h18.7zm110.5-101s2.2-33.8 36.7-33.8h55.3v42h-37.7V699h33.5v40h-33.5v88h-54.3V651zm200.8-33.7V827H1604V617.3h54.3zm184.4 0V827H1795l-28-95.3V827h-45.5V617.3h45.4l30.3 94.4v-94.4h45.4zm63.3 0h40.6c26.2 0 44 1.2 53.2 3.6 9.2 2.3 16.3 6.3 21 11.8 5 5.5 8 11.7 9 18.5 1.3 6.8 2 20 2 40v73.5c0 18.8-1 31.4-2.7 37.8-1.7 6.3-4.7 11.3-9 15-4.5 3.5-10 6-16.3 7.4-6.4 1.4-16.2 2-29 2H1906V617.4zm54.3 36v138c7.8 0 12.6-1.7 14.4-4.8 1.8-3.2 2.7-11.7 2.7-25.7v-81.5c0-9.5-.3-15.6-1-18.3s-2-4.6-4-6c-2.2-1.2-6.2-1.8-12-1.8z"/>
</svg>
